<svg width="15" height="15" viewBox="0 0 15 15" fill="none" xmlns="http://www.w3.org/2000/svg">
<g clip-path="url(#clip0_2349_67)">
<path d="M14.502 5.56294C14.4745 5.53031 14.4308 5.51645 14.3897 5.52697L13.2768 5.81484C13.2311 5.82665 13.1832 5.80816 13.157 5.76908L12.6734 5.0438C12.6677 5.03531 12.661 5.02757 12.6531 5.02116L12.1966 4.63306C12.1842 4.62254 12.1745 4.60942 12.1675 4.59451L11.5975 3.33565C11.5949 3.32923 11.5916 3.32334 11.5875 3.31792L11.2536 2.84091C11.2528 2.83962 11.252 2.8386 11.2513 2.83757L10.7897 2.12203C10.7742 2.09786 10.7683 2.06856 10.7742 2.04029L10.7878 1.97241C10.7943 1.94003 10.8149 1.91226 10.8439 1.89662C10.8732 1.88094 10.9076 1.87916 10.9382 1.89172L11.0089 1.92102C11.0485 1.93749 11.0942 1.92925 11.1258 1.89996C11.1572 1.87089 11.169 1.82619 11.1562 1.78532L11.0767 1.536C11.0649 1.4985 11.0341 1.4702 10.9955 1.46173L10.2065 1.28619C10.1898 1.28261 10.172 1.28285 10.1556 1.28698L9.52749 1.44398C9.50897 1.44861 9.48946 1.44834 9.47092 1.44295L8.92142 1.28926C8.90112 1.28364 8.88264 1.27233 8.86875 1.25636L8.72634 1.09599C8.70653 1.07387 8.67882 1.06051 8.64926 1.05922L8.30821 1.04203C8.25164 1.03945 8.20181 1.07979 8.19357 1.13607L8.15247 1.41058C8.14784 1.44041 8.13164 1.46712 8.10723 1.48435C8.08254 1.50158 8.05198 1.50826 8.02268 1.50287L7.29817 1.36587C7.25859 1.35817 7.22645 1.33013 7.21389 1.2921L7.16121 1.13402C7.14656 1.09034 7.10619 1.06025 7.06019 1.05873L6.48372 1.03892C6.45003 1.0379 6.41894 1.02146 6.39891 0.994712L6.21205 0.745396C6.19327 0.720464 6.18609 0.688589 6.19201 0.658033C6.1979 0.627183 6.21668 0.600699 6.2434 0.584527L6.29247 0.554966C6.34286 0.524878 6.36059 0.46063 6.33357 0.408716L6.15029 0.0587064C6.12841 0.0175736 6.0832 -0.00557097 6.03694 0.00110871L3.88725 0.304683C3.87826 0.305708 3.8695 0.308286 3.86103 0.311626L3.23314 0.567359C3.22184 0.572222 3.20974 0.5748 3.1974 0.575327L2.79492 0.596392C2.76794 0.597945 2.74277 0.60899 2.72373 0.627769L1.97581 1.35281C1.95888 1.36927 1.94754 1.39057 1.9437 1.41372L1.88458 1.76762C1.87972 1.79874 1.86146 1.82598 1.83501 1.84294L1.17009 2.26394C1.15438 2.2737 1.14129 2.28758 1.13256 2.30376L0.52831 3.39635C0.51829 3.41434 0.513427 3.43438 0.514423 3.45495L0.561181 4.45781C0.561445 4.46654 0.560917 4.47503 0.55913 4.48353L0.474081 4.93048C0.4679 4.96312 0.476894 4.99705 0.498222 5.02277L2.12484 6.95141C2.15185 6.98329 2.19451 6.99714 2.23538 6.98765L2.95579 6.81263C2.96684 6.81005 2.97814 6.80903 2.98972 6.80979L3.9985 6.88022C4.01238 6.88151 4.0265 6.87946 4.04013 6.87536L4.79036 6.63246C4.82607 6.62091 4.86513 6.62836 4.89419 6.65197L5.34885 7.02416C5.37094 7.04188 5.39947 7.05087 5.42801 7.04859L5.84824 7.01337C5.87909 7.01106 5.90941 7.02131 5.932 7.04241C5.95491 7.06321 5.96801 7.0925 5.96801 7.12362V7.53099C5.96801 7.53662 5.96748 7.54204 5.96672 7.54746L5.90194 7.97847C5.89758 8.00879 5.90578 8.04014 5.92535 8.06405L6.39132 8.64079C6.4011 8.65309 6.40828 8.66751 6.41238 8.68268L6.78791 10.1384C6.7933 10.1587 6.79254 10.1801 6.78612 10.1998L6.44352 11.2739C6.43532 11.2996 6.43684 11.3276 6.44763 11.3523L7.03286 12.6628C7.03723 12.6726 7.0403 12.6829 7.04159 12.6939L7.15696 13.5955C7.15954 13.6164 7.16853 13.6359 7.18166 13.6521L7.74451 14.3273C7.76098 14.3473 7.76994 14.372 7.76994 14.398V14.8899C7.76994 14.9215 7.78356 14.9518 7.80773 14.9729C7.83138 14.994 7.86322 15.0032 7.89486 14.9991L8.89028 14.8696L9.72609 14.7534C9.75231 14.7496 9.77648 14.7367 9.79394 14.7164L11.0629 13.2599C11.0752 13.2455 11.0839 13.2278 11.0875 13.209L11.1461 12.9173C11.1518 12.8888 11.1688 12.8633 11.1932 12.8471L11.3266 12.7585C11.3564 12.7382 11.3749 12.705 11.3756 12.669L11.3975 11.7674C11.3983 11.742 11.4078 11.7173 11.4245 11.6981L11.6941 11.387C11.708 11.3711 11.7257 11.3598 11.746 11.3536L12.2934 11.1912C12.3405 11.1773 12.3726 11.1344 12.3726 11.0853V9.98835C12.3726 9.9791 12.3716 9.97007 12.3693 9.96134L12.1025 8.91632C12.0896 8.86593 12.1135 8.81352 12.16 8.79011L12.2505 8.74491C12.267 8.73668 12.2808 8.72484 12.2911 8.71019L13.0858 7.58833C13.0971 7.57215 13.1128 7.55956 13.1305 7.55132L13.7713 7.26424C13.7957 7.2532 13.8155 7.23339 13.8265 7.20899L14.5179 5.67949C14.5354 5.64058 14.5295 5.59535 14.502 5.56294Z" fill="white"/>
<path d="M14.2268 10.4368C14.2096 10.4041 14.1775 10.3821 14.141 10.3782C14.1045 10.3741 14.0682 10.3885 14.0446 10.4167L13.5095 11.0506C13.4987 11.0636 13.4851 11.074 13.4694 11.0806L13.1695 11.212C13.1291 11.2294 13.1034 11.2693 13.1034 11.3133V11.9334C13.1034 11.9427 13.1021 11.9516 13.0998 11.9604L13.0134 12.3061C13.0085 12.3261 13.0093 12.347 13.0155 12.3667L13.2147 12.9841C13.2239 13.0126 13.244 13.0358 13.2707 13.0491C13.2972 13.0623 13.3283 13.0643 13.3561 13.0545L13.7554 12.9154C13.7894 12.9036 13.8154 12.8764 13.8256 12.8422L14.2965 11.2166L14.4057 10.8452C14.4137 10.8179 14.4108 10.7884 14.3977 10.7629L14.2268 10.4368Z" fill="white"/>
</g>
<defs>
<clipPath id="clip0_2349_67">
<rect width="15" height="15" fill="white"/>
</clipPath>
</defs>
</svg>
