<svg width="16" height="16" viewBox="0 0 16 16" fill="none" xmlns="http://www.w3.org/2000/svg">
<path d="M14.0176 8.20839C14.0176 4.90801 11.3421 2.23246 8.04173 2.23243C4.74133 2.23243 2.06577 4.90799 2.06577 8.20839C2.0658 11.5088 4.74135 14.1842 8.04173 14.1842C11.3421 14.1842 14.0175 11.5087 14.0176 8.20839ZM3.87167 9.21093C4.15455 9.12984 4.44961 9.29339 4.53075 9.57625C4.74673 10.3294 5.20109 10.9924 5.82563 11.4655C6.45016 11.9387 7.21123 12.1968 7.99477 12.2009C8.77829 12.205 9.542 11.9549 10.1714 11.4883C10.8009 11.0217 11.2622 10.3637 11.4861 9.61281C11.5702 9.33078 11.8669 9.17032 12.149 9.25438C12.431 9.33847 12.5914 9.63521 12.5074 9.91724C12.2177 10.889 11.6208 11.7406 10.8062 12.3445C9.9916 12.9483 9.00317 13.2719 7.98917 13.2666C6.97519 13.2613 5.99025 12.9274 5.18203 12.3151C4.3738 11.7027 3.78574 10.8449 3.50622 9.87014C3.4251 9.58724 3.58877 9.29205 3.87167 9.21093ZM6.82895 4.95045C7.03901 4.74434 7.37636 4.74744 7.58248 4.95748C7.7886 5.16755 7.7854 5.50502 7.57533 5.71114L7.26088 6.01947L7.57103 6.32221L7.5938 6.34589C7.64512 6.40256 7.68372 6.46973 7.70686 6.54286L7.71024 6.5534C7.79899 6.83399 7.64346 7.13347 7.36288 7.22224C7.14336 7.29169 6.91233 7.21155 6.77964 7.03906L6.49993 6.76611L6.16545 7.09448C5.95538 7.3006 5.61803 7.29738 5.41191 7.08733C5.20579 6.87726 5.209 6.53991 5.41907 6.33379L5.73716 6.02156L5.41998 5.71205C5.20941 5.50648 5.20532 5.16911 5.41087 4.95852C5.61643 4.74792 5.95379 4.74386 6.1644 4.94941L6.49798 5.27505L6.82895 4.95045ZM9.80067 4.92001C10.0107 4.71391 10.3481 4.71713 10.5542 4.92716C10.7603 5.13724 10.7571 5.47472 10.547 5.68083L10.2325 5.98929L10.5426 6.29203L10.5653 6.31545C10.6162 6.37167 10.6547 6.43823 10.6779 6.51073L10.6812 6.52114C10.771 6.80139 10.6167 7.10145 10.3364 7.19127C10.1169 7.26162 9.88527 7.18207 9.75201 7.00966L9.47152 6.7358L9.13703 7.06417C8.92695 7.27025 8.5896 7.26695 8.3835 7.05688C8.17741 6.8468 8.18058 6.50945 8.39066 6.30335L8.70875 5.99124L8.3917 5.68174C8.18109 5.47616 8.17702 5.13881 8.38259 4.92821C8.58817 4.7176 8.92552 4.71352 9.13612 4.9191L9.4697 5.24461L9.80067 4.92001ZM15.0833 8.20839C15.0833 12.0974 11.9307 15.25 8.04173 15.25C4.15274 15.25 1.00003 12.0974 1 8.20839C1 4.31938 4.15272 1.16666 8.04173 1.16666C11.9307 1.16669 15.0833 4.3194 15.0833 8.20839Z" fill="white"/>
</svg>
