<svg width="15" height="15" viewBox="0 0 15 15" fill="none" xmlns="http://www.w3.org/2000/svg">
<g clip-path="url(#clip0_2349_116)">
<path d="M11.876 0.623993V1.24809C11.876 1.67097 12.0916 2.15738 12.5071 2.64241C12.9168 3.12059 13.4742 3.53975 14.0342 3.81976L13.4758 4.93649C12.7812 4.58921 12.0868 4.07041 11.5589 3.45411C11.1705 3.00069 10.845 2.46114 10.7038 1.87218H4.29882C4.1571 2.45985 3.83078 2.99523 3.44245 3.44581C2.91483 4.058 2.22334 4.57355 1.53634 4.93139L0.959473 3.82487C1.52702 3.52927 2.08671 3.10665 2.49673 2.63092C2.9124 2.14864 3.12657 1.66952 3.12657 1.24809V0.623993H11.876Z" fill="white"/>
<path d="M15.0031 3.754V5.00218H0V3.754H15.0031Z" fill="white"/>
<path d="M12.266 3.754L12.4382 4.09987C13.0882 5.40669 13.428 6.0157 14.0323 6.31546L13.4778 7.43347C12.5259 6.96127 12.0176 6.04907 11.4932 5.00218H3.50886C3.26768 5.48136 3.03433 5.92227 2.77692 6.29376C2.44938 6.76643 2.0595 7.16375 1.51789 7.4239L0.978027 6.29887C1.26618 6.16043 1.50401 5.93998 1.75144 5.58289C2.00812 5.21244 2.24858 4.73487 2.56442 4.09987L2.73672 3.754H12.266Z" fill="white"/>
<path d="M15.0031 6.25015V7.49834H0V6.25015H15.0031Z" fill="white"/>
<path d="M4.3749 0V1.24819H3.12671V0H4.3749Z" fill="white"/>
<path d="M11.8764 0V1.24819H10.6282V0H11.8764Z" fill="white"/>
<path d="M13.1245 6.25015V10.0011H1.87866V6.25015H13.1245ZM3.12685 8.75291H11.8763V7.49834H3.12685V8.75291Z" fill="white"/>
<path d="M12.9332 8.75287L14.9606 14.1566L13.7915 14.595L12.0679 10.0011H2.93498L1.21203 14.595L0.0429688 14.1566L2.07032 8.75287H12.9332Z" fill="white"/>
<path d="M15.0031 13.7517V14.9999H0V13.7517H15.0031Z" fill="white"/>
<path d="M8.12578 13.1213C8.12578 12.9558 8.05967 12.7968 7.94264 12.6797C7.82565 12.5629 7.66706 12.4973 7.50169 12.4972C7.41946 12.4972 7.33768 12.5135 7.26175 12.5451C7.18601 12.5766 7.11734 12.6229 7.05946 12.681C7.0015 12.7393 6.95534 12.8085 6.92418 12.8846C6.89301 12.9607 6.87716 13.0423 6.87759 13.1245V13.7518H8.12578V13.1213ZM9.37397 15H5.62941V13.1277C5.62856 12.8822 5.6761 12.6389 5.76916 12.4117C5.86265 12.1835 6.00042 11.9759 6.17437 11.801C6.34834 11.6262 6.55537 11.4873 6.78315 11.3926C7.01088 11.298 7.25507 11.2491 7.50169 11.2491C7.99807 11.2491 8.47412 11.4463 8.82517 11.7972C9.17626 12.1483 9.37397 12.6248 9.37397 13.1213V15Z" fill="white"/>
</g>
<defs>
<clipPath id="clip0_2349_116">
<rect width="15" height="15" fill="white"/>
</clipPath>
</defs>
</svg>
