<svg width="17" height="14" viewBox="0 0 17 14" fill="none" xmlns="http://www.w3.org/2000/svg">
<path d="M12.6796 1.11891L12.4835 1.85071L11.7041 0.811518L10.1121 1.20952L8.4994 0L6.88673 1.20949L5.29467 0.811484L4.52074 1.84347L4.31813 1.08727L0 2.24433L2.98901 13.3994L7.30711 12.2424L7.13492 11.5997L8.49944 11.3268L9.87089 11.6011L9.6906 12.274L14.011 13.3951L17 2.24002L12.6796 1.11891ZM3.77928 12.0307L1.36877 3.0346L3.52783 2.4561L3.72064 3.17581L2.46118 3.51329L2.75045 4.59279L4.00991 4.25531L4.29917 5.33485L3.03975 5.67232L3.32901 6.75185L4.58844 6.41438L4.87771 7.49391L3.61828 7.83139L3.90754 8.91092L5.16697 8.57344L5.45624 9.65298L4.19681 9.99045L4.48607 11.07L5.7455 10.7325L5.93838 11.4522L3.77928 12.0307ZM6.84502 10.518L4.88846 3.21586L5.74358 2.07573L6.5183 2.2694L7.85925 10.3152L6.84502 10.518ZM8.4994 7.35791L7.6163 2.05932L8.4994 1.39699L9.38251 2.05932L8.4994 7.35791ZM9.13956 10.3152L10.4805 2.2694L11.2553 2.07573L12.1158 3.22306L10.1607 10.5194L9.13956 10.3152ZM13.2185 12.0349L11.0617 11.4752L13.4721 2.47921L15.6289 3.03888L13.2185 12.0349Z" fill="white"/>
<path d="M13.8173 3.32116L13.5281 4.40063L14.6076 4.68987L14.8968 3.61039L13.8173 3.32116Z" fill="white"/>
<path d="M13.2394 5.48025L12.9502 6.55972L14.0297 6.84895L14.3189 5.76948L13.2394 5.48025Z" fill="white"/>
<path d="M12.6608 7.63925L12.3716 8.71872L13.4511 9.00795L13.7403 7.92848L12.6608 7.63925Z" fill="white"/>
<path d="M12.082 9.79815L11.7927 10.8776L12.8722 11.1669L13.1614 10.0874L12.082 9.79815Z" fill="white"/>
</svg>
