<svg width="14" height="14" viewBox="0 0 14 14" fill="none" xmlns="http://www.w3.org/2000/svg">
<g clip-path="url(#clip0_2350_174)">
<path d="M13.8901 5.26303L12.7879 3.71999L13.2698 3.23814C13.5006 3.00733 13.5006 2.63305 13.2698 2.40222L11.5979 0.730289C11.487 0.619437 11.3367 0.557148 11.1799 0.557148C11.0232 0.557148 10.8728 0.619465 10.762 0.730289L10.2801 1.21214L8.73706 0.109942C8.50185 -0.0580576 8.17974 -0.0313428 7.97554 0.172997L0.173399 7.97511C-0.030968 8.17942 -0.0575734 8.5015 0.110344 8.73663L1.21254 10.2797L0.730718 10.7616C0.619839 10.8724 0.557578 11.0228 0.557578 11.1795C0.557578 11.3363 0.619839 11.4866 0.730718 11.5975L2.40259 13.2694C2.51801 13.3848 2.6693 13.4425 2.82054 13.4425C2.97178 13.4425 3.1231 13.3848 3.23849 13.2694L3.72034 12.7875L5.26343 13.8897C5.36687 13.9636 5.48718 13.9998 5.60681 13.9998C5.75914 13.9998 5.91054 13.9411 6.02495 13.8267L13.8271 6.02458C14.0314 5.82026 14.0581 5.49815 13.8901 5.26303ZM10.4137 2.7505L10.762 2.40219C10.7621 2.40216 10.7621 2.40211 10.7621 2.40211L11.18 1.98419L12.0159 2.82017L11.5979 3.23812L11.1799 3.65606L11.0407 3.51675L10.344 2.82017L10.4137 2.7505ZM10.3441 4.49204L9.50807 5.32797L8.67209 4.49204L9.50807 3.65612L10.3441 4.49204ZM8.67215 6.16389L7.83617 6.99982L7.00024 6.16389L7.83617 5.32797L8.67215 6.16389ZM8.45739 1.36299L9.43271 2.05963L9.15348 2.33886L7.41852 4.07377C7.41844 4.07385 7.41836 4.07393 7.41825 4.07404C7.41814 4.07412 7.41806 4.07423 7.41797 4.07431L2.40259 9.08967C2.40259 9.08967 2.40257 9.08969 2.40254 9.08969L2.06006 9.43223L1.36342 8.45696L8.45739 1.36299ZM7.00024 7.83577L6.16432 8.67169L5.3284 7.83577L6.16432 6.99984L7.00024 7.83577ZM2.82054 12.0155L1.98462 11.1796L2.82054 10.3436L3.65647 11.1795L2.82054 12.0155ZM3.65644 9.50767L4.49242 8.67175L5.32834 9.50767L4.49236 10.3436L3.65644 9.50767ZM5.5431 12.6367L4.56783 11.94L8.25393 8.25393C8.25401 8.25391 8.25403 8.25383 8.25412 8.25377C8.2542 8.25369 8.25423 8.25366 8.25431 8.25358L11.5979 4.90996L11.9405 4.56743L12.6371 5.54267L5.5431 12.6367Z" fill="white"/>
</g>
<defs>
<clipPath id="clip0_2350_174">
<rect width="14" height="14" fill="white"/>
</clipPath>
</defs>
</svg>
