<svg width="14" height="14" viewBox="0 0 14 14" fill="none" xmlns="http://www.w3.org/2000/svg">
<g clip-path="url(#clip0_2350_180)">
<path d="M13.4984 3.39855C13.078 1.91286 11.8468 1.28086 10.4355 1.52108C9.13591 1.74229 8.45699 3.3624 8.14076 4.34486C8.23482 3.04357 7.99436 1.23394 6.44184 0.388935C4.06963 -0.902264 2.56824 1.4099 2.4181 1.71016C2.26795 2.01045 2.2677 2.06792 2.68833 2.04047C2.81362 2.03227 3.9054 1.72498 4.97679 1.91874L5.48092 1.45378L5.71458 2.10899C6.60226 2.42006 7.31449 3.21721 7.44281 4.41246C6.72263 3.52709 5.61182 2.95706 4.36098 2.95706C2.18608 2.95706 0.423096 4.67214 0.423096 6.78773C0.423096 6.95802 0.426623 6.83582 0.426623 6.83582C0.432721 6.91602 0.485248 6.98523 0.560799 7.01268C0.636322 7.03992 0.721033 7.02042 0.777088 6.96273C0.777088 6.96273 0.820947 6.89445 1.01801 6.71428C1.3652 6.39663 1.74711 6.11677 2.15625 5.87819L2.53042 5.17981L3.03527 5.44794C3.79278 5.14604 4.61899 4.97946 5.48442 4.97946C6.05517 4.97946 6.60929 5.05195 7.13782 5.18776C5.91911 5.10707 4.08226 5.74235 3.35525 7.29323C2.45441 9.215 3.34092 10.7403 3.46903 10.8597C3.57413 10.9576 3.70128 10.8813 3.73576 10.7108C3.81104 10.338 4.01798 9.64127 4.398 8.85981L4.24458 8.24004L4.66709 8.34818C5.19658 7.41447 5.97191 6.43412 7.06861 5.77377C6.22104 7.6411 5.52336 10.3701 6.58654 14H9.19754C9.19754 14 6.54686 11.4326 7.92442 6.16787C8.22377 6.5547 8.60473 7.1161 8.92263 7.79991L9.32447 7.85061L9.14499 8.3315C9.36505 8.92032 9.5234 9.57813 9.54543 10.2821C9.55107 10.4618 9.65946 10.5949 9.7148 10.4771C10.5631 8.6693 10.2963 6.81906 9.10722 5.73948C9.85699 5.98672 10.4697 6.58962 10.9471 7.27931L11.5165 7.40154L11.4104 8.04338C11.81 8.80299 12.0551 9.55511 12.1426 9.98629C12.1771 10.1561 12.2672 10.2669 12.3758 10.0736C13.023 8.92174 13.1066 6.71138 11.9369 5.50137C11.03 4.56348 9.4298 4.50174 8.4443 4.76169C9.09128 3.67388 10.8224 3.59294 10.8224 3.59294C10.8224 3.59294 11.0961 2.96242 11.1562 2.87232C11.2162 2.78225 11.5466 3.48652 11.5466 3.48652L13.2896 4.19849C13.2896 4.19849 13.5134 4.35148 13.557 4.09152C13.5833 3.93457 13.5992 3.69272 13.4984 3.39855Z" fill="white"/>
</g>
<defs>
<clipPath id="clip0_2350_180">
<rect width="14" height="14" fill="white"/>
</clipPath>
</defs>
</svg>
