<svg width="15" height="15" viewBox="0 0 15 15" fill="none" xmlns="http://www.w3.org/2000/svg">
<path d="M12.825 8.23333L10.6875 11.0833H9.18333L6.72917 6.09583L10.6875 4.0375C10.8458 3.95833 11.0042 3.8 11.0833 3.5625C11.0833 3.40417 11.0833 3.16667 11.0042 2.92917C10.925 2.85 10.8458 2.69167 10.8458 2.6125C9.65833 1.02917 7.8375 0 5.9375 0C5.225 0 4.59167 0.0791667 3.95833 0.316667C3.5625 0.475 3.325 0.633333 3.00833 0.791667C2.92917 0.791667 2.92917 0.870833 2.85 0.870833C2.375 1.1875 1.9 1.58333 1.50417 1.97917C0.554167 3.0875 0 4.5125 0 6.01667C0 6.80833 0.158333 7.6 0.475 8.3125C0.554167 8.55 0.7125 8.70833 0.95 8.7875C1.02917 8.7875 1.10833 8.86667 1.1875 8.86667C1.34583 8.86667 1.425 8.86667 1.58333 8.7875L5.38333 6.8875L7.52083 11.1625H2.375C1.9 11.1625 1.58333 11.4792 1.58333 11.9542C1.58333 12.1917 1.74167 12.4292 1.97917 12.5875L1.6625 13.2208C1.50417 13.6167 1.6625 14.0917 2.05833 14.25C2.1375 14.25 2.29583 14.25 2.375 14.25C2.69167 14.25 2.92917 14.0917 3.0875 13.775L3.64167 12.6667H9.81667L10.3708 13.775C10.5292 14.0917 10.7667 14.25 11.0833 14.25C11.1625 14.25 11.3208 14.25 11.4 14.1708C11.7958 14.0125 11.9542 13.5375 11.7167 13.1417L11.4 12.5875C11.4792 12.5083 11.5583 12.5083 11.6375 12.4292L14.0125 9.2625C14.25 8.94583 14.1708 8.39167 13.8542 8.15417C13.6167 7.8375 13.0625 7.91667 12.825 8.23333ZM1.6625 6.8875C1.58333 6.65 1.58333 6.33333 1.58333 6.01667C1.58333 5.30417 1.74167 4.59167 2.05833 4.0375C2.1375 4.75 2.29583 5.54167 2.77083 6.33333L1.6625 6.8875ZM9.10417 3.0875L8.15417 3.5625C7.75833 2.69167 7.125 2.05833 6.4125 1.58333C7.44167 1.74167 8.39167 2.21667 9.10417 3.0875ZM4.11667 5.62083C3.40417 4.35417 3.64167 3.00833 3.87917 2.375C4.67083 2.53333 6.175 2.92917 6.80833 4.275L4.11667 5.62083Z" fill="white"/>
</svg>
