<svg width="21" height="14" viewBox="0 0 21 14" fill="none" xmlns="http://www.w3.org/2000/svg">
<path d="M11.5754 0.965673C11.4569 0.413319 10.9706 0 10.3863 0C9.80204 0 9.31461 0.414401 9.19829 0.965673C7.70137 1.30001 6.44951 2.25919 5.69482 3.55054H15.0957C14.341 2.25648 13.075 1.30109 11.5754 0.965673Z" fill="white"/>
<path d="M19.736 5.07181C19.4752 4.4237 19.0478 4.00551 18.4641 3.82536C17.5303 3.54026 16.4164 3.9552 15.7121 4.30739C15.6471 4.2522 15.5817 4.19702 15.5146 4.14346H5.26007C4.0331 5.10751 3.2584 6.41618 3.17617 7.86387C3.13451 7.73079 3.09773 7.59067 3.06689 7.44677C3.02145 7.21793 2.98412 6.98368 2.96464 6.7451L2.94679 6.54385L2.92298 6.34206C2.8981 6.15704 2.86618 6.00069 2.8137 5.83839C2.71687 5.51813 2.5378 5.19624 2.29435 4.95495C2.04874 4.71259 1.76634 4.54109 1.50504 4.49078C0.235873 4.25004 0 5.35799 0 5.35799C0 5.35799 1.55157 5.08641 1.49585 6.16245C1.50612 6.24089 1.5045 6.33665 1.50071 6.40481C1.49476 6.52762 1.48881 6.65205 1.48178 6.77648C1.46663 7.05942 1.4715 7.35263 1.48989 7.6491C1.53101 8.24311 1.64678 8.86795 1.91187 9.4506C2.17046 10.0311 2.60326 10.5542 3.07879 10.875C3.55216 11.2029 4.02174 11.3441 4.35391 11.4063C4.44263 11.4214 4.52 11.4339 4.59087 11.4415C5.31742 12.2227 6.24035 12.8302 7.17248 13.1624H13.5838C14.7843 12.6987 15.8035 11.9906 16.5122 11.1093C19.2929 9.0151 20.7173 7.5198 19.736 5.07181ZM17.2945 9.77899C17.5038 9.25314 17.6153 8.6943 17.6153 8.1176C17.6153 6.8414 17.0716 5.66419 16.154 4.72233C16.7708 4.43722 17.6228 4.15753 18.3002 4.36635C18.7184 4.49565 19.0181 4.79536 19.2134 5.2828C19.9075 7.01451 19.2929 8.13166 17.2945 9.77899Z" fill="white"/>
</svg>
