<svg width="16" height="16" viewBox="0 0 16 16" fill="none" xmlns="http://www.w3.org/2000/svg">
<path d="M15.5 8H14.5V7C14.5 6.7 14.3 6.5 14 6.5H13V5.5C13 5.2 12.8 5 12.5 5H11.5V4H12.5C12.8 4 13 3.8 13 3.5V2C13 1.7 12.8 1.5 12.5 1.5H11C10.7 1.5 10.5 1.7 10.5 2V3H9.5C9.2 3 9 3.2 9 3.5V5H7V3.5C7 3.2 6.8 3 6.5 3H5.5V2C5.5 1.7 5.3 1.5 5 1.5H3.5C3.2 1.5 3 1.7 3 2V3.5C3 3.8 3.2 4 3.5 4H4.5V5H3.5C3.2 5 3 5.2 3 5.5V6.5H2C1.7 6.5 1.5 6.7 1.5 7V8H0.5C0.2 8 0 8.2 0 8.5V13C0 13.3 0.2 13.5 0.5 13.5H2C2.3 13.5 2.5 13.3 2.5 13V10.5H3V13C3 13.3 3.2 13.5 3.5 13.5H4.5V14.5C4.5 14.8 4.7 15 5 15H7C7.3 15 7.5 14.8 7.5 14.5V13C7.5 12.7 7.3 12.5 7 12.5H5.5V12H10.5V12.5H9C8.7 12.5 8.5 12.7 8.5 13V14.5C8.5 14.8 8.7 15 9 15H11C11.3 15 11.5 14.8 11.5 14.5V13.5H12.5C12.8 13.5 13 13.3 13 13V10.5H13.5V13C13.5 13.3 13.7 13.5 14 13.5H15.5C15.8 13.5 16 13.3 16 13V8.5C16 8.2 15.8 8 15.5 8ZM7 9.5C7 9.8 6.8 10 6.5 10H5C4.7 10 4.5 9.8 4.5 9.5V8C4.5 7.7 4.7 7.5 5 7.5H6.5C6.8 7.5 7 7.7 7 8V9.5ZM11.5 9.5C11.5 9.8 11.3 10 11 10H9.5C9.2 10 9 9.8 9 9.5V8C9 7.7 9.2 7.5 9.5 7.5H11C11.3 7.5 11.5 7.7 11.5 8V9.5Z" fill="white"/>
</svg>
