<svg width="14" height="14" viewBox="0 0 14 14" fill="none" xmlns="http://www.w3.org/2000/svg">
<path d="M12.6 9.1H11.2V10.5C11.2 10.8866 10.8866 11.2 10.5 11.2C10.1134 11.2 9.8 10.8866 9.8 10.5V9.1H8.4V10.5C8.4 10.8866 8.0866 11.2 7.7 11.2C7.3134 11.2 7 10.8866 7 10.5V9.1H6.3V10.5C6.3 10.8866 5.9866 11.2 5.6 11.2C5.2134 11.2 4.9 10.8866 4.9 10.5V9.1H4.2V10.5C4.2 10.8866 3.8866 11.2 3.5 11.2C3.1134 11.2 2.8 10.8866 2.8 10.5V9.1H1.4V9.94014C1.4 10.5396 1.40025 10.9472 1.42598 11.2622C1.45105 11.5691 1.49664 11.7262 1.55244 11.8357C1.68665 12.0991 1.90086 12.3133 2.16426 12.4476C2.27373 12.5033 2.43091 12.5489 2.73779 12.574C3.05282 12.5998 3.46039 12.6 4.05986 12.6H9.94014C10.5396 12.6 10.9472 12.5998 11.2622 12.574C11.5691 12.5489 11.7262 12.5034 11.8357 12.4476C12.0991 12.3134 12.3134 12.0991 12.4476 11.8357C12.5034 11.7262 12.5489 11.5691 12.574 11.2622C12.5998 10.9472 12.6 10.5396 12.6 9.94014V9.1ZM8.4 4.73525C8.39998 2.95079 6.99862 1.49342 5.23633 1.4041L5.06475 1.4H4.9C2.967 1.4 1.4 2.967 1.4 4.9V7.7H12.6C12.6 6.92677 11.9732 6.3 11.2 6.3H9.96475C9.10063 6.3 8.4 5.59943 8.4 4.73525ZM9.8 4.73525C9.8 4.8262 9.87379 4.9 9.96475 4.9H11.2C12.7464 4.9 14 6.15357 14 7.7V9.94014C14 10.5166 14.0007 10.9911 13.9692 11.3764C13.9371 11.7698 13.8682 12.1318 13.6951 12.4715C13.4267 12.9983 12.9983 13.4267 12.4715 13.6951C12.1318 13.8682 11.7698 13.9371 11.3764 13.9692C10.9911 14.0007 10.5166 14 9.94014 14H4.05986C3.48342 14 3.0089 14.0007 2.62363 13.9692C2.23019 13.9371 1.86823 13.8682 1.52852 13.6951C1.00177 13.4267 0.573319 12.9983 0.304884 12.4715C0.131806 12.1318 0.062914 11.7698 0.0307631 11.3764C-0.000714443 10.9911 1.2793e-06 10.5166 1.36483e-06 9.94014V4.9C1.36483e-06 2.1938 2.1938 0 4.9 0H5.06475L5.30811 0.00615234C7.81024 0.132839 9.79998 2.20168 9.8 4.73525Z" fill="white"/>
</svg>
