<svg width="18" height="12" viewBox="0 0 18 12" fill="none" xmlns="http://www.w3.org/2000/svg">
<path d="M4.91768 1.5908V1.60533L3.82809 0.690073C4.65618 0.246973 5.56417 0 6.55206 0C7.53996 0 8.45521 0.246973 9.24698 0.675545L8.15739 1.5908H4.91768ZM10.7216 6.20339C12.5157 6.20339 13.9903 7.67797 13.9903 9.47216V9.79904C13.9758 10.4891 13.4165 11.0339 12.7264 11.0339C12.0363 11.0339 11.477 10.4891 11.4625 9.79904V9.47216C11.4625 9.05812 11.1356 8.7385 10.7288 8.7385C10.0242 8.7385 9.45037 8.16465 9.45037 7.46005C9.45037 6.75545 10.017 6.20339 10.7216 6.20339ZM2.23729 6.17434C2.94189 6.17434 3.51574 6.74819 3.51574 7.45279V9.8063C3.48668 10.4818 2.94189 11.0266 2.25182 11.0266C1.56174 11.0266 1.01695 10.4818 0.987894 9.8063V7.431C0.973366 6.73366 1.54722 6.17434 2.23729 6.17434ZM0 6.83535C0 6.52301 0.101694 6.21792 0.246973 5.96368C0.406778 6.07991 0.588377 6.15255 0.806295 6.15255C0.508474 6.50848 0.334139 6.95158 0.334139 7.431V7.83051C0.101694 7.55448 0 7.20581 0 6.83535ZM8.78935 7.46732C8.78935 7.88136 8.9201 8.24456 9.13076 8.5569C8.28814 8.74577 7.42373 8.85473 6.53753 8.85473C5.70945 8.85473 4.93221 8.76756 4.16223 8.60775V7.44552C4.16223 6.97337 3.9879 6.53027 3.7046 6.21066H9.26151C8.98548 6.55206 8.78935 6.98063 8.78935 7.46732ZM9.27604 6.21792C9.26151 6.21792 9.27604 6.20339 9.27604 6.20339V6.21792ZM0.501211 5.2155C0.501211 5.04116 0.646488 4.87409 0.828087 4.87409H0.871672C1.11864 3.29782 1.99032 1.92494 3.24697 1.06053L4.52543 2.13559C3.82083 2.96368 3.33414 3.8862 3.05085 4.88862H3.74092C4.05327 3.94431 4.56901 3.02906 5.30267 2.28087H7.6925C8.42616 3.04359 8.92737 3.92978 9.25424 4.88862H9.94432C9.66102 3.91526 9.19613 3 8.49879 2.20823L9.84262 1.07506C11.0775 1.96126 11.9782 3.31235 12.2179 4.88862H12.3051C12.4794 4.88862 12.632 5.0339 12.632 5.2155C12.632 5.38983 12.4867 5.54238 12.3051 5.54238H0.842615C0.646488 5.54238 0.501211 5.38983 0.501211 5.2155ZM12.4286 5.93463C12.7845 5.89104 13.0751 5.59322 13.0751 5.2155V4.56901C13.0751 3.21066 14.1647 2.10654 15.5375 2.10654C16.8959 2.10654 18 3.19613 18 4.56901V5.2155C18 5.57143 17.7022 5.86199 17.3535 5.86199H15.5739C15.4141 6.69008 14.9564 7.36562 14.2954 7.8523C13.9177 7.00969 13.2567 6.34867 12.4286 5.93463ZM16.5981 4.11138C16.816 4.11138 17.0121 3.93705 17.0121 3.69734C17.0121 3.47942 16.8378 3.28329 16.5981 3.28329C16.3584 3.28329 16.184 3.45763 16.184 3.69734C16.1913 3.92978 16.3656 4.11138 16.5981 4.11138Z" fill="white"/>
</svg>
