<svg width="13" height="13" viewBox="0 0 13 13" fill="none" xmlns="http://www.w3.org/2000/svg">
<g clip-path="url(#clip0_2351_257)">
<path d="M0 6.5C0 5.62467 0.173333 4.784 0.52 3.978C0.866667 3.172 1.326 2.47867 1.898 1.898C2.47 1.31733 3.16333 0.858 3.978 0.52C4.79267 0.182 5.63333 0.00866667 6.5 0C7.384 0 8.229 0.173333 9.035 0.52C9.841 0.866667 10.53 1.326 11.102 1.898C11.674 2.47 12.1333 3.16333 12.48 3.978C12.8267 4.79267 13 5.63333 13 6.5C13 7.36667 12.8267 8.21167 12.48 9.035C12.1333 9.85833 11.674 10.5473 11.102 11.102C10.53 11.6567 9.841 12.1203 9.035 12.493C8.229 12.8657 7.384 13.0347 6.5 13C5.616 13 4.77533 12.831 3.978 12.493C3.18067 12.155 2.48733 11.6913 1.898 11.102C1.30867 10.5127 0.849333 9.82367 0.52 9.035C0.190667 8.24633 0.0173333 7.40133 0 6.5ZM1.625 6.5C1.625 7.384 1.84167 8.203 2.275 8.957C2.70833 9.711 3.302 10.3003 4.056 10.725C4.81 11.1497 5.62467 11.3663 6.5 11.375C7.37533 11.3837 8.19 11.167 8.944 10.725C9.698 10.283 10.2917 9.69367 10.725 8.957C11.1583 8.22033 11.375 7.40133 11.375 6.5C11.375 5.59867 11.1583 4.784 10.725 4.056C10.2917 3.328 9.698 2.73867 8.944 2.288C8.19 1.83733 7.37533 1.61633 6.5 1.625C5.62467 1.63367 4.81 1.85467 4.056 2.288C3.302 2.72133 2.70833 3.31067 2.275 4.056C1.84167 4.80133 1.625 5.616 1.625 6.5ZM2.444 6.5C2.444 5.954 2.548 5.42967 2.756 4.927C2.964 4.42433 3.25433 3.991 3.627 3.627C3.99967 3.263 4.433 2.977 4.927 2.769C5.421 2.561 5.94533 2.45267 6.5 2.444V3.25C5.60733 3.25 4.84033 3.57067 4.199 4.212C3.55767 4.85333 3.24133 5.616 3.25 6.5H2.444ZM4.069 6.5C4.069 5.83267 4.303 5.26067 4.771 4.784C5.239 4.30733 5.81533 4.069 6.5 4.069C7.18467 4.069 7.761 4.30733 8.229 4.784C8.697 5.26067 8.93533 5.83267 8.944 6.5C8.95267 7.16733 8.71433 7.74367 8.229 8.229C7.74367 8.71433 7.16733 8.95267 6.5 8.944C5.83267 8.93533 5.25633 8.697 4.771 8.229C4.28567 7.761 4.05167 7.18467 4.069 6.5ZM5.694 6.5C5.694 6.72533 5.772 6.92033 5.928 7.085C6.084 7.24967 6.27467 7.32767 6.5 7.319C6.72533 7.31033 6.916 7.23233 7.072 7.085C7.228 6.93767 7.31033 6.74267 7.319 6.5C7.32767 6.25733 7.24533 6.06667 7.072 5.928C6.89867 5.78933 6.708 5.71133 6.5 5.694C6.292 5.67667 6.10133 5.75467 5.928 5.928C5.75467 6.10133 5.67667 6.292 5.694 6.5ZM6.5 10.569V9.75C7.40133 9.75 8.16833 9.43367 8.801 8.801C9.43367 8.16833 9.75 7.40133 9.75 6.5H10.569C10.569 7.23667 10.387 7.917 10.023 8.541C9.659 9.165 9.165 9.659 8.541 10.023C7.917 10.387 7.23667 10.569 6.5 10.569Z" fill="white"/>
</g>
<defs>
<clipPath id="clip0_2351_257">
<rect width="13" height="13" fill="white"/>
</clipPath>
</defs>
</svg>
