<svg width="16" height="13" viewBox="0 0 16 13" fill="none" xmlns="http://www.w3.org/2000/svg">
<path d="M11.8415 0L11.2873 1.12936C12.3049 1.62819 13.1313 2.51689 13.5287 3.67878C13.9262 4.84066 13.8173 6.05053 13.3184 7.0681L14.4478 7.62103C15.0905 6.31 15.2356 4.75507 14.7274 3.26934C14.2191 1.78361 13.1525 0.642694 11.8415 0ZM8.63523 0.550456L0.0468884 6.73288C-0.0889832 7.52189 0.077847 8.24714 0.451381 8.92852L2.6297 8.9112L3.5698 12.3525L6.15509 12.3562L5.25952 8.91123L11.1376 8.64899C10.7788 6.52297 10.1036 4.56282 8.63523 0.550456ZM11.0053 1.70579L10.4499 2.83639C11.0308 3.12119 11.5038 3.6281 11.7314 4.29356C11.959 4.959 11.8962 5.64971 11.6114 6.23066L12.742 6.78483C13.1707 5.91042 13.2672 4.87342 12.9288 3.88411C12.5904 2.89481 11.8797 2.13445 11.0053 1.70579Z" fill="white"/>
</svg>
