<svg width="13" height="13" viewBox="0 0 13 13" fill="none" xmlns="http://www.w3.org/2000/svg">
<g clip-path="url(#clip0_2352_56)">
<path d="M11.7812 0.8125H1.21875C0.975 0.8125 0.8125 0.975 0.8125 1.21875V5.28125V11.7812C0.8125 12.025 0.975 12.1875 1.21875 12.1875H11.7812C12.025 12.1875 12.1875 12.025 12.1875 11.7812V5.28125V1.21875C12.1875 0.975 12.025 0.8125 11.7812 0.8125ZM2.4375 2.4375C2.4375 2.19375 2.6 2.03125 2.84375 2.03125H6.90625C7.15 2.03125 7.3125 2.19375 7.3125 2.4375V4.0625C7.3125 4.30625 7.15 4.46875 6.90625 4.46875H2.84375C2.6 4.46875 2.4375 4.30625 2.4375 4.0625V2.4375ZM3.25 11.375H1.625V5.6875H2.03125V8.53125C2.03125 8.775 2.19375 8.9375 2.4375 8.9375H3.25V11.375ZM6.09375 11.375H4.0625V8.9375C4.30625 8.9375 4.46875 8.775 4.46875 8.53125V5.6875H5.28125V8.53125C5.28125 8.775 5.44375 8.9375 5.6875 8.9375H6.09375V11.375ZM8.9375 11.375H6.90625V8.9375H7.3125C7.55625 8.9375 7.71875 8.775 7.71875 8.53125V5.6875H8.53125V8.53125C8.53125 8.775 8.69375 8.9375 8.9375 8.9375V11.375ZM8.125 3.25C8.125 2.55937 8.65312 2.03125 9.34375 2.03125C10.0344 2.03125 10.5625 2.55937 10.5625 3.25C10.5625 3.94063 10.0344 4.46875 9.34375 4.46875C8.65312 4.46875 8.125 3.94063 8.125 3.25ZM11.375 11.375H9.75V8.9375H10.5625C10.8063 8.9375 10.9688 8.775 10.9688 8.53125V5.6875H11.375V11.375Z" fill="white"/>
</g>
<defs>
<clipPath id="clip0_2352_56">
<rect width="13" height="13" fill="white"/>
</clipPath>
</defs>
</svg>
