<svg width="9" height="12" viewBox="0 0 9 12" fill="none" xmlns="http://www.w3.org/2000/svg">
<path d="M3.59977 4.36041C3.95665 4.36044 4.29911 4.51287 4.55216 4.78491C4.80522 5.05703 4.9485 5.42662 4.95043 5.81248V5.81499C4.95043 6.20224 4.80779 6.57376 4.55449 6.84759C4.30123 7.12134 3.95791 7.27507 3.59977 7.27511H2.25144V6.30187H3.59977C3.7191 6.30183 3.83361 6.25073 3.91801 6.15952C4.00183 6.06891 4.049 5.94609 4.04968 5.81801L4.04735 5.76972C4.03662 5.65882 3.99084 5.55483 3.91708 5.47549C3.83274 5.3848 3.71872 5.33369 3.59977 5.33365H2.75113C2.50907 5.3306 2.26889 5.37958 2.04439 5.4775C1.81994 5.57541 1.61557 5.72027 1.44327 5.90402C1.27042 6.09112 1.13349 6.31334 1.04035 6.55788C0.946911 6.8033 0.899514 7.06655 0.900775 7.33195V7.33446C0.900798 8.72569 1.41214 10.0601 2.32216 11.0439L2.56968 11.3114L1.93319 12L1.68521 11.7319C0.67378 10.6385 0.0779907 9.17992 0.00746969 7.64278L2.54777e-05 7.33446C-0.00154018 6.94117 0.0690694 6.55141 0.207533 6.18769C0.346309 5.8232 0.550671 5.49197 0.808653 5.21344L0.810514 5.21143C1.06754 4.93727 1.37269 4.72073 1.70754 4.57467C2.0407 4.42937 2.39705 4.35715 2.75625 4.36091L3.59977 4.36041Z" fill="white"/>
<path d="M2.58167 6.40941L2.71148 6.46926C3.35371 6.78002 3.90393 7.27871 4.29943 7.91027C4.72127 8.58393 4.94805 9.37823 4.95033 10.1917L4.05004 10.1948C4.04831 9.57475 3.87559 8.96891 3.55407 8.45548C3.23257 7.94213 2.7766 7.54428 2.24482 7.31224L2.24203 7.31073L2.08012 7.2388L2.42255 6.33849L2.58167 6.40941Z" fill="white"/>
<path d="M9 7.33459C8.99997 8.98399 8.3937 10.5658 7.31482 11.732L6.67834 11.044C7.58835 10.0602 8.09969 8.72582 8.09972 7.33459H9Z" fill="white"/>
<path d="M1.99239 0.0194932C2.30115 0.0234713 2.59965 0.140838 2.83777 0.353968C3.08043 0.571195 3.24512 0.873322 3.3035 1.20801L3.30443 1.21404L3.89066 4.81933L3.44727 4.90382L3.00387 4.98782L2.41857 1.38857L2.39763 1.30709C2.37021 1.22837 2.32422 1.15819 2.26364 1.10389C2.18272 1.03147 2.08069 0.99157 1.97564 0.991732H1.95517L1.93469 0.98972C1.91489 0.987793 1.89499 0.988647 1.87514 0.98972C1.7672 1.01767 1.67199 1.08703 1.60808 1.18588C1.53949 1.29201 1.51246 1.42343 1.53271 1.55103L2.08404 4.75796L1.19865 4.93601L0.646381 1.72204L0.644985 1.7155C0.584688 1.33542 0.665447 0.944743 0.869707 0.628588C1.07402 0.31244 1.3856 0.0961186 1.73649 0.0265348L1.75696 0.022511L1.77744 0.0204992C1.84896 0.0135387 1.92079 0.0138746 1.99239 0.0194932Z" fill="white"/>
<path d="M5.42172 0.00504792L5.44219 0.00705979L5.46266 0.0110835C5.81359 0.0806441 6.12511 0.296956 6.32944 0.613137C6.53373 0.929302 6.61447 1.31994 6.55417 1.70005L6.5537 1.70206L6.02004 4.9779L5.13325 4.8089L5.66691 1.53307C5.68647 1.40618 5.65925 1.27593 5.59107 1.17043C5.52714 1.07158 5.43198 1.00219 5.32401 0.974269C5.3042 0.973203 5.28422 0.972345 5.26446 0.974269L5.24492 0.976281H5.22491C5.11885 0.976445 5.0161 1.01702 4.93505 1.09096C4.85401 1.16491 4.79995 1.26768 4.78198 1.38067L4.78151 1.38268L4.1669 5.15293L3.28011 4.98394L3.89472 1.21368C3.94896 0.875532 4.11178 0.568983 4.3544 0.34757C4.59756 0.125688 4.90531 0.00355493 5.22351 0.00303604C5.28957 -0.00124634 5.35577 -0.00136386 5.42172 0.00504792Z" fill="white"/>
<path d="M6.29859 5.82019C6.2985 5.55147 6.09681 5.33382 5.84821 5.33382C5.59969 5.33392 5.39839 5.55153 5.3983 5.82019V7.27779C5.3983 7.54654 5.59964 7.76457 5.84821 7.76467C6.09687 7.76467 6.29859 7.5466 6.29859 7.27779V5.82019ZM7.19887 7.27779C7.19887 8.0842 6.59417 8.73791 5.84821 8.73791C5.10233 8.73781 4.49755 8.08414 4.49755 7.27779V5.82019C4.49764 5.01392 5.10239 4.36017 5.84821 4.36007C6.59412 4.36007 7.19878 5.01386 7.19887 5.82019V7.27779Z" fill="white"/>
<path d="M8.09949 6.30433C8.0994 6.0356 7.89771 5.81796 7.64912 5.81796C7.4006 5.81805 7.1993 6.03567 7.19921 6.30433L7.19887 7.27779C7.19894 7.54647 7.40058 7.76435 7.64912 7.76444C7.89773 7.76444 8.09942 7.54681 8.09949 7.27807V6.30433ZM8.99978 7.27807C8.99971 8.08442 8.39503 8.73819 7.64912 8.73819C6.90328 8.73809 6.29866 8.08408 6.29859 7.27779L6.29846 6.30433C6.29855 5.49806 6.90329 4.84431 7.64912 4.84421C8.39502 4.84421 8.99969 5.498 8.99978 6.30433V7.27807Z" fill="white"/>
</svg>
