<svg width="13" height="13" viewBox="0 0 13 13" fill="none" xmlns="http://www.w3.org/2000/svg">
<g clip-path="url(#clip0_2352_108)">
<path d="M9.15586 1.54745C9.18046 1.57208 9.20967 1.59162 9.24182 1.60495C9.27397 1.61828 9.30844 1.62514 9.34325 1.62514C9.37805 1.62514 9.41252 1.61828 9.44467 1.60495C9.47682 1.59162 9.50603 1.57208 9.53063 1.54745L10.0783 1.00003C10.1029 0.975432 10.1225 0.946223 10.1358 0.91407C10.1491 0.881917 10.156 0.847452 10.156 0.812645C10.156 0.777839 10.1491 0.743373 10.1358 0.711221C10.1225 0.679068 10.1029 0.649858 10.0783 0.625262L9.53038 0.0778406C9.42678 -0.0254993 9.2592 -0.0254993 9.15561 0.0778406L8.60793 0.625262C8.5833 0.649858 8.56377 0.679068 8.55044 0.711221C8.53711 0.743373 8.53024 0.777839 8.53024 0.812645C8.53024 0.847452 8.53711 0.881917 8.55044 0.91407C8.56377 0.946223 8.5833 0.975432 8.60793 1.00003L9.15586 1.54745ZM10.4637 4.87515C9.78606 4.87515 9.14926 5.13895 8.67014 5.61782L8.05442 6.23354C7.88227 6.40544 7.65375 6.50015 7.41 6.50015H6.22071C6.48832 5.93901 6.58049 5.2786 6.41698 4.59001C6.16053 3.50964 5.23987 2.65753 4.14401 2.47776C3.22614 2.3272 2.34381 2.60573 1.70625 3.2085C1.51938 3.38522 1.52928 3.68712 1.73469 3.84149L2.39866 4.33991C2.54389 4.44909 2.74549 4.4496 2.88616 4.33458C3.10071 4.15938 3.36909 4.06265 3.65473 4.06265C4.32682 4.06265 4.87373 4.60931 4.87373 5.2814C4.87373 5.95348 4.32682 6.50015 3.65473 6.50015H2.84477C2.5411 6.50015 2.34356 6.81956 2.4794 7.09124L2.88793 7.90806C2.95217 8.03653 3.0809 8.11372 3.22233 8.12515H4.06098C4.95727 8.12515 5.68623 8.85386 5.68623 9.75015C5.68623 10.6464 4.95727 11.3751 4.06098 11.3751C1.62297 11.3751 0.954437 10.0035 0.375531 9.03845C0.260512 8.84675 0.000511545 8.94755 3.73273e-06 9.17098C-0.00228142 10.5626 1.04432 13.0001 4.06098 13.0001C5.8533 13.0001 7.31149 11.5422 7.31149 9.75015C7.31149 9.1555 7.13934 8.60503 6.85928 8.12515H7.41C8.08768 8.12515 8.72448 7.86134 9.2036 7.38247L9.81932 6.76675C9.99147 6.59485 10.22 6.50015 10.4637 6.50015C10.966 6.50015 11.3747 6.90868 11.3747 7.41116V9.95327C11.3747 10.2892 10.8982 10.5626 10.562 10.5626C9.56161 10.5626 8.8692 9.94718 8.48454 9.47364C8.36342 9.3246 8.12399 9.40915 8.12399 9.6011V10.5626C8.12399 10.5626 8.12399 12.1876 10.562 12.1876C11.7945 12.1876 13 11.1855 13 9.95327V7.41116C13 6.01265 11.8625 4.87515 10.4637 4.87515ZM11.5347 1.70817C9.36254 3.36161 7.24243 1.778 7.1528 1.70944C6.99995 1.59214 6.78616 1.59823 6.64143 1.72341C6.49569 1.84833 6.45684 2.0578 6.5485 2.22614C6.58938 2.30104 7.57352 4.0629 9.56491 4.0629C11.5941 4.0629 12.073 3.26665 12.1484 3.10669C12.1743 3.05286 12.1872 2.99319 12.1872 2.93327V2.0314C12.1872 1.69573 11.8028 1.50606 11.5347 1.70817Z" fill="white"/>
</g>
<defs>
<clipPath id="clip0_2352_108">
<rect width="13" height="13" fill="white"/>
</clipPath>
</defs>
</svg>
