<svg width="16" height="16" viewBox="0 0 16 16" fill="none" xmlns="http://www.w3.org/2000/svg">
<g clip-path="url(#clip0_2352_136)">
<path d="M14 6.63333C14 5.04203 13.3679 3.51591 12.2426 2.39069C11.1174 1.26547 9.5913 0.633331 8 0.633331C6.4087 0.633331 4.88258 1.26547 3.75736 2.39069C2.63214 3.51591 2 5.04203 2 6.63333C2.01413 7.81747 2.33576 8.97761 2.93333 10C2.65107 10.2115 2.4432 10.5072 2.33965 10.8444C2.23609 11.1816 2.24219 11.5429 2.35707 11.8765C2.47194 12.21 2.68967 12.4984 2.97891 12.7003C3.26816 12.9022 3.614 13.0071 3.96667 13H4.46667L4.7 14.7667C4.72411 14.9256 4.80486 15.0705 4.92737 15.1747C5.04987 15.2788 5.20589 15.3351 5.36667 15.3333H10.6333C10.7941 15.3351 10.9501 15.2788 11.0726 15.1747C11.1951 15.0705 11.2759 14.9256 11.3 14.7667L11.5333 13H11.7C12.0219 12.9945 12.3356 12.8976 12.6046 12.7208C12.8737 12.5439 13.0869 12.2943 13.2196 12.0009C13.3523 11.7076 13.399 11.3826 13.3542 11.0638C13.3094 10.745 13.175 10.4454 12.9667 10.2C13.6306 9.12787 13.9879 7.89431 14 6.63333ZM11.4 10.5667C11.4346 10.667 11.4917 10.7582 11.5667 10.8333C11.6418 10.9083 11.733 10.9654 11.8333 11C11.8923 11.034 11.9416 11.0824 11.9765 11.1407C12.0115 11.1991 12.0311 11.2653 12.0333 11.3333C12.0333 11.4217 11.9982 11.5065 11.9357 11.569C11.8732 11.6315 11.7884 11.6667 11.7 11.6667H10.9333C10.7763 11.6658 10.6245 11.7233 10.5075 11.828C10.3905 11.9327 10.3165 12.0772 10.3 12.2333L10.0667 14H5.93333L5.7 12.2333C5.68347 12.0772 5.60952 11.9327 5.49249 11.828C5.37546 11.7233 5.2237 11.6658 5.06667 11.6667H3.96667C3.87493 11.667 3.78638 11.633 3.7185 11.5713C3.65062 11.5096 3.60834 11.4247 3.6 11.3333C3.6 11.2449 3.63512 11.1601 3.69763 11.0976C3.76014 11.0351 3.84493 11 3.93333 11C4.05848 10.9876 4.17866 10.9447 4.2833 10.8749C4.38793 10.8052 4.4738 10.7108 4.53333 10.6C4.57884 10.4922 4.59659 10.3746 4.58494 10.2582C4.57329 10.1417 4.53263 10.03 4.46667 9.93333C3.75522 8.97779 3.35909 7.82436 3.33333 6.63333C3.33333 5.39565 3.825 4.20867 4.70017 3.3335C5.57534 2.45833 6.76232 1.96666 8 1.96666C9.23768 1.96666 10.4247 2.45833 11.2998 3.3335C12.175 4.20867 12.6667 5.39565 12.6667 6.63333C12.6405 7.83993 12.232 9.00709 11.5 9.96666C11.4369 10.0516 11.395 10.1503 11.3776 10.2546C11.3602 10.3589 11.3679 10.4659 11.4 10.5667Z" fill="white"/>
<path d="M7.33325 7.29999C7.33325 7.29999 5.33325 7.33333 4.33325 7.03333V7.49999C4.33325 7.89782 4.49129 8.27935 4.77259 8.56065C5.0539 8.84196 5.43543 8.99999 5.83325 8.99999C6.23108 8.99999 6.61261 8.84196 6.89391 8.56065C7.17522 8.27935 7.33325 7.89782 7.33325 7.49999V7.29999Z" fill="white"/>
<path d="M11.6667 7.03333C10.6667 7.33333 8.66675 7.29999 8.66675 7.29999V7.49999C8.66675 7.89782 8.82478 8.27935 9.10609 8.56065C9.38739 8.84196 9.76892 8.99999 10.1667 8.99999C10.5646 8.99999 10.9461 8.84196 11.2274 8.56065C11.5087 8.27935 11.6667 7.89782 11.6667 7.49999V7.03333Z" fill="white"/>
<path d="M8.56672 9.66668C8.51957 9.67042 8.47377 9.68416 8.43234 9.70696C8.39091 9.72977 8.35481 9.76113 8.32643 9.79897C8.29806 9.8368 8.27806 9.88024 8.26776 9.9264C8.25747 9.97255 8.25711 10.0204 8.26672 10.0667L8.40005 11.0333C8.40421 11.0772 8.41703 11.1198 8.43776 11.1587C8.45849 11.1975 8.48671 11.2319 8.52081 11.2598C8.55491 11.2877 8.59419 11.3086 8.6364 11.3212C8.67861 11.3338 8.7229 11.3379 8.76672 11.3333C8.81386 11.3296 8.85967 11.3159 8.90109 11.2931C8.94252 11.2703 8.97862 11.2389 9.007 11.2011C9.03537 11.1632 9.05537 11.1198 9.06567 11.0736C9.07597 11.0275 9.07632 10.9797 9.06672 10.9333L8.93338 9.96668C8.92922 9.92282 8.9164 9.88023 8.89567 9.84135C8.87495 9.80248 8.84672 9.7681 8.81262 9.7402C8.77852 9.71231 8.73924 9.69145 8.69703 9.67883C8.65482 9.66621 8.61053 9.66208 8.56672 9.66668Z" fill="white"/>
<path d="M7.43322 9.66668C7.38941 9.66208 7.34511 9.66621 7.30291 9.67883C7.2607 9.69145 7.22141 9.71231 7.18731 9.7402C7.15322 9.7681 7.12499 9.80248 7.10426 9.84135C7.08353 9.88023 7.07072 9.92282 7.06655 9.96668L6.93322 10.9333C6.92361 10.9797 6.92397 11.0275 6.93427 11.0736C6.94456 11.1198 6.96456 11.1632 6.99294 11.2011C7.02131 11.2389 7.05741 11.2703 7.09884 11.2931C7.14027 11.3159 7.18608 11.3296 7.23322 11.3333C7.27703 11.3379 7.32132 11.3338 7.36353 11.3212C7.40574 11.3086 7.44503 11.2877 7.47912 11.2598C7.51322 11.2319 7.54145 11.1975 7.56218 11.1587C7.58291 11.1198 7.59572 11.0772 7.59989 11.0333L7.73322 10.0667C7.74283 10.0204 7.74247 9.97255 7.73217 9.9264C7.72188 9.88024 7.70188 9.8368 7.6735 9.79897C7.64513 9.76113 7.60903 9.72977 7.5676 9.70696C7.52617 9.68416 7.48036 9.67042 7.43322 9.66668Z" fill="white"/>
</g>
<defs>
<clipPath id="clip0_2352_136">
<rect width="16" height="16" fill="white"/>
</clipPath>
</defs>
</svg>
