<svg width="16" height="12" viewBox="0 0 16 12" fill="none" xmlns="http://www.w3.org/2000/svg">
<path d="M15.0648 2.74207V0H0.935156V2.74207H0V12H16V2.74207H15.0648ZM4.12247 10.1608C2.95213 10.1608 2.00338 9.22268 2.00338 8.06552C2.00338 6.90837 2.95209 5.97026 4.12247 5.97026C5.29284 5.97026 6.24156 6.90831 6.24156 8.06552C6.24156 9.22271 5.29281 10.1608 4.12247 10.1608ZM11.8775 10.1608C10.7072 10.1608 9.75844 9.22268 9.75844 8.06552C9.75844 6.90837 10.7072 5.97026 11.8775 5.97026C13.0479 5.97026 13.9966 6.90831 13.9966 8.06552C13.9966 9.22271 13.0479 10.1608 11.8775 10.1608ZM6.24156 5.31623V4.28449H9.75844V5.31623H6.24156ZM14.0213 2.74207H10.2801V2.17359H9.23666V2.74207H8.52172V2.17359H7.47825V2.74207H6.76328V2.17359H5.71981V2.74207H1.97866V1.03177H14.0214L14.0213 2.74207Z" fill="white"/>
</svg>
