<svg width="12" height="12" viewBox="0 0 12 12" fill="none" xmlns="http://www.w3.org/2000/svg">
<path d="M11.1429 7.88576V5.31437C11.1429 5.20821 11.0347 5.10009 10.9286 5.10009H10.9282C10.8841 5.13313 10.8331 5.15746 10.7771 5.17166C10.7392 5.21139 10.7143 5.26326 10.7143 5.31437V7.4572L10.7122 7.50072C10.6903 7.7169 10.5077 7.88576 10.2857 7.88576C10.0491 7.88576 9.85723 7.69381 9.85714 7.4572V4.71422C9.85714 4.60805 9.74902 4.49993 9.64286 4.49993C9.53669 4.49993 9.42857 4.60805 9.42857 4.71422V7.4572L9.42648 7.50072C9.40459 7.7169 9.22195 7.88576 9 7.88576C8.76336 7.88576 8.57152 7.69381 8.57143 7.4572V4.07137C8.57143 3.96521 8.46331 3.85709 8.35714 3.85709C8.25098 3.85709 8.14286 3.96521 8.14286 4.07137V7.4572L8.14076 7.50072C8.11888 7.7169 7.93623 7.88576 7.71429 7.88576C7.47765 7.88576 7.2858 7.69381 7.28571 7.4572V4.71422C7.28571 4.60805 7.17759 4.49993 7.07143 4.49993C6.96526 4.49993 6.85714 4.60805 6.85714 4.71422V8.87138C6.85711 9.06611 6.72574 9.23625 6.53739 9.28572C6.34901 9.33518 6.15094 9.25153 6.05525 9.0819L5.11356 7.41242C5.09742 7.38424 5.05935 7.34993 4.98968 7.33415C4.97404 7.33062 4.95822 7.32883 4.9428 7.32788C4.93347 7.3282 4.92413 7.32817 4.91476 7.32788C4.87591 7.32917 4.8398 7.33769 4.81013 7.35215C4.73127 7.41228 4.71063 7.50055 4.73438 7.57564C5.23007 8.893 5.97337 10.1321 6.9262 11.2507C7.07958 11.4308 7.05812 11.7011 6.87807 11.8546C6.69791 12.0081 6.42722 11.9866 6.27372 11.8065C6.0815 11.5808 5.89713 11.3502 5.72084 11.1151C5.67424 11.1324 5.62408 11.1427 5.57143 11.1427C2.50616 11.1427 0 8.63656 0 5.57135C0 2.50613 2.50616 0 5.57143 0C8.19771 0 10.4112 1.81641 11.0047 4.24673C11.5505 4.28751 12 4.76043 12 5.31437V7.88576C12 9.18549 11.7316 10.5308 11.1918 11.7454C11.0957 11.9616 10.8423 12.0591 10.626 11.963C10.4097 11.8669 10.3122 11.6134 10.4083 11.3972C10.897 10.2976 11.1428 9.07159 11.1429 7.88576ZM1.71429 5.57135C1.71429 3.44897 3.44902 1.71426 5.57143 1.71426C5.80812 1.71426 6 1.90614 6 2.14283C6 2.37952 5.80812 2.57139 5.57143 2.57139C3.92241 2.57139 2.57143 3.92235 2.57143 5.57135C2.57143 5.80804 2.37955 5.99991 2.14286 5.99991C1.90616 5.99991 1.71429 5.80804 1.71429 5.57135ZM0.857143 5.57135C0.857143 8.01504 2.74394 10.0406 5.13198 10.2642C4.64554 9.50216 4.24053 8.69965 3.92746 7.86484C3.92561 7.85991 3.92368 7.85476 3.92201 7.84977C3.80402 7.49579 3.88018 7.09552 4.14132 6.80682C3.8634 6.4822 3.68555 6.06139 3.68555 5.57135C3.68555 4.52038 4.52045 3.68549 5.57143 3.68549C5.88439 3.68549 6.1627 3.7677 6.4043 3.88387C6.589 3.73395 6.82207 3.6428 7.07143 3.6428C7.17149 3.6428 7.26871 3.65825 7.36147 3.68549C7.52055 3.28936 7.91278 2.99996 8.35714 2.99996C8.80145 2.99996 9.19328 3.28943 9.3524 3.68549C9.44527 3.65817 9.54266 3.6428 9.64286 3.6428C9.73473 3.6428 9.82402 3.65652 9.90988 3.67963C9.17848 2.02436 7.50837 0.85713 5.57143 0.85713C2.97955 0.85713 0.857143 2.97951 0.857143 5.57135ZM4.54269 5.57135C4.54269 5.96061 4.74536 6.27941 5.05748 6.47828C5.37612 6.51383 5.68228 6.6803 5.8577 6.9872L5.85896 6.98929L6 7.23915V4.71422C6 4.69003 6.00208 4.66608 6.00377 4.64223C5.86364 4.5789 5.72043 4.54262 5.57143 4.54262C4.99384 4.54262 4.54269 4.99376 4.54269 5.57135Z" fill="white"/>
</svg>
