<svg width="14" height="14" viewBox="0 0 14 14" fill="none" xmlns="http://www.w3.org/2000/svg">
<g clip-path="url(#clip0_2352_112)">
<path d="M4.80711 7.00546L0.661798 7.00546C0.412969 7.00546 0.202422 7.21601 0.218829 7.46484C0.358282 9.53749 1.43289 11.3531 3.02156 12.5016C3.22391 12.6465 3.51102 12.5809 3.64227 12.3703L5.8407 8.85937C5.22273 8.46835 4.80711 7.78749 4.80711 7.00546ZM5.8407 5.15429C6.17703 4.94374 6.57352 4.81523 7.00008 4.81523C7.42664 4.81523 7.82039 4.94374 8.15945 5.15429L10.3579 1.64062C10.4891 1.43007 10.4235 1.1457 10.2048 1.02812C9.25047 0.514055 8.15945 0.218743 7.00008 0.218743C5.8407 0.218743 4.74969 0.514056 3.79539 1.02812C3.57664 1.1457 3.51102 1.43281 3.64227 1.64062L5.8407 5.15429ZM7.00008 5.69296C6.27547 5.69296 5.68758 6.28085 5.68758 7.00546C5.68758 7.73007 6.27547 8.31796 7.00008 8.31796C7.72469 8.31796 8.31258 7.73007 8.31258 7.00546C8.31258 6.28085 7.72469 5.69296 7.00008 5.69296ZM13.3384 7.00546L9.19305 7.00546C9.19305 7.78749 8.77742 8.46835 8.15945 8.85663L10.3579 12.3676C10.4891 12.5781 10.7763 12.6465 10.9786 12.4988C12.5673 11.3504 13.6419 9.53476 13.7813 7.4621C13.7977 7.21601 13.5872 7.00546 13.3384 7.00546Z" fill="white"/>
</g>
<defs>
<clipPath id="clip0_2352_112">
<rect width="14" height="14" fill="white" transform="translate(14 14) rotate(180)"/>
</clipPath>
</defs>
</svg>
