<svg width="15" height="15" viewBox="0 0 15 15" fill="none" xmlns="http://www.w3.org/2000/svg">
<path d="M13.794 9.53625L13.3656 8.96525C13.3555 8.95137 13.3422 8.94041 13.3268 8.93262L11.086 7.81652C11.0563 7.80179 11.0346 7.77422 11.0275 7.74179C11.0203 7.70956 11.0279 7.67546 11.0483 7.64915L11.177 7.48365C11.2124 7.43818 11.2069 7.37311 11.1648 7.33394L11.013 7.19393C10.9946 7.17729 10.9715 7.16698 10.9469 7.16508L9.84466 7.07306C9.82192 7.07118 9.80024 7.06233 9.78255 7.0476L8.9412 6.34418C8.92772 6.33281 8.917 6.31849 8.91003 6.30228L8.35945 5.00068C8.3506 4.97985 8.33587 4.96236 8.31671 4.95018L7.38548 4.39011C7.35366 4.36992 7.33409 4.33494 7.33392 4.29747L7.31581 2.61059C7.31537 2.56553 7.34212 2.52448 7.38401 2.50699L8.69382 1.95832C8.73633 1.94042 8.76349 1.89809 8.76182 1.8518L8.72833 0.914882C8.72663 0.8654 8.69253 0.8233 8.64475 0.811289L7.45641 0.509765C7.42863 0.502617 7.4044 0.484922 7.38926 0.460078L7.1385 0.0528805C7.11492 0.0143552 7.07051 -0.00585969 7.02586 0.00149383L5.35204 0.277324C5.32907 0.281103 5.30804 0.29206 5.2916 0.308496L4.6488 0.951269C4.6149 0.985166 4.56334 0.993574 4.52036 0.972128L4.22224 0.823066C4.19572 0.809795 4.16519 0.807685 4.13675 0.817148C4.10897 0.82664 4.0858 0.84706 4.07276 0.873574L3.80432 1.42351C3.78598 1.46057 3.74871 1.48456 3.70725 1.48585C3.66577 1.4867 3.62725 1.46478 3.60724 1.4286L3.27562 0.828515C3.25834 0.797548 3.2272 0.776513 3.19184 0.772295C3.15647 0.768076 3.12108 0.780937 3.09688 0.807041L2.46943 1.48271C2.44878 1.5048 2.42016 1.51743 2.39004 1.51808L1.5489 1.53407C1.51374 1.53472 1.4811 1.55197 1.46068 1.58062C1.44026 1.60945 1.43458 1.6461 1.44551 1.67956L1.64572 2.29479C1.66175 2.34407 1.64153 2.39815 1.59668 2.42449L1.23811 2.63713C1.18591 2.66789 1.16821 2.73483 1.19812 2.78748L1.45728 3.24501C1.47035 3.26774 1.47477 3.29449 1.46991 3.32016L1.37727 3.81492C1.36717 3.86818 1.39708 3.92083 1.44782 3.93958L2.01313 4.14803C2.06534 4.16716 2.09525 4.22191 2.08324 4.27623L2.02239 4.54972C2.01439 4.58572 2.02491 4.62343 2.0504 4.64994C2.07565 4.67689 2.11274 4.68932 2.14913 4.68322L2.65614 4.59858C2.67929 4.59477 2.70076 4.58364 2.7172 4.56659L3.3762 3.8903C3.41159 3.85409 3.46693 3.8463 3.51094 3.87138L4.90348 4.66723C4.92958 4.68217 4.94877 4.70722 4.95609 4.73669L5.08558 5.97278C5.09106 5.9949 5.10328 6.01488 5.12074 6.03006L7.72078 8.27426C7.72878 8.28123 7.73783 8.28691 7.74773 8.29131L8.85246 8.76272C8.86025 8.7663 8.8674 8.77072 8.87437 8.77576L9.70391 9.41244C9.70558 9.41391 9.70728 9.41517 9.70878 9.41666L10.656 10.2313C10.6752 10.2477 10.6884 10.2704 10.6929 10.2955L10.9742 11.8518C10.9777 11.872 10.9757 11.8929 10.9683 11.912L10.6361 12.7593C10.624 12.7896 10.6262 12.8239 10.6417 12.8528C10.6573 12.8814 10.6849 12.9018 10.7169 12.9083L11.0817 12.9839C11.1266 12.9932 11.1725 12.974 11.1976 12.9357L11.6951 12.1714C11.7014 12.1618 11.706 12.1514 11.709 12.1405L11.854 11.6148C11.8587 11.5979 11.8675 11.5821 11.8795 11.5691L12.2648 11.152C12.3029 11.1107 12.3042 11.0474 12.2678 11.0046L11.6123 10.2315C11.5847 10.1991 11.5782 10.1536 11.5955 10.1148L11.9589 9.28887C11.9814 9.23748 12.0385 9.21097 12.0922 9.22717L13.0712 9.51899C13.0992 9.5274 13.1228 9.54656 13.1369 9.57205L13.4142 10.0774C13.4346 10.1153 13.4755 10.1376 13.5184 10.1348L13.6679 10.1256C13.722 10.122 13.7656 10.0806 13.7713 10.0267L13.8155 9.61482C13.8185 9.58679 13.8109 9.55878 13.794 9.53625Z" fill="white"/>
<path d="M3.72838 8.47406C3.71364 8.43911 3.68267 8.41406 3.64544 8.40732L3.53974 8.38796C3.50795 8.38204 3.47531 8.39048 3.45003 8.4111L2.81461 8.92632C2.78388 8.95116 2.74195 8.9579 2.70513 8.94381L2.45226 8.8476C2.3971 8.82633 2.33478 8.85246 2.311 8.90675L2.24341 9.06129C2.22677 9.0994 2.23289 9.14341 2.25876 9.17584L2.5188 9.4969C2.53837 9.52093 2.54678 9.55207 2.54235 9.5826L2.3013 11.252C2.29708 11.2813 2.30467 11.3108 2.32233 11.3345L2.7312 11.8796C2.75247 11.9083 2.78637 11.9247 2.82217 11.9241C2.85773 11.9232 2.89101 11.9055 2.91146 11.8763L3.12516 11.5672C3.15486 11.524 3.21085 11.5078 3.25887 11.5278L3.61576 11.6754C3.6467 11.6883 3.68229 11.6861 3.71177 11.6699C3.74144 11.6535 3.76186 11.6245 3.76755 11.5912L3.97283 10.3765C3.97725 10.3513 3.97263 10.3258 3.9602 10.3035L3.83956 10.0894C3.81767 10.05 3.82148 10.0012 3.84946 9.96598L4.13476 9.60533C4.1598 9.57375 4.16569 9.53121 4.15031 9.49394L3.72838 8.47406Z" fill="white"/>
<path d="M10.2928 12.6877L9.78493 12.7839L8.62715 13.0153C8.61558 13.0178 8.60421 13.0218 8.59387 13.0277L8.39995 13.1386C8.36078 13.161 8.31218 13.1574 8.27656 13.1298L7.85105 12.7988C7.82304 12.7772 7.78618 12.77 7.75188 12.7799L7.25014 12.9256C7.21794 12.9348 7.18317 12.9291 7.1556 12.91L7.0777 12.8555C7.03431 12.8251 6.97577 12.8295 6.93748 12.866L6.67112 13.1188C6.63575 13.1525 6.62629 13.2054 6.64818 13.2492L6.80925 13.5711C6.82082 13.5938 6.83978 13.6123 6.86316 13.6227L8.82186 14.4975C8.83683 14.5042 8.85031 14.5141 8.86082 14.5265L9.16908 14.8861C9.18719 14.9072 9.21265 14.9207 9.24045 14.9241L9.87063 14.9992C9.90558 15.0032 9.94074 14.9906 9.96473 14.9649C9.98872 14.9392 9.99948 14.9034 9.99315 14.8691L9.98855 14.8436C9.98348 14.8165 9.98896 14.7885 10.0035 14.7649L10.1403 14.5463C10.1624 14.5107 10.1628 14.4652 10.1405 14.4293L9.89527 14.0305C9.87529 13.9982 9.87338 13.958 9.88979 13.9239L10.4132 12.8453C10.4315 12.8076 10.4271 12.7626 10.4016 12.7293C10.3761 12.6961 10.334 12.6799 10.2928 12.6877Z" fill="white"/>
</svg>
