<svg width="18" height="14" viewBox="0 0 18 14" fill="none" xmlns="http://www.w3.org/2000/svg">
<path d="M13.0054 7.08459C13.1691 7.04217 13.3033 6.86885 13.3033 6.69964V0.143936C13.3033 -0.0253281 13.2263 -0.0487173 13.1322 0.0919258L7.66626 8.25805C7.57214 8.39869 7.62912 8.47912 7.79295 8.43649L13.0054 7.08459Z" fill="white"/>
<path d="M3.41271 14C3.24345 14 3.19149 13.8919 3.29725 13.7596L6.78369 9.40314C6.88945 9.27101 7.11057 9.13031 7.27512 9.09036L17.2052 6.68568C17.3698 6.64587 17.4413 6.73651 17.3642 6.8872L13.8637 13.7259C13.7867 13.8766 13.585 13.9998 13.4158 13.9998L3.41271 14Z" fill="white"/>
<path d="M2.91973 5.87762C2.75047 5.87762 2.61147 6.01611 2.6109 6.18538L2.58423 13.6244C2.58362 13.7937 2.66999 13.8243 2.77612 13.6925L6.47572 9.09775C6.58184 8.96598 6.63129 8.72475 6.58553 8.5618L5.91535 6.17394C5.8696 6.01098 5.69367 5.87768 5.5244 5.87768H2.91973V5.87762Z" fill="white"/>
<path d="M4.42696 0.436941C4.38121 0.273986 4.25436 0.246391 4.14506 0.375647L0.0582513 5.20788C-0.0510523 5.33714 -0.00196573 5.44285 0.167247 5.44285H5.52425C5.69352 5.44285 5.79461 5.30949 5.74881 5.14659L4.42696 0.436941Z" fill="white"/>
</svg>
