<svg width="13" height="13" viewBox="0 0 13 13" fill="none" xmlns="http://www.w3.org/2000/svg">
<g clip-path="url(#clip0_2352_255)">
<path d="M11.0651 4.38016C11.3195 3.83782 11.51 3.16579 11.6012 2.33027C11.3641 2.30445 11.142 2.29211 10.9263 2.28625C10.9177 3.02842 10.7942 3.68669 10.5559 4.25745C10.7252 4.28859 10.8943 4.32705 11.0651 4.38016Z" fill="white"/>
<path d="M8.75821 2.48669C8.76642 2.53597 8.77198 2.5853 8.77877 2.63428C8.83425 3.04132 8.83395 3.4431 8.76057 3.8369C8.72388 4.0356 8.66899 4.22195 8.6056 4.40093C8.97624 4.27006 9.3877 4.18698 9.84225 4.18698C9.98222 4.18698 10.1225 4.19549 10.2636 4.21133C10.4891 3.69747 10.6281 3.06272 10.6369 2.28356C10.6375 2.23512 10.6381 2.18702 10.6378 2.13769C10.6372 2.08983 10.6346 2.03996 10.6332 1.99097C10.6267 1.77673 10.6141 1.55546 10.5877 1.31982C9.78062 1.40993 9.12649 1.59244 8.59473 1.83516C8.65109 2.00361 8.69772 2.17088 8.73323 2.33756C8.74326 2.38748 8.74882 2.43711 8.75821 2.48669Z" fill="white"/>
<path d="M4.40087 1.84282C3.86881 1.60158 3.21497 1.42113 2.40852 1.33279C2.3827 1.56843 2.37035 1.79 2.3645 2.00453C3.07618 2.01245 3.71034 2.1269 4.26414 2.34557C4.29906 2.17884 4.34485 2.01127 4.40087 1.84282Z" fill="white"/>
<path d="M2.44141 4.25835C2.49158 4.24896 2.5415 4.24193 2.59107 4.2346C2.63863 4.22757 2.68644 4.21729 2.734 4.21202C2.87692 4.19619 3.01896 4.18709 3.16012 4.18709C3.61383 4.18709 4.02465 4.26986 4.39475 4.40044C4.33195 4.22348 4.27735 4.0392 4.24037 3.84315C4.1661 3.45018 4.16438 3.04934 4.21893 2.64314C3.71741 2.43505 3.10671 2.30565 2.36159 2.29744C2.33577 2.29714 2.31201 2.29507 2.28589 2.29507C2.26416 2.29507 2.2404 2.29685 2.21842 2.29714C2.17086 2.29744 2.12098 2.2998 2.072 2.30127C1.85687 2.30742 1.63471 2.32035 1.39819 2.34677C1.49066 3.17495 1.68021 3.84256 1.93261 4.38166C2.10308 4.32819 2.27266 4.28978 2.44141 4.25835Z" fill="white"/>
<path d="M1.92612 8.6369C1.67578 9.1757 1.48854 9.84277 1.39819 10.6695C1.6353 10.6953 1.85776 10.7076 2.07318 10.7135C2.08139 9.97925 2.20199 9.32689 2.43502 8.76074C2.26622 8.72937 2.09659 8.69031 1.92612 8.6369Z" fill="white"/>
<path d="M4.24112 10.5136C4.23262 10.4643 4.22706 10.4153 4.22027 10.366C4.1645 9.9587 4.16509 9.55722 4.23847 9.16312C4.27427 8.97268 4.32651 8.79336 4.38636 8.62137C4.01779 8.75077 3.60868 8.83236 3.15733 8.83236C3.015 8.83236 2.87207 8.82326 2.72797 8.80713C2.50728 9.31745 2.3711 9.94665 2.36229 10.7164C2.3617 10.7646 2.36111 10.8127 2.36141 10.8625C2.362 10.9101 2.36465 10.96 2.36608 11.0092C2.37252 11.2232 2.38516 11.4445 2.41157 11.6804C3.21861 11.59 3.87275 11.4075 4.40451 11.1651C4.34785 10.9966 4.30182 10.829 4.26631 10.6627C4.25583 10.6131 4.24993 10.5635 4.24112 10.5136Z" fill="white"/>
<path d="M8.59888 11.1566C9.13064 11.3979 9.78477 11.5786 10.5912 11.6667C10.617 11.431 10.6291 11.2095 10.6349 10.9949C9.92327 10.9873 9.28911 10.8729 8.73501 10.6539C8.70014 10.8209 8.65465 10.9884 8.59888 11.1566Z" fill="white"/>
<path d="M10.5659 8.75955C10.5157 8.76924 10.4661 8.77627 10.4162 8.7836C10.3684 8.79034 10.3203 8.80091 10.273 8.80647C10.1274 8.8229 9.98308 8.83229 9.83927 8.83229C9.38851 8.83229 8.98029 8.75129 8.6123 8.62189C8.67127 8.79211 8.72351 8.96877 8.75902 9.1566C8.83299 9.54957 8.83471 9.95041 8.78017 10.3566C9.28139 10.5647 9.89239 10.6938 10.6375 10.7026C10.6636 10.7026 10.6871 10.705 10.7135 10.705C10.7349 10.705 10.7587 10.7032 10.7807 10.7026C10.8285 10.702 10.8784 10.6997 10.9271 10.6982C11.1419 10.6921 11.3644 10.6792 11.6009 10.6527C11.5093 9.83365 11.323 9.17101 11.0744 8.63517C10.9043 8.68883 10.7346 8.72817 10.5659 8.75955Z" fill="white"/>
<path d="M7.83594 2.10168C7.85473 2.14806 7.87145 2.19498 7.88877 2.24166C7.94483 2.39368 7.99087 2.54659 8.02697 2.70122C8.03902 2.75286 8.05427 2.80421 8.06366 2.8562C8.07394 2.90932 8.08186 2.96243 8.08978 3.01584C8.10827 3.14613 8.12499 3.27676 8.12996 3.40882C8.14698 3.87807 8.07246 4.3127 7.95093 4.70301C8.03986 4.65137 8.13316 4.60381 8.22886 4.55773C8.45427 4.05149 8.58455 3.45136 8.50591 2.76142C8.49976 2.71067 8.49008 2.65843 8.48216 2.60674C8.47424 2.55658 8.46839 2.50725 8.4584 2.45619C8.42732 2.29832 8.38123 2.13513 8.32753 1.96874C8.31228 1.92177 8.29934 1.87544 8.28233 1.82788C8.2656 1.78239 8.24505 1.73571 8.22714 1.68997C8.01905 1.16613 7.69508 0.603871 7.21265 0.00280762C7.02659 0.152176 6.8608 0.300954 6.70435 0.449486C7.17975 0.935461 7.54277 1.43904 7.77992 1.95994C7.80073 2.00686 7.81661 2.05442 7.83594 2.10168Z" fill="white"/>
<path d="M5.05227 4.70266C5.11975 4.74142 5.18521 4.78131 5.24861 4.82267C5.32401 4.87166 5.39532 4.92217 5.46551 4.97351C5.48075 4.98468 5.49718 4.99579 5.51218 5.00696C5.69647 4.88459 5.90456 4.79537 6.12785 4.74811C6.1519 4.74314 6.1763 4.7399 6.20064 4.73576C6.22676 4.73134 6.25258 4.72696 6.27899 4.72371C6.30274 4.72076 6.32655 4.71816 6.3506 4.71609C6.37701 4.71373 6.40401 4.71314 6.43072 4.71196C6.45359 4.71107 6.47621 4.70842 6.49938 4.70842C6.49967 4.70842 6.49997 4.70842 6.49997 4.70842C6.50085 4.70842 6.50174 4.70842 6.50262 4.70842C6.52608 4.70842 6.549 4.71107 6.57217 4.71196C6.59887 4.71314 6.62588 4.71373 6.65229 4.71609C6.67663 4.71816 6.70044 4.72106 6.72449 4.72401C6.7506 4.72726 6.77613 4.73134 6.80195 4.73576C6.82659 4.7399 6.85182 4.74339 6.87592 4.7487C7.09837 4.79655 7.30583 4.88548 7.48928 5.00755C7.50482 4.99579 7.52184 4.98438 7.53743 4.97263C7.74606 4.4749 7.88432 3.88003 7.82239 3.223C7.81654 3.16521 7.80892 3.10649 7.80036 3.04781C7.79274 2.99469 7.78216 2.94099 7.77188 2.88728C7.74193 2.73584 7.70382 2.58234 7.65011 2.42565C7.63368 2.37809 7.61312 2.32999 7.59433 2.28213C7.57614 2.23487 7.56 2.18795 7.53886 2.14039C7.32904 1.65908 6.99475 1.15816 6.49677 0.649263C6.46451 0.616113 6.429 0.582915 6.39521 0.550061C6.36088 0.516617 6.32478 0.482877 6.28897 0.449089C6.13228 0.301196 5.96643 0.152959 5.78037 0.00418091C5.29848 0.607261 4.97569 1.1707 4.76878 1.69573C4.75058 1.74181 4.73032 1.78848 4.71389 1.83393C4.69688 1.88178 4.68394 1.92811 4.66869 1.97508C4.61499 2.14176 4.56949 2.30554 4.539 2.46342C4.52902 2.51418 4.52375 2.56321 4.51613 2.61308C4.50821 2.66502 4.49823 2.71755 4.49267 2.7683C4.41668 3.45499 4.54726 4.05193 4.77203 4.5561C4.86852 4.60317 4.96246 4.65132 5.05227 4.70266Z" fill="white"/>
<path d="M5.16325 10.8984C5.14417 10.852 5.12774 10.8053 5.11043 10.7584C5.05436 10.6064 5.00833 10.4535 4.97223 10.2994C4.96018 10.2475 4.94523 10.1961 4.93524 10.1444C4.92526 10.0913 4.91734 10.0382 4.90942 9.9848C4.89063 9.85452 4.87391 9.72335 4.86924 9.59154C4.85281 9.13168 4.92442 8.70497 5.04207 8.3208C4.95255 8.37274 4.85778 8.42089 4.76035 8.46697C4.54173 8.96849 4.41641 9.56016 4.49358 10.2386C4.49943 10.2891 4.50912 10.3419 4.51734 10.3933C4.52525 10.4438 4.53081 10.4931 4.54109 10.5442C4.57217 10.7017 4.61796 10.8652 4.67197 11.0313C4.68721 11.078 4.70015 11.1243 4.71746 11.1719C4.73389 11.2174 4.75445 11.2638 4.77264 11.3101C4.98074 11.8339 5.3047 12.3962 5.78714 12.9972C5.9732 12.8479 6.13899 12.6991 6.29544 12.5509C5.82034 12.0649 5.45702 11.561 5.21986 11.0404C5.19847 10.9931 5.18293 10.9459 5.16325 10.8984Z" fill="white"/>
<path d="M7.95386 8.32055C7.88698 8.28208 7.82269 8.24249 7.75989 8.20226C7.68562 8.15441 7.61549 8.10513 7.54683 8.05496C7.52219 8.03676 7.49637 8.01974 7.47227 8.00125C7.29177 8.11865 7.08898 8.20521 6.87125 8.25159C6.8472 8.25656 6.82281 8.2598 6.79846 8.26394C6.77264 8.26861 6.74653 8.27274 6.72041 8.27599C6.69665 8.27894 6.67255 8.28184 6.6485 8.28331C6.62209 8.28597 6.59509 8.28656 6.56838 8.28774C6.54551 8.28863 6.52289 8.29158 6.49973 8.29158C6.49943 8.29158 6.49943 8.29158 6.49914 8.29158C6.49825 8.29158 6.49707 8.29158 6.49618 8.29158C6.47272 8.29158 6.4501 8.28863 6.42693 8.28774C6.40023 8.28656 6.37323 8.28597 6.34682 8.28331C6.32277 8.28154 6.29867 8.27835 6.27491 8.27569C6.24879 8.27245 6.22327 8.26866 6.19745 8.26394C6.17281 8.2598 6.14787 8.25661 6.12348 8.251C5.90688 8.20433 5.70498 8.11836 5.52512 8.00125C5.50077 8.01945 5.47436 8.03735 5.44943 8.05584C5.24783 8.54743 5.11636 9.13255 5.1774 9.77675C5.18295 9.83424 5.19087 9.89326 5.19943 9.95194C5.20735 10.0054 5.21733 10.0588 5.22791 10.1128C5.25786 10.2645 5.29598 10.4177 5.34968 10.5741C5.36582 10.6217 5.38667 10.6698 5.40546 10.7176C5.42395 10.7646 5.44008 10.8115 5.46094 10.8591C5.67075 11.3407 6.00534 11.8416 6.50332 12.3502C6.53558 12.3833 6.57109 12.4165 6.60458 12.4497C6.63891 12.4828 6.67501 12.5169 6.71082 12.5507C6.86751 12.6986 7.03336 12.8468 7.21942 12.9956C7.70131 12.3925 8.0241 11.8291 8.23101 11.304C8.24921 11.2579 8.26947 11.2113 8.2859 11.1658C8.30291 11.1177 8.31615 11.0713 8.3308 11.0247C8.3848 10.858 8.43 10.6942 8.4605 10.5363C8.47048 10.4856 8.47574 10.4362 8.48337 10.387C8.49099 10.3347 8.50156 10.2825 8.50683 10.2314C8.58168 9.55587 8.45607 8.9672 8.23799 8.46859C8.13992 8.42147 8.04485 8.37278 7.95386 8.32055Z" fill="white"/>
<path d="M2.05161 5.18657C2.09976 5.16601 2.14816 5.14841 2.1966 5.12991C2.24446 5.11172 2.29226 5.09352 2.34041 5.07739C2.49509 5.02516 2.6509 4.98261 2.8079 4.95089C2.8616 4.94002 2.91531 4.93151 2.96931 4.923C3.02361 4.91449 3.07791 4.90776 3.13221 4.90156C3.26633 4.8869 3.40134 4.87721 3.53718 4.87721H3.53747C3.95686 4.87721 4.3454 4.9503 4.69902 5.06091C4.77329 5.08408 4.84574 5.10877 4.91676 5.13518C5.00012 5.16626 5.08108 5.19857 5.15977 5.2329C5.17767 5.24082 5.19528 5.24874 5.21289 5.25695C5.22582 5.24372 5.23871 5.23025 5.25194 5.21731C5.25838 5.21087 5.26571 5.20497 5.2722 5.19882C5.25813 5.18854 5.24461 5.17826 5.23025 5.16798C5.16508 5.1216 5.09672 5.07758 5.02658 5.03357C4.94499 4.98281 4.86049 4.93436 4.77275 4.88828C4.70055 4.85041 4.62746 4.81313 4.55089 4.77909C4.14621 4.59948 3.68281 4.47977 3.16073 4.47977C3.06743 4.47977 2.97084 4.48591 2.874 4.49383C2.82265 4.49796 2.77012 4.5047 2.7176 4.51144C2.66654 4.51788 2.6152 4.52521 2.56321 4.53402C2.40268 4.56102 2.23836 4.59623 2.06873 4.64699C2.02235 4.66076 1.97395 4.67984 1.92698 4.69573C1.87913 4.71186 1.83162 4.72711 1.78288 4.7453C1.23198 4.95064 0.638 5.28518 0 5.79703C0.147303 5.98043 0.294359 6.148 0.440481 6.30268C0.957294 5.79644 1.4955 5.42373 2.05161 5.18657Z" fill="white"/>
<path d="M1.91817 8.32228C1.96543 8.33812 2.01383 8.3572 2.0605 8.37097C2.23043 8.42202 2.39475 8.45783 2.55528 8.48483C2.60663 8.49334 2.65768 8.50067 2.70819 8.50711C2.76042 8.51355 2.81295 8.52088 2.864 8.52531C2.9632 8.53323 3.06152 8.53967 3.15689 8.53967C3.67572 8.53967 4.13587 8.42109 4.53823 8.24324C4.61339 8.21009 4.68495 8.17458 4.75597 8.1373C4.84164 8.09269 4.92442 8.04572 5.00395 7.99674C5.07556 7.95272 5.14599 7.90782 5.21258 7.86085C5.23634 7.84412 5.25837 7.82711 5.28153 7.81009C5.27037 7.79981 5.25866 7.79042 5.2478 7.77955C5.23899 7.77133 5.23019 7.76253 5.22168 7.75373C5.21081 7.74286 5.20112 7.73086 5.1906 7.71999C5.16625 7.69358 5.14131 7.66835 5.1184 7.64046C5.10871 7.6287 5.10049 7.61611 5.0911 7.60436C5.06906 7.57647 5.04738 7.54859 5.02711 7.51898C5.01831 7.50604 5.0095 7.49316 5.001 7.48022C4.88566 7.30415 4.80087 7.10722 4.75272 6.89593C4.7451 6.86249 4.73895 6.82757 4.73334 6.79324C4.73098 6.77917 4.72892 6.76476 4.7269 6.7504C4.72193 6.7143 4.71751 6.6782 4.71456 6.6421C4.71337 6.62833 4.71308 6.61392 4.71249 6.59985C4.71101 6.57137 4.70836 6.54408 4.70806 6.51535C4.70806 6.51039 4.70718 6.50537 4.70718 6.50011C4.70718 6.49745 4.70747 6.49484 4.70747 6.49219C4.70924 6.46194 4.71185 6.43292 4.71333 6.40386C4.71392 6.39092 4.71421 6.37803 4.71539 6.3651C4.71834 6.32752 4.72242 6.29024 4.72744 6.25331C4.72921 6.24008 4.73128 6.22719 4.73329 6.21396C4.73915 6.17845 4.74505 6.14294 4.75267 6.10802C4.80053 5.89437 4.8862 5.69513 5.00301 5.51758C5.00857 5.50937 5.01359 5.50086 5.01914 5.49265C5.00242 5.48532 4.986 5.47828 4.96898 5.4712C4.55255 5.29719 4.06864 5.17099 3.53658 5.17099C3.47849 5.17099 3.41947 5.17306 3.35991 5.17625C3.30006 5.1795 3.23961 5.18476 3.17882 5.1912C3.12334 5.19706 3.06703 5.20498 3.01067 5.21407C2.85515 5.23871 2.69693 5.27422 2.53585 5.32355C2.48539 5.3391 2.43459 5.3567 2.38383 5.3749C2.33455 5.39251 2.28492 5.41071 2.23535 5.43097C1.72444 5.63729 1.19031 5.98182 0.647088 6.51329C0.613643 6.54555 0.580494 6.57963 0.547001 6.61367C0.511491 6.64977 0.475981 6.68557 0.440471 6.72345C0.294594 6.87842 0.148177 7.04628 0.00146484 7.22968C0.635628 7.73651 1.22641 8.0681 1.77431 8.27295C1.8228 8.29149 1.87036 8.30615 1.91817 8.32228Z" fill="white"/>
<path d="M7.9937 7.99742C8.07323 8.0467 8.1563 8.09308 8.24198 8.13798C8.313 8.17497 8.38461 8.21077 8.45971 8.24392C8.86207 8.42088 9.32164 8.53917 9.83958 8.53917C9.93672 8.53917 10.0365 8.53302 10.1374 8.52422C10.1888 8.51979 10.2413 8.51217 10.2935 8.50602C10.3437 8.49987 10.3939 8.49225 10.445 8.48374C10.6061 8.45644 10.7704 8.42005 10.9403 8.36841C10.987 8.35463 11.0351 8.33585 11.0821 8.31971C11.1302 8.30358 11.1777 8.28834 11.2265 8.26984C11.7744 8.06411 12.3654 7.73045 12.9999 7.22156C12.8526 7.03816 12.7053 6.87059 12.5591 6.71591C12.045 7.21979 11.5109 7.59073 10.9583 7.82784C10.9107 7.8484 10.862 7.8663 10.8139 7.88509C10.7663 7.90328 10.7188 7.92207 10.671 7.9385C10.516 7.99162 10.3599 8.03475 10.2023 8.06701C10.1501 8.07788 10.0973 8.0858 10.0441 8.09431C9.98954 8.10311 9.93524 8.11074 9.88011 8.11659C9.74191 8.13243 9.60277 8.14212 9.4625 8.14212C9.04813 8.14212 8.66367 8.0705 8.31329 7.9622C8.2405 7.93992 8.16919 7.91642 8.09935 7.89059C8.01834 7.86035 7.93881 7.82926 7.86165 7.79641C7.83199 7.78347 7.80356 7.77029 7.7745 7.75652C7.76628 7.76533 7.75689 7.77383 7.74808 7.78234C7.73751 7.79262 7.72635 7.80143 7.71582 7.8117C7.7381 7.82784 7.75954 7.84426 7.78241 7.86044C7.84989 7.90732 7.92091 7.95252 7.9937 7.99742Z" fill="white"/>
<path d="M11.0725 4.69506C11.0252 4.67922 10.9768 4.66014 10.9302 4.64632C10.7605 4.59585 10.5968 4.56094 10.4363 4.53423C10.384 4.52543 10.3321 4.5178 10.2807 4.51165C10.2282 4.50521 10.1763 4.49872 10.1246 4.49464C10.0296 4.48701 9.93504 4.48087 9.84292 4.48087C9.31996 4.48087 8.85627 4.60087 8.451 4.78108C8.37442 4.81511 8.30134 4.85239 8.22884 4.89056C8.1408 4.93694 8.05626 4.98533 7.97471 5.03643C7.90605 5.07957 7.83853 5.123 7.77429 5.16849C7.75905 5.17936 7.74464 5.19023 7.72998 5.20105C7.73701 5.20779 7.74493 5.21398 7.75172 5.22072C7.7649 5.23366 7.77754 5.24713 7.79077 5.26061C7.79692 5.26705 7.80282 5.27409 7.80897 5.28058C7.83744 5.31112 7.86592 5.34191 7.89233 5.37447C7.89789 5.3815 7.90261 5.38883 7.90846 5.39591C7.93429 5.42877 7.95981 5.46167 7.98332 5.496C7.98888 5.50392 7.9933 5.51213 7.99827 5.52005C8.1139 5.69583 8.19869 5.89305 8.24684 6.10434C8.25417 6.13808 8.26061 6.1727 8.26592 6.20703C8.26858 6.2211 8.2703 6.23551 8.27237 6.24958C8.27734 6.28568 8.28147 6.32178 8.28442 6.35847C8.28589 6.37224 8.28619 6.38635 8.28678 6.40013C8.28825 6.42831 8.29091 6.45619 8.29116 6.48462C8.29116 6.48959 8.29204 6.49461 8.29204 6.49987C8.29204 6.50252 8.29175 6.50513 8.29175 6.50779C8.29175 6.53744 8.2888 6.56646 8.28732 6.59523C8.28673 6.60841 8.28643 6.62106 8.28496 6.63429C8.28201 6.67186 8.27822 6.70914 8.27291 6.74608C8.27114 6.75926 8.26937 6.77219 8.26676 6.78542C8.26091 6.82093 8.25501 6.85644 8.24768 6.89136C8.19953 7.10501 8.11415 7.30425 7.99704 7.4818C7.98853 7.49528 7.97914 7.50822 7.97004 7.52174C7.99675 7.5332 8.02404 7.54432 8.05075 7.55577C8.46192 7.7257 8.9385 7.84836 9.46264 7.84836C9.52692 7.84836 9.59145 7.8463 9.65721 7.84251C9.71588 7.83897 9.7749 7.83341 9.83446 7.82697C9.88994 7.82082 9.94567 7.81231 10.002 7.80351C10.1575 7.77828 10.3158 7.74218 10.4771 7.69231C10.527 7.67647 10.5772 7.65857 10.6277 7.64037C10.677 7.62276 10.7263 7.60397 10.7762 7.58401C11.2836 7.37709 11.813 7.03375 12.3524 6.50671C12.3855 6.47415 12.4193 6.44036 12.4528 6.40632C12.4883 6.37022 12.5238 6.33442 12.5593 6.29655C12.7052 6.14157 12.8516 5.97401 12.9983 5.7906C12.3603 5.28087 11.7666 4.94835 11.2164 4.74439C11.1682 4.72643 11.1201 4.71089 11.0725 4.69506Z" fill="white"/>
<path d="M5.00344 6.52892C5.00432 6.57088 5.01165 6.61052 5.01578 6.65099C5.01667 6.6598 5.01726 6.6689 5.01844 6.67741C5.02311 6.71759 5.02286 6.7593 5.03078 6.7983C5.03285 6.80769 5.03634 6.81649 5.0387 6.82589C5.07097 6.97201 5.12851 7.10672 5.19982 7.23322C5.22535 7.27812 5.2497 7.32362 5.27965 7.36528C5.2855 7.37349 5.29288 7.38052 5.29873 7.38874C5.32278 7.421 5.34919 7.45125 5.3756 7.48179C5.37973 7.48676 5.38323 7.49148 5.38736 7.49586C5.39031 7.4994 5.39262 7.50259 5.39557 7.50584C5.42725 7.54076 5.46044 7.57303 5.49536 7.60504C5.49831 7.60829 5.50181 7.6106 5.50505 7.61296C5.50948 7.6168 5.51415 7.61999 5.51853 7.62413C5.54907 7.65083 5.57986 7.67754 5.61242 7.70159C5.62093 7.70774 5.62826 7.71565 5.63706 7.72156C5.67901 7.75151 5.7248 7.77556 5.77 7.80079C5.87186 7.85804 5.97981 7.90348 6.09456 7.9355C6.1433 7.94927 6.19169 7.96309 6.24245 7.9719C6.25858 7.97514 6.2753 7.97455 6.29144 7.97686C6.32518 7.98183 6.35921 7.98478 6.39354 7.98714C6.39472 7.98714 6.3959 7.98773 6.39679 7.98773C6.41174 7.98891 6.42644 7.99157 6.44169 7.99216C6.46107 7.99305 6.47927 7.99831 6.49864 7.99831C6.51655 7.99831 6.53297 7.99334 6.55058 7.99275C6.56583 7.99216 6.58024 7.98891 6.59519 7.98837C6.59637 7.98837 6.59755 7.98778 6.59873 7.98778C6.63336 7.98542 6.66739 7.98223 6.70113 7.9775C6.71726 7.97514 6.73398 7.97514 6.75012 7.97254C6.80087 7.96432 6.84902 7.95109 6.89742 7.93732C7.01364 7.90535 7.12253 7.85956 7.22522 7.80261C7.27042 7.77708 7.3168 7.75333 7.35875 7.72338C7.36697 7.71752 7.374 7.7102 7.38192 7.70459C7.41507 7.67995 7.4462 7.65265 7.47699 7.62565C7.48112 7.62181 7.4855 7.61921 7.48904 7.61567C7.49258 7.61271 7.49578 7.6104 7.49873 7.60775C7.53365 7.57637 7.56709 7.54376 7.59911 7.50914C7.60236 7.50589 7.60467 7.50269 7.60703 7.49945C7.6117 7.49418 7.61554 7.48858 7.62026 7.48332C7.64608 7.45336 7.6719 7.42375 7.69595 7.39174C7.7021 7.38323 7.70972 7.3756 7.71592 7.3671C7.747 7.32485 7.7714 7.27994 7.79692 7.23534C7.8703 7.10653 7.92898 6.96827 7.96183 6.8189C7.9636 6.81069 7.96596 6.80248 7.96768 6.79426C7.9756 6.75379 7.97501 6.71149 7.98033 6.67013C7.98121 6.6628 7.9818 6.65459 7.98269 6.64726C7.98682 6.6053 7.99474 6.56448 7.99533 6.52164C7.99533 6.51432 7.99739 6.50787 7.99739 6.5005C7.99739 6.4999 7.9971 6.49932 7.9971 6.49872C7.9971 6.49843 7.9971 6.49843 7.9971 6.49813C7.9971 6.48904 7.99474 6.48082 7.99444 6.47202C7.99356 6.43036 7.98623 6.39072 7.9821 6.34995C7.98121 6.34114 7.98062 6.33234 7.97914 6.32354C7.97447 6.28335 7.97501 6.24165 7.9671 6.20235C7.96473 6.19296 7.96124 6.18415 7.95918 6.17476C7.92721 6.02888 7.86907 5.89392 7.79805 5.76772C7.77253 5.72252 7.74818 5.67732 7.71853 5.63537C7.71587 5.63212 7.71297 5.62922 7.7109 5.62598C7.68361 5.5884 7.65311 5.55378 7.62227 5.51915C7.61932 5.5159 7.61672 5.51212 7.61406 5.50887C7.61259 5.50769 7.61199 5.50622 7.61081 5.50504C7.57796 5.46834 7.54393 5.43313 7.50753 5.39998C7.50576 5.39851 7.50399 5.39732 7.50227 5.39585C7.49873 5.3926 7.49494 5.3897 7.4911 5.38646C7.45707 5.35591 7.42215 5.32631 7.38546 5.2993C7.38108 5.29606 7.37754 5.29198 7.37282 5.28873C7.33087 5.25878 7.28685 5.23355 7.24224 5.20773C7.13689 5.14669 7.02333 5.09913 6.90357 5.06539C6.85488 5.05162 6.80643 5.0378 6.75567 5.02899C6.73954 5.02634 6.72311 5.02634 6.70669 5.02403C6.67295 5.01936 6.63891 5.01611 6.60429 5.01375C6.60311 5.01375 6.60193 5.01345 6.60075 5.01345C6.5858 5.01227 6.57109 5.00962 6.55584 5.00903C6.53647 5.00814 6.51856 5.00317 6.49889 5.00317C6.48099 5.00317 6.46456 5.00785 6.44695 5.00844C6.43171 5.00903 6.4173 5.01198 6.40234 5.01286C6.40116 5.01286 6.39998 5.01316 6.3988 5.01316C6.36418 5.01552 6.33014 5.01872 6.2964 5.02344C6.28027 5.0258 6.26355 5.0258 6.24766 5.0284C6.1972 5.03691 6.14876 5.05014 6.10007 5.06362C5.97888 5.09736 5.86473 5.14521 5.7579 5.20654C5.71329 5.23207 5.66868 5.2573 5.62703 5.28725C5.62289 5.2902 5.6197 5.2937 5.61557 5.29665C5.57829 5.32424 5.54307 5.35419 5.50845 5.38498C5.5052 5.38793 5.50171 5.39024 5.49846 5.39319C5.49699 5.39467 5.49522 5.39585 5.49379 5.39703C5.45739 5.43018 5.42336 5.4651 5.39021 5.50149C5.38903 5.50297 5.38785 5.50445 5.38667 5.50563C5.38342 5.50946 5.38052 5.51354 5.37698 5.51738C5.34673 5.55171 5.31683 5.58604 5.28983 5.62302C5.28717 5.62686 5.28368 5.63006 5.28073 5.63389C5.25078 5.67585 5.22643 5.72075 5.20091 5.76565C5.12753 5.89476 5.06856 6.03272 5.03629 6.18209C5.03452 6.1903 5.03186 6.19851 5.03044 6.20673C5.02252 6.24691 5.02252 6.2895 5.0178 6.33057C5.01691 6.33819 5.01632 6.34611 5.01544 6.35373C5.01131 6.39569 5.00339 6.43651 5.0028 6.47935C5.0028 6.48668 5.00073 6.49312 5.00073 6.5005C5.00073 6.50109 5.00103 6.50168 5.00103 6.50227C5.00103 6.50256 5.00103 6.50256 5.00103 6.50286C5.00078 6.51161 5.00314 6.51982 5.00344 6.52892Z" fill="white"/>
</g>
<defs>
<clipPath id="clip0_2352_255">
<rect width="13" height="13" fill="white"/>
</clipPath>
</defs>
</svg>
