<svg width="16" height="16" viewBox="0 0 16 16" fill="none" xmlns="http://www.w3.org/2000/svg">
<g clip-path="url(#clip0_2352_277)">
<path d="M12.8517 1.45506C12.7062 1.26326 12.4406 1.20919 12.2321 1.32956C12.1159 1.39667 12.0373 1.51389 12.0193 1.64692C11.9138 2.42488 11.6717 3.08537 11.377 3.71301C10.9422 4.63892 10.2396 5.401 9.35375 5.91246L8.15468 6.60474L7.62903 5.69428L7.6391 5.68846C7.88851 5.54446 7.97397 5.22554 7.82997 4.97612C7.68597 4.72671 7.36704 4.64125 7.11763 4.78525L6.19431 5.31833C5.97729 5.44363 5.88458 5.70136 5.95897 5.93052C5.79775 5.75152 5.52817 5.70292 5.31113 5.82824L4.38781 6.36132C4.17079 6.48661 4.0781 6.74433 4.15247 6.9735C3.99124 6.79451 3.72167 6.74591 3.50462 6.87122L2.58131 7.4043C2.33189 7.5483 2.24644 7.86722 2.39044 8.11664C2.53444 8.36605 2.85336 8.45151 3.10277 8.30751L3.11279 8.30173L3.63844 9.21219L1.50537 10.4437C1.25208 10.59 1.10551 10.8498 1.09228 11.1217L0.789437 11.2965C0.575285 11.4201 0.501908 11.694 0.625549 11.9081C0.74919 12.1223 1.02304 12.1957 1.23719 12.072L1.54 11.8972C1.78209 12.0217 2.08037 12.0247 2.33366 11.8784L4.43009 10.668C3.66682 11.3393 3.45538 12.4796 3.98267 13.3928C4.58332 14.4332 5.91836 14.7909 6.95872 14.1903L10.8059 11.9691C11.8462 11.3685 12.204 10.0334 11.6033 8.99306C11.076 8.07978 9.98286 7.6928 9.01987 8.01816L10.1821 7.34716C11.0645 6.83768 12.0832 6.60864 13.0985 6.69473C13.7785 6.75238 14.4606 6.87011 15.1747 7.15757C15.3214 7.21661 15.4878 7.20502 15.6247 7.12596L15.6256 7.12544C15.814 7.01669 15.8914 6.78574 15.8075 6.58513C15.0392 4.74979 14.0539 3.0398 12.8517 1.45506ZM5.82261 6.73721L5.83268 6.7314C6.04967 6.60612 6.14236 6.34841 6.06799 6.11923C6.22921 6.29822 6.49878 6.34682 6.71583 6.22151L6.72585 6.21573L7.2515 7.12619L6.34826 7.64768L5.82261 6.73721ZM4.0262 7.77437C4.24322 7.64907 4.33593 7.39134 4.26154 7.16218C4.42277 7.34118 4.69234 7.38978 4.90938 7.26446L4.9194 7.25868L5.44505 8.16914L4.54182 8.69063L4.01616 7.78017L4.0262 7.77437ZM10.7001 9.51453C11.0132 10.0568 10.8268 10.7528 10.2844 11.0659L6.43725 13.2871C5.89493 13.6002 5.199 13.4137 4.88588 12.8714C4.64055 12.4464 4.70199 11.9273 5.00095 11.5718L5.53491 12.4967C5.67891 12.7461 5.99783 12.8315 6.24725 12.6875C6.49666 12.5435 6.58212 12.2246 6.43812 11.9752L5.87027 10.9916L6.77351 10.4702L7.34136 11.4537C7.48536 11.7031 7.80428 11.7886 8.0537 11.6446C8.30311 11.5006 8.38857 11.1816 8.24457 10.9322L7.67672 9.94869L8.57996 9.42721L9.1478 10.4107C9.2918 10.6602 9.61073 10.7456 9.86014 10.6016C10.1096 10.4576 10.195 10.1387 10.051 9.88928L9.51704 8.96441C9.9744 8.88327 10.4548 9.0896 10.7001 9.51453Z" fill="white"/>
</g>
<defs>
<clipPath id="clip0_2352_277">
<rect width="16" height="16" fill="white"/>
</clipPath>
</defs>
</svg>
