<svg width="16" height="16" viewBox="0 0 16 16" fill="none" xmlns="http://www.w3.org/2000/svg">
<g clip-path="url(#clip0_2352_283)">
<path d="M13.0679 8.76517C13.736 7.80471 14.3972 6.85361 15.0717 5.88183C14.1236 5.75414 13.2003 5.63033 12.2627 5.50264C12.6877 4.28111 13.1051 3.08049 13.5357 1.84171C12.2467 2.57752 10.9957 3.29211 9.73208 4.01239C9.40895 2.93949 9.08511 1.87617 8.75636 0.784331C8.18667 1.79989 7.63767 2.78324 7.08127 3.77421C6.02755 2.76602 4.99283 1.7733 3.91992 0.747925C4.16377 2.16386 4.40198 3.53402 4.63823 4.92708C3.26436 4.70805 1.9247 4.50036 0.544922 4.2848C1.54155 5.44727 2.5153 6.58317 3.49492 7.72846C2.62205 8.53064 1.75489 9.32724 0.869016 10.1467C2.01427 10.4021 3.1177 10.6517 4.24964 10.907C3.83602 11.8274 3.43023 12.7307 3.01286 13.659C3.75405 13.4626 3.84661 13.4397 4.55358 13.249C4.55358 13.249 5.25202 11.1095 5.58064 10.6007C5.73083 10.3729 5.74523 10.1644 5.69548 9.90749C5.48711 8.8413 5.29708 7.77249 5.09836 6.70602C5.08617 6.64558 5.08367 6.6018 5.14658 6.5608C5.89589 6.03927 6.28233 5.89692 7.45273 5.06767C7.9932 5.68327 8.52992 6.30133 9.07764 6.93164C8.89097 7.10115 8.70516 7.27161 8.52023 7.44302C8.50586 7.45739 8.46955 7.46458 8.44761 7.45739C8.24386 7.39667 8.04042 7.33627 7.83548 7.27089C7.59461 7.04302 7.40798 6.79299 7.21648 6.59958C7.16327 6.79833 7.10848 6.9848 7.06377 7.17636C7.34452 7.51839 7.41489 7.61961 7.59202 7.79417C7.62833 7.83074 7.65017 7.88867 7.65017 7.93717C7.69858 8.92505 7.66923 9.89486 7.71686 10.7437C7.8223 10.7729 7.91808 10.797 8.03548 10.8311C8.01133 9.76452 7.9932 8.71514 7.96536 7.65858C8.02952 7.65858 8.0902 7.69021 8.14092 7.77974C8.75617 8.78927 9.30758 9.78102 9.85811 10.7002C9.95011 10.6467 10.0412 10.5935 10.1345 10.54C10.0872 10.6829 9.92839 10.8808 9.84339 11.0032C9.55001 11.4634 9.05923 11.6915 8.65605 11.9676C8.1678 12.7415 7.77333 13.5325 7.46052 14.082L7.92267 15.252C7.93423 15.2557 8.74111 14.0285 9.13855 13.4055C9.80073 13.9904 10.4506 14.566 11.1195 15.1566C11.1679 13.874 11.2194 12.6315 11.2661 11.3738C12.6631 11.494 14.04 11.612 15.4549 11.7341C14.642 10.7203 13.8558 9.74652 13.0679 8.76517ZM7.92905 5.10642C8.33367 4.85449 8.72864 4.61199 9.13236 4.36502C9.33202 4.70899 9.52233 5.04824 9.71505 5.39246C9.38302 5.59839 9.05348 5.80461 8.7117 6.01274C8.45605 5.7123 8.19317 5.41439 7.92905 5.10642ZM9.52855 6.95102C9.33198 6.72071 9.1358 6.49752 8.92864 6.2578C9.27411 6.04686 9.61808 5.83374 9.96948 5.6178C10.1489 5.93296 10.3247 6.24061 10.5028 6.55571C9.9767 6.88305 9.45686 7.20039 8.94548 7.51555C8.94205 7.5083 8.9383 7.50583 8.93114 7.50086C9.12855 7.32152 9.32483 7.14224 9.52855 6.95102ZM8.71173 8.03664C9.35392 7.64167 9.98767 7.25392 10.6311 6.85649C10.8226 7.18605 11.0044 7.50836 11.1972 7.84761C10.556 8.24508 9.91973 8.63283 9.27408 9.03024C9.08601 8.69352 8.89955 8.36617 8.71173 8.03664ZM9.9767 10.2564C9.79736 9.93908 9.61808 9.62892 9.43998 9.30877C10.0412 8.94046 10.6383 8.57208 11.2445 8.19908C11.4225 8.51386 11.6019 8.82655 11.78 9.14424C11.1765 9.51971 10.5779 9.88589 9.9767 10.2564Z" fill="white"/>
</g>
<defs>
<clipPath id="clip0_2352_283">
<rect width="16" height="16" fill="white"/>
</clipPath>
</defs>
</svg>
