<svg width="14" height="14" viewBox="0 0 14 14" fill="none" xmlns="http://www.w3.org/2000/svg">
<g clip-path="url(#clip0_2352_287)">
<path d="M11.3077 0.358978C10.0075 0.358978 8.91972 1.28541 8.66956 2.51282H0V4.84614C0 5.73686 0.724664 6.46153 1.61539 6.46153H2.8718V7.35898C2.8718 8.85766 3.9582 10.1065 5.38461 10.3617V12.5641H3.05129V13.641H8.79487V12.5641H6.46155V10.3617C7.88796 10.1065 8.97436 8.85763 8.97436 7.35898V6.46153H10.2308C10.7956 6.46153 11.2932 6.16996 11.5821 5.7297C12.9382 5.59183 14 4.4432 14 3.0513C14 1.56675 12.7922 0.358978 11.3077 0.358978ZM7.89742 7.35898C7.89742 8.44764 7.01173 9.33333 5.92307 9.33333C4.8344 9.33333 3.94871 8.44764 3.94871 7.35898V6.46153H7.89742V7.35898ZM10.7692 4.84617C10.7692 5.14307 10.5277 5.38462 10.2308 5.38462H1.61539C1.31849 5.38462 1.07693 5.14307 1.07693 4.84617V3.58975H10.7693L10.7692 4.84617ZM11.8462 4.57443V2.51282H9.78458C10.0068 1.88602 10.6057 1.43588 11.3077 1.43588C12.1984 1.43588 12.9231 2.16055 12.9231 3.05127C12.9231 3.75335 12.473 4.35218 11.8462 4.57443Z" fill="white"/>
</g>
<defs>
<clipPath id="clip0_2352_287">
<rect width="14" height="14" fill="white"/>
</clipPath>
</defs>
</svg>
