<svg width="15" height="15" viewBox="0 0 15 15" fill="none" xmlns="http://www.w3.org/2000/svg">
<g clip-path="url(#clip0_2352_298)">
<path d="M13.2448 9.81801C15.0725 7.76826 15.0028 4.6148 14.9987 4.47693C14.9913 4.2217 14.7889 4.01501 14.534 4.00203C14.4664 3.99863 13.5178 3.95641 12.3368 4.19032C12.1044 3.02764 11.7099 2.19552 11.6909 2.15589C11.5827 1.92986 11.3212 1.82211 11.085 1.90601C11.0437 1.92072 10.1829 2.23088 9.20121 2.88426C8.55269 1.91709 7.88124 1.30575 7.82712 1.25723C7.641 1.09024 7.35896 1.09024 7.17284 1.25723C7.11873 1.30581 6.44724 1.91709 5.79876 2.88426C4.81711 2.23088 3.95625 1.92066 3.91497 1.90598C3.67881 1.82202 3.41742 1.92986 3.30908 2.15586C3.29007 2.19549 2.89567 3.02761 2.6632 4.19029C1.48218 3.95632 0.533639 3.9986 0.466052 4.00203C0.210993 4.01495 0.00872733 4.22167 0.00125662 4.47693C-0.00278635 4.6148 -0.0725129 7.76829 1.75517 9.81801C1.0067 10.1144 0.152282 10.6161 0.152282 11.4188C0.152282 12.2025 0.947604 12.8271 2.51619 13.2753C3.85403 13.6575 5.62397 13.868 7.5 13.868C9.37602 13.868 11.146 13.6575 12.4838 13.2753C14.0524 12.8271 14.8477 12.2025 14.8477 11.4188C14.8477 10.6165 13.9944 10.1148 13.2448 9.81801ZM14.0056 4.98327C13.9486 5.91986 13.6709 8.01892 12.3492 9.34053C11.2887 10.4011 9.72524 10.7589 8.66821 10.8768C9.81266 9.46809 10.6124 7.73864 10.4047 5.93337C11.666 5.16957 13.2318 5.01183 14.0056 4.98327ZM10.984 3.00989C11.1081 3.34238 11.2715 3.84403 11.3858 4.43252C10.9881 4.55829 10.584 4.7198 10.1937 4.92705C10.0646 4.50046 9.89358 4.09844 9.70201 3.72816C10.1961 3.39544 10.6631 3.15714 10.984 3.00989ZM7.50061 2.31608C8.54311 3.43469 9.45937 4.97758 9.45937 6.52027C9.45937 8.39205 8.13155 10.0441 7.49935 10.7245C6.86692 10.0459 5.54059 8.39858 5.54059 6.52027C5.54062 4.98339 6.45026 3.44653 7.50061 2.31608ZM4.01604 3.00989C4.33705 3.15719 4.80398 3.39547 5.29801 3.72813C5.10644 4.09841 4.93541 4.50046 4.8063 4.92702C4.41609 4.71977 4.01197 4.55826 3.61424 4.43249C3.72852 3.84394 3.892 3.34226 4.01604 3.00989ZM0.994391 4.98251C1.76716 5.01005 3.33035 5.16643 4.59536 5.93328C4.38767 7.7375 5.18639 9.46695 6.33181 10.8768C5.27478 10.7589 3.71133 10.4011 2.65081 9.34053C1.32876 8.01848 1.05126 5.91842 0.994391 4.98251ZM12.2147 12.3333C10.962 12.6912 9.28757 12.8883 7.50003 12.8883C5.71248 12.8883 4.0381 12.6912 2.78534 12.3333C1.43575 11.9477 1.132 11.5335 1.132 11.4188C1.132 11.3094 1.40601 10.9319 2.58272 10.5649C3.92909 11.5418 5.92177 11.9762 7.5 11.9092C9.05358 11.9752 11.055 11.5533 12.4173 10.5649C13.594 10.9319 13.868 11.3094 13.868 11.4188C13.868 11.5335 13.5643 11.9477 12.2147 12.3333Z" fill="white"/>
</g>
<defs>
<clipPath id="clip0_2352_298">
<rect width="15" height="15" fill="white"/>
</clipPath>
</defs>
</svg>
