<svg width="13" height="14" viewBox="0 0 13 14" fill="none" xmlns="http://www.w3.org/2000/svg">
<path d="M5.15951 6.13555V1.67333C5.15951 1.36783 4.90621 1.11556 4.59947 1.11556C4.29273 1.11556 4.03944 1.36783 4.03944 1.67333V7.80889C4.03944 8.11694 3.7887 8.36666 3.4794 8.36666C3.1701 8.36666 2.91937 8.11694 2.91937 7.80889V1.67333C2.91937 0.751725 3.67413 0 4.59947 0C5.52481 0 6.27958 0.751725 6.27958 1.67333V6.13555C6.27958 6.44361 6.02884 6.69333 5.71954 6.69333C5.41024 6.69333 5.15951 6.44361 5.15951 6.13555Z" fill="white"/>
<path d="M7.39965 6.13555V5.57778C7.39965 5.27227 7.14635 5.02 6.83961 5.02C6.53287 5.02 6.27958 5.27227 6.27958 5.57778V6.13555C6.27958 6.44361 6.02884 6.69333 5.71954 6.69333C5.41024 6.69333 5.15951 6.44361 5.15951 6.13555V5.57778C5.15951 4.65617 5.91428 3.90444 6.83961 3.90444C7.76495 3.90444 8.51972 4.65617 8.51972 5.57778V6.13555C8.51972 6.44361 8.26898 6.69333 7.95968 6.69333C7.65038 6.69333 7.39965 6.44361 7.39965 6.13555Z" fill="white"/>
<path d="M9.63979 6.13555V5.57778C9.63979 5.27227 9.38649 5.02 9.07975 5.02C8.77301 5.02 8.51972 5.27227 8.51972 5.57778V6.13555C8.51972 6.44361 8.26898 6.69333 7.95968 6.69333C7.65038 6.69333 7.39965 6.44361 7.39965 6.13555V5.57778C7.39965 4.65617 8.15442 3.90444 9.07975 3.90444C10.0051 3.90444 10.7599 4.65617 10.7599 5.57778V6.13555C10.7599 6.44361 10.5091 6.69333 10.1998 6.69333C9.89053 6.69333 9.63979 6.44361 9.63979 6.13555Z" fill="white"/>
<path d="M11.8799 8.92444V2.78889C11.8799 2.48338 11.6266 2.23111 11.3199 2.23111C11.0132 2.23111 10.7599 2.48338 10.7599 2.78889V6.13555C10.7599 6.44361 10.5091 6.69333 10.1998 6.69333C9.89053 6.69333 9.63979 6.44361 9.63979 6.13555V2.78889C9.63979 1.86728 10.3946 1.11556 11.3199 1.11556C12.2452 1.11556 13 1.86728 13 2.78889V8.92444C13 9.23249 12.7493 9.48222 12.44 9.48222C12.1307 9.48222 11.8799 9.23249 11.8799 8.92444Z" fill="white"/>
<path d="M2.91924 6.69333C2.91924 6.38532 3.17003 6.13562 3.47927 6.13555C3.78857 6.13555 4.03931 6.38528 4.03931 6.69333V9.25889C4.03931 9.49368 3.89178 9.70346 3.67014 9.78344C3.44849 9.86337 3.20036 9.79653 3.0494 9.61622L2.22083 8.62594L2.1727 8.57746C1.92469 8.35002 1.54743 8.34666 1.29929 8.59381C1.0795 8.81272 1.04825 9.15615 1.28179 9.4637L3.05815 11.454L3.068 11.4655C3.84813 12.3881 5.02945 12.8844 6.22366 12.8844H8.2959C10.2826 12.8843 11.8797 11.2937 11.8798 9.31499V6.69333C11.8798 6.38532 12.1306 6.13562 12.4398 6.13555C12.7491 6.13555 12.9999 6.38528 12.9999 6.69333V9.31499C12.9998 11.9098 10.9012 13.9999 8.2959 14H6.22366C4.73448 14 3.23272 13.3848 2.22083 12.1954L0.428611 10.1876C0.420474 10.1785 0.412612 10.1689 0.405093 10.1593C-0.136682 9.46547 -0.166387 8.47612 0.507365 7.80507C1.20054 7.11469 2.25236 7.14669 2.91924 7.7457V6.69333Z" fill="white"/>
</svg>
