<svg width="15" height="15" viewBox="0 0 15 15" fill="none" xmlns="http://www.w3.org/2000/svg">
<path d="M10.3125 4.21875C10.3125 4.40417 10.2575 4.58543 10.1545 4.7396C10.0515 4.89377 9.90509 5.01393 9.73378 5.08489C9.56247 5.15585 9.37397 5.17441 9.19212 5.13824C9.01026 5.10207 8.84321 5.01278 8.7121 4.88167C8.58099 4.75056 8.4917 4.58351 8.45553 4.40165C8.41935 4.21979 8.43792 4.03129 8.50888 3.85999C8.57983 3.68868 8.7 3.54227 8.85417 3.43925C9.00834 3.33624 9.18959 3.28125 9.37501 3.28125C9.62365 3.28126 9.86211 3.38003 10.0379 3.55584C10.2137 3.73166 10.3125 3.97011 10.3125 4.21875ZM14.2969 4.6875C14.2969 4.80326 14.2683 4.91722 14.2137 5.01928C14.1591 5.12134 14.0801 5.20833 13.9838 5.27253L12.8906 6.00129V7.03125C12.8887 8.709 12.2214 10.3175 11.0351 11.5038C9.84874 12.6902 8.24026 13.3575 6.56251 13.3594H0.703139C0.571927 13.3594 0.443331 13.3227 0.331897 13.2534C0.220463 13.1841 0.130637 13.085 0.0725779 12.9674C0.014519 12.8497 -0.00945586 12.7181 0.0033648 12.5876C0.0161855 12.457 0.0652901 12.3326 0.145125 12.2284L5.39064 5.38651V4.45313C5.39078 3.56512 5.70599 2.70597 6.28018 2.02858C6.85437 1.35118 7.65028 0.899492 8.52627 0.753892C9.40226 0.608291 10.3015 0.778227 11.0639 1.23346C11.8264 1.68868 12.4026 2.39967 12.69 3.23989L13.9838 4.10249C14.0801 4.16669 14.1591 4.25368 14.2137 4.35573C14.2683 4.45779 14.2969 4.57175 14.2969 4.6875ZM12.3262 4.6875L11.6998 4.26985C11.5562 4.17407 11.4527 4.02877 11.4093 3.86164C11.2654 3.31011 10.9254 2.82992 10.4531 2.51091C9.9807 2.19189 9.40828 2.05592 8.84291 2.12842C8.27754 2.20092 7.75796 2.47693 7.38137 2.90481C7.00478 3.3327 6.797 3.88313 6.79689 4.45313V5.625C6.79689 5.77969 6.74589 5.93006 6.65178 6.05281L2.12821 11.9531H6.56251C7.86742 11.9517 9.11846 11.4326 10.0412 10.5099C10.9639 9.5872 11.4829 8.33616 11.4844 7.03125V5.625C11.4844 5.50925 11.513 5.39529 11.5676 5.29323C11.6222 5.19117 11.7012 5.10418 11.7975 5.03998L12.3262 4.6875ZM7.53715 7.41074C7.46387 7.35456 7.38024 7.31337 7.29105 7.28951C7.20185 7.26565 7.10882 7.25959 7.01728 7.27169C6.92574 7.28378 6.83748 7.31378 6.75753 7.35999C6.67759 7.40619 6.60753 7.46769 6.55136 7.54097L4.75452 9.88472C4.69827 9.958 4.65701 10.0416 4.6331 10.1309C4.60919 10.2201 4.60309 10.3131 4.61516 10.4047C4.62723 10.4963 4.65723 10.5846 4.70344 10.6646C4.74965 10.7446 4.81116 10.8147 4.88447 10.8709C4.95778 10.9271 5.04145 10.9683 5.13069 10.9921C5.21993 11.016 5.313 11.022 5.40457 11.0099C5.49615 10.9978 5.58443 10.9677 5.66439 10.9215C5.74434 10.8752 5.8144 10.8136 5.87055 10.7403L7.66738 8.39653C7.72356 8.32326 7.76476 8.23963 7.78861 8.15043C7.81247 8.06123 7.81853 7.9682 7.80644 7.87666C7.79434 7.78512 7.76434 7.69686 7.71813 7.61692C7.67193 7.53698 7.61043 7.46692 7.53715 7.41074Z" fill="white"/>
</svg>
