<svg width="14" height="14" viewBox="0 0 14 14" fill="none" xmlns="http://www.w3.org/2000/svg">
<g clip-path="url(#clip0_2361_100)">
<path d="M7 0.21875C3.25473 0.21875 0.21875 3.25473 0.21875 7C0.21875 10.7453 3.25473 13.7812 7 13.7812C10.7453 13.7812 13.7812 10.7453 13.7812 7C13.7812 3.25473 10.7453 0.21875 7 0.21875ZM12.0312 7C12.0312 7.87309 11.807 8.69449 11.4141 9.4109L7.875 6.57973V2.04996C10.2329 2.46586 12.0312 4.52457 12.0312 7ZM6.125 11.95C5.19914 11.7868 4.3616 11.3704 3.68348 10.7737L6.125 8.82027V11.95ZM7.875 8.82027L10.3165 10.7734C9.6384 11.3701 8.80086 11.7865 7.875 11.9498V8.82027ZM6.125 2.04996V6.57973L2.5859 9.4109C2.19297 8.69449 1.96875 7.87309 1.96875 7C1.96875 4.52457 3.76715 2.46586 6.125 2.04996Z" fill="white"/>
</g>
<defs>
<clipPath id="clip0_2361_100">
<rect width="14" height="14" fill="white"/>
</clipPath>
</defs>
</svg>
