<svg width="14" height="14" viewBox="0 0 14 14" fill="none" xmlns="http://www.w3.org/2000/svg">
<path d="M12.4621 5.46204C11.8524 5.46204 9.25279 6.28985 8.29306 6.60239C8.26779 6.52037 8.23477 6.44169 8.19511 6.36711C9.09437 5.90967 11.5187 4.65649 11.9498 4.22531C12.5495 3.62565 12.5495 2.64993 11.9498 2.05028C11.3501 1.45062 10.3745 1.45068 9.7748 2.05028C9.34361 2.48146 8.09043 4.9057 7.63299 5.80499C7.55837 5.7653 7.47973 5.73231 7.3977 5.70701C7.71025 4.74728 8.53806 2.14767 8.53806 1.53796C8.53803 0.689922 7.84807 0 7.00003 0C6.15199 0 5.46206 0.689922 5.46206 1.53796C5.46206 2.14767 6.28988 4.74728 6.60242 5.70701C6.52039 5.73228 6.44172 5.7653 6.36714 5.80499C5.9097 4.9057 4.65651 2.48146 4.22533 2.05028C3.62564 1.45065 2.64998 1.45059 2.05028 2.05028C1.45062 2.64993 1.45062 3.62565 2.05028 4.22531C2.48147 4.65649 4.90575 5.90967 5.80501 6.36711C5.76535 6.44172 5.73233 6.52037 5.70706 6.60239C4.74733 6.28985 2.14771 5.46204 1.538 5.46204C0.689925 5.46204 0 6.15196 0 7C0 7.84804 0.689925 8.53796 1.53797 8.53796C2.14768 8.53796 4.7473 7.71015 5.70703 7.39761C5.7323 7.47963 5.76532 7.55831 5.80498 7.63289C4.90572 8.09033 2.48144 9.34351 2.05025 9.77469C1.45059 10.3744 1.45059 11.3501 2.05025 11.9497C2.3501 12.2495 2.74393 12.3995 3.13776 12.3995C3.53162 12.3995 3.92545 12.2495 4.2253 11.9497C4.65648 11.5185 5.90967 9.0943 6.3671 8.19501C6.44172 8.2347 6.52036 8.26769 6.60239 8.29299C6.28984 9.25272 5.46203 11.8523 5.46203 12.462C5.46203 13.3101 6.15196 14 7 14C7.84804 14 8.53797 13.3101 8.53797 12.462C8.53797 11.8523 7.71015 9.25272 7.39761 8.29299C7.47964 8.26772 7.55831 8.2347 7.63289 8.19501C8.09033 9.0943 9.34352 11.5185 9.7747 11.9497C10.0745 12.2495 10.4684 12.3995 10.8622 12.3995C11.2561 12.3995 11.6499 12.2495 11.9497 11.9497C12.5494 11.3501 12.5494 10.3744 11.9497 9.77469C11.5186 9.34351 9.09428 8.09033 8.19502 7.63289C8.23468 7.55828 8.2677 7.47963 8.29297 7.39761C9.2527 7.71015 11.8523 8.53796 12.462 8.53796C13.3101 8.53796 14 7.84804 14 7C14 6.15196 13.3102 5.46204 12.4621 5.46204ZM7.00003 7.73785C6.5932 7.73785 6.26218 7.40683 6.26218 7C6.26218 6.59317 6.5932 6.26215 7.00003 6.26215C7.40687 6.26215 7.73789 6.59317 7.73789 7C7.73789 7.40683 7.4069 7.73785 7.00003 7.73785ZM10.2096 2.48505C10.3896 2.30508 10.6259 2.21512 10.8623 2.21512C11.0987 2.21512 11.3351 2.30511 11.515 2.48505C11.6893 2.6594 11.7854 2.89121 11.7854 3.13778C11.7854 3.38434 11.6893 3.61615 11.515 3.79047C11.2524 4.05305 9.73627 4.87908 8.45991 5.5401C9.12093 4.2638 9.94696 2.74767 10.2096 2.48505ZM7.00003 0.614877C7.50903 0.614877 7.92312 1.029 7.92312 1.53796C7.92312 1.90928 7.43512 3.56548 7.00003 4.9354C6.56494 3.56548 6.07694 1.90928 6.07694 1.53796C6.07694 1.029 6.49106 0.614877 7.00003 0.614877ZM2.48506 3.7905C2.12515 3.43058 2.12515 2.84497 2.48506 2.48505C2.65941 2.31071 2.89122 2.21469 3.13779 2.21469C3.38436 2.21469 3.61617 2.31071 3.79048 2.48505C4.05307 2.74761 4.8791 4.26377 5.54012 5.54013C4.26382 4.87914 2.74768 4.05311 2.48506 3.7905ZM1.53797 7.92311C1.029 7.92311 0.614879 7.50899 0.614879 7C0.614879 6.49101 1.029 6.07692 1.53797 6.07692C1.90929 6.07692 3.5655 6.56491 4.93542 7C3.56553 7.43512 1.90932 7.92311 1.53797 7.92311ZM3.79052 11.515C3.4306 11.8749 2.84498 11.8749 2.48506 11.515C2.31072 11.3406 2.2147 11.1088 2.2147 10.8623C2.2147 10.6157 2.31072 10.3839 2.48506 10.2096C2.74762 9.94698 4.26379 9.12095 5.54015 8.45993C4.87916 9.7362 4.05313 11.2524 3.79052 11.515ZM7.00003 13.3852C6.49103 13.3852 6.07694 12.971 6.07694 12.4621C6.07694 12.0907 6.56494 10.4345 7.00003 9.06463C7.43512 10.4345 7.92312 12.0907 7.92312 12.4621C7.92315 12.971 7.50903 13.3852 7.00003 13.3852ZM11.515 10.2095C11.8749 10.5695 11.8749 11.1551 11.515 11.515C11.3407 11.6893 11.1089 11.7853 10.8623 11.7853C10.6157 11.7853 10.3839 11.6893 10.2096 11.515C9.94702 11.2524 9.12099 9.73626 8.45997 8.4599C9.73624 9.12089 11.2524 9.94692 11.515 10.2095ZM12.4621 7.92311C12.0908 7.92311 10.4346 7.43512 9.06467 7.00003C10.4346 6.56494 12.0908 6.07695 12.4621 6.07695C12.9711 6.07695 13.3852 6.49107 13.3852 7.00003C13.3852 7.50899 12.9711 7.92311 12.4621 7.92311Z" fill="white"/>
<path d="M8.29173 1.69558C8.2917 0.983518 7.71206 0.403846 7 0.403846C6.28794 0.403846 5.70827 0.983519 5.70827 1.69558C5.70828 1.81597 5.75222 2.06185 5.83316 2.39981C5.91219 2.7298 6.02118 3.12654 6.14025 3.53602C6.37827 4.35459 6.65429 5.21638 6.80583 5.68172L6.86933 5.8768L6.67332 5.93727C6.60625 5.95794 6.54165 5.98503 6.48021 6.01773L6.29866 6.11435L6.20532 5.93096C5.98353 5.49494 5.56934 4.69028 5.15877 3.94302C4.95338 3.56922 4.74995 3.21152 4.57245 2.92223C4.39064 2.6259 4.24769 2.42092 4.16256 2.33579C3.65901 1.83233 2.8393 1.83227 2.33579 2.33579C1.83229 2.83928 1.83231 3.65905 2.33579 4.16256C2.42092 4.24769 2.6259 4.39064 2.92223 4.57245C3.21152 4.74995 3.56922 4.95338 3.94302 5.15877C4.69031 5.56936 5.49496 5.98367 5.93096 6.20545L6.11422 6.29866L6.01773 6.48007C5.98501 6.54163 5.95793 6.60627 5.93727 6.67332L5.87693 6.86933L5.68185 6.80583C5.21654 6.6543 4.35474 6.37828 3.53615 6.14025C3.12669 6.02119 2.72993 5.91219 2.39994 5.83316C2.06194 5.75221 1.81597 5.70828 1.69558 5.70827C0.983487 5.70827 0.403846 6.28795 0.403846 7C0.403846 7.71206 0.98352 8.29173 1.69558 8.29173C1.81597 8.29172 2.06185 8.24778 2.39981 8.16684C2.7298 8.08781 3.12654 7.97882 3.53602 7.85975C4.35459 7.62173 5.21638 7.34571 5.68172 7.19417L5.8768 7.13067L5.93727 7.32668C5.95794 7.39374 5.98504 7.45832 6.01773 7.51979L6.11422 7.70134L5.93096 7.79468C5.49496 8.01647 4.69029 8.43065 3.94302 8.84123C3.56922 9.04662 3.21152 9.25005 2.92223 9.42755C2.6259 9.60936 2.42092 9.75231 2.33579 9.83744C1.8323 10.3409 1.83229 11.1607 2.33579 11.6642C2.58748 11.9159 2.91791 12.0418 3.24917 12.0418C3.58047 12.0418 3.91088 11.9159 4.16256 11.6642C4.24769 11.5791 4.39064 11.3741 4.57245 11.0778C4.74995 10.7885 4.95338 10.4308 5.15877 10.057C5.56934 9.30972 5.98353 8.50506 6.20532 8.06904L6.29866 7.88565L6.48021 7.98227C6.54166 8.01496 6.6062 8.04202 6.67332 8.06273L6.86933 8.1232L6.80583 8.31828C6.6543 8.78362 6.37814 9.64541 6.14012 10.464C6.02106 10.8734 5.91219 11.2702 5.83316 11.6002C5.75222 11.9382 5.70828 12.184 5.70827 12.3044C5.70827 13.0165 6.28794 13.5962 7 13.5962C7.71204 13.5961 8.2916 13.0165 8.2916 12.3044C8.29158 12.184 8.24778 11.9381 8.16684 11.6002C8.08781 11.2702 7.97882 10.8735 7.85975 10.464C7.62173 9.64542 7.34571 8.78362 7.19417 8.31828L7.13054 8.1232L7.32668 8.06273C7.39375 8.04206 7.45835 8.01497 7.51979 7.98227L7.70134 7.88565L7.79455 8.06904C8.01633 8.50505 8.43052 9.30971 8.8411 10.057C9.04649 10.4308 9.25005 10.7885 9.42755 11.0778C9.60936 11.3741 9.75231 11.5791 9.83744 11.6642C10.0891 11.9158 10.4195 12.0418 10.7508 12.0418C11.0821 12.0418 11.4124 11.9158 11.6641 11.6642C12.1676 11.1607 12.1676 10.3409 11.6641 9.83744C11.5789 9.75231 11.3741 9.60934 11.0778 9.42755C10.7885 9.25006 10.4308 9.04661 10.057 8.84123C9.30969 8.43064 8.5049 8.01646 8.0689 7.79468L7.88578 7.70134L7.98227 7.51993C8.01499 7.45837 8.04207 7.39373 8.06273 7.32668L8.12307 7.13067L8.31815 7.19417C8.78346 7.3457 9.64525 7.62172 10.4638 7.85975C10.8733 7.97882 11.2701 8.08781 11.6001 8.16684C11.9381 8.24779 12.184 8.29173 12.3044 8.29173C13.0165 8.29173 13.5962 7.71206 13.5962 7C13.5962 6.28794 13.0166 5.7083 12.3046 5.70827C12.1842 5.70827 11.9382 5.75221 11.6002 5.83316C11.2702 5.91219 10.8735 6.02118 10.464 6.14025C9.6454 6.37827 8.78361 6.6543 8.31828 6.80583L8.1232 6.86933L8.06273 6.67332C8.04206 6.60625 8.01496 6.54169 7.98227 6.48021L7.88578 6.29866L8.06904 6.20545C8.50503 5.98367 9.30969 5.56936 10.057 5.15877C10.4308 4.95339 10.7885 4.74995 11.0778 4.57245C11.3741 4.39064 11.5791 4.24769 11.6642 4.16256C12.1677 3.65906 12.1677 2.83929 11.6642 2.33579C11.1607 1.83232 10.3409 1.83235 9.83744 2.33579C9.75231 2.42092 9.60948 2.62592 9.42768 2.92223C9.25018 3.21153 9.04662 3.56921 8.84123 3.94302C8.43065 4.69029 8.01647 5.49494 7.79468 5.93096L7.70147 6.11435L7.51993 6.01773C7.45845 5.98503 7.39382 5.95799 7.32668 5.93727L7.13067 5.8768L7.19417 5.68172C7.3457 5.21639 7.62186 4.3546 7.85988 3.53602C7.97895 3.12655 8.08795 2.7298 8.16697 2.39981C8.24791 2.06186 8.29172 1.81597 8.29173 1.69558ZM7.69451 12.3046C7.69451 12.241 7.67086 12.0948 7.61905 11.8692C7.56902 11.6512 7.49752 11.3781 7.41226 11.0728C7.29333 10.6468 7.14826 10.1616 7 9.68153C6.85174 10.1616 6.70668 10.6468 6.58774 11.0728C6.50248 11.3781 6.43098 11.6512 6.38095 11.8692C6.32914 12.0948 6.3055 12.241 6.3055 12.3046C6.30552 12.6873 6.61723 12.9991 7 12.9991C7.38279 12.9991 7.69451 12.6873 7.69451 12.3046ZM8.51074 8.23849C9.13159 8.56003 9.81185 8.92227 10.3696 9.23654C10.6483 9.39357 10.8981 9.53952 11.0951 9.66299C11.2854 9.78221 11.445 9.89163 11.5275 9.97416C11.9559 10.4026 11.9559 11.0991 11.5275 11.5275C11.3203 11.7347 11.0438 11.8492 10.7508 11.8492C10.4578 11.8492 10.1813 11.7347 9.97416 11.5275C9.89163 11.445 9.78232 11.2854 9.66312 11.0951C9.53965 10.8981 9.39358 10.6483 9.23654 10.3696C8.92227 9.81184 8.56005 9.13151 8.23849 8.51061L7.94612 7.94612L8.51074 8.23849ZM5.76151 8.51074C5.43997 9.13159 5.07772 9.81185 4.76347 10.3696C4.60643 10.6483 4.46048 10.8981 4.33701 11.0951C4.21779 11.2854 4.10838 11.445 4.02584 11.5275C3.59744 11.9559 2.90089 11.9559 2.47251 11.5275C2.26533 11.3203 2.15082 11.0438 2.15082 10.7508C2.15083 10.4578 2.26531 10.1813 2.47251 9.97416L2.50695 9.94208C2.59538 9.86423 2.73838 9.76745 2.90488 9.66312C3.10193 9.53965 3.35169 9.39358 3.63041 9.23654C4.18817 8.92227 4.86848 8.56005 5.48939 8.23849L6.05388 7.94612L5.76151 8.51074ZM8.89605 8.89605C9.13068 9.34038 9.37135 9.78603 9.58845 10.1713C9.74408 10.4476 9.88659 10.6912 10.0053 10.8807C10.1283 11.0769 10.2147 11.197 10.2597 11.242H10.2598C10.3912 11.3734 10.5649 11.4453 10.7508 11.4453C10.9367 11.4453 11.1105 11.3734 11.242 11.242C11.5126 10.9713 11.5126 10.5304 11.242 10.2597C11.197 10.2147 11.0769 10.1281 10.8807 10.0052C10.6912 9.88646 10.4476 9.74395 10.1713 9.58832C9.78604 9.37122 9.34035 9.13067 8.89605 8.89605ZM1.69558 5.90165C1.81229 5.90166 2.00247 5.93713 2.22129 5.98736C2.44792 6.03939 2.7277 6.11285 3.03581 6.19888C3.65243 6.37105 4.38968 6.59589 5.0561 6.80754L5.662 7L5.0561 7.19246C4.3897 7.40413 3.65256 7.62908 3.03595 7.80125C2.72782 7.88729 2.44794 7.96061 2.22129 8.01264C2.00247 8.06287 1.8123 8.09834 1.69558 8.09835C1.08977 8.09835 0.597093 7.60583 0.597093 7C0.597093 6.39416 1.08978 5.90165 1.69558 5.90165ZM12.9991 7C12.999 6.61726 12.6873 6.30552 12.3046 6.3055C12.241 6.3055 12.0949 6.32927 11.8692 6.38109C11.6512 6.43112 11.3781 6.50261 11.0728 6.58787C10.6468 6.70681 10.1616 6.85174 9.68153 7C10.1616 7.14826 10.6468 7.29333 11.0728 7.41226C11.3781 7.49752 11.6512 7.56902 11.8692 7.61905C12.0949 7.67086 12.241 7.69451 12.3046 7.69451C12.6873 7.69448 12.9991 7.38275 12.9991 7ZM7.51467 7C7.51467 6.71642 7.28358 6.48533 7 6.48533C6.71642 6.48533 6.48533 6.71642 6.48533 7C6.48533 7.28358 6.71642 7.51467 7 7.51467C7.2836 7.51467 7.51467 7.28358 7.51467 7ZM3.24917 2.15082C3.54217 2.15082 3.81868 2.26531 4.02584 2.47251L4.05805 2.50695C4.1359 2.59539 4.23269 2.7384 4.33701 2.90488C4.46048 3.10193 4.60643 3.3517 4.76347 3.63041C5.07774 4.18817 5.43995 4.86848 5.76151 5.48939L6.05388 6.05388L5.48939 5.76151C4.86851 5.43996 4.18816 5.07774 3.63041 4.76347C3.35174 4.60645 3.10205 4.46047 2.90501 4.33701C2.71472 4.21778 2.55504 4.10838 2.47251 4.02584C2.04413 3.59745 2.04412 2.90089 2.47251 2.47251C2.67969 2.26532 2.95618 2.15083 3.24917 2.15082ZM11.4453 3.24917C11.4453 3.06328 11.3734 2.88948 11.242 2.75804C11.1067 2.6228 10.9292 2.55507 10.7508 2.55506C10.5725 2.55506 10.395 2.62277 10.2597 2.75804C10.2147 2.80302 10.1282 2.92317 10.0052 3.11942C9.88647 3.30889 9.74393 3.55248 9.58832 3.82865C9.37124 4.21392 9.13066 4.65956 8.89605 5.10382C9.34035 4.8692 9.78606 4.62864 10.1713 4.41155C10.4475 4.25593 10.6912 4.1134 10.8807 3.99469C11.0769 3.87174 11.197 3.78527 11.242 3.74031C11.3734 3.6089 11.4453 3.43508 11.4453 3.24917ZM7.69451 1.69558C7.69451 1.31281 7.38279 1.00094 7 1.00094C6.61724 1.00094 6.3055 1.31281 6.3055 1.69558C6.30551 1.7592 6.32915 1.90532 6.38095 2.13097C6.43098 2.34888 6.50249 2.62191 6.58774 2.92723C6.70666 3.35313 6.85176 3.83833 7 4.31834C7.14825 3.83833 7.29334 3.35313 7.41226 2.92723C7.49751 2.62191 7.56902 2.34888 7.61905 2.13097C7.67085 1.90532 7.69449 1.7592 7.69451 1.69558ZM3.24917 2.55467C3.06328 2.55467 2.88948 2.62659 2.75804 2.75804C2.48736 3.02871 2.48737 3.46963 2.75804 3.74031C2.80302 3.78529 2.92317 3.87185 3.11942 3.99482C3.30889 4.11353 3.55248 4.25607 3.82865 4.41168C4.2139 4.62875 4.65958 4.86923 5.10382 5.10382C4.86922 4.65956 4.62862 4.21391 4.41155 3.82865C4.25593 3.55246 4.1134 3.30876 3.99469 3.11929C3.87174 2.92308 3.78527 2.80299 3.74031 2.75804C3.6089 2.6266 3.43508 2.55467 3.24917 2.55467ZM8.09835 12.3046C8.09836 12.9103 7.60581 13.4029 7 13.4029C6.39418 13.4029 5.90167 12.9103 5.90165 12.3046C5.90165 12.1878 5.93712 11.9976 5.98736 11.7787C6.03939 11.5521 6.11285 11.2723 6.19888 10.9642C6.37105 10.3476 6.59589 9.61032 6.80754 8.9439L7 8.338L7.19246 8.9439C7.40411 9.61032 7.62895 10.3476 7.80112 10.9642C7.88715 11.2723 7.96061 11.5521 8.01264 11.7787C8.06288 11.9976 8.09835 12.1878 8.09835 12.3046ZM2.55467 10.7508C2.55467 10.9367 2.6266 11.1105 2.75804 11.242C3.02873 11.5127 3.46964 11.5127 3.74031 11.242C3.78529 11.197 3.87186 11.0769 3.99482 10.8807C4.11354 10.6912 4.25605 10.4475 4.41168 10.1713C4.62877 9.78606 4.86921 9.34033 5.10382 8.89605C4.65953 9.13066 4.21393 9.37137 3.82865 9.58845C3.55246 9.74408 3.30876 9.8866 3.11929 10.0053C2.92309 10.1283 2.803 10.2147 2.75804 10.2597V10.2598C2.62663 10.3912 2.55467 10.5649 2.55467 10.7508ZM1.00094 7C1.00094 7.3828 1.31282 7.69451 1.69558 7.69451C1.75921 7.69449 1.90531 7.67085 2.13097 7.61905C2.34889 7.56902 2.62191 7.49751 2.92723 7.41226C3.35313 7.29334 3.83834 7.14825 4.31834 7C3.83833 6.85176 3.35313 6.70666 2.92723 6.58774C2.62191 6.50249 2.34888 6.43098 2.13097 6.38095C1.90532 6.32915 1.7592 6.30551 1.69558 6.3055C1.31281 6.3055 1.00094 6.61721 1.00094 7ZM7.91851 7C7.91851 7.50661 7.50665 7.91851 7 7.91851C6.49338 7.91851 6.08149 7.50662 6.08149 7C6.08149 6.49338 6.49338 6.08149 7 6.08149C7.50662 6.08149 7.91851 6.49338 7.91851 7ZM13.4029 7C13.4029 7.60579 12.9103 8.09833 12.3046 8.09835C12.1878 8.09835 11.9976 8.06288 11.7787 8.01264C11.5521 7.96061 11.2723 7.88728 10.9642 7.80125C10.3476 7.62908 9.61032 7.40411 8.9439 7.19246L8.338 7L8.9439 6.80754C9.61032 6.59589 10.3476 6.37105 10.9642 6.19888C11.2723 6.11285 11.5521 6.03939 11.7787 5.98736C11.9976 5.93712 12.1878 5.90165 12.3046 5.90165C12.9104 5.90167 13.4029 6.39423 13.4029 7ZM11.8492 3.24917C11.8492 3.52385 11.7485 3.78399 11.5652 3.98614L11.5275 4.02584C11.445 4.10838 11.2854 4.21779 11.0951 4.33701C10.8981 4.46048 10.6483 4.60643 10.3696 4.76347C9.81183 5.07774 9.13152 5.43995 8.51061 5.76151L7.94612 6.05388L8.23849 5.48939C8.56005 4.86851 8.92226 4.18816 9.23654 3.63041C9.39355 3.35174 9.53953 3.10205 9.66299 2.90501C9.78222 2.71473 9.89162 2.55504 9.97416 2.47251C10.1885 2.25821 10.4701 2.15122 10.7508 2.15122C11.0316 2.15122 11.3132 2.25824 11.5275 2.47251C11.7347 2.67969 11.8492 2.95618 11.8492 3.24917ZM8.09835 1.69558C8.09834 1.81229 8.06287 2.00247 8.01264 2.22129C7.96061 2.44792 7.88715 2.7277 7.80112 3.03581C7.62895 3.65243 7.40411 4.38968 7.19246 5.0561L7 5.662L6.80754 5.0561C6.59589 4.38968 6.37105 3.65243 6.19888 3.03581C6.11285 2.7277 6.03939 2.44792 5.98736 2.22129C5.93713 2.00247 5.90166 1.81229 5.90165 1.69558C5.90165 1.08977 6.3942 0.597093 7 0.597093C7.60584 0.597093 8.09835 1.08978 8.09835 1.69558ZM8.69558 1.69558C8.69556 1.87126 8.63891 2.16297 8.55965 2.49393C8.47846 2.83295 8.36754 3.23665 8.24769 3.64881C8.12165 4.08227 7.98492 4.52721 7.86172 4.91964C8.05204 4.55515 8.27004 4.14409 8.48734 3.74859C8.69407 3.37234 8.90104 3.0083 9.08338 2.71111C9.26142 2.42094 9.42767 2.1745 9.55191 2.05026C10.2131 1.38912 11.2885 1.38907 11.9497 2.05026C12.611 2.71147 12.611 3.78688 11.9497 4.44809C11.8255 4.57233 11.5792 4.73859 11.289 4.91662C10.9918 5.09896 10.6278 5.30605 10.2515 5.51279C9.85599 5.73012 9.44475 5.94795 9.08023 6.13828C9.47269 6.01507 9.9177 5.87849 10.3512 5.75244C10.7634 5.63259 11.1671 5.52155 11.5061 5.44035C11.8371 5.36108 12.1289 5.30442 12.3046 5.30442C13.2396 5.30445 14 6.06494 14 7C14 7.93509 13.2395 8.69557 12.3044 8.69558C12.1288 8.69558 11.8371 8.63891 11.5061 8.55965C11.167 8.47845 10.7632 8.36741 10.3511 8.24756C9.91755 8.12151 9.47256 7.9848 9.0801 7.86159C9.44464 8.05193 9.85583 8.26987 10.2514 8.48721C10.6277 8.69395 10.9917 8.90103 11.2889 9.08338C11.5791 9.26142 11.8255 9.42767 11.9497 9.55191C12.6109 10.2131 12.6109 11.2885 11.9497 11.9497C11.6191 12.2804 11.1845 12.4456 10.7508 12.4456C10.3172 12.4456 9.8826 12.2804 9.55191 11.9497H9.55178C9.42754 11.8255 9.26141 11.579 9.08338 11.2889C8.90104 10.9917 8.69395 10.6277 8.48721 10.2514C8.26989 9.85587 8.05192 9.44475 7.86159 9.08023C7.9848 9.4727 8.12151 9.91769 8.24756 10.3512C8.36741 10.7634 8.47832 11.1671 8.55951 11.5061C8.63878 11.837 8.69543 12.1287 8.69544 12.3044C8.69544 13.2395 7.93508 14 7 14C6.06491 14 5.30442 13.2395 5.30442 12.3044C5.30444 12.1287 5.36109 11.837 5.44035 11.5061C5.52155 11.167 5.63259 10.7634 5.75244 10.3512C5.87849 9.91771 6.01494 9.47268 6.13815 9.08023C5.94783 9.44472 5.73009 9.85591 5.51279 10.2514C5.30606 10.6277 5.09896 10.9917 4.91662 11.2889C4.74971 11.5609 4.59317 11.7945 4.47189 11.925L4.44809 11.9497C4.1174 12.2804 3.68285 12.4456 3.24917 12.4456C2.81552 12.4456 2.38095 12.2804 2.05026 11.9497C1.38904 11.2885 1.38905 10.2131 2.05026 9.55191C2.17449 9.42768 2.42083 9.26141 2.71098 9.08338C3.00818 8.90103 3.37231 8.69395 3.74859 8.48721C4.1441 8.26991 4.55515 8.0519 4.91964 7.86159C4.5272 7.98479 4.08227 8.12152 3.64881 8.24756C3.23663 8.36741 2.83295 8.47845 2.49393 8.55965C2.16297 8.63891 1.87126 8.69556 1.69558 8.69558C0.760481 8.69558 0 7.93509 0 7C1.02309e-07 6.0649 0.760454 5.30442 1.69558 5.30442C1.87126 5.30443 2.16295 5.36109 2.49393 5.44035C2.83295 5.52154 3.23663 5.63259 3.64881 5.75244C4.08225 5.87847 4.52722 6.01508 4.91964 6.13828C4.55517 5.94797 4.14407 5.73008 3.74859 5.51279C3.37232 5.30605 3.00831 5.09896 2.71111 4.91662C2.42094 4.73858 2.1745 4.57233 2.05026 4.44809C1.38907 3.78687 1.38905 2.71146 2.05026 2.05026C2.7115 1.38901 3.78686 1.38911 4.44809 2.05026C4.57233 2.1745 4.73858 2.42094 4.91662 2.71111C5.09896 3.0083 5.30605 3.37233 5.51279 3.74859C5.73008 4.14407 5.94797 4.55516 6.13828 4.91964C6.01508 4.52721 5.87848 4.08226 5.75244 3.64881C5.63259 3.23663 5.52155 2.83295 5.44035 2.49393C5.36109 2.16297 5.30444 1.87126 5.30442 1.69558C5.30442 0.760481 6.06491 0 7 0C7.93509 1.45307e-07 8.69554 0.760483 8.69558 1.69558Z" fill="white"/>
</svg>
