<svg width="14" height="14" viewBox="0 0 14 14" fill="none" xmlns="http://www.w3.org/2000/svg">
<g clip-path="url(#clip0_2352_335)">
<path d="M11.2 1.4H14V11.9C14 12.457 13.7788 12.9911 13.3849 13.3849C12.9911 13.7788 12.457 14 11.9 14H2.1C1.54305 14 1.0089 13.7788 0.615076 13.3849C0.221249 12.9911 0 12.457 0 11.9L0 0H11.2V1.4ZM11.2 2.8V11.9C11.2 12.0857 11.2737 12.2637 11.405 12.395C11.5363 12.5263 11.7143 12.6 11.9 12.6C12.0857 12.6 12.2637 12.5263 12.395 12.395C12.5263 12.2637 12.6 12.0857 12.6 11.9V2.8H11.2ZM1.4 1.4V11.9C1.4 12.0857 1.47375 12.2637 1.60503 12.395C1.7363 12.5263 1.91435 12.6 2.1 12.6H9.919C9.83962 12.3752 9.79937 12.1384 9.8 11.9V1.4H1.4ZM2.8 7H8.4V8.4H2.8V7ZM2.8 9.8H8.4V11.2H2.8V9.8ZM2.8 2.8H8.4V5.6H2.8V2.8Z" fill="white"/>
</g>
<defs>
<clipPath id="clip0_2352_335">
<rect width="14" height="14" fill="white"/>
</clipPath>
</defs>
</svg>
