<svg width="15" height="15" viewBox="0 0 15 15" fill="none" xmlns="http://www.w3.org/2000/svg">
<g clip-path="url(#clip0_2352_339)">
<path d="M14.9662 7.41779L12.8371 5.28871V2.27768C12.8371 2.21394 12.7854 2.16229 12.7217 2.16229H9.71063L7.5816 0.0331711C7.53831 -0.0101212 7.46169 -0.0101212 7.41845 0.0331711L5.28942 2.16229H2.2782C2.21446 2.16229 2.16282 2.21394 2.16282 2.27768V5.28871L0.0337846 7.41779C-0.0112615 7.46288 -0.0112615 7.53589 0.0337846 7.58094L2.16282 9.71002V12.721C2.16282 12.7848 2.21446 12.8364 2.2782 12.8364H5.28937L7.4184 14.9656C7.44005 14.9872 7.46935 14.9993 7.5 14.9993C7.5306 14.9993 7.55995 14.9872 7.5816 14.9656L9.71063 12.8364H12.7217C12.7854 12.8364 12.8371 12.7848 12.8371 12.721V9.71002L14.9662 7.58094C14.9879 7.55929 15 7.52999 15 7.49934C15 7.46874 14.9879 7.43939 14.9662 7.41779ZM11.1771 9.02242V11.1763H9.02298L7.5 12.6994L5.97702 11.1763H3.82283V9.02242L2.29994 7.49934L3.82283 5.97626V3.82236H5.97702L7.5 2.29928L9.02298 3.82236H11.1771V5.97626L12.7001 7.49934L11.1771 9.02242Z" fill="white"/>
<path d="M10.5642 4.43523H8.76903L7.49993 3.16595L6.2308 4.43523H4.43564V6.23011L3.1665 7.49934L4.43564 8.76857V10.5634H6.2308L7.49993 11.8327L8.76898 10.5634H10.5642V8.76857L11.8333 7.49934L10.5642 6.23011V4.43523H10.5642ZM9.70277 8.06269H8.8599L9.45584 8.65854L9.48649 9.48589L8.65913 9.45525L8.0632 8.85935V9.70208L7.49993 10.3087L6.93663 9.70203V8.85922L6.34069 9.4552L5.51333 9.48585L5.54398 8.65849L6.13992 8.06255L5.29715 8.06265L4.6905 7.49925L5.29715 6.93594L6.13992 6.93585L5.54398 6.34L5.51333 5.51265L6.34069 5.54329L6.93663 6.13923V5.29646L7.49993 4.68977L8.06324 5.29646V6.13923L8.65918 5.54329L9.48653 5.51265L9.45589 6.34L8.85995 6.93594H9.70281L10.3093 7.49925L9.70277 8.06269Z" fill="white"/>
<path d="M6.9585 6.19208L6.19263 6.95791V8.04077L6.95841 8.80655H8.04146L8.80715 8.04086V6.95782L8.04146 6.19208H6.9585Z" fill="white"/>
</g>
<defs>
<clipPath id="clip0_2352_339">
<rect width="15" height="15" fill="white"/>
</clipPath>
</defs>
</svg>
