<svg width="14" height="14" viewBox="0 0 14 14" fill="none" xmlns="http://www.w3.org/2000/svg">
<path d="M5.57089 0L5.14717 1.37707C2.50383 2.00326 0.520606 4.21758 0.520606 6.8833C0.520606 7.30175 0.569941 7.70889 0.662578 8.10073L0 8.24268L0.220898 9.27393L1.00887 9.10506C1.30491 9.74731 1.72532 10.3279 2.24101 10.8222L1.48146 13.2907L2.48944 13.6008L3.12791 11.5259C4.13361 12.1824 5.35887 12.5669 6.67295 12.5669C8.39965 12.5669 9.97283 11.903 11.0962 10.8305L12.3195 12.7878L13.2139 12.2288L11.8189 9.99683C12.4539 9.10468 12.8253 8.03628 12.8253 6.8833C12.8253 6.7798 12.8222 6.67705 12.8162 6.57495L13.3459 6.46143L13.125 5.43018L12.6499 5.53198C11.99 3.03428 9.54357 1.19971 6.67295 1.19971C6.5567 1.19971 6.44121 1.20299 6.32648 1.20891L5.57092 2.93367e-05L5.57089 0ZM6.98534 2.26318C9.25195 2.38644 11.0895 3.84111 11.6174 5.75326L9.45609 6.21639L6.98537 2.26318H6.98534ZM5.90001 2.51651L8.35931 6.45138L4.4303 7.29337L5.90001 2.51651ZM4.77589 2.58375L3.24894 7.54649L1.69409 7.87969C1.61518 7.55343 1.5753 7.21896 1.57529 6.8833C1.57529 4.9464 2.88841 3.26895 4.77589 2.58375ZM11.7694 6.79928C11.7699 6.82723 11.7706 6.85523 11.7706 6.8833C11.7706 7.64772 11.5658 8.37158 11.2022 9.0102L10.0506 7.16757L11.7694 6.79925V6.79928ZM8.9538 7.40259L10.5254 9.9172C9.59566 10.8918 8.22229 11.5122 6.67295 11.5122C5.44389 11.5122 4.32568 11.1216 3.45167 10.4736L4.0749 8.44805L8.95383 7.40259H8.9538ZM2.89359 8.70117L2.5969 9.66554C2.39411 9.42038 2.21751 9.15656 2.07085 8.87745L2.89362 8.7012L2.89359 8.70117Z" fill="white"/>
</svg>
