<svg width="13" height="13" viewBox="0 0 13 13" fill="none" xmlns="http://www.w3.org/2000/svg">
<path fill-rule="evenodd" clip-rule="evenodd" d="M0.610145 10.4892L6.70344 2.887C6.70344 2.887 6.70585 1.61509 7.74972 0.723071C9.02218 -0.364209 11.0222 -0.182405 12.0707 0.980915C13.1192 2.14432 13.4034 4.04347 11.97 5.40559C11.0777 6.25347 10.0729 6.24534 10.0729 6.24534L2.44389 12.3387L1.69122 11.6025L0.300426 12.8984C0.300426 12.8984 0.185318 12.9941 0.0713382 12.8518C-0.0426417 12.7096 0.014147 12.5875 0.014147 12.5875L1.38666 11.2823L0.610145 10.4892ZM2.03824 10.397L2.49633 10.8388L8.55072 6.07417C8.55072 6.07417 7.9055 5.71845 7.51862 5.31143C7.13165 4.9044 6.90804 4.34634 6.90804 4.34634L2.03824 10.397ZM8.14619 1.88534C8.14619 1.88534 7.07494 3.36265 8.33935 4.57003C9.60384 5.7775 11.043 4.76336 11.043 4.76336C11.043 4.76336 9.74843 4.46314 9.04611 3.76533C8.3437 3.06759 8.14619 1.88526 8.14619 1.88526V1.88534ZM8.5806 1.52182C8.5806 1.52182 8.8788 2.65831 9.59563 3.38037C10.3125 4.10252 11.4382 4.40031 11.4382 4.40031C11.4382 4.40031 12.4761 2.82795 11.1747 1.63596C9.87321 0.443962 8.5806 1.52182 8.5806 1.52182Z" fill="white"/>
</svg>
