<svg width="18" height="15" viewBox="0 0 18 15" fill="none" xmlns="http://www.w3.org/2000/svg">
<g clip-path="url(#clip0_2353_372)">
<path d="M3.2052 9.90587L3.20536 9.90385L3.20535 9.90395L3.20534 9.90406L3.20533 9.90416L3.20533 9.90427L3.20532 9.90438L3.20531 9.90449L3.2053 9.90459L3.20529 9.9047L3.20529 9.9048L3.20528 9.9049L3.20527 9.90501L3.20526 9.90512L3.20526 9.90523L3.20525 9.90533L3.2052 9.90587H3.2052ZM3.20521 9.90586C3.2051 9.90745 3.20503 9.90901 3.20489 9.91061C3.20272 9.91159 3.20055 9.91247 3.19838 9.91343L3.2052 9.90587L3.20521 9.90586H3.20521ZM7.4422 4.88906V4.88906L7.44228 4.88941L7.4422 4.88906ZM7.44158 4.88628V4.88627L7.4415 4.88592L7.44158 4.88628ZM7.44142 4.88558V4.88558L7.4415 4.88593L7.44142 4.88558ZM7.44118 4.88454V4.88453L7.44126 4.88488L7.44134 4.88523L7.4414 4.88554L7.44142 4.88558L7.44118 4.88454ZM7.44094 4.88349L7.44086 4.88315V4.88314L7.44094 4.88349ZM7.4407 4.88245V4.88244L7.44078 4.8828L7.44086 4.88314L7.4407 4.88245ZM7.44055 4.88175L7.44047 4.88141V4.8814L7.44055 4.88175ZM7.44031 4.88071V4.8807L7.44039 4.88106L7.44047 4.8814L7.44031 4.88071ZM7.43927 4.87618V4.87617L7.43935 4.87652L7.43927 4.87618ZM7.43609 4.86242V4.86241L7.43602 4.86212L7.43609 4.86242ZM7.43595 4.86183V4.86182L7.43588 4.86153L7.43595 4.86183ZM7.43581 4.86124V4.86124L7.43574 4.86095L7.43581 4.86124ZM7.43567 4.86066V4.86065L7.4356 4.86036L7.43567 4.86066ZM7.43553 4.86007V4.86007L7.43546 4.85977L7.43553 4.86007ZM7.43539 4.85949V4.85948L7.43534 4.85928L7.43539 4.85949ZM7.43523 4.85881V4.8588L7.43529 4.8591L7.43523 4.85881ZM3.17276 9.43218V9.43218L3.17286 9.43261L3.17297 9.43305L3.17306 9.43349L3.17317 9.43392L3.17327 9.43435V9.43436L3.17317 9.43392V9.43392L3.17306 9.43349L3.17297 9.43305L3.17286 9.43261L3.17276 9.43218ZM3.17387 9.43697L3.17397 9.43741V9.4374L3.17387 9.43697ZM3.17417 9.43827V9.43828L3.17427 9.43871V9.43871L3.17437 9.43915L3.17447 9.43958V9.43958L3.17457 9.44002L3.17467 9.44045V9.44046L3.17477 9.44089L3.17487 9.44132V9.44133L3.17497 9.44176L3.17566 9.44483L3.17576 9.44526L3.17585 9.4457L3.17595 9.44613V9.44614L3.17585 9.4457L3.17576 9.44526L3.17566 9.44483L3.17556 9.44439V9.44438L3.17546 9.44395L3.17538 9.44355L3.17537 9.44351L3.17516 9.44264L3.17507 9.4422L3.17497 9.44176V9.44176L3.17487 9.44133L3.17477 9.44089V9.44089L3.17467 9.44046L3.17457 9.44002V9.44001L3.17447 9.43958L3.17437 9.43915V9.43914L3.17427 9.43871L3.17417 9.43828L3.17417 9.43827ZM3.17546 9.44394V9.44395L3.17556 9.44439L3.17546 9.44394ZM3.17615 9.447V9.44701L3.17625 9.44745L3.17634 9.44788L3.17644 9.44832V9.44832L3.17634 9.44788L3.17625 9.44745L3.17615 9.447ZM3.1892 9.5133H3.18921L3.18927 9.51365L3.18933 9.514L3.18939 9.51434L3.18945 9.51469L3.18951 9.51504L3.1895 9.51504L3.18945 9.51469L3.18939 9.51434L3.18933 9.514L3.18927 9.51365L3.1892 9.5133ZM3.1895 9.51504L3.18956 9.51538V9.51539L3.1895 9.51504ZM3.18956 9.51539L3.18962 9.51573V9.51574L3.18956 9.51539ZM3.18974 9.51643H3.18975L3.1898 9.51678L3.18974 9.51643ZM3.18992 9.51747H3.18992L3.18998 9.51782V9.51782L3.18992 9.51747ZM3.18998 9.51782L3.19004 9.51816V9.51817L3.18998 9.51782ZM3.19009 9.51852H3.1901L3.19015 9.51886L3.19021 9.51921L3.19026 9.51949L3.19028 9.51956L3.19027 9.51956L3.19026 9.51949L3.19021 9.51921L3.19015 9.51886L3.19009 9.51852ZM3.19027 9.51956L3.19033 9.5199V9.51991L3.19027 9.51956ZM3.19038 9.52026H3.19039L3.19045 9.5206L3.19051 9.52095L3.1905 9.52096L3.19045 9.5206L3.19038 9.52026ZM3.1905 9.52096L3.19056 9.5213V9.5213L3.1905 9.52096ZM3.19062 9.52165H3.19062L3.19068 9.522L3.19074 9.52234L3.19073 9.52235L3.19068 9.522L3.19062 9.52165ZM3.19085 9.52304H3.19085L3.19091 9.52339V9.5234L3.19085 9.52304ZM3.19096 9.52374H3.19097L3.19102 9.52409L3.19108 9.52444L3.19108 9.52444L3.19102 9.52409L3.19096 9.52374ZM3.19125 9.52548L3.19125 9.52549L3.19119 9.52513L3.19125 9.52548ZM3.19136 9.52618V9.52619L3.19131 9.52583L3.19136 9.52618ZM3.19136 9.52619L3.19142 9.52653L3.19148 9.52688L3.19156 9.52734L3.1916 9.52758L3.19165 9.52793V9.52793L3.19136 9.52619H3.19136ZM3.19176 9.52863V9.52863L3.1917 9.52828L3.19176 9.52863ZM3.19187 9.52933V9.52933L3.19182 9.52898L3.19187 9.52933ZM3.19198 9.53003V9.53003L3.19193 9.52968L3.19198 9.53003ZM3.19204 9.53038H3.19205L3.1921 9.53072V9.53073L3.19204 9.53038ZM3.19237 9.53248H3.19238L3.19244 9.53283L3.19237 9.53248ZM3.19707 9.56444H3.19707L3.19711 9.56475L3.19707 9.56444ZM3.19732 9.5663H3.19732L3.19736 9.56661L3.19732 9.5663ZM3.19752 9.56784H3.19753L3.19757 9.56815L3.19752 9.56784ZM3.19764 9.56877H3.19765L3.19769 9.56908L3.19764 9.56877ZM3.19769 9.56908H3.19769L3.19773 9.56939L3.19769 9.56908ZM3.19781 9.57001H3.19781L3.19785 9.57032L3.19781 9.57001ZM3.19793 9.57094H3.19794L3.19797 9.57125L3.19793 9.57094ZM3.19805 9.57187H3.19806L3.19809 9.57218L3.19805 9.57187ZM3.19813 9.57249H3.19814L3.19817 9.57281L3.19813 9.57249ZM3.19825 9.57343H3.19826L3.19829 9.57374L3.19825 9.57343ZM3.19833 9.57405H3.19834L3.19837 9.57436L3.19842 9.57467L3.19845 9.57498L3.19846 9.57504L3.19849 9.57529L3.19853 9.5756L3.19846 9.57504L3.19845 9.57498L3.19837 9.57436L3.19833 9.57405ZM3.19857 9.57592H3.19857L3.19861 9.57623L3.19857 9.57592ZM3.19865 9.57654H3.19865L3.19869 9.57685L3.19865 9.57654ZM3.2021 9.60621V9.60622L3.20213 9.60649L3.20217 9.60677L3.20237 9.6087L3.2024 9.60898L3.20245 9.60953V9.60953L3.2024 9.60898L3.20237 9.6087L3.20217 9.60677L3.20213 9.60649L3.2021 9.60621ZM3.20242 9.60925L3.20245 9.60952V9.60952L3.20242 9.60925ZM3.20248 9.6098H3.20248L3.20251 9.61008L3.20254 9.61035V9.61036L3.20251 9.61008L3.20248 9.6098ZM3.20254 9.61036L3.20257 9.61063L3.20256 9.61063L3.20254 9.61036ZM3.20256 9.61063L3.20259 9.6109V9.61091L3.20256 9.61063ZM3.20265 9.61146L3.20265 9.61146L3.20262 9.61118L3.20265 9.61146ZM3.20265 9.61146L3.20268 9.61173V9.61174L3.20265 9.61146ZM3.20268 9.61174L3.20271 9.61201V9.61201L3.20268 9.61174ZM3.20273 9.61229H3.20274L3.20276 9.61256V9.61257L3.20273 9.61229ZM3.20276 9.61257L3.20279 9.61284V9.61284L3.20276 9.61257ZM3.20279 9.61284L3.20282 9.61311L3.20282 9.61312L3.20279 9.61284ZM3.20288 9.61367L3.20287 9.61367L3.20285 9.61339L3.20288 9.61367ZM3.20287 9.61367L3.2029 9.61394V9.61395L3.20287 9.61367ZM3.20293 9.61422H3.20293L3.20296 9.6145V9.61451L3.20293 9.61422ZM3.20296 9.61451L3.20299 9.61478V9.61478L3.20296 9.61451ZM3.20301 9.61506H3.20302L3.20304 9.61533V9.61534L3.20301 9.61506ZM3.20313 9.61616L3.20312 9.61617L3.2031 9.61589L3.20313 9.61616ZM3.20312 9.61617L3.20315 9.61644V9.61644L3.20312 9.61617ZM3.20318 9.61672H3.20318L3.20321 9.61699V9.617L3.20318 9.61672ZM3.20323 9.61727H3.20324L3.20326 9.61755V9.61755L3.20323 9.61727ZM3.20326 9.61755L3.20329 9.61782L3.20329 9.61783L3.20326 9.61755ZM3.20335 9.61838L3.20334 9.61838L3.20332 9.6181L3.20335 9.61838ZM3.2034 9.61894L3.2034 9.61894L3.20337 9.61866L3.2034 9.61894ZM3.20348 9.61977L3.20348 9.61977L3.20345 9.61949L3.20348 9.61977ZM3.20354 9.62032L3.20353 9.62033L3.20351 9.62005L3.20354 9.62032ZM3.20359 9.62088V9.62088L3.20356 9.6206L3.20359 9.62088ZM3.20364 9.62144V9.62144L3.20362 9.62116L3.20364 9.62144ZM3.2037 9.62199V9.622L3.20367 9.62172L3.2037 9.62199ZM3.20676 9.65932V9.65932L3.20678 9.65959L3.20679 9.65985L3.20681 9.66012V9.66011L3.20679 9.65985L3.20678 9.65959L3.20676 9.65932ZM3.20683 9.66038V9.66038L3.20685 9.66065L3.20687 9.66091V9.66091L3.20685 9.66065L3.20683 9.66038ZM3.20689 9.66117V9.66118L3.2069 9.66144L3.20692 9.6617L3.20694 9.66197V9.66197L3.20692 9.6617L3.2069 9.66144L3.20689 9.66117ZM3.20696 9.66223V9.66224L3.20698 9.6625L3.207 9.66277V9.66276L3.20698 9.6625L3.20696 9.66223ZM3.2072 9.66596V9.66596L3.20699 9.66276L3.20701 9.66303L3.20703 9.66329L3.20705 9.66356L3.20714 9.66489L3.20715 9.66516L3.20717 9.66542L3.2072 9.66595L3.2072 9.66596ZM3.20919 9.7043H3.2092L3.2092 9.70453L3.20919 9.7043ZM3.20928 9.70666H3.20929L3.2093 9.70689L3.20928 9.70666ZM3.2093 9.70713H3.20931L3.20931 9.70737L3.2093 9.70713ZM3.20932 9.7076H3.20933L3.20933 9.70784L3.20932 9.7076ZM3.21032 9.75046L3.21032 9.75068V9.75091V9.75114L3.21033 9.75137V9.75159V9.75181L3.21032 9.75046ZM3.21032 9.75069H3.21032V9.75092L3.21032 9.75069ZM3.21032 9.75137L3.21033 9.75159V9.75182V9.75205V9.75183V9.7516L3.21032 9.75137ZM3.21033 9.75227H3.21034V9.7525L3.21033 9.75227ZM3.21034 9.75318H3.21034V9.7534V9.75363V9.75341L3.21034 9.75318ZM3.21034 9.75386H3.21035L3.21034 9.75409V9.75386ZM3.21034 9.75409H3.21035V9.75431L3.21034 9.75409ZM3.21035 9.75499H3.21035L3.21035 9.75522V9.75499ZM3.21035 9.75522H3.21035V9.75545V9.75567V9.7559L3.21035 9.75522ZM3.21035 9.75544H3.21035V9.75567V9.7559V9.75612L3.21036 9.7568V9.75703V9.75726V9.75749L3.21035 9.75544V9.75544ZM3.21036 9.75885H3.21037L3.21036 9.75908V9.75885ZM3.21036 9.75908H3.21037V9.7593V9.75953L3.21036 9.75908V9.75908ZM3.21003 9.79695V9.79695L3.21003 9.79716L3.21003 9.79695ZM3.20999 9.79908V9.79908L3.20998 9.79929L3.20999 9.79908ZM3.20993 9.80142V9.80143L3.20993 9.80164L3.20993 9.80142ZM3.20992 9.80206V9.80207L3.20992 9.80228L3.20992 9.80206ZM3.2099 9.8027V9.80271L3.2099 9.80291L3.2099 9.8027ZM3.20989 9.80334V9.80335L3.20989 9.80356L3.20989 9.80334ZM3.20987 9.80398V9.80398L3.20987 9.80419L3.20987 9.80398ZM3.20984 9.80547V9.80548L3.20983 9.80569L3.20984 9.80547ZM3.20982 9.80611V9.80612L3.20981 9.80633L3.20982 9.80611ZM3.20981 9.80633V9.80633L3.20981 9.80654L3.2098 9.80676V9.80697L3.20979 9.80718L3.2098 9.80697V9.80676L3.20981 9.80654L3.20981 9.80633ZM3.20978 9.80782V9.80783L3.20977 9.80804L3.20978 9.80782ZM3.20822 9.84751V9.84752L3.20821 9.84773L3.2082 9.84794L3.20819 9.84815L3.20818 9.84835V9.84836L3.20817 9.84857L3.20816 9.84878L3.20815 9.84899L3.20813 9.8492V9.8492L3.20813 9.84941L3.20812 9.84962L3.2081 9.84983V9.84984L3.20809 9.85005L3.20808 9.85026L3.20808 9.85047L3.20806 9.85067V9.85068L3.20805 9.85089L3.20804 9.8511L3.20803 9.85131V9.85131L3.20802 9.85152L3.208 9.85173L3.208 9.85194V9.85195L3.20799 9.85216L3.20797 9.85237L3.20796 9.85258V9.85258L3.20795 9.85279L3.20796 9.85258L3.20822 9.84751ZM3.2081 9.84984V9.84984L3.20808 9.85005L3.2081 9.84984ZM3.20804 9.8509V9.8509L3.20802 9.85111L3.20804 9.8509ZM3.20797 9.85195V9.85196L3.20796 9.85217L3.20797 9.85195ZM3.20795 9.85238V9.85238L3.20794 9.85259L3.20795 9.85238ZM3.20791 9.85301V9.85302L3.2079 9.85323L3.20791 9.85301ZM3.20789 9.85344V9.85344L3.20788 9.85365L3.20789 9.85344ZM3.20786 9.85386V9.85387L3.20785 9.85408L3.20786 9.85386ZM7.53418 5.09483L7.53432 5.09468L7.53324 5.09312L8.57765 3.93532C9.06634 4.89655 10.4434 4.59574 11.9179 4.16946C12.8398 4.74853 13.3104 5.50703 13.0906 6.59503C13.0906 6.59503 13.528 6.04073 13.479 5.46345C13.8385 5.61836 14.0789 5.98123 14.0789 5.98123C13.9739 4.95424 13.5845 4.29552 13.0268 3.84492C14.4235 3.44861 15.7305 3.1943 16.2747 4.0496C16.2747 4.0496 16.1842 3.26909 15.8121 3.111C16.0735 2.94305 16.6208 3.01102 16.6208 3.01102C15.5349 2.16821 13.7909 2.78895 12.2456 3.37631C11.8907 3.21703 11.503 3.09634 11.0992 2.99141C10.6322 2.87001 10.3414 2.69181 10.1649 2.49403C10.3772 2.48037 10.5705 2.50173 10.6926 2.55181C10.6621 2.28792 10.6825 2.15268 10.8911 1.98505C10.7263 1.96551 10.5399 1.96213 10.3452 1.97586L10.4624 1.84596C10.6032 1.90611 10.7603 1.91461 10.9051 1.8731L11.3709 2.46557L12.0144 1.75943L11.3635 1.37015C11.3808 1.27339 11.3752 1.17379 11.3472 1.07946L11.9503 0.621919L11.2315 -0.0101624L10.8351 0.62926C10.7366 0.612276 10.6352 0.617776 10.5392 0.645312L10.0735 0.0527949L9.42998 0.758917L10.0809 1.14833C10.0538 1.30034 10.083 1.45947 10.167 1.5938L9.9161 1.87191C9.90385 1.57851 10.0039 1.32425 10.0193 1.22771C9.79613 1.39948 9.59743 1.47784 9.3774 1.48818C9.34918 1.71587 9.35129 1.94924 9.40171 2.17897C8.79885 2.41058 8.33022 2.84085 8.43852 3.50994L7.38908 4.67335C7.26401 4.23786 7.05364 3.77997 6.87934 3.60318C7.07154 3.69843 7.19424 3.49679 7.11918 3.37703C6.96113 3.40774 6.76092 3.38588 6.55031 3.23204C6.55031 3.23204 6.3272 3.03712 6.16293 2.92477H2.82223C2.28538 3.28472 2.25204 3.78565 1.8902 3.69208C1.84827 3.91875 2.1419 3.97028 2.2153 3.91875C1.83776 4.39265 2.00275 5.17516 2.15239 5.68045C2.20384 5.85411 2.09355 5.97603 1.88613 5.88648C1.81595 6.05484 1.97452 6.21482 2.17943 6.14241C2.07288 6.51214 1.72232 6.50008 1.55664 6.39729C1.52175 6.817 1.94029 6.85982 2.1757 6.71424C1.60897 7.49366 1.8008 8.53004 2.28909 9.05252C2.14086 8.66708 2.08854 8.04179 2.24548 7.78488C2.25981 8.32605 2.95994 8.65049 3.15858 9.3675L2.56403 10.0269C2.03663 10.0233 1.51482 9.82094 0.953683 9.95752C0.29952 10.1167 -0.00747433 10.7381 0.234376 11.2133C0.234376 11.2133 0.355311 10.8204 0.653018 10.9209C0.476244 11.1402 0.578586 11.5148 0.829766 11.5788C0.839053 11.4052 0.883213 11.1767 1.13439 11.1585C1.05445 11.3155 1.08546 11.4585 1.18123 11.5606L-0.000244141 12.871L0.291511 13.1271L1.9633 11.2729C2.09676 11.2859 2.25929 11.3161 2.45775 11.3686C3.52756 11.6519 4.33687 11.4326 4.33687 11.4326C4.16985 12.2345 4.65418 13.0626 4.1519 13.9612C3.28197 13.785 2.97703 13.9877 2.90528 14.2784C3.06671 14.2344 3.25507 14.3224 3.25507 14.3224C2.95908 14.3577 2.75283 14.5251 2.71696 14.8158C2.83355 14.6925 2.97703 14.6572 3.25507 14.8158C3.53309 14.9744 4.24162 14.948 4.63623 14.8863C5.40681 14.7659 5.74833 13.556 6.27746 12.6926C6.59558 12.1736 6.51064 11.4593 6.51064 11.4593C7.9546 11.3447 8.13397 10.6135 9.79313 10.5871C9.76625 11.3271 10.0353 11.8645 10.7348 12.2698C11.4344 12.675 11.2371 13.4679 10.8066 13.926C10.3223 13.7939 9.82005 13.8203 9.69448 14.2784C9.85592 14.1727 9.99043 14.3224 9.99043 14.3224C9.79313 14.3665 9.48722 14.4194 9.42045 14.7982C9.70343 14.6308 9.83798 14.7013 10.0084 14.807C10.1788 14.9127 10.9949 15.0008 11.4164 14.9107C12.1438 14.7552 12.3701 13.6329 12.5465 12.9745C12.681 12.4724 12.7383 12.1284 12.1967 11.8029C11.5958 11.4416 11.3088 10.6664 11.3088 10.6664C11.5509 10.9218 12.5555 11.6442 13.4882 11.8909C14.4209 12.1376 14.4927 13.0274 13.9007 13.8819C13.3088 13.7939 12.7886 13.8908 12.6362 14.3224C12.8694 14.1903 13.0398 14.3753 13.0398 14.3753C12.7976 14.3577 12.5017 14.4899 12.4747 14.8158C12.5914 14.7189 12.8335 14.763 13.0398 14.8775C13.246 14.992 14.4119 15.0625 14.7527 14.8687C15.0936 14.6749 15.7724 13.3351 15.7693 12.6614C15.7669 12.1462 14.1957 10.5103 13.9466 9.91781C13.8202 9.61726 13.8538 8.9105 13.5525 8.27613C13.769 8.201 14.0327 8.14065 14.29 8.16092C14.6035 8.18549 14.8316 8.32367 14.9873 8.58313C15.1562 8.86471 15.1992 9.26475 15.2407 9.65168C15.2792 10.0097 15.3189 10.3799 15.458 10.6904C15.6281 11.0702 15.9167 11.3003 16.3401 11.3937C16.4542 11.4189 16.5665 11.4314 16.6758 11.4315C16.9327 11.4315 17.1731 11.3622 17.3835 11.2259C17.6499 11.0534 17.8481 10.7832 17.9417 10.4652C18.038 10.1381 18.0139 9.79498 17.8739 9.49891C17.7161 9.16521 17.4256 8.91645 17.0337 8.77941C16.7083 8.66563 16.4506 8.46281 16.2677 8.17657C16.1273 7.95669 16.0853 7.76692 16.0849 7.76503C16.4198 7.36589 16.4351 6.76537 16.1048 6.50266C16.1773 6.78189 16.0914 6.92991 15.9642 7.00031C16.0787 6.63787 15.9388 6.2197 15.6455 6.13548C15.691 6.37904 15.6708 6.81143 15.5291 6.92078C15.605 6.64245 15.4905 6.49329 15.3055 6.38836C15.3665 6.95615 14.9086 7.5483 15.6848 7.84136C15.693 7.88117 15.8654 8.83019 16.886 9.18708C17.4957 9.4002 17.643 9.92226 17.5185 10.345C17.3995 10.7495 17.0188 11.1 16.4366 10.9716C15.8408 10.8401 15.7604 10.3671 15.6788 9.60628C15.6323 9.17348 15.5843 8.72596 15.3668 8.36346C15.1394 7.98446 14.7792 7.76523 14.3252 7.72957C13.9588 7.70081 13.5964 7.79481 13.3205 7.89919C12.9682 7.45113 12.3596 7.10327 11.2715 7.0711C9.52748 7.01959 8.47839 7.05824 7.87524 6.4657C8.3276 6.60479 8.51873 6.32526 8.47199 6.10417C8.21006 6.10721 7.83589 5.89893 7.73099 5.73149C7.95391 5.86029 8.38282 5.70785 8.28172 5.32188C8.12979 5.38583 7.72979 5.37667 7.53418 5.09483L7.53418 5.09483ZM7.47829 4.99311C7.47699 4.99008 7.47571 4.98701 7.47445 4.98392C7.47571 4.98701 7.47699 4.99007 7.47829 4.99311ZM7.47206 4.97795C7.47062 4.9743 7.4692 4.97062 7.46781 4.9669L7.46756 4.96625L7.46671 4.96395L7.46651 4.9634L7.46597 4.9619C7.46793 4.96732 7.46996 4.97267 7.47206 4.97795L7.47206 4.97795ZM7.46041 4.94594H7.46041L7.46037 4.94582L7.46041 4.94594ZM7.46033 4.9457H7.46033L7.46029 4.94559L7.46033 4.9457ZM7.46014 4.94511H7.46013L7.4601 4.945L7.46014 4.94511ZM7.46006 4.94488H7.46005L7.46002 4.94476L7.46006 4.94488ZM7.45986 4.94429H7.45986L7.45982 4.94417L7.45986 4.94429ZM6.08642 2.82175H2.89924V2.52795H6.08642V2.82175ZM6.50022 0.832896C6.50022 0.757456 6.43795 0.696257 6.3611 0.696257C6.28424 0.696257 6.22197 0.757456 6.22197 0.832896C6.22197 0.874169 6.24061 0.911127 6.27003 0.936182L5.68864 1.32922L5.48331 0.780203L5.12037 1.29359L4.56983 0.475438C4.62741 0.447543 4.66706 0.389297 4.66706 0.321946C4.66706 0.227436 4.58902 0.1508 4.49282 0.1508C4.39661 0.1508 4.31861 0.227435 4.31861 0.321946C4.31861 0.389297 4.35823 0.447543 4.41585 0.475438L3.86524 1.29359L3.50235 0.780203L3.29704 1.32922L2.71561 0.936206C2.74505 0.911127 2.76369 0.87417 2.76369 0.832895C2.76369 0.757456 2.70138 0.696256 2.62458 0.696256C2.54771 0.696256 2.48542 0.757456 2.48542 0.832895C2.48542 0.9084 2.54771 0.9696 2.62458 0.9696C2.63256 0.9696 2.64045 0.968901 2.64813 0.967591L2.89924 2.3821H6.08642L6.33756 0.967591C6.34519 0.968901 6.35305 0.9696 6.3611 0.9696C6.43795 0.9696 6.50022 0.9084 6.50022 0.832895L6.50022 0.832896ZM3.45805 1.98573C3.45805 2.07274 3.38624 2.14325 3.29768 2.14325C3.20913 2.14325 3.13732 2.07274 3.13732 1.98573C3.13732 1.89872 3.20913 1.82823 3.29768 1.82823C3.38624 1.82823 3.45805 1.89872 3.45805 1.98573ZM4.69808 1.92932C4.69808 2.04062 4.60616 2.13091 4.49284 2.13091C4.37947 2.13091 4.28759 2.04062 4.28759 1.92932C4.28759 1.81797 4.37947 1.72769 4.49284 1.72769C4.60616 1.72769 4.69808 1.81797 4.69808 1.92932ZM5.84834 1.98573C5.84834 2.07274 5.77655 2.14325 5.68796 2.14325C5.59943 2.14325 5.52764 2.07274 5.52764 1.98573C5.52764 1.89872 5.59943 1.82823 5.68796 1.82823C5.77655 1.82823 5.84834 1.89872 5.84834 1.98573ZM3.20815 9.84877L3.20816 9.84856L3.20817 9.84834L3.20815 9.84877ZM3.20816 9.84856L3.20817 9.84835L3.20818 9.84813L3.20816 9.84856ZM3.20817 9.84835L3.20818 9.84814L3.20819 9.84792L3.20817 9.84835ZM3.20818 9.84814L3.20819 9.84793L3.2082 9.84772L3.20821 9.84751L3.20818 9.84814ZM3.20819 9.84793L3.2082 9.84772L3.20821 9.84751L3.20819 9.84793ZM3.2082 9.84772L3.20822 9.84751L3.20823 9.8473L3.20823 9.84709L3.2082 9.84772ZM3.20822 9.84751L3.20823 9.8473L3.20824 9.84709L3.20825 9.84688L3.20822 9.84751ZM3.20988 9.8031L3.20989 9.80289L3.20989 9.80268L3.2099 9.80246V9.80225L3.20991 9.80215V9.80204L3.20991 9.80183L3.20992 9.80161V9.8014L3.20992 9.80119L3.20988 9.8031ZM3.20989 9.80267L3.2099 9.80246V9.80224L3.20991 9.80204L3.20991 9.80182V9.80161L3.20992 9.8014L3.20989 9.80267ZM3.21023 9.76053V9.76031V9.76008V9.75985L3.21022 9.75963L3.21023 9.76053ZM3.21022 9.75895V9.75872V9.7585V9.75895ZM3.2102 9.75737V9.75715V9.75692V9.75669L3.21019 9.75646V9.75624V9.75602L3.21019 9.75579V9.75556V9.75578L3.2102 9.75737ZM3.21019 9.75648V9.75647L3.21019 9.75624L3.21019 9.75646V9.75648ZM3.21018 9.75556V9.75534L3.21018 9.75511L3.21018 9.75534V9.75556ZM3.2093 9.71711L3.20929 9.71687L3.20928 9.71664L3.20928 9.7164L3.20926 9.71616L3.20926 9.71592L3.20925 9.71569L3.20924 9.71545L3.2093 9.71711ZM3.2069 9.67122L3.20688 9.67096L3.2069 9.67123V9.67122ZM3.20681 9.66989L3.20679 9.66963L3.20681 9.6699V9.66989ZM3.20674 9.66882L3.20672 9.66856L3.20674 9.66883V9.66882ZM3.20665 9.66749L3.20663 9.66722L3.20665 9.66749V9.66749ZM3.20635 9.66324L3.20629 9.66245L3.20633 9.66297L3.20635 9.66324ZM3.20625 9.66192L3.20619 9.66112L3.20621 9.66139L3.20623 9.66165L3.20625 9.66191L3.20625 9.66192ZM3.20615 9.6606L3.20611 9.66006L3.20613 9.66033L3.20615 9.6606H3.20615ZM3.20312 9.62492L3.20307 9.6244L3.2031 9.62464L3.20312 9.62492H3.20312ZM3.20208 9.61472L3.20214 9.61527L3.20217 9.61554L3.20208 9.61472ZM3.17678 9.46057L3.17668 9.46014L3.17678 9.46058V9.46057ZM3.17599 9.45706L3.17591 9.45666L3.1759 9.45663L3.1757 9.45575L3.1756 9.45532L3.17599 9.45706ZM3.17491 9.45226L3.1748 9.45182L3.1744 9.45008L3.1743 9.44964L3.17491 9.45226ZM3.1743 9.44964L3.17419 9.44921L3.1743 9.44965V9.44964ZM7.44322 4.90444L7.44314 4.9041L7.44313 4.90408L7.44283 4.9027L7.44275 4.90236L7.44267 4.90201L7.44322 4.90444ZM7.44297 4.90336L7.4429 4.90304L7.44282 4.9027L7.44274 4.90235L7.44297 4.90336ZM7.44247 4.9012L7.4424 4.90086L7.44232 4.9005L7.44247 4.9012ZM7.44224 4.90016L7.44216 4.89981L7.44208 4.89946L7.442 4.89911L7.4419 4.89868L7.44224 4.90016ZM7.44202 4.89919L7.44194 4.89884L7.44089 4.8943L7.44202 4.89919ZM4.13437 6.30376C4.13437 6.152 4.31594 6.10112 4.53991 6.10112C4.76388 6.10112 4.94543 6.152 4.94543 6.30376C4.94543 6.45547 4.76388 6.56817 4.53991 6.56817C4.31594 6.56817 4.13437 6.45547 4.13437 6.30376ZM3.29691 4.72612C3.6462 4.54389 3.88931 4.65698 4.0488 4.80007C4.17242 4.51925 3.96397 4.12445 3.39858 4.15813C3.59079 3.80512 4.01683 3.57659 4.5399 3.57659C5.06301 3.57659 5.48903 3.80512 5.68123 4.15813C5.11586 4.12445 4.90741 4.51925 5.03101 4.80007C5.19054 4.65698 5.43361 4.54389 5.78294 4.72612C5.73145 5.10508 5.46674 5.31882 5.43466 5.56132C5.4009 5.8161 5.22392 6.02361 4.96402 6.02361C4.77718 6.02361 4.61589 5.91665 4.5399 5.76167C4.46396 5.91665 4.30265 6.02361 4.11583 6.02361C3.85589 6.02361 3.67889 5.8161 3.64521 5.56132C3.61309 5.31882 3.34839 5.10508 3.29691 4.72612H3.29691ZM4.5399 5.25635C4.77804 5.25635 4.97107 5.32968 4.97107 5.40742C4.97107 5.48517 4.5399 5.57915 4.5399 5.57915C4.5399 5.57915 4.10877 5.48517 4.10877 5.40742C4.10877 5.32968 4.30183 5.25635 4.5399 5.25635ZM9.03982 3.46308C9.04417 3.4889 9.04971 3.51525 9.05681 3.54228C9.26138 4.32092 10.0965 4.18384 11.1718 3.81242C11.0794 3.77137 10.9843 3.73129 10.8867 3.69209C10.2681 3.44361 9.87951 3.12971 9.64961 2.78708L9.03982 3.46308H9.03982ZM10.4708 1.57514C10.3133 1.43678 10.3 1.19929 10.4409 1.04469C10.5818 0.89015 10.8235 0.876932 10.9809 1.01533C11.1383 1.15374 11.1517 1.39127 11.0108 1.54587C10.8699 1.70045 10.6281 1.71361 10.4708 1.57514Z" fill="white"/>
</g>
<defs>
<clipPath id="clip0_2353_372">
<rect width="18" height="15" fill="white"/>
</clipPath>
</defs>
</svg>
