<svg width="15" height="18" viewBox="0 0 15 18" fill="none" xmlns="http://www.w3.org/2000/svg">
<path d="M9.49829 1.80998L7.49983 0L5.5015 1.80998L3.50293 0.741499V5.02768H11.4969V0.741499L9.49829 1.80998ZM7.49983 3.72052L6.7227 3.0166L7.49983 2.31279L8.27697 3.0166L7.49983 3.72052Z" fill="white"/>
<path d="M13.9266 10.8251C13.8766 10.7373 13.8769 10.6325 13.9275 10.545C13.9784 10.4574 14.0729 10.3986 14.1808 10.3867L14.709 10.3288C14.8175 10.3169 14.9125 10.2569 14.9627 10.1687C15.0131 10.0798 15.0124 9.97448 14.9604 9.88697C14.9604 9.88697 13.0475 6.52021 12.3263 5.42222C11.482 4.13679 10.8777 4 9.18895 4H7.50019H5.8112C4.12221 4 3.51837 4.13679 2.67386 5.42219C1.95263 6.52021 0.0395688 9.88697 0.0395688 9.88697C-0.0124917 9.97451 -0.0131655 10.0798 0.0374595 10.1687C0.0876743 10.2569 0.182655 10.3169 0.29117 10.3288L0.819393 10.3867C0.927235 10.3986 1.02178 10.4574 1.07266 10.545C1.12332 10.6325 1.12376 10.7373 1.0736 10.8251L0.0376938 12.6373C-0.0131948 12.7265 -0.012023 12.8327 0.0407407 12.9211C0.0937388 13.0093 0.191297 13.0675 0.301014 13.0766L1.40135 13.1676C1.49469 13.1755 1.58061 13.2197 1.63663 13.2883C1.69288 13.3571 1.71389 13.4444 1.69522 13.5285L1.37847 14.9369C1.3579 15.027 1.38359 15.1206 1.44848 15.1908C1.51338 15.2615 1.60976 15.301 1.7111 15.2986L3.2005 15.2617C3.3667 15.2578 3.51072 15.3668 3.53639 15.5164L3.72989 16.6468C3.7446 16.7327 3.79897 16.8084 3.87971 16.855C3.96002 16.9015 4.05898 16.9139 4.14977 16.8894L5.63266 16.4921C5.74097 16.4629 5.85884 16.4865 5.94383 16.5544L7.25328 17.601C7.324 17.6575 7.41365 17.6809 7.50022 17.6739C7.58659 17.6809 7.67621 17.6576 7.74693 17.601L9.05638 16.5544C9.14135 16.4865 9.25877 16.4629 9.36755 16.4921L10.8504 16.8894C10.9413 16.9139 11.0402 16.9015 11.1205 16.855C11.2013 16.8084 11.2556 16.7327 11.2703 16.6468L11.4636 15.5164C11.4898 15.3668 11.6335 15.2578 11.7997 15.2617L13.2891 15.2986C13.3902 15.301 13.4869 15.2615 13.5515 15.1908C13.6162 15.1206 13.6423 15.027 13.6218 14.9369L13.305 13.5285C13.2864 13.4444 13.3074 13.3571 13.3636 13.2883C13.4194 13.2197 13.5053 13.1755 13.5989 13.1676L14.6992 13.0766C14.8089 13.0675 14.9065 13.0093 14.9595 12.9211C15.0125 12.8327 15.0134 12.7265 14.9625 12.6373L13.9266 10.8251ZM3.21075 7.69706C3.21075 7.69706 2.25468 7.13523 2.68276 6.3862C3.12837 5.60614 4.09121 6.05825 4.09121 6.05825L3.21075 7.69706ZM9.66163 14.0415C9.61124 14.2661 9.41003 14.6031 9.0076 14.6031C8.74944 14.6031 8.11924 14.6031 7.70026 14.6031C7.70026 14.6031 7.53148 14.6031 7.29784 14.6031C6.87887 14.6031 6.24843 14.6031 5.99 14.6031C5.58784 14.6031 5.38639 14.2661 5.33621 14.0415C5.31544 13.9489 5.2349 13.7169 5.1476 13.4758C5.72202 13.5089 6.4741 13.4228 7.4549 13.1067C8.30896 13.3817 8.99032 13.4834 9.53161 13.4834C9.64528 13.4834 9.75101 13.4774 9.85256 13.4692C9.76431 13.7124 9.6824 13.9482 9.66163 14.0415ZM10.997 8.75491L10.6198 9.49111C10.6198 9.49111 10.7246 10.8386 10.8086 11.7002C10.8812 12.4447 10.4221 13.5602 7.80506 12.5561C7.87109 12.5248 7.9325 12.4851 7.98054 12.4345L8.53235 11.8493C8.67031 11.7032 8.69363 11.5067 8.59259 11.3423C8.58257 11.326 8.57064 11.3108 8.55875 11.2961L8.3237 10.5478C8.3118 10.51 8.27164 10.4857 8.22916 10.4913C8.18715 10.4969 8.15586 10.5305 8.15586 10.5702V11.0811C8.12319 11.0769 8.08982 11.0739 8.05622 11.0739H7.50394H6.95146C6.89917 11.0739 6.84734 11.0802 6.79786 11.0907V10.5701C6.79786 10.5305 6.76704 10.4969 6.72479 10.4913C6.68255 10.4857 6.64218 10.5099 6.63025 10.5477L6.34525 11.4545L6.37048 11.4447C6.3294 11.5836 6.36512 11.7326 6.4748 11.8492L7.02731 12.4344C7.07469 12.4841 7.13422 12.5234 7.19958 12.5547C4.57853 13.5611 4.11872 12.4449 4.19155 11.7001C4.27557 10.8386 4.38037 9.49108 4.38037 9.49108L4.00317 8.75488C3.66356 8.2939 3.60403 8.0899 3.77653 7.7449L4.29866 6.67867C4.50684 6.26178 5.03718 6.04354 5.53903 6.16773L7.50019 6.9947L9.46112 6.16773C9.96298 6.04354 10.493 6.26178 10.7015 6.67867L11.2234 7.7449C11.3964 8.08993 11.3366 8.29393 10.997 8.75491ZM11.7894 7.69706L10.909 6.05825C10.909 6.05825 11.8718 5.60614 12.3174 6.3862C12.745 7.13523 11.7894 7.69706 11.7894 7.69706Z" fill="white"/>
<path d="M5.75344 8.92017C5.49551 8.92017 5.28589 9.11484 5.28589 9.35525C5.28589 9.59543 5.49551 9.79014 5.75344 9.79014C6.0116 9.79014 6.22096 9.59546 6.22096 9.35525C6.22096 9.11484 6.0116 8.92017 5.75344 8.92017Z" fill="white"/>
<path d="M9.24658 8.92017C8.98842 8.92017 8.7793 9.11484 8.7793 9.35525C8.7793 9.59543 8.98845 9.79014 9.24658 9.79014C9.50475 9.79014 9.71413 9.59546 9.71413 9.35525C9.71413 9.11484 9.50475 8.92017 9.24658 8.92017Z" fill="white"/>
</svg>
