<svg width="15" height="15" viewBox="0 0 15 15" fill="none" xmlns="http://www.w3.org/2000/svg">
<path d="M11.3797 6.5408V7.60103C11.3791 8.67985 10.9631 9.64618 10.2796 10.3608C9.59499 11.0742 8.64841 11.5306 7.57509 11.5777C7.56577 11.5783 7.55733 11.5806 7.54834 11.5815H7.45154C7.44255 11.5806 7.43408 11.5783 7.42482 11.5777C6.3515 11.5306 5.40492 11.0742 4.72028 10.3608C4.03682 9.64618 3.62083 8.67985 3.62022 7.60103V6.5408H2.42944V7.60103C2.42889 8.99034 2.97103 10.2567 3.86036 11.1844C4.6389 11.9981 5.68808 12.5557 6.86719 12.7208V15H8.13237V12.7208C9.31184 12.5557 10.361 11.9981 11.1395 11.1844C12.0288 10.2567 12.571 8.99037 12.5704 7.60106V6.54083L11.3797 6.5408Z" fill="white"/>
<path d="M7.59665 10.6454C7.5641 10.6454 7.5324 10.6416 7.49982 10.6407C7.46757 10.6416 7.4359 10.6454 7.40332 10.6454H7.59665Z" fill="white"/>
<path d="M6.51899 7.59724H4.51975C4.53604 9.25052 5.85527 10.5893 7.49985 10.6407C9.14473 10.5893 10.464 9.25052 10.4803 7.59724H8.48101V7.02571H10.4817V5.95239H8.48101V5.38087H10.4817V4.30752H8.48101V3.736H10.4817V2.66265H8.48101V2.09109H10.4718C10.3724 0.919805 9.39214 0 8.19527 0H6.80479C5.60792 0 4.62762 0.919805 4.52818 2.09109H6.51899V2.66262H4.51831V3.73594H6.51899V4.30746H4.51831V5.38078H6.51899V5.9523H4.51831V7.02563H6.51899V7.59724Z" fill="white"/>
</svg>
