<svg width="15" height="15" viewBox="0 0 15 15" fill="none" xmlns="http://www.w3.org/2000/svg">
<g clip-path="url(#clip0_2354_382)">
<path d="M14.5881 0.412079C14.039 -0.137238 13.1485 -0.137238 12.5994 0.412079L11.1931 1.81833C10.8998 2.11165 10.7682 2.502 10.7883 2.88605L7.95839 5.71593L0.710162 7.52797C0.382506 7.60991 0.124225 7.86189 0.0340488 8.18738C-0.056127 8.51284 0.0357773 8.86168 0.274605 9.10039L5.89958 14.7254C6.07788 14.9037 6.31729 15 6.56265 15C6.64609 15 6.7302 14.9888 6.81282 14.9659C7.13828 14.8757 7.39017 14.6175 7.472 14.2898L9.28392 7.04196L12.114 4.2118C12.1386 4.21311 12.1629 4.21883 12.1875 4.21883C12.5474 4.21883 12.9073 4.08151 13.1819 3.80685L14.5881 2.4006C15.1373 1.85149 15.1373 0.961161 14.5881 0.412079ZM6.08989 9.83996C5.57215 9.83996 5.15239 9.42025 5.15239 8.90246C5.15239 8.38467 5.57215 7.96496 6.08989 7.96496C6.60774 7.96496 7.02739 8.38467 7.02739 8.90246C7.02739 9.42025 6.60774 9.83996 6.08989 9.83996Z" fill="white"/>
</g>
<defs>
<clipPath id="clip0_2354_382">
<rect width="15" height="15" fill="white"/>
</clipPath>
</defs>
</svg>
