<svg width="14" height="15" viewBox="0 0 14 15" fill="none" xmlns="http://www.w3.org/2000/svg">
<path d="M4.01784 13.7524C4.68408 13.7524 5.35283 13.5849 5.96147 13.2499C5.9815 13.6974 5.99403 14.1949 5.99403 14.75C5.99403 14.8875 6.10674 15 6.24449 15H7.7473C7.88505 15 7.99776 14.8875 7.99776 14.75C7.99776 14.1949 8.01029 13.6974 8.03033 13.2499C8.63896 13.5849 9.30771 13.7524 9.97395 13.7524C11.0134 13.7524 12.0453 13.3524 12.8268 12.5723C14.3596 11.0472 14.3947 8.54196 12.9069 6.97183C12.8819 6.94183 12.8568 6.91683 12.8293 6.88932C12.7992 6.85682 12.7717 6.82932 12.7391 6.80432C12.6364 6.72181 12.4836 6.73431 12.396 6.83182C12.3083 6.93183 12.3108 7.08184 12.406 7.17435L12.5387 7.30686C13.1223 7.94941 13.0948 8.93449 12.4761 9.55455C12.0578 9.97208 11.4517 10.1221 10.8932 9.97458C11.4367 9.20202 11.7598 8.26444 11.7598 7.24935C11.7598 4.68914 7.36659 0.258772 7.17874 0.0712559C7.08356 -0.023752 6.91825 -0.023752 6.82307 0.0712559C6.63522 0.258772 2.24202 4.68914 2.24202 7.24935C2.24202 8.26444 2.56513 9.20202 3.10864 9.97458C2.5501 10.1246 1.94397 9.97458 1.52569 9.55455C0.904529 8.93449 0.879482 7.94691 1.45806 7.31186L1.59582 7.17435C1.691 7.07934 1.6935 6.92933 1.60584 6.83182C1.51817 6.73181 1.36539 6.71931 1.2627 6.80432C1.23014 6.82932 1.20008 6.85932 1.17253 6.88932C1.14247 6.91933 1.11492 6.94683 1.1024 6.96433C-0.395397 8.52696 -0.362836 11.0422 1.17503 12.5723C1.95649 13.3524 2.98842 13.7524 4.02786 13.7524H4.01784ZM7.49683 14.5H6.49246C6.48494 13.4524 6.43986 12.5998 6.35219 11.9522C6.47993 11.9697 6.60767 11.9797 6.73791 11.9872C6.82307 11.9947 6.90823 11.9997 6.99339 11.9997C7.07855 11.9997 7.16621 11.9947 7.24887 11.9872C7.37911 11.9797 7.50685 11.9697 7.63459 11.9522C7.54943 12.5998 7.50184 13.4524 7.49433 14.5H7.49683ZM7.19877 11.4897C7.13115 11.4922 7.06352 11.4997 6.99339 11.4997C6.92326 11.4997 6.85814 11.4922 6.78801 11.4897C5.77862 11.3872 4.98965 10.5346 4.98965 9.49954C4.98965 8.64447 6.2996 6.93933 6.99339 6.12926C7.68718 6.93933 8.99713 8.64447 8.99713 9.49954C8.99713 10.5346 8.20816 11.3872 7.19877 11.4897ZM12.8243 9.90958C13.1173 9.61705 13.3077 9.26202 13.3978 8.88949C13.6809 10.0471 13.3678 11.3272 12.4711 12.2198C11.2914 13.3974 9.45799 13.5849 8.06289 12.6898C8.08793 12.3748 8.11799 12.0973 8.15556 11.8522C9.09982 11.6147 9.92887 11.0972 10.555 10.3921C11.3365 10.6871 12.2257 10.5071 12.8243 9.91208V9.90958ZM11.2513 7.24935C11.2513 8.87199 10.3346 10.2846 8.99212 10.9997C9.30771 10.5821 9.49806 10.0621 9.49806 9.49954C9.49806 9.19952 9.38535 8.84199 9.21003 8.46946C9.39537 8.03192 9.69343 7.65689 10.1042 7.35936C10.52 7.05684 10.7905 6.5718 10.9157 5.91174C11.1236 6.39678 11.2488 6.85182 11.2488 7.24935H11.2513ZM10.4974 5.07917C10.4824 6.00425 10.252 6.6343 9.81115 6.95433C9.43795 7.22435 9.1399 7.54938 8.92199 7.92191C8.52876 7.24935 8.0153 6.5793 7.64461 6.12676C7.81993 5.61922 8.14053 5.19418 8.6039 4.86166C9.01466 4.56413 9.28266 4.08909 9.41291 3.44654C9.80864 3.97908 10.1894 4.53663 10.4999 5.08167L10.4974 5.07917ZM6.9959 0.608801C7.34655 0.973831 8.16057 1.8439 8.98461 2.88649C8.927 3.64405 8.70158 4.1741 8.31335 4.45412C7.84748 4.78915 7.50434 5.20418 7.28143 5.69422C7.23885 5.64672 7.20378 5.60422 7.18375 5.58422C7.08857 5.47921 6.90573 5.47921 6.81055 5.58422C6.79051 5.60672 6.75545 5.64672 6.71287 5.69422C6.48995 5.20668 6.14681 4.78915 5.68094 4.45412C5.29021 4.1716 5.0673 3.64155 5.00718 2.88399C5.83122 1.8414 6.64524 0.971331 6.9959 0.606301V0.608801ZM4.57889 3.44404C4.70662 4.08659 4.97713 4.56163 5.38789 4.85916C5.84875 5.19168 6.16935 5.61672 6.34718 6.12426C5.97399 6.5768 5.46053 7.24685 5.0698 7.91941C4.85189 7.54688 4.55384 7.22185 4.18064 6.95183C3.73982 6.6318 3.50939 6.00175 3.49436 5.07667C3.80494 4.53163 4.18315 3.97408 4.58139 3.44154L4.57889 3.44404ZM2.73795 7.24935C2.73795 6.85182 2.86318 6.39678 3.07107 5.91174C3.19631 6.5693 3.46681 7.05684 3.88259 7.35936C4.29335 7.65689 4.59141 8.03192 4.77675 8.46946C4.60393 8.84199 4.48872 9.19952 4.48872 9.49954C4.48872 10.0621 4.67907 10.5821 4.99466 10.9997C3.65216 10.2846 2.73545 8.87199 2.73545 7.24935H2.73795ZM0.593949 8.89199C0.684118 9.26452 0.874473 9.61705 1.16501 9.90708C1.76363 10.5046 2.65279 10.6821 3.43425 10.3871C4.06042 11.0922 4.89197 11.6097 5.83373 11.8472C5.8713 12.0898 5.90135 12.3698 5.9264 12.6848C4.5313 13.5799 2.70038 13.3949 1.51817 12.2148C0.621501 11.3247 0.310921 10.0496 0.593949 8.88949V8.89199Z" fill="white"/>
<path d="M7.72155 14.5161C7.72155 13.9753 7.7337 13.4901 7.7532 13.0535L7.76241 12.8441C7.73777 13.2667 7.72276 13.7442 7.71896 14.2758L7.47974 14.2741V14.5161H7.72155ZM7.25421 12.084L7.25398 12.0838C7.17114 12.0911 7.08185 12.0965 6.9935 12.0965C6.90204 12.0965 6.81237 12.0912 6.72571 12.0835V12.0833C6.70041 12.0818 6.67509 12.0796 6.64967 12.0779C6.70659 12.6168 6.73873 13.2703 6.74885 14.0322H7.23839C7.24878 13.2696 7.28205 12.6163 7.33805 12.0779C7.31 12.0798 7.2821 12.0824 7.25421 12.084ZM11.1408 13.0809C10.4767 13.3267 9.7525 13.374 9.05959 13.2156C9.3273 13.2774 9.59951 13.3087 9.87124 13.3087C10.303 13.3087 10.7332 13.2319 11.1408 13.0809ZM6.09424 12.721C5.10795 13.3553 3.91047 13.4657 2.86086 13.0809C3.26667 13.2313 3.69483 13.3078 4.12474 13.3084C4.72599 13.3078 5.33 13.1562 5.88052 12.8524L6.21491 12.6679C6.21439 12.6601 6.21379 12.6523 6.21326 12.6445L6.09424 12.721ZM8.9382 13.1853C8.96374 13.1922 8.98932 13.1987 9.01495 13.2049C8.98931 13.1987 8.96376 13.1921 8.9382 13.1853ZM8.84729 13.1601C8.85343 13.1619 8.85956 13.1637 8.86571 13.1655C8.85955 13.1637 8.85343 13.1619 8.84729 13.1601ZM11.1488 13.0781C11.1934 13.0614 11.2376 13.0438 11.2815 13.0254C11.2376 13.0438 11.1934 13.0614 11.1488 13.0781ZM2.7442 13.0355C2.77447 13.0479 2.80481 13.0601 2.83535 13.0717C2.80477 13.0602 2.77451 13.0478 2.7442 13.0355ZM11.2971 13.019C11.3397 13.0009 11.382 12.982 11.4239 12.9623C11.382 12.982 11.3397 13.0009 11.2971 13.019ZM11.6995 12.8181C11.6143 12.8675 11.5273 12.913 11.439 12.955C11.5273 12.913 11.6143 12.8675 11.6995 12.8181ZM13.0314 9.72447C12.9803 9.79469 12.9249 9.86269 12.8649 9.92815V9.93477L12.7938 10.0057C12.1874 10.6099 11.3056 10.8178 10.5039 10.5782C9.91852 11.1966 9.17409 11.6604 8.33271 11.9033C8.31285 12.0534 8.29548 12.2164 8.27982 12.3938C9.51478 13.1119 11.0874 12.9207 12.1111 11.8964L12.1114 11.8962C12.7066 11.3023 13.015 10.5161 13.0314 9.72447ZM0.959841 9.72471C0.974783 10.4827 1.25766 11.233 1.80432 11.8151L1.878 11.891L1.87847 11.8914C2.90436 12.9179 4.47464 13.1072 5.70955 12.3891C5.69389 12.2114 5.6767 12.0477 5.65689 11.8983C4.81749 11.6554 4.07134 11.1917 3.48571 10.5732C2.68438 10.813 1.80243 10.6077 1.19552 10.0005C1.1086 9.91349 1.03014 9.82117 0.959841 9.72471ZM11.7094 12.8122C11.75 12.7886 11.7901 12.7641 11.8299 12.7388C11.7901 12.7641 11.75 12.7886 11.7094 12.8122ZM7.77351 12.666L8.01344 12.7983C7.97384 12.7749 7.93432 12.751 7.89536 12.726L7.77445 12.648C7.77404 12.654 7.77391 12.66 7.77351 12.666ZM12.2106 12.4602C12.0934 12.5582 11.9713 12.6477 11.8452 12.7288C11.9713 12.6477 12.0934 12.5581 12.2106 12.4602ZM12.2216 12.4507C12.2596 12.4187 12.2971 12.386 12.3341 12.3522C12.2972 12.386 12.2596 12.4187 12.2216 12.4507ZM7.8035 12.2865C7.82408 12.0643 7.84827 11.8611 7.87671 11.6752L7.90079 11.5165L8.05665 11.4772C8.40144 11.3903 8.72904 11.2615 9.03526 11.098L8.73275 10.7438C8.37787 11.2152 7.83634 11.538 7.21832 11.6015L7.22233 11.601L7.22635 11.6008C7.34915 11.5937 7.46549 11.5846 7.57986 11.5689L7.89371 11.5257L7.85238 11.8402C7.83421 11.9787 7.81808 12.1275 7.8035 12.2865ZM12.5792 7.21135C12.9538 7.66293 13.0731 8.2483 12.9447 8.7876L13.4119 8.78737C13.7041 9.98556 13.3812 11.3118 12.4528 12.2383L12.4531 12.2385C12.4166 12.2751 12.3795 12.3107 12.3419 12.3453C12.3799 12.3103 12.4176 12.2745 12.4545 12.2376L12.455 12.2374C13.8238 10.8722 13.8726 8.63874 12.5792 7.21135ZM7.19116 11.6032C7.17193 11.6042 7.14198 11.6062 7.10922 11.6081L6.9935 11.6126L7.10544 11.6096C7.13405 11.6081 7.16271 11.6055 7.19116 11.6032ZM6.78923 11.6027C6.83504 11.6065 6.87982 11.609 6.92384 11.6105C6.908 11.6097 6.89283 11.609 6.87873 11.6081C6.84425 11.6059 6.81753 11.6038 6.78923 11.6027ZM4.95575 11.0933C5.26202 11.2567 5.58939 11.3854 5.93318 11.4723L6.08857 11.5117L6.10345 11.6081L6.09235 11.5257L6.40737 11.5689C6.46454 11.5768 6.52225 11.5829 6.58095 11.588L6.76089 11.6008L6.76467 11.601L6.76821 11.6015C6.76868 11.6016 6.76916 11.6015 6.76963 11.6015C6.15127 11.5382 5.60927 11.2154 5.25425 10.7438L4.95575 11.0933ZM4.3335 9.43502C4.3335 9.12275 4.44051 8.77678 4.5883 8.43885C4.42546 8.09703 4.18024 7.8007 3.8482 7.55963L3.84773 7.5594C3.56577 7.35374 3.35069 7.076 3.19596 6.73878C3.15075 6.92532 3.127 7.0988 3.127 7.25742V7.39541C3.16568 8.49281 3.66373 9.47568 4.43457 10.1569C4.36918 9.92731 4.3335 9.6852 4.3335 9.43502ZM11.8022 10.0782C11.4509 10.207 11.0642 10.2258 10.6968 10.1285L10.6342 10.112C11.0216 10.2297 11.432 10.215 11.8022 10.0782ZM11.9135 10.0331C11.9122 10.0336 11.911 10.0342 11.9097 10.0347C11.9106 10.0343 11.9116 10.0339 11.9125 10.0335L11.9135 10.0331ZM2.03197 10.0085C1.85417 9.9219 1.68849 9.80509 1.54313 9.65878V9.65855C0.874592 8.98895 0.826271 7.93113 1.41538 7.21891C1.00055 7.67652 0.724573 8.21829 0.586723 8.78808L0.90222 8.82588L1.05029 8.7902C1.12721 9.10876 1.28934 9.41005 1.53747 9.65831C1.68428 9.8052 1.85193 9.92209 2.03197 10.0085ZM3.62032 10.0113L3.6241 10.0099C3.61058 9.99338 3.59747 9.97653 3.58419 9.95981L3.62032 10.0113ZM4.83343 9.69683C4.83387 9.70045 4.83415 9.70408 4.83461 9.7077C4.83416 9.70408 4.83386 9.70045 4.83343 9.69683ZM9.15263 9.7077C9.15309 9.70408 9.15337 9.70045 9.15381 9.69683C9.15338 9.70045 9.15308 9.70408 9.15263 9.7077ZM4.82304 9.58648C4.82384 9.59792 4.82442 9.60935 4.8254 9.62074C4.82444 9.60935 4.82382 9.59792 4.82304 9.58648ZM9.16184 9.62074C9.16282 9.60935 9.1634 9.59792 9.1642 9.58648C9.16341 9.59792 9.1628 9.60935 9.16184 9.62074ZM8.703 8.12671C8.76312 8.23236 8.81907 8.33734 8.87019 8.44026L8.91105 8.34386C9.08037 7.94324 9.33837 7.59276 9.68208 7.30326C9.42838 7.51606 9.22239 7.75983 9.06455 8.03031L8.85555 8.38828L8.703 8.12671ZM3.3726 5.10511C3.35175 5.14266 3.33161 5.18037 3.31143 5.21781L3.44439 5.91769C3.55765 6.51382 3.7954 6.92229 4.13277 7.16834H4.13253C4.56348 7.48131 4.87963 7.87877 5.07619 8.34386L5.11681 8.44003C5.14554 8.38218 5.17598 8.32379 5.20773 8.26494L5.13712 8.38686L4.92765 8.02795C4.73518 7.69813 4.47081 7.40804 4.13607 7.16527L4.13584 7.16504C3.61617 6.78688 3.38844 6.07766 3.37354 5.15874L3.3726 5.10511ZM8.56674 7.8961C8.20839 7.30657 7.76474 6.72746 7.4351 6.3241L7.34985 6.21966L7.39378 6.09207C7.41038 6.04389 7.42856 5.99657 7.44762 5.94982L7.33875 6.19013L7.0915 5.91367C7.06947 5.88903 7.04904 5.86544 7.03388 5.84799C7.02598 5.83888 7.01972 5.83158 7.01452 5.82577L7.17746 6.01622C7.51661 6.41314 8.00723 7.0303 8.41466 7.6558C8.46665 7.73563 8.51759 7.81585 8.56674 7.8961ZM5.68735 7.48402C5.66371 7.51923 5.63979 7.55434 5.6165 7.58988C5.63988 7.55452 5.66353 7.51924 5.68735 7.48402ZM9.42657 4.12405C9.2688 4.55185 9.02752 4.89774 8.69048 5.14244L8.68977 5.14315C8.31945 5.40953 8.05678 5.73921 7.89749 6.12704C8.18697 6.4868 8.54724 6.96171 8.86523 7.46063C9.0611 7.20428 9.29748 6.9751 9.5718 6.77611C9.89511 6.54083 10.1091 6.0499 10.1327 5.21734C9.92368 4.85557 9.68274 4.48701 9.42657 4.12405ZM4.56445 4.12216C4.30807 4.48519 4.06801 4.85411 3.85907 5.2164C3.88281 6.0478 4.09697 6.53828 4.41993 6.77351L4.49148 6.82668C4.73544 7.0128 4.94744 7.22398 5.12602 7.45756C5.44259 6.95899 5.80273 6.48448 6.09377 6.12467C5.93253 5.73645 5.67009 5.40657 5.30195 5.14031L5.30148 5.14008C4.96492 4.8957 4.72212 4.55018 4.56445 4.12216ZM6.34409 6.58614C6.15559 6.82499 5.94865 7.10133 5.74922 7.39258C5.94453 7.10896 6.1503 6.83332 6.34409 6.58614ZM9.74206 7.25435C9.73671 7.25862 9.73132 7.26282 9.726 7.26711C9.73131 7.26281 9.73672 7.25862 9.74206 7.25435ZM1.59556 7.02965C1.58308 7.04061 1.56859 7.05442 1.55211 7.07241L1.54857 7.07643L1.54479 7.07997C1.53147 7.0933 1.52088 7.10404 1.5122 7.11305L1.59556 7.02965ZM12.4743 7.0977C12.469 7.09232 12.4634 7.08633 12.4571 7.07997L12.4535 7.07667L12.4502 7.07312C12.4307 7.05192 12.4166 7.0384 12.4042 7.02775L12.4743 7.0977ZM11.0029 5.86783C11.1716 6.26234 11.292 6.6513 11.3307 7.01547H11.3392C11.2945 6.61405 11.1455 6.15798 10.9188 5.67124L11.0029 5.86783ZM6.4239 6.48548C6.42107 6.48901 6.41825 6.49256 6.4154 6.49611C6.41823 6.49255 6.42108 6.48903 6.4239 6.48548ZM6.5212 5.89335C6.54904 5.95713 6.5747 6.02226 6.59795 6.08876L6.64211 6.21588C6.69131 6.15639 6.73848 6.09994 6.78333 6.04717L6.65628 6.18965L6.5212 5.89335ZM7.23792 0.734312C7.60852 1.12402 8.35258 1.93013 9.10587 2.88545L9.16444 2.95941L9.15712 3.05368C9.1465 3.19365 9.12989 3.32813 9.10729 3.45655L9.20033 2.99674L9.52386 3.43316C9.90934 3.95312 10.2831 4.50131 10.5894 5.04013L10.4342 5.15803L10.6184 5.16111C10.615 5.37156 10.5998 5.57095 10.5731 5.75796L10.6791 5.19749C10.2916 4.48228 9.78101 3.74575 9.26055 3.07093C8.45326 2.02422 7.63283 1.13752 7.23792 0.724625V0.734312ZM6.34479 5.55688C6.33937 5.54806 6.33403 5.53918 6.3285 5.53042C6.33404 5.53917 6.33936 5.54806 6.34479 5.55688ZM6.29804 5.48363C6.29137 5.47354 6.28477 5.4634 6.27796 5.45339C6.28478 5.46339 6.29136 5.47355 6.29804 5.48363ZM6.24868 5.41133C6.23725 5.39521 6.22554 5.37927 6.21373 5.36337C6.22555 5.37925 6.23723 5.39521 6.24868 5.41133ZM6.99468 1.18136C6.61642 1.58378 5.97797 2.28632 5.3258 3.10708C5.39165 3.75682 5.58904 4.15391 5.86824 4.35632H5.86801C6.25913 4.63831 6.56899 4.97848 6.79655 5.36951C6.92297 5.31398 7.07081 5.31392 7.1973 5.36927C7.42512 4.97687 7.73541 4.63805 8.12655 4.35608C8.40333 4.15586 8.60226 3.75882 8.66616 3.10992C8.01251 2.28728 7.37266 1.58337 6.99468 1.18136ZM6.1946 5.33761C6.17894 5.31704 6.16273 5.29684 6.14643 5.27665C6.16274 5.29682 6.17891 5.31704 6.1946 5.33761ZM6.00308 5.11267C6.04852 5.16058 6.09194 5.20983 6.13344 5.26035C6.09203 5.20988 6.04859 5.16066 6.00308 5.11267ZM5.97616 5.08502C5.95861 5.06702 5.94094 5.04903 5.92279 5.03139C5.94092 5.04902 5.9586 5.067 5.97616 5.08502ZM5.91264 5.0217C5.89456 5.0043 5.87627 4.987 5.85761 4.96995C5.87625 4.987 5.89456 5.00427 5.91264 5.0217ZM8.12278 4.98224C8.12048 4.98436 8.11821 4.9865 8.11593 4.98862C8.11821 4.9865 8.12048 4.98435 8.12278 4.98224ZM5.82455 4.94018C5.80939 4.92675 5.79404 4.91345 5.7785 4.90025C5.79402 4.91346 5.80939 4.92673 5.82455 4.94018ZM8.19811 4.91513C8.19138 4.92093 8.1847 4.92677 8.17803 4.93262C8.18471 4.92678 8.19137 4.92092 8.19811 4.91513ZM5.74946 4.87567C5.73201 4.86123 5.71423 4.84707 5.69632 4.83291C5.7142 4.84708 5.73202 4.8612 5.74946 4.87567ZM8.29233 4.83763C8.27864 4.8485 8.2649 4.85921 8.25148 4.87024C8.26492 4.85922 8.27863 4.84847 8.29233 4.83763ZM8.33248 4.80573C8.32954 4.80799 8.32667 4.81032 8.32374 4.81259C8.35113 4.79148 8.37896 4.77062 8.40734 4.75021C8.40806 4.74968 8.40874 4.74908 8.40946 4.74855L8.33248 4.80573ZM5.6661 4.80881C5.65716 4.80192 5.64799 4.7953 5.63894 4.78848C5.64797 4.79531 5.65717 4.8019 5.6661 4.80881ZM5.18033 4.29772C5.18959 4.31318 5.19861 4.32862 5.2082 4.34356C5.19859 4.32856 5.18955 4.31314 5.18033 4.29772ZM5.11445 4.1784C5.12215 4.19372 5.13031 4.20865 5.1383 4.22353C5.13029 4.2086 5.12212 4.19368 5.11445 4.1784ZM5.06934 4.08223C5.0774 4.10056 5.08571 4.11857 5.09414 4.13634C5.08569 4.11851 5.07737 4.10051 5.06934 4.08223ZM5.02849 3.98228C5.03542 4.00041 5.04248 4.01829 5.04974 4.03592C5.04246 4.01823 5.0354 4.00036 5.02849 3.98228ZM4.9933 3.88375C4.99868 3.89987 5.00374 3.91596 5.00936 3.93172C5.00373 3.91592 4.99867 3.89983 4.9933 3.88375ZM4.94442 3.72142C4.95006 3.7427 4.95635 3.76356 4.96237 3.78427C4.95633 3.76349 4.95005 3.74263 4.94442 3.72142ZM4.91986 3.62124C4.92385 3.63868 4.92815 3.65589 4.93237 3.67298C4.92813 3.65585 4.92386 3.63863 4.91986 3.62124ZM4.74109 3.07093C4.65517 3.18234 4.56976 3.29561 4.48487 3.41L4.49148 3.40362L4.49384 3.40126L4.68843 3.56973L4.89979 3.52767C4.86985 3.37751 4.84804 3.21867 4.83484 3.05203L4.82752 2.96011C4.79882 2.99689 4.76978 3.03374 4.74109 3.07093ZM5.39381 2.25929C5.36218 2.29718 5.33037 2.33546 5.29841 2.37413C5.33038 2.33548 5.36216 2.29717 5.39381 2.25929ZM11.3536 7.25742C11.3536 7.20295 11.3508 7.14725 11.3462 7.09037V7.25742C11.3462 8.32082 10.9627 9.29541 10.328 10.0517L10.362 10.0134L10.3761 10.0186L10.5608 9.75566C11.0584 9.04668 11.3536 8.18751 11.3536 7.25742ZM5.30077 9.43502C5.30078 10.311 5.96696 11.0327 6.81875 11.12C6.85203 11.1215 6.88423 11.1235 6.91014 11.1252C6.94175 11.1272 6.96789 11.1287 6.9935 11.1287C7.05805 11.1287 7.08498 11.1235 7.16849 11.12C8.02027 11.0327 8.68622 10.311 8.68623 9.43502C8.68623 9.28082 8.62488 9.06079 8.50014 8.78689C8.37795 8.5186 8.20571 8.22132 8.00942 7.91997C7.68511 7.42207 7.30294 6.92615 6.9935 6.55046C6.68408 6.92613 6.3021 7.42212 5.97782 7.91997C5.78153 8.22132 5.60929 8.5186 5.48709 8.78689C5.36236 9.06079 5.30077 9.28082 5.30077 9.43502ZM9.16774 9.52812C9.16907 9.49724 9.16987 9.46621 9.16987 9.43502C9.16987 9.46622 9.16904 9.49724 9.16774 9.52812ZM9.65351 9.43502C9.6535 9.68522 9.61783 9.92729 9.55243 10.1569C10.3233 9.47568 10.8216 8.49287 10.8602 7.39541V7.25742C10.8602 7.09893 10.8364 6.92562 10.7913 6.73925C10.6365 7.07661 10.4215 7.3537 10.1395 7.5594L10.139 7.55963C9.80718 7.80056 9.56178 8.09656 9.39894 8.43814C9.54891 8.77762 9.65351 9.12321 9.65351 9.43502ZM11.8372 7.25742C11.8372 8.15238 11.5906 8.98778 11.167 9.70604C11.5166 9.70683 11.8601 9.57328 12.1161 9.31712C12.623 8.80746 12.6438 8.00201 12.1697 7.47717L12.0483 7.35595V7.35572C11.8621 7.17185 11.8635 6.88175 12.0278 6.69388L12.0297 6.69176L12.063 6.65797C12.2364 6.49929 12.5058 6.48779 12.6925 6.63812H12.6923C12.7346 6.67119 12.7688 6.70562 12.7988 6.73783C12.8219 6.76094 12.8498 6.78914 12.8786 6.82266L12.949 6.89898C14.4033 8.51728 14.3445 11.0353 12.7964 12.5795C11.9952 13.3812 10.9369 13.7926 9.87124 13.7926C9.31103 13.7926 8.74967 13.6766 8.22219 13.4457C8.21151 13.7754 8.20519 14.1313 8.20519 14.5161C8.20518 14.7828 7.98807 15 7.72155 15H6.27064C6.0041 15 5.78702 14.7828 5.78701 14.5161C5.78701 14.1313 5.78045 13.7754 5.76977 13.4457C5.24532 13.6753 4.6874 13.791 4.13041 13.7923V13.7926H4.12072V13.7923C3.05838 13.7898 2.00399 13.379 1.2052 12.5797V12.5795C-0.369687 11.0084 -0.405761 8.42983 1.12444 6.82171C1.15109 6.78914 1.18562 6.75506 1.20284 6.73783C1.23155 6.70693 1.26748 6.67101 1.30958 6.63812C1.50983 6.47467 1.80426 6.49972 1.97411 6.69388H1.97387C2.14193 6.88343 2.1359 7.17328 1.95333 7.35595L1.82675 7.48237C1.37275 7.98362 1.37558 8.75718 1.83927 9.26844L1.88579 9.31712L1.88626 9.31759C2.14241 9.57542 2.48573 9.70926 2.83512 9.70746C2.41105 8.98893 2.16445 8.15288 2.16445 7.25742C2.16445 6.57778 2.4524 5.80249 2.8585 5.03871C3.26776 4.26897 3.81239 3.48314 4.35829 2.77534C5.45027 1.35951 6.56403 0.23401 6.65817 0.13982C6.84449 -0.0466096 7.15715 -0.0466036 7.34348 0.13982C7.43735 0.23375 8.55123 1.35932 9.64335 2.77534C10.1893 3.48315 10.7341 4.26896 11.1434 5.03871C11.5495 5.80247 11.8372 6.5778 11.8372 7.25742ZM7.8035 12.2865C7.80015 12.323 7.79721 12.36 7.79405 12.3976C7.79726 12.36 7.80012 12.323 7.8035 12.2865ZM2.03834 10.0116C2.05191 10.018 2.06549 10.0244 2.0792 10.0305C2.06553 10.0243 2.05187 10.0181 2.03834 10.0116ZM8.58351 7.92398C8.57791 7.9147 8.57238 7.90538 8.56674 7.8961C8.57241 7.90536 8.57788 7.91473 8.58351 7.92398Z" fill="white"/>
</svg>
