<svg width="15" height="15" viewBox="0 0 15 15" fill="none" xmlns="http://www.w3.org/2000/svg">
<g clip-path="url(#clip0_2361_104)">
<path d="M7.5 0C3.36446 0 0 3.36446 0 7.5C0 11.6355 3.36446 15 7.5 15C11.6355 15 15 11.6355 15 7.5C15 3.36446 11.6355 0 7.5 0ZM5.90486 10.8342C7.74553 8.54447 9.05794 9.88821 9.05794 9.88821C9.05794 9.88821 8.90391 10.1838 7.57251 10.6833C8.61506 10.8176 9.24896 10.1427 9.24896 10.1427C9.96553 11.3222 8.4348 12.9032 5.90486 10.8342ZM7.52181 7.48839C5.73261 7.48839 4.27697 8.94403 4.27697 10.7332C4.27697 12.259 5.33584 13.5411 6.75711 13.8859V13.9016C3.55221 13.5319 1.05531 10.8024 1.05531 7.5C1.05531 3.94637 3.94641 1.05527 7.5 1.05527C7.71643 1.05527 7.79379 1.0623 7.79379 1.0623C9.43659 1.18929 10.718 2.58866 10.718 4.26677C10.718 7.47321 7.52181 7.48839 7.52181 7.48839Z" fill="white"/>
<path d="M5.86264 5.00481C5.86264 5.00481 6.37097 4.23102 7.42114 4.18409C6.19543 4.90504 6.0945 5.22269 6.0945 5.22269C6.0945 5.22269 7.61846 6.32074 9.03806 3.74871C6.19003 2.14555 4.9539 3.96621 5.86264 5.00481Z" fill="white"/>
</g>
<defs>
<clipPath id="clip0_2361_104">
<rect width="15" height="15" fill="white"/>
</clipPath>
</defs>
</svg>
