<svg width="12" height="15" viewBox="0 0 12 15" fill="none" xmlns="http://www.w3.org/2000/svg">
<path d="M8.23309 4.36364C9.43609 4.36364 10.4149 3.38482 10.4149 2.18182C10.4149 0.978818 9.43609 0 8.23309 0C7.03009 0 6.05127 0.978818 6.05127 2.18182C6.05127 3.38482 7.02982 4.36364 8.23309 4.36364Z" fill="white"/>
<path d="M11.2269 6.57765C11.1901 6.20292 10.988 5.86692 10.6724 5.65583C10.1938 5.33592 9.4877 5.42347 9.06498 5.8462L8.07716 6.83401L7.66261 6.41947C7.77607 5.63292 7.48507 4.80765 6.82125 4.27583C6.41352 3.94883 5.8997 3.7691 5.37497 3.7691C4.66452 3.7691 4.00398 4.08465 3.56352 4.63392L0.508157 8.39565C-0.291207 9.39329 -0.129753 10.8551 0.867611 11.6542C1.03179 11.7856 1.28407 11.9035 1.61761 12.0044C2.0537 12.1358 2.4467 12.3284 2.78625 12.5763L3.11788 12.8182H1.31461C0.774611 12.8182 0.309611 13.1853 0.20952 13.6909C0.145157 14.0149 0.227247 14.3463 0.435338 14.5999C0.643975 14.8541 0.951338 15 1.27861 15H6.46043C6.48443 15 6.50761 14.9976 6.54361 14.9932C6.58097 14.9905 6.61779 14.9875 6.6557 14.9806C6.68243 14.9757 6.70752 14.9692 6.74488 14.9586C6.7847 14.9476 6.82425 14.9365 6.86516 14.9201C6.88288 14.913 6.90034 14.9046 6.92897 14.8904C6.97316 14.8694 7.01625 14.8467 7.05661 14.8203C7.06916 14.8124 7.08088 14.8034 7.09452 14.7927C7.14034 14.7603 7.18425 14.7248 7.22652 14.6831L7.26198 14.6452C7.29007 14.6163 7.31761 14.5866 7.34516 14.5486L7.37843 14.4936C7.41061 14.4426 7.44007 14.3907 7.46079 14.3416C7.46761 14.3261 7.47334 14.3103 7.47743 14.2969C7.49734 14.244 7.51534 14.1911 7.52652 14.1374C7.53061 14.1177 7.53307 14.0976 7.5377 14.0586C7.54316 14.0204 7.54779 13.9822 7.54943 13.944L7.55134 13.9091C7.55134 13.8848 7.54888 13.8611 7.54398 13.8205C7.54152 13.7861 7.53852 13.752 7.53279 13.7198C7.52707 13.6852 7.51779 13.6519 7.50525 13.6094C7.49625 13.5764 7.4867 13.5436 7.47443 13.5126C7.46407 13.4864 7.45207 13.4613 7.43461 13.4264C7.41661 13.3898 7.39807 13.3541 7.37516 13.3186C7.36288 13.2998 7.34979 13.2824 7.32852 13.2546C7.30179 13.2194 7.27479 13.185 7.24452 13.1536C7.22816 13.1367 7.2107 13.1212 7.19325 13.1059L7.16898 13.0841C7.14907 13.0647 7.12888 13.0462 7.10079 13.0257L4.77116 11.3921C4.65061 11.3076 4.57288 11.181 4.5527 11.0354C4.53225 10.8892 4.57234 10.7452 4.66616 10.6301L6.30825 8.6081L7.13516 9.43501C7.38198 9.6821 7.72179 9.80919 8.07716 9.79583C8.09652 9.79665 8.11616 9.79692 8.13525 9.79692C8.47152 9.79692 8.7857 9.6682 9.01888 9.43474L10.8672 7.58674C11.1328 7.32192 11.264 6.95401 11.2269 6.57765Z" fill="white"/>
</svg>
