<svg width="14" height="14" viewBox="0 0 14 14" fill="none" xmlns="http://www.w3.org/2000/svg">
<g clip-path="url(#clip0_2354_453)">
<path d="M13.3636 0.000152588H0.63637C0.284921 0.000152588 0 0.285074 0 0.636522V13.3637C0 13.7152 0.284921 14.0001 0.63637 14.0001H13.3636C13.7151 14.0001 14 13.7152 14 13.3637V0.636468C14 0.285019 13.7151 0.000152588 13.3636 0.000152588ZM1.27271 12.7274V1.27284H6.43132C5.60472 2.08199 5.09088 3.20932 5.09088 4.4546C5.09088 6.91083 7.08913 8.90914 9.54541 8.90914C10.7907 8.90914 11.9181 8.39524 12.7272 7.5687V12.7274H1.27271ZM9.54544 7.6364C7.79098 7.6364 6.36362 6.20903 6.36362 4.45458C6.36362 2.70018 7.79098 1.27281 9.54544 1.27281C11.2999 1.27281 12.7273 2.70018 12.7273 4.45458C12.7273 6.20906 11.2999 7.6364 9.54544 7.6364ZM12.7273 1.34054C12.7049 1.31776 12.6823 1.29518 12.6596 1.27284H12.7273V1.34054Z" fill="white"/>
<path d="M3.18178 2.5455C2.83033 2.5455 2.54541 2.83042 2.54541 3.18187V8.27272C2.54541 8.62417 2.83033 8.90904 3.18178 8.90904C3.53323 8.90904 3.81815 8.62411 3.81815 8.27267V3.18184C3.81812 2.83042 3.5332 2.5455 3.18178 2.5455Z" fill="white"/>
<path d="M5.72723 10.1817H3.18178C2.83033 10.1817 2.54541 10.4667 2.54541 10.8181C2.54541 11.1696 2.83033 11.4545 3.18178 11.4545H5.72723C6.07868 11.4545 6.3636 11.1696 6.3636 10.8181C6.36357 10.4667 6.07865 10.1817 5.72723 10.1817Z" fill="white"/>
<path d="M9.99563 4.00441C9.87687 3.88604 9.71314 3.81818 9.54555 3.81818C9.37796 3.81818 9.21417 3.88604 9.09542 4.00441C8.97705 4.12279 8.90918 4.28696 8.90918 4.45455C8.90918 4.62214 8.97705 4.78587 9.09542 4.90468C9.21417 5.02305 9.37796 5.09092 9.54555 5.09092C9.71314 5.09092 9.87687 5.02305 9.99563 4.90468C10.114 4.7859 10.1819 4.62214 10.1819 4.45455C10.1819 4.28696 10.114 4.12276 9.99563 4.00441Z" fill="white"/>
<path d="M10.8181 10.1817H8.2726C7.92115 10.1817 7.63623 10.4667 7.63623 10.8181C7.63623 11.1696 7.92115 11.4545 8.2726 11.4545H10.8181C11.1695 11.4545 11.4544 11.1696 11.4544 10.8181C11.4544 10.4667 11.1695 10.1817 10.8181 10.1817Z" fill="white"/>
</g>
<defs>
<clipPath id="clip0_2354_453">
<rect width="14" height="14" fill="white"/>
</clipPath>
</defs>
</svg>
