<svg width="15" height="15" viewBox="0 0 15 15" fill="none" xmlns="http://www.w3.org/2000/svg">
<path d="M7.1263 0C5.6193 0 4.11119 0.311883 3.09081 0.809199C2.57916 1.05865 2.18547 1.35317 1.93995 1.64242C1.69434 1.93172 1.59181 2.20716 1.59229 2.46663C1.59229 2.46711 1.59229 2.46759 1.59229 2.46807C1.59181 2.72759 1.69434 3.00303 1.93995 3.29237C2.18547 3.58153 2.57916 3.8761 3.09081 4.1255C4.11124 4.62277 5.61935 4.9347 7.1263 4.9347C7.84861 4.9347 8.57015 4.86181 9.23923 4.73234L7.13076 2.74087C7.08243 2.69634 7.04449 2.64172 7.01963 2.58089C6.99476 2.52006 6.98358 2.4545 6.98687 2.38887C6.99017 2.32323 7.00786 2.25912 7.03869 2.20109C7.06952 2.14305 7.11274 2.09251 7.16529 2.05304C7.20601 1.99805 7.25878 1.95311 7.31956 1.92167C7.38034 1.89024 7.44751 1.87314 7.51592 1.87168C7.6063 1.86988 7.69511 1.89546 7.77069 1.94505L11.1798 4.11644C11.6826 3.869 12.0701 3.57803 12.3127 3.29223C12.5583 3.00298 12.6608 2.72754 12.6604 2.46807C12.6604 2.46759 12.6604 2.46711 12.6604 2.46663C12.6608 2.20711 12.5583 1.93167 12.3127 1.64233C12.0672 1.35317 11.6735 1.0586 11.1618 0.809199C10.1414 0.311931 8.63331 4.79262e-05 7.12635 4.79262e-05L7.1263 0ZM12.9196 3.9591C12.6178 4.28883 12.2265 4.57779 11.7642 4.82513L13.0963 11.1204C13.1094 11.1784 13.1108 11.2384 13.1005 11.2969C13.0901 11.3554 13.0683 11.4113 13.0362 11.4613C13.0041 11.5113 12.9624 11.5545 12.9135 11.5882C12.8646 11.622 12.8095 11.6457 12.7514 11.658C12.6932 11.6703 12.6332 11.671 12.5748 11.6599C12.5165 11.6488 12.4609 11.6263 12.4113 11.5936C12.3617 11.5608 12.3191 11.5186 12.2859 11.4693C12.2528 11.4199 12.2297 11.3645 12.2182 11.3062L10.9265 5.19839C10.8238 5.23675 10.7201 5.2743 10.6134 5.3093L11.3581 11.9687C11.3651 12.0274 11.3605 12.087 11.3444 12.144C11.3283 12.2009 11.3011 12.2541 11.2644 12.3005C11.2276 12.3469 11.1821 12.3856 11.1303 12.4143C11.0786 12.443 11.0217 12.4612 10.9629 12.4678C10.904 12.4744 10.8445 12.4694 10.7877 12.4529C10.7308 12.4364 10.6778 12.4088 10.6317 12.3718C10.5855 12.3347 10.5472 12.2889 10.5188 12.2369C10.4905 12.185 10.4727 12.1279 10.4665 12.0691L9.73972 5.54753C8.91891 5.73248 8.0257 5.83074 7.1263 5.83074C5.49942 5.83074 3.89286 5.51387 2.69817 4.93163C2.1635 4.67106 1.71275 4.3597 1.37051 3.99799L0.0187308 11.6584C-0.0474437 12.0746 0.0615524 12.43 0.348452 12.8004C0.635352 13.1706 1.11282 13.5328 1.73308 13.8433C2.97361 14.4643 4.76579 14.8744 6.60482 14.9657C8.4438 15.0569 10.3331 14.8308 11.7762 14.2464C13.1938 13.6723 14.1429 12.7997 14.3776 11.5431L12.9194 3.95915L12.9196 3.9591Z" fill="white"/>
</svg>
