<svg width="17" height="17" viewBox="0 0 17 17" fill="none" xmlns="http://www.w3.org/2000/svg">
<g clip-path="url(#clip0_2355_478)">
<path d="M8.49996 0.653839C4.15189 0.653839 0.653809 4.15192 0.653809 8.49999C0.653809 12.8481 4.15189 16.3461 8.49996 16.3461C12.848 16.3461 16.3461 12.8481 16.3461 8.49999C16.3461 4.15192 12.848 0.653839 8.49996 0.653839ZM9.15381 2.32115C9.12112 2.32115 9.12112 2.32115 9.08842 2.32115C9.12112 2.32115 9.15381 2.32115 9.15381 2.32115ZM8.49996 14.7115C5.06727 14.7115 2.28842 11.9327 2.28842 8.49999C2.28842 8.17307 2.32112 7.81346 2.3865 7.51922C2.8115 7.58461 3.33458 7.74807 3.59612 8.00961C4.15189 8.59807 4.77304 9.28461 5.3615 9.41538C5.3615 9.41538 5.29612 9.44807 5.23073 9.54615C5.16535 9.64422 5.09996 9.84038 5.09996 10.1673C5.09996 11.7038 6.53842 10.7885 6.53842 12.325C6.53842 13.8615 8.27112 14.4827 8.27112 13.2404C8.27112 11.9981 9.41535 11.4096 9.41535 10.4615C9.41535 9.51346 8.53266 9.54615 7.97689 9.21922C7.38842 8.92499 7.09419 8.43461 5.98265 8.59807C5.39419 8.0423 5.06727 7.58461 5.32881 7.06153C5.62304 6.50576 6.83266 6.40769 6.83266 5.55769C6.83266 4.70769 6.01535 4.54422 5.42689 4.54422C5.16535 4.54422 4.60958 4.34807 4.15189 4.11922C4.70766 3.56345 5.39419 3.10576 6.11342 2.77884C6.6365 3.00769 7.51919 3.3673 8.27112 3.3673C9.15381 3.3673 9.6115 2.74615 9.48073 2.35384C10.9519 2.58269 12.2596 3.33461 13.2077 4.38076C12.7173 4.67499 12.0634 5.00192 10.9192 5.00192C9.41535 5.00192 9.41535 6.53845 10.298 6.83269C11.2134 7.12692 12.1288 6.24422 12.423 6.83269C12.7173 7.42115 10.298 7.42115 10.9192 8.92499C11.5403 10.4288 12.1288 8.8923 12.75 10.3961C13.3711 11.9 14.5807 10.1673 13.6653 8.99038C13.273 8.4673 13.3711 6.86538 14.2865 6.86538H14.5807C14.7115 7.38846 14.8096 7.94422 14.8096 8.49999C14.7115 11.9327 11.9327 14.7115 8.49996 14.7115Z" fill="white"/>
</g>
<defs>
<clipPath id="clip0_2355_478">
<rect width="17" height="17" fill="white"/>
</clipPath>
</defs>
</svg>
