<svg width="60" height="60" viewBox="0 0 60 60" fill="none" xmlns="http://www.w3.org/2000/svg">
<path d="M29.1833 2.44263C27.3884 2.44767 25.5789 2.85044 24.027 3.51923C23.12 3.44985 22.2399 3.41259 21.3903 3.41317C10.7708 3.42173 4.62287 8.87095 2.17529 18.2155V58.0848H24.3604C23.7534 51.6945 24.9745 44.7177 27.5573 39.9647C24.1727 39.3819 20.7707 39.0041 17.4976 38.8845L16.6004 38.8515L16.4574 37.9618C15.3465 31.0513 15.2705 24.0118 19.043 17.2817L20.9547 18.3512C17.6527 24.2417 17.5563 30.3693 18.4973 36.7569C28.0785 37.235 38.4438 39.7179 46.5492 43.1839C49.2122 42.5124 50.512 39.7051 51.4525 35.5081L47.7063 38.0423L46.5309 32.8347L41.1766 36.4566L39.9133 30.8645L34.8449 34.2887L33.5924 28.7442L28.4582 32.216L26.7004 24.434L35.0024 18.8201L36.2548 24.3682L41.3892 20.8965L42.6524 26.4884L47.7208 23.0607L48.8964 28.2647L54.2467 24.6465L55.1477 28.6383C57.5908 25.4765 59.2755 20.8412 56.8359 18.6445C53.8539 15.9593 50.7117 13.5656 47.5305 11.5472C46.761 8.62544 40.3789 2.51048 36.5442 5.93692C34.852 3.42747 32.0357 2.43536 29.1833 2.44333V2.44263ZM29.4399 4.97681C31.5612 4.97681 33.2594 6.68188 33.2594 8.81821C33.2594 9.19204 33.2063 9.55063 33.1092 9.89118C32.7478 9.15993 31.9955 8.65345 31.1245 8.65345C29.9015 8.65345 28.9089 9.64603 28.9089 10.869C28.9089 11.5979 29.2626 12.2416 29.8061 12.6451C29.6854 12.6565 29.5635 12.6597 29.4399 12.6597C27.3183 12.6597 25.6165 10.9547 25.6165 8.81833C25.6165 6.682 27.3183 4.97692 29.4398 4.97692L29.4399 4.97681Z" fill="white"/>
</svg>
