<svg width="60" height="60" viewBox="0 0 60 60" fill="none" xmlns="http://www.w3.org/2000/svg">
<path fill-rule="evenodd" clip-rule="evenodd" d="M29.2442 7.00004C31.5935 6.99345 33.913 7.81426 35.3067 9.88872C38.4651 7.05603 43.7219 12.112 44.3556 14.5274C46.9756 16.196 49.5638 18.1748 52.0197 20.3946C54.0288 22.2107 52.6412 26.0426 50.6291 28.6564L49.8869 25.3566L45.4806 28.3478L44.5119 24.045L40.338 26.879L39.297 22.256L35.0685 25.1261L34.0372 20.5392L27.1993 25.1808L26.9307 37.8595C27.2556 37.911 27.5807 37.9636 27.9054 38.0197C27.857 38.1091 27.809 38.1999 27.7618 38.2912L31.1388 36.0001L32.17 40.5841L36.3448 37.7531L37.3849 42.3761L41.7951 39.382L42.7628 43.6867L45.8488 41.592C45.0741 45.0616 44.0031 47.3826 41.8097 47.9377C37.1409 45.9337 31.5617 44.3274 25.9298 43.4074C25.2175 46.4405 24.9705 49.8088 25.2725 53.0002H7V20.0401C9.01588 12.3149 14.0798 7.80985 22.8262 7.80278C23.5257 7.8023 24.2504 7.83237 24.9971 7.88969C26.2753 7.33681 27.766 7.00422 29.2442 7.00004ZM20.8926 19.2677C17.8635 24.6919 17.8484 30.3591 18.6973 35.9337C19.175 30.2743 20.6102 23.476 22.4669 20.1515L20.8926 19.2677ZM29.5001 9.00005C27.5671 9.00005 26.0001 10.5671 26.0001 12.5001C26.0001 14.4331 27.5671 16.0001 29.5001 16.0001C31.4331 16.0001 33.0001 14.4331 33.0001 12.5001C33.0001 10.5671 31.4331 9.00005 29.5001 9.00005Z" fill="white"/>
</svg>
