<svg width="60" height="60" viewBox="0 0 60 60" fill="none" xmlns="http://www.w3.org/2000/svg">
<path d="M29.2443 7C27.766 7.00417 26.2757 7.33714 24.9975 7.89004C24.2504 7.83269 23.5256 7.80188 22.8258 7.80236C14.0794 7.80943 9.01587 12.3144 7 20.0396V53H25.2721C24.7721 47.7171 25.7778 41.9493 27.9051 38.0199C25.1174 37.5381 22.3155 37.2258 19.6197 37.1269L18.8808 37.0996L18.763 36.3641C17.848 30.6511 17.7855 24.8315 20.8926 19.2677L22.4671 20.1518C19.7475 25.0216 19.6681 30.0873 20.4431 35.368C28.3344 35.7633 36.8714 37.8159 43.5471 40.6813C45.7405 40.1262 46.811 37.8053 47.5856 34.3356L44.5001 36.4307L43.5321 32.1255L39.1222 35.1198L38.0817 30.4967L33.9073 33.3275L32.8757 28.7438L28.6471 31.614L27.1993 25.1805L34.037 20.5394L35.0685 25.1261L39.2973 22.256L40.3377 26.879L44.5121 24.0452L45.4804 28.3474L49.887 25.3562L50.629 28.6562C52.6412 26.0424 54.0288 22.2103 52.0195 20.3943C49.5635 18.1744 46.9754 16.1955 44.3554 14.5268C43.7216 12.1114 38.4652 7.05609 35.3068 9.88877C33.9131 7.81418 31.5936 6.99399 29.2443 7.00058V7ZM29.4556 9.09504C31.2028 9.09504 32.6014 10.5046 32.6014 12.2708C32.6014 12.5798 32.5577 12.8763 32.4777 13.1578C32.18 12.5533 31.5605 12.1346 30.8431 12.1346C29.8358 12.1346 29.0183 12.9551 29.0183 13.9662C29.0183 14.5688 29.3096 15.1009 29.7572 15.4345C29.6578 15.4439 29.5575 15.4466 29.4556 15.4466C27.7083 15.4466 26.3066 14.037 26.3066 12.2709C26.3066 10.5047 27.7083 9.09513 29.4555 9.09513L29.4556 9.09504Z" fill="white"/>
</svg>
