<svg width="40" height="39" viewBox="0 0 40 39" fill="none" xmlns="http://www.w3.org/2000/svg">
<circle cx="20.1913" cy="19.2827" r="18.7827" fill="url(#paint0_linear_2239_66)" stroke="#07F2B8"/>
<path d="M17 22.5L20.5 25.5L25 22L26.5 18.5L26 15.5L24.5 14.5H22.5L21 16H20L19.5 15.5L18 14.5H16.5L15 16L14.5 19L17 22.5Z" fill="#07F2B8"/>
<mask id="path-3-outside-1_2239_66" maskUnits="userSpaceOnUse" x="11.4783" y="11.3409" width="19" height="18" fill="black">
<rect fill="white" x="11.4783" y="11.3409" width="19" height="18"/>
<path d="M27.4604 14.0555C27.0171 13.5176 26.4604 13.0851 25.8303 12.7889C25.2002 12.4928 24.5125 12.3405 23.8166 12.343C22.626 12.3069 21.4669 12.7297 20.5777 13.5244C19.6886 12.7297 18.5294 12.3069 17.3388 12.343C16.643 12.3405 15.9553 12.4928 15.3252 12.7889C14.6951 13.0851 14.1384 13.5176 13.6951 14.0555C12.9234 14.9941 12.1161 16.6936 12.6514 19.4632C13.5056 23.8861 19.9113 27.5156 20.1818 27.6642C20.3023 27.7316 20.4381 27.767 20.5761 27.767C20.7142 27.767 20.8499 27.7316 20.9705 27.6642C21.2425 27.5124 27.6482 23.8828 28.5009 19.4632C29.0393 16.6936 28.2321 14.9941 27.4604 14.0555ZM26.9146 19.1547C26.3106 22.2816 21.9203 25.1901 20.5777 26.0167C18.6862 24.8718 14.7947 21.9974 14.2449 19.1547C13.8295 17.0062 14.3979 15.7582 14.9485 15.0891C15.2397 14.7368 15.605 14.4535 16.0183 14.2595C16.4316 14.0655 16.8825 13.9656 17.3388 13.967C17.8262 13.9303 18.3147 14.0209 18.7568 14.23C19.1988 14.439 19.5793 14.7594 19.8611 15.1598C19.9306 15.288 20.0331 15.3952 20.158 15.4702C20.2829 15.5452 20.4255 15.5852 20.5711 15.5861C20.7166 15.5871 20.8597 15.5488 20.9855 15.4754C21.1113 15.402 21.2152 15.2961 21.2862 15.1687C21.5675 14.7652 21.9488 14.4421 22.3925 14.2314C22.8363 14.0207 23.3271 13.9295 23.8166 13.967C24.2739 13.9647 24.726 14.0642 25.1403 14.2583C25.5546 14.4523 25.9208 14.7361 26.2126 15.0891C26.7616 15.7582 27.33 17.0062 26.9146 19.1547Z"/>
</mask>
<path d="M27.4604 14.0555C27.0171 13.5176 26.4604 13.0851 25.8303 12.7889C25.2002 12.4928 24.5125 12.3405 23.8166 12.343C22.626 12.3069 21.4669 12.7297 20.5777 13.5244C19.6886 12.7297 18.5294 12.3069 17.3388 12.343C16.643 12.3405 15.9553 12.4928 15.3252 12.7889C14.6951 13.0851 14.1384 13.5176 13.6951 14.0555C12.9234 14.9941 12.1161 16.6936 12.6514 19.4632C13.5056 23.8861 19.9113 27.5156 20.1818 27.6642C20.3023 27.7316 20.4381 27.767 20.5761 27.767C20.7142 27.767 20.8499 27.7316 20.9705 27.6642C21.2425 27.5124 27.6482 23.8828 28.5009 19.4632C29.0393 16.6936 28.2321 14.9941 27.4604 14.0555ZM26.9146 19.1547C26.3106 22.2816 21.9203 25.1901 20.5777 26.0167C18.6862 24.8718 14.7947 21.9974 14.2449 19.1547C13.8295 17.0062 14.3979 15.7582 14.9485 15.0891C15.2397 14.7368 15.605 14.4535 16.0183 14.2595C16.4316 14.0655 16.8825 13.9656 17.3388 13.967C17.8262 13.9303 18.3147 14.0209 18.7568 14.23C19.1988 14.439 19.5793 14.7594 19.8611 15.1598C19.9306 15.288 20.0331 15.3952 20.158 15.4702C20.2829 15.5452 20.4255 15.5852 20.5711 15.5861C20.7166 15.5871 20.8597 15.5488 20.9855 15.4754C21.1113 15.402 21.2152 15.2961 21.2862 15.1687C21.5675 14.7652 21.9488 14.4421 22.3925 14.2314C22.8363 14.0207 23.3271 13.9295 23.8166 13.967C24.2739 13.9647 24.726 14.0642 25.1403 14.2583C25.5546 14.4523 25.9208 14.7361 26.2126 15.0891C26.7616 15.7582 27.33 17.0062 26.9146 19.1547Z" fill="url(#paint1_linear_2239_66)"/>
<path d="M27.4604 14.0555C27.0171 13.5176 26.4604 13.0851 25.8303 12.7889C25.2002 12.4928 24.5125 12.3405 23.8166 12.343C22.626 12.3069 21.4669 12.7297 20.5777 13.5244C19.6886 12.7297 18.5294 12.3069 17.3388 12.343C16.643 12.3405 15.9553 12.4928 15.3252 12.7889C14.6951 13.0851 14.1384 13.5176 13.6951 14.0555C12.9234 14.9941 12.1161 16.6936 12.6514 19.4632C13.5056 23.8861 19.9113 27.5156 20.1818 27.6642C20.3023 27.7316 20.4381 27.767 20.5761 27.767C20.7142 27.767 20.8499 27.7316 20.9705 27.6642C21.2425 27.5124 27.6482 23.8828 28.5009 19.4632C29.0393 16.6936 28.2321 14.9941 27.4604 14.0555ZM26.9146 19.1547C26.3106 22.2816 21.9203 25.1901 20.5777 26.0167C18.6862 24.8718 14.7947 21.9974 14.2449 19.1547C13.8295 17.0062 14.3979 15.7582 14.9485 15.0891C15.2397 14.7368 15.605 14.4535 16.0183 14.2595C16.4316 14.0655 16.8825 13.9656 17.3388 13.967C17.8262 13.9303 18.3147 14.0209 18.7568 14.23C19.1988 14.439 19.5793 14.7594 19.8611 15.1598C19.9306 15.288 20.0331 15.3952 20.158 15.4702C20.2829 15.5452 20.4255 15.5852 20.5711 15.5861C20.7166 15.5871 20.8597 15.5488 20.9855 15.4754C21.1113 15.402 21.2152 15.2961 21.2862 15.1687C21.5675 14.7652 21.9488 14.4421 22.3925 14.2314C22.8363 14.0207 23.3271 13.9295 23.8166 13.967C24.2739 13.9647 24.726 14.0642 25.1403 14.2583C25.5546 14.4523 25.9208 14.7361 26.2126 15.0891C26.7616 15.7582 27.33 17.0062 26.9146 19.1547Z" stroke="#07F2B8" stroke-width="2" stroke-miterlimit="16" stroke-linejoin="bevel" mask="url(#path-3-outside-1_2239_66)"/>
<defs>
<linearGradient id="paint0_linear_2239_66" x1="13.5877" y1="1.32073" x2="26.3988" y2="38.5653" gradientUnits="userSpaceOnUse">
<stop stop-color="#171C2B"/>
<stop offset="1" stop-color="#00533E"/>
</linearGradient>
<linearGradient id="paint1_linear_2239_66" x1="17.8035" y1="12.8692" x2="22.7323" y2="27.915" gradientUnits="userSpaceOnUse">
<stop stop-color="#171C2B"/>
<stop offset="1" stop-color="#00533E"/>
</linearGradient>
</defs>
</svg>
