<svg width="69" height="69" viewBox="0 0 69 69" fill="none" xmlns="http://www.w3.org/2000/svg">
<circle cx="34.3906" cy="34.669" r="33.4375" transform="rotate(180 34.3906 34.669)" fill="url(#paint0_linear_2093_247)" stroke="#07F2B8"/>
<path d="M31.5482 33.2273L31.5482 24.7831C31.5482 23.5571 30.1772 22.83 29.1623 23.5179L14.2837 33.602C13.3892 34.2083 13.3892 35.5261 14.2837 36.1324L29.1623 46.2165C30.1772 46.9043 31.5482 46.1773 31.5482 44.9513L31.5482 36.5071L45.8739 46.2165C46.8888 46.9043 48.2598 46.1773 48.2598 44.9513L48.2598 24.7831C48.2598 23.5571 46.8888 22.83 45.8739 23.5179L31.5482 33.2273Z" fill="url(#paint1_linear_2093_247)" stroke="#07F2B8"/>
<defs>
<linearGradient id="paint0_linear_2093_247" x1="22.7681" y1="3.05601" x2="45.3156" y2="68.6064" gradientUnits="userSpaceOnUse">
<stop stop-color="#00533E"/>
<stop offset="1" stop-color="#171C2B"/>
</linearGradient>
<linearGradient id="paint1_linear_2093_247" x1="36.6978" y1="45.2202" x2="31.5102" y2="22.3918" gradientUnits="userSpaceOnUse">
<stop stop-color="#171C2B"/>
<stop offset="1" stop-color="#00533E"/>
</linearGradient>
</defs>
</svg>
