<svg width="49" height="61" viewBox="0 0 49 61" fill="none" xmlns="http://www.w3.org/2000/svg">
<path d="M15.2857 45.7778H27.5714M15.2857 33.5556H27.5714M15.2857 21.3333H18.3571M39.8571 48.8333V58M39.8571 39.6667H39.8879M27.5714 3H12.8286C9.38826 3 7.66808 3 6.35406 3.66608C5.19819 4.25195 4.25846 5.18683 3.66954 6.33673C3 7.64396 3 9.35525 3 12.7778V48.2222C3 51.6447 3 53.3562 3.66954 54.6633C4.25846 55.8131 5.19819 56.7481 6.35406 57.3339C7.66808 58 9.38826 58 12.8286 58H27.5714M27.5714 3L46 21.3333M27.5714 3V16.4444C27.5714 18.1557 27.5714 19.0114 27.9062 19.665C28.2008 20.2399 28.6704 20.7073 29.2484 21.0003C29.9054 21.3333 30.7654 21.3333 32.4857 21.3333H46M46 21.3333V28.9722" stroke="#171C2B" stroke-width="5" stroke-linecap="round" stroke-linejoin="round"/>
</svg>
