<svg width="57" height="57" viewBox="0 0 57 57" fill="none" xmlns="http://www.w3.org/2000/svg">
<path d="M27.1833 0.442627C25.3884 0.447666 23.5789 0.85044 22.027 1.51923C21.12 1.44985 20.2399 1.41259 19.3903 1.41317C8.77076 1.42173 2.62287 6.87095 0.175293 16.2155V56.0848H22.3604C21.7534 49.6945 22.9745 42.7177 25.5573 37.9647C22.1727 37.3819 18.7707 37.0041 15.4976 36.8845L14.6004 36.8515L14.4574 35.9618C13.3465 29.0513 13.2705 22.0118 17.043 15.2817L18.9547 16.3512C15.6527 22.2417 15.5563 28.3693 16.4973 34.7569C26.0785 35.235 36.4438 37.7179 44.5492 41.1839C47.2122 40.5124 48.512 37.7051 49.4525 33.5081L45.7063 36.0423L44.5309 30.8347L39.1766 34.4566L37.9133 28.8645L32.8449 32.2887L31.5924 26.7442L26.4582 30.216L24.7004 22.434L33.0024 16.8201L34.2548 22.3682L39.3892 18.8965L40.6524 24.4884L45.7208 21.0607L46.8964 26.2647L52.2467 22.6465L53.1477 26.6383C55.5908 23.4765 57.2755 18.8412 54.8359 16.6445C51.8539 13.9593 48.7117 11.5656 45.5305 9.54716C44.761 6.62544 38.3789 0.510478 34.5442 3.93692C32.852 1.42747 30.0357 0.435361 27.1833 0.44333V0.442627ZM27.4399 2.97681C29.5612 2.97681 31.2594 4.68188 31.2594 6.81821C31.2594 7.19204 31.2063 7.55063 31.1092 7.89118C30.7478 7.15993 29.9955 6.65345 29.1245 6.65345C27.9015 6.65345 26.9089 7.64603 26.9089 8.86899C26.9089 9.5979 27.2626 10.2416 27.8061 10.6451C27.6854 10.6565 27.5635 10.6597 27.4399 10.6597C25.3183 10.6597 23.6165 8.95466 23.6165 6.81833C23.6165 4.682 25.3183 2.97692 27.4398 2.97692L27.4399 2.97681Z" fill="#171C2B"/>
</svg>
