<svg width="40" height="39" viewBox="0 0 40 39" fill="none" xmlns="http://www.w3.org/2000/svg">
<g filter="url(#filter0_ii_2010_133)">
<circle cx="20.1914" cy="19.2827" r="19.2827" fill="url(#paint0_linear_2010_133)"/>
</g>
<path d="M27.4604 14.0555C27.0171 13.5176 26.4604 13.0851 25.8303 12.7889C25.2002 12.4928 24.5125 12.3405 23.8167 12.343C22.6261 12.3069 21.4669 12.7297 20.5778 13.5244C19.6886 12.7297 18.5295 12.3069 17.3389 12.343C16.643 12.3405 15.9553 12.4928 15.3252 12.7889C14.6952 13.0851 14.1384 13.5176 13.6951 14.0555C12.9235 14.9941 12.1162 16.6936 12.6514 19.4632C13.5056 23.8861 19.9114 27.5156 20.1818 27.6642C20.3024 27.7316 20.4381 27.767 20.5761 27.767C20.7142 27.767 20.8499 27.7316 20.9705 27.6642C21.2425 27.5124 27.6483 23.8828 28.5009 19.4632C29.0394 16.6936 28.2321 14.9941 27.4604 14.0555ZM26.9147 19.1547C26.3106 22.2816 21.9203 25.1901 20.5778 26.0167C18.6863 24.8718 14.7947 21.9974 14.2449 19.1547C13.8295 17.0062 14.398 15.7582 14.9486 15.0891C15.2397 14.7368 15.6051 14.4535 16.0183 14.2595C16.4316 14.0655 16.8826 13.9656 17.3389 13.967C17.8262 13.9303 18.3148 14.0209 18.7568 14.23C19.1989 14.439 19.5793 14.7594 19.8612 15.1598C19.9307 15.288 20.0332 15.3952 20.158 15.4702C20.2829 15.5452 20.4255 15.5852 20.5711 15.5861C20.7166 15.5871 20.8598 15.5488 20.9855 15.4754C21.1113 15.402 21.2152 15.2961 21.2863 15.1687C21.5676 14.7652 21.9489 14.4421 22.3926 14.2314C22.8363 14.0207 23.3271 13.9295 23.8167 13.967C24.2739 13.9647 24.726 14.0642 25.1403 14.2583C25.5546 14.4523 25.9208 14.7361 26.2126 15.0891C26.7616 15.7582 27.3301 17.0062 26.9147 19.1547Z" fill="#BCBCBC"/>
<defs>
<filter id="filter0_ii_2010_133" x="0.908722" y="0" width="39.5653" height="39.9653" filterUnits="userSpaceOnUse" color-interpolation-filters="sRGB">
<feFlood flood-opacity="0" result="BackgroundImageFix"/>
<feBlend mode="normal" in="SourceGraphic" in2="BackgroundImageFix" result="shape"/>
<feColorMatrix in="SourceAlpha" type="matrix" values="0 0 0 0 0 0 0 0 0 0 0 0 0 0 0 0 0 0 127 0" result="hardAlpha"/>
<feOffset dx="1" dy="2"/>
<feGaussianBlur stdDeviation="0.7"/>
<feComposite in2="hardAlpha" operator="arithmetic" k2="-1" k3="1"/>
<feColorMatrix type="matrix" values="0 0 0 0 1 0 0 0 0 1 0 0 0 0 1 0 0 0 1 0"/>
<feBlend mode="normal" in2="shape" result="effect1_innerShadow_2010_133"/>
<feColorMatrix in="SourceAlpha" type="matrix" values="0 0 0 0 0 0 0 0 0 0 0 0 0 0 0 0 0 0 127 0" result="hardAlpha"/>
<feOffset/>
<feGaussianBlur stdDeviation="0.7"/>
<feComposite in2="hardAlpha" operator="arithmetic" k2="-1" k3="1"/>
<feColorMatrix type="matrix" values="0 0 0 0 0 0 0 0 0 0 0 0 0 0 0 0 0 0 0.25 0"/>
<feBlend mode="normal" in2="effect1_innerShadow_2010_133" result="effect2_innerShadow_2010_133"/>
</filter>
<linearGradient id="paint0_linear_2010_133" x1="13.5877" y1="1.32073" x2="26.3988" y2="38.5653" gradientUnits="userSpaceOnUse">
<stop stop-color="#FBF8F8"/>
<stop offset="1" stop-color="#CECCCC"/>
</linearGradient>
</defs>
</svg>
