<svg width="40" height="39" viewBox="0 0 40 39" fill="none" xmlns="http://www.w3.org/2000/svg">
<g filter="url(#filter0_ii_2010_133)">
<circle cx="20.1914" cy="19.2827" r="19.2827" fill="url(#paint0_linear_2010_133)"/>
</g>
<g filter="url(#filter1_i_2010_133)">
<path d="M27.4604 14.0555C27.0171 13.5176 26.4604 13.0851 25.8303 12.7889C25.2002 12.4928 24.5125 12.3405 23.8167 12.343C22.6261 12.3069 21.4669 12.7297 20.5778 13.5244C19.6886 12.7297 18.5295 12.3069 17.3389 12.343C16.643 12.3405 15.9553 12.4928 15.3252 12.7889C14.6952 13.0851 14.1384 13.5176 13.6951 14.0555C12.9235 14.9941 12.1162 16.6936 12.6514 19.4632C13.5056 23.8861 19.9114 27.5156 20.1818 27.6642C20.3024 27.7316 20.4381 27.767 20.5761 27.767C20.7142 27.767 20.8499 27.7316 20.9705 27.6642C21.2425 27.5124 27.6483 23.8828 28.5009 19.4632C29.0394 16.6936 28.2321 14.9941 27.4604 14.0555ZM26.9147 19.1547C26.3106 22.2816 21.9203 25.1901 20.5778 26.0167C18.6863 24.8718 14.7947 21.9974 14.2449 19.1547C13.8295 17.0062 14.398 15.7582 14.9486 15.0891C15.2397 14.7368 15.6051 14.4535 16.0183 14.2595C16.4316 14.0655 16.8826 13.9656 17.3389 13.967C17.8262 13.9303 18.3148 14.0209 18.7568 14.23C19.1989 14.439 19.5793 14.7594 19.8612 15.1598C19.9307 15.288 20.0332 15.3952 20.158 15.4702C20.2829 15.5452 20.4255 15.5852 20.5711 15.5861C20.7166 15.5871 20.8598 15.5488 20.9855 15.4754C21.1113 15.402 21.2152 15.2961 21.2863 15.1687C21.5676 14.7652 21.9489 14.4421 22.3926 14.2314C22.8363 14.0207 23.3271 13.9295 23.8167 13.967C24.2739 13.9647 24.726 14.0642 25.1403 14.2583C25.5546 14.4523 25.9208 14.7361 26.2126 15.0891C26.7616 15.7582 27.3301 17.0062 26.9147 19.1547Z" fill="#BCBCBC"/>
</g>
<path d="M27.8463 13.7375L27.8467 13.738C28.7099 14.7881 29.5594 16.6378 28.9919 19.558L27.8463 13.7375ZM27.8463 13.7375C27.356 13.1426 26.7401 12.664 26.043 12.3364L26.043 12.3364M27.8463 13.7375L26.043 12.3364M26.043 12.3364C25.3484 12.01 24.5905 11.8415 23.8234 11.843C22.6516 11.8094 21.508 12.177 20.5778 12.878C19.6476 12.177 18.504 11.8094 17.3322 11.843C16.5651 11.8415 15.8071 12.01 15.1126 12.3364C14.4154 12.664 13.7996 13.1426 13.3093 13.7375L13.3089 13.738M26.043 12.3364L13.3089 13.738M13.3089 13.738C12.4456 14.7881 11.5961 16.6378 12.1605 19.5581C12.6221 21.9481 14.5556 24.0567 16.3119 25.5477C18.0826 27.0509 19.7774 28.0123 19.9394 28.1015M13.3089 13.738L19.9394 28.1015M19.9394 28.1015C20.1341 28.21 20.3532 28.267 20.5761 28.267C20.7995 28.267 21.0192 28.2098 21.2142 28.1008L19.9394 28.1015ZM26.4238 19.0598L26.4237 19.0599C26.1542 20.4551 25.013 21.8705 23.6865 23.0787C22.5314 24.1307 21.3018 24.9673 20.5761 25.428C19.6603 24.8515 18.3866 23.9398 17.253 22.8603C15.991 21.6585 14.9797 20.3206 14.7358 19.0598C14.3469 17.048 14.8848 15.9537 15.3343 15.4073C15.5784 15.112 15.8846 14.8746 16.2308 14.7121C16.5772 14.5495 16.955 14.4658 17.3373 14.467L17.3569 14.467L17.3764 14.4656C17.7773 14.4354 18.1793 14.51 18.5431 14.682C18.8995 14.8506 19.2075 15.1072 19.4382 15.4277C19.5497 15.6213 19.7087 15.7836 19.9006 15.8988C20.1023 16.0199 20.3327 16.0847 20.568 16.0861C20.8032 16.0876 21.0345 16.0258 21.2376 15.9072C21.4324 15.7935 21.5944 15.6317 21.7084 15.4376C21.9389 15.1132 22.2482 14.8535 22.6071 14.683C22.9721 14.5097 23.3759 14.4347 23.7785 14.4655L23.7988 14.4671L23.8191 14.467C24.2022 14.4651 24.581 14.5484 24.9282 14.7111C25.2752 14.8736 25.5821 15.1112 25.8267 15.407C26.2751 15.9538 26.8126 17.0484 26.4238 19.0598ZM21.2145 28.1006C21.3663 28.0159 23.0659 27.0527 24.8416 25.5453C26.5977 24.0545 28.5307 21.9469 28.9917 19.5587L21.2145 28.1006Z" stroke="#B7B7B7"/>
<defs>
<filter id="filter0_ii_2010_133" x="0.908722" y="0" width="39.5653" height="39.9653" filterUnits="userSpaceOnUse" color-interpolation-filters="sRGB">
<feFlood flood-opacity="0" result="BackgroundImageFix"/>
<feBlend mode="normal" in="SourceGraphic" in2="BackgroundImageFix" result="shape"/>
<feColorMatrix in="SourceAlpha" type="matrix" values="0 0 0 0 0 0 0 0 0 0 0 0 0 0 0 0 0 0 127 0" result="hardAlpha"/>
<feOffset dx="1" dy="2"/>
<feGaussianBlur stdDeviation="0.7"/>
<feComposite in2="hardAlpha" operator="arithmetic" k2="-1" k3="1"/>
<feColorMatrix type="matrix" values="0 0 0 0 1 0 0 0 0 1 0 0 0 0 1 0 0 0 1 0"/>
<feBlend mode="normal" in2="shape" result="effect1_innerShadow_2010_133"/>
<feColorMatrix in="SourceAlpha" type="matrix" values="0 0 0 0 0 0 0 0 0 0 0 0 0 0 0 0 0 0 127 0" result="hardAlpha"/>
<feOffset/>
<feGaussianBlur stdDeviation="0.7"/>
<feComposite in2="hardAlpha" operator="arithmetic" k2="-1" k3="1"/>
<feColorMatrix type="matrix" values="0 0 0 0 0 0 0 0 0 0 0 0 0 0 0 0 0 0 0.25 0"/>
<feBlend mode="normal" in2="effect1_innerShadow_2010_133" result="effect2_innerShadow_2010_133"/>
</filter>
<filter id="filter1_i_2010_133" x="11.4783" y="11.3409" width="20.1974" height="19.4261" filterUnits="userSpaceOnUse" color-interpolation-filters="sRGB">
<feFlood flood-opacity="0" result="BackgroundImageFix"/>
<feBlend mode="normal" in="SourceGraphic" in2="BackgroundImageFix" result="shape"/>
<feColorMatrix in="SourceAlpha" type="matrix" values="0 0 0 0 0 0 0 0 0 0 0 0 0 0 0 0 0 0 127 0" result="hardAlpha"/>
<feOffset dx="2" dy="2"/>
<feGaussianBlur stdDeviation="1.5"/>
<feComposite in2="hardAlpha" operator="arithmetic" k2="-1" k3="1"/>
<feColorMatrix type="matrix" values="0 0 0 0 0 0 0 0 0 0 0 0 0 0 0 0 0 0 0.25 0"/>
<feBlend mode="normal" in2="shape" result="effect1_innerShadow_2010_133"/>
</filter>
<linearGradient id="paint0_linear_2010_133" x1="13.5877" y1="1.32073" x2="26.3988" y2="38.5653" gradientUnits="userSpaceOnUse">
<stop stop-color="#FBF8F8"/>
<stop offset="1" stop-color="#CECCCC"/>
</linearGradient>
</defs>
</svg>
