<svg width="40" height="39" viewBox="0 0 40 39" fill="none" xmlns="http://www.w3.org/2000/svg">
<circle cx="20.1914" cy="19.2827" r="19.2827" fill="url(#paint0_linear_2076_265)"/>
<path d="M27.4604 14.0555C27.0171 13.5177 26.4604 13.0851 25.8303 12.789C25.2002 12.4929 24.5125 12.3406 23.8167 12.3431C22.6261 12.3069 21.4669 12.7297 20.5778 13.5245C19.6886 12.7297 18.5295 12.3069 17.3389 12.3431C16.643 12.3406 15.9553 12.4929 15.3252 12.789C14.6952 13.0851 14.1384 13.5177 13.6951 14.0555C12.9235 14.9942 12.1162 16.6937 12.6514 19.4633C13.5056 23.8861 19.9114 27.5157 20.1818 27.6643C20.3024 27.7317 20.4381 27.7671 20.5761 27.7671C20.7142 27.7671 20.8499 27.7317 20.9705 27.6643C21.2425 27.5124 27.6483 23.8829 28.5009 19.4633C29.0394 16.6937 28.2321 14.9942 27.4604 14.0555ZM26.9147 19.1548C26.3106 22.2817 21.9203 25.1902 20.5778 26.0168C18.6863 24.8719 14.7947 21.9975 14.2449 19.1548C13.8295 17.0063 14.398 15.7583 14.9486 15.0892C15.2397 14.7369 15.6051 14.4536 16.0183 14.2595C16.4316 14.0655 16.8826 13.9656 17.3389 13.967C17.8262 13.9304 18.3148 14.021 18.7568 14.23C19.1989 14.4391 19.5793 14.7594 19.8612 15.1598C19.9307 15.2881 20.0332 15.3953 20.158 15.4703C20.2829 15.5453 20.4255 15.5853 20.5711 15.5862C20.7166 15.5871 20.8598 15.5489 20.9855 15.4754C21.1113 15.402 21.2152 15.2961 21.2863 15.1688C21.5676 14.7652 21.9489 14.4422 22.3926 14.2315C22.8363 14.0207 23.3271 13.9296 23.8167 13.967C24.2739 13.9648 24.726 14.0643 25.1403 14.2583C25.5546 14.4524 25.9208 14.7361 26.2126 15.0892C26.7616 15.7583 27.3301 17.0063 26.9147 19.1548Z" fill="#BCBCBC"/>
<defs>
<linearGradient id="paint0_linear_2076_265" x1="13.5877" y1="1.32073" x2="26.3988" y2="38.5653" gradientUnits="userSpaceOnUse">
<stop stop-color="#FBF8F8"/>
<stop offset="1" stop-color="#CECCCC"/>
</linearGradient>
</defs>
</svg>
