<svg width="40" height="39" viewBox="0 0 40 39" fill="none" xmlns="http://www.w3.org/2000/svg">
<circle cx="20.1914" cy="19.2827" r="19.2827" fill="url(#paint0_linear_2076_265)"/>
<mask id="path-2-outside-1_2076_265" maskUnits="userSpaceOnUse" x="11.4783" y="11.3408" width="19" height="18" fill="black">
<rect fill="white" x="11.4783" y="11.3408" width="19" height="18"/>
<path d="M27.4604 14.0554C27.0171 13.5176 26.4604 13.085 25.8303 12.7889C25.2002 12.4928 24.5125 12.3405 23.8167 12.343C22.6261 12.3068 21.4669 12.7296 20.5778 13.5244C19.6886 12.7296 18.5295 12.3068 17.3389 12.343C16.643 12.3405 15.9553 12.4928 15.3252 12.7889C14.6952 13.085 14.1384 13.5176 13.6951 14.0554C12.9235 14.9941 12.1162 16.6935 12.6514 19.4632C13.5056 23.886 19.9114 27.5156 20.1818 27.6641C20.3024 27.7316 20.4381 27.7669 20.5761 27.7669C20.7142 27.7669 20.8499 27.7316 20.9705 27.6641C21.2425 27.5123 27.6483 23.8828 28.5009 19.4632C29.0394 16.6935 28.2321 14.9941 27.4604 14.0554ZM26.9147 19.1546C26.3106 22.2816 21.9203 25.1901 20.5778 26.0166C18.6863 24.8718 14.7947 21.9974 14.2449 19.1546C13.8295 17.0061 14.398 15.7581 14.9486 15.0891C15.2397 14.7368 15.6051 14.4534 16.0183 14.2594C16.4316 14.0654 16.8826 13.9655 17.3389 13.9669C17.8262 13.9303 18.3148 14.0209 18.7568 14.2299C19.1989 14.439 19.5793 14.7593 19.8612 15.1597C19.9307 15.2879 20.0332 15.3951 20.158 15.4701C20.2829 15.5451 20.4255 15.5852 20.5711 15.5861C20.7166 15.587 20.8598 15.5487 20.9855 15.4753C21.1113 15.4019 21.2152 15.296 21.2863 15.1686C21.5676 14.7651 21.9489 14.4421 22.3926 14.2313C22.8363 14.0206 23.3271 13.9295 23.8167 13.9669C24.2739 13.9647 24.726 14.0642 25.1403 14.2582C25.5546 14.4523 25.9208 14.736 26.2126 15.0891C26.7616 15.7581 27.3301 17.0061 26.9147 19.1546Z"/>
</mask>
<path d="M27.4604 14.0554C27.0171 13.5176 26.4604 13.085 25.8303 12.7889C25.2002 12.4928 24.5125 12.3405 23.8167 12.343C22.6261 12.3068 21.4669 12.7296 20.5778 13.5244C19.6886 12.7296 18.5295 12.3068 17.3389 12.343C16.643 12.3405 15.9553 12.4928 15.3252 12.7889C14.6952 13.085 14.1384 13.5176 13.6951 14.0554C12.9235 14.9941 12.1162 16.6935 12.6514 19.4632C13.5056 23.886 19.9114 27.5156 20.1818 27.6641C20.3024 27.7316 20.4381 27.7669 20.5761 27.7669C20.7142 27.7669 20.8499 27.7316 20.9705 27.6641C21.2425 27.5123 27.6483 23.8828 28.5009 19.4632C29.0394 16.6935 28.2321 14.9941 27.4604 14.0554ZM26.9147 19.1546C26.3106 22.2816 21.9203 25.1901 20.5778 26.0166C18.6863 24.8718 14.7947 21.9974 14.2449 19.1546C13.8295 17.0061 14.398 15.7581 14.9486 15.0891C15.2397 14.7368 15.6051 14.4534 16.0183 14.2594C16.4316 14.0654 16.8826 13.9655 17.3389 13.9669C17.8262 13.9303 18.3148 14.0209 18.7568 14.2299C19.1989 14.439 19.5793 14.7593 19.8612 15.1597C19.9307 15.2879 20.0332 15.3951 20.158 15.4701C20.2829 15.5451 20.4255 15.5852 20.5711 15.5861C20.7166 15.587 20.8598 15.5487 20.9855 15.4753C21.1113 15.4019 21.2152 15.296 21.2863 15.1686C21.5676 14.7651 21.9489 14.4421 22.3926 14.2313C22.8363 14.0206 23.3271 13.9295 23.8167 13.9669C24.2739 13.9647 24.726 14.0642 25.1403 14.2582C25.5546 14.4523 25.9208 14.736 26.2126 15.0891C26.7616 15.7581 27.3301 17.0061 26.9147 19.1546Z" fill="#07F2B8"/>
<path d="M27.4604 14.0554C27.0171 13.5176 26.4604 13.085 25.8303 12.7889C25.2002 12.4928 24.5125 12.3405 23.8167 12.343C22.6261 12.3068 21.4669 12.7296 20.5778 13.5244C19.6886 12.7296 18.5295 12.3068 17.3389 12.343C16.643 12.3405 15.9553 12.4928 15.3252 12.7889C14.6952 13.085 14.1384 13.5176 13.6951 14.0554C12.9235 14.9941 12.1162 16.6935 12.6514 19.4632C13.5056 23.886 19.9114 27.5156 20.1818 27.6641C20.3024 27.7316 20.4381 27.7669 20.5761 27.7669C20.7142 27.7669 20.8499 27.7316 20.9705 27.6641C21.2425 27.5123 27.6483 23.8828 28.5009 19.4632C29.0394 16.6935 28.2321 14.9941 27.4604 14.0554ZM26.9147 19.1546C26.3106 22.2816 21.9203 25.1901 20.5778 26.0166C18.6863 24.8718 14.7947 21.9974 14.2449 19.1546C13.8295 17.0061 14.398 15.7581 14.9486 15.0891C15.2397 14.7368 15.6051 14.4534 16.0183 14.2594C16.4316 14.0654 16.8826 13.9655 17.3389 13.9669C17.8262 13.9303 18.3148 14.0209 18.7568 14.2299C19.1989 14.439 19.5793 14.7593 19.8612 15.1597C19.9307 15.2879 20.0332 15.3951 20.158 15.4701C20.2829 15.5451 20.4255 15.5852 20.5711 15.5861C20.7166 15.587 20.8598 15.5487 20.9855 15.4753C21.1113 15.4019 21.2152 15.296 21.2863 15.1686C21.5676 14.7651 21.9489 14.4421 22.3926 14.2313C22.8363 14.0206 23.3271 13.9295 23.8167 13.9669C24.2739 13.9647 24.726 14.0642 25.1403 14.2582C25.5546 14.4523 25.9208 14.736 26.2126 15.0891C26.7616 15.7581 27.3301 17.0061 26.9147 19.1546Z" stroke="#ABABAB" stroke-width="2" stroke-miterlimit="16" stroke-linejoin="bevel" mask="url(#path-2-outside-1_2076_265)"/>
<defs>
<linearGradient id="paint0_linear_2076_265" x1="13.5877" y1="1.32073" x2="26.3988" y2="38.5653" gradientUnits="userSpaceOnUse">
<stop stop-color="#FBF8F8"/>
<stop offset="1" stop-color="#CECCCC"/>
</linearGradient>
</defs>
</svg>
