<svg width="60" height="60" viewBox="0 0 60 60" fill="none" xmlns="http://www.w3.org/2000/svg">
<path d="M25 40H7.5" stroke="black" stroke-width="3" stroke-linecap="round"/>
<path d="M22.5 27.5H7.5" stroke="black" stroke-width="3" stroke-linecap="round"/>
<path d="M51 15H8" stroke="black" stroke-width="3" stroke-linecap="round"/>
<g filter="url(#filter0_i_2076_61)">
<path d="M53.1993 23.5564C52.5424 22.7545 51.7175 22.1095 50.7839 21.668C49.8503 21.2265 48.8313 20.9995 47.8002 21.0032C46.0361 20.9493 44.3186 21.5797 43.0011 22.7647C41.6836 21.5797 39.9661 20.9493 38.202 21.0032C37.171 20.9995 36.1519 21.2265 35.2183 21.668C34.2847 22.1095 33.4598 22.7545 32.803 23.5564C31.6596 24.9559 30.4634 27.4898 31.2565 31.6193C32.5222 38.2136 42.0137 43.6252 42.4144 43.8467C42.5931 43.9472 42.7942 44 42.9987 44C43.2032 44 43.4044 43.9472 43.583 43.8467C43.9861 43.6203 53.4776 38.2088 54.741 31.6193C55.5388 27.4898 54.3426 24.9559 53.1993 23.5564ZM52.3906 31.1592C51.4956 35.8214 44.9904 40.1579 43.0011 41.3904C40.1984 39.6833 34.4323 35.3977 33.6176 31.1592C33.0021 27.9559 33.8444 26.0951 34.6602 25.0976C35.0917 24.5723 35.633 24.1499 36.2453 23.8606C36.8577 23.5713 37.5259 23.4224 38.202 23.4245C38.9241 23.3698 39.648 23.5049 40.303 23.8166C40.958 24.1283 41.5217 24.6059 41.9393 25.2029C42.0423 25.3941 42.1942 25.5539 42.3792 25.6657C42.5642 25.7776 42.7756 25.8373 42.9912 25.8386C43.2069 25.84 43.4189 25.7829 43.6053 25.6735C43.7917 25.564 43.9456 25.4061 44.0509 25.2162C44.4677 24.6146 45.0327 24.1329 45.6901 23.8187C46.3476 23.5045 47.0749 23.3686 47.8002 23.4245C48.4778 23.4211 49.1476 23.5695 49.7615 23.8588C50.3754 24.1481 50.918 24.5712 51.3504 25.0976C52.1638 26.0951 53.0061 27.9559 52.3906 31.1592Z" fill="black"/>
</g>
<defs>
<filter id="filter0_i_2076_61" x="31" y="21" width="26" height="25" filterUnits="userSpaceOnUse" color-interpolation-filters="sRGB">
<feFlood flood-opacity="0" result="BackgroundImageFix"/>
<feBlend mode="normal" in="SourceGraphic" in2="BackgroundImageFix" result="shape"/>
<feColorMatrix in="SourceAlpha" type="matrix" values="0 0 0 0 0 0 0 0 0 0 0 0 0 0 0 0 0 0 127 0" result="hardAlpha"/>
<feOffset dx="2" dy="2"/>
<feGaussianBlur stdDeviation="1.5"/>
<feComposite in2="hardAlpha" operator="arithmetic" k2="-1" k3="1"/>
<feColorMatrix type="matrix" values="0 0 0 0 0 0 0 0 0 0 0 0 0 0 0 0 0 0 0.25 0"/>
<feBlend mode="normal" in2="shape" result="effect1_innerShadow_2076_61"/>
</filter>
</defs>
</svg>
