<svg width="25" height="25" viewBox="0 0 25 25" fill="none" xmlns="http://www.w3.org/2000/svg">
<path d="M4.16663 19.6667V6.33333C4.16663 5.16656 4.16663 4.58317 4.3937 4.13752C4.59343 3.74551 4.91214 3.4268 5.30415 3.22707C5.74979 3 6.33319 3 7.49996 3H17.5C18.6667 3 19.2502 3 19.6958 3.22707C20.0878 3.4268 20.4065 3.74551 20.6062 4.13752C20.8333 4.58317 20.8333 5.16656 20.8333 6.33333V17.5833H6.24996C5.09937 17.5833 4.16663 18.516 4.16663 19.6667ZM4.16663 19.6667C4.16663 20.8173 5.09937 21.75 6.24996 21.75H20.8333M9.37496 7.16667H15.625M9.37496 11.3333H15.625M19.7916 17.5833V21.75" stroke="white" stroke-width="2" stroke-linecap="round" stroke-linejoin="round"/>
</svg>
