<svg width="26" height="26" viewBox="0 0 26 26" fill="none" xmlns="http://www.w3.org/2000/svg">
<path d="M16.3522 23.0208C16.3563 22.3886 16.3602 20.1941 16.3602 19.3253C16.3602 18.0697 15.9314 17.2482 15.4504 16.8323C18.4364 16.4986 21.5713 15.3613 21.5713 10.1878C21.5713 8.71786 21.0535 7.51536 20.1935 6.57448C20.3312 6.23377 20.7911 4.86417 20.0598 3.01031C20.0598 3.01031 18.9364 2.64848 16.3762 4.39211C15.3048 4.09243 14.1593 3.94415 13.02 3.93819C11.8806 3.94415 10.7353 4.09256 9.66374 4.39211C7.10355 2.64848 5.98027 3.01031 5.98027 3.01031C5.24902 4.86417 5.7089 6.23377 5.84661 6.57448C4.98658 7.51536 4.46875 8.71786 4.46875 10.1878C4.46875 15.3613 7.60351 16.4986 10.5896 16.8323C10.1087 17.2482 9.67972 18.0697 9.67972 19.3253C9.67972 20.1941 9.68378 22.3886 9.68771 23.0208M3.65625 17.6042C5.00216 17.6994 5.77823 18.9225 5.77823 18.9225C6.9745 20.9806 8.91692 20.3854 9.68026 20.0417" stroke="white" stroke-width="2" stroke-linecap="round" stroke-linejoin="round"/>
</svg>
