<svg width="17" height="16" viewBox="0 0 17 16" fill="none" xmlns="http://www.w3.org/2000/svg">
<g filter="url(#filter0_i_2063_58)">
<path d="M14.9821 1.7146C14.5388 1.17674 13.9821 0.744174 13.352 0.448056C12.7219 0.151938 12.0342 -0.000357299 11.3384 0.00214088C10.1478 -0.0340091 8.98864 0.388796 8.09947 1.18357C7.21029 0.388796 6.05116 -0.0340091 4.86057 0.00214088C4.16473 -0.000357299 3.477 0.151938 2.84693 0.448056C2.21685 0.744174 1.66011 1.17674 1.21682 1.7146C0.445149 2.65324 -0.362146 4.35271 0.173081 7.12236C1.02734 11.5452 7.43306 15.1747 7.70351 15.3233C7.82407 15.3907 7.95981 15.4261 8.09785 15.4261C8.23588 15.4261 8.37162 15.3907 8.49218 15.3233C8.76425 15.1715 15.17 11.542 16.0226 7.12236C16.5611 4.35271 15.7538 2.65324 14.9821 1.7146ZM14.4364 6.81381C13.8323 9.94073 9.44199 12.8492 8.09947 13.6758C6.20795 12.5309 2.31642 9.65654 1.76662 6.81381C1.35123 4.66532 1.91965 3.41731 2.47027 2.74825C2.76145 2.39594 3.12677 2.11262 3.54004 1.91861C3.9533 1.7246 4.40426 1.6247 4.86057 1.62609C5.34794 1.58944 5.83646 1.68005 6.2785 1.8891C6.72055 2.09814 7.10103 2.41848 7.38286 2.81889C7.45236 2.94713 7.55488 3.05433 7.67974 3.12932C7.80461 3.20431 7.94724 3.24435 8.09279 3.24526C8.23833 3.24618 8.38145 3.20793 8.50724 3.13451C8.63303 3.06109 8.73688 2.95518 8.80797 2.82782C9.08925 2.4243 9.47055 2.10124 9.91427 1.89051C10.358 1.67978 10.8488 1.58865 11.3384 1.62609C11.7956 1.62386 12.2477 1.72335 12.662 1.91739C13.0763 2.11143 13.4425 2.3952 13.7343 2.74825C14.2833 3.41731 14.8517 4.66532 14.4364 6.81381Z" fill="black"/>
</g>
<defs>
<filter id="filter0_i_2063_58" x="0" y="0" width="18.1974" height="17.4261" filterUnits="userSpaceOnUse" color-interpolation-filters="sRGB">
<feFlood flood-opacity="0" result="BackgroundImageFix"/>
<feBlend mode="normal" in="SourceGraphic" in2="BackgroundImageFix" result="shape"/>
<feColorMatrix in="SourceAlpha" type="matrix" values="0 0 0 0 0 0 0 0 0 0 0 0 0 0 0 0 0 0 127 0" result="hardAlpha"/>
<feOffset dx="2" dy="2"/>
<feGaussianBlur stdDeviation="1.5"/>
<feComposite in2="hardAlpha" operator="arithmetic" k2="-1" k3="1"/>
<feColorMatrix type="matrix" values="0 0 0 0 0 0 0 0 0 0 0 0 0 0 0 0 0 0 0.25 0"/>
<feBlend mode="normal" in2="shape" result="effect1_innerShadow_2063_58"/>
</filter>
</defs>
</svg>
