<svg width="24" height="24" viewBox="0 0 24 24" fill="none" xmlns="http://www.w3.org/2000/svg">
<path fill-rule="evenodd" clip-rule="evenodd" d="M13.8334 15.3479H10.1667V13.4348H13.8334V15.3479Z" fill="white"/>
<path fill-rule="evenodd" clip-rule="evenodd" d="M11.0834 9.6086H10.1667V7.69556H12.9167V14.3912H11.0834V9.6086Z" fill="white"/>
<path fill-rule="evenodd" clip-rule="evenodd" d="M2.34009 2.36541C3.19813 1.49115 4.36189 1 5.57535 1H18.4247C19.6381 1 20.8019 1.49115 21.6599 2.36541C22.518 3.23966 23 4.42541 23 5.66179V14.9756C23 16.212 22.518 17.3977 21.6599 18.272C20.8019 19.1463 19.6381 19.6374 18.4247 19.6374H13.1486L6.49042 23V19.6374H5.57535C4.36189 19.6374 3.19813 19.1463 2.34009 18.272C1.48204 17.3977 1 16.212 1 14.9756V5.66179C1 4.42541 1.48204 3.23966 2.34009 2.36541ZM5.57535 2.86472C4.84727 2.86472 4.14902 3.15941 3.63419 3.68396C3.11937 4.20852 2.83014 4.91996 2.83014 5.66179V14.9756C2.83014 15.7175 3.11937 16.4289 3.63419 16.9535C4.14902 17.478 4.84727 17.7727 5.57535 17.7727H8.32056V19.9945L12.7199 17.7727H18.4247C19.1527 17.7727 19.851 17.478 20.3658 16.9535C20.8806 16.4289 21.1699 15.7175 21.1699 14.9756V5.66179C21.1699 4.91996 20.8806 4.20852 20.3658 3.68396C19.851 3.15941 19.1527 2.86472 18.4247 2.86472H5.57535Z" fill="white"/>
<path fill-rule="evenodd" clip-rule="evenodd" d="M12.9166 6.73909H11.0833V4.82605H12.9166V6.73909Z" fill="white"/>
</svg>
