<svg width="114" height="34" viewBox="0 0 114 34" fill="none" xmlns="http://www.w3.org/2000/svg">
<g filter="url(#filter0_ii_2014_146)">
<rect y="0.629089" width="113.382" height="32.3949" rx="16.1974" fill="url(#paint0_linear_2014_146)"/>
</g>
<g filter="url(#filter1_i_2014_146)">
<path d="M24.8491 21H23.5732L20.2915 17.0137V21H19.1426V12.291C19.9339 12.1344 20.611 12.0562 21.1738 12.0562C22.1556 12.0562 22.9237 12.2826 23.478 12.7354C24.0324 13.1839 24.3096 13.7573 24.3096 14.4556C24.3096 15.1538 24.0599 15.7336 23.5605 16.1948C23.0612 16.6561 22.3905 16.9227 21.5483 16.9946L24.8491 21ZM21.1167 12.9385C20.7782 12.9385 20.5031 12.9766 20.2915 13.0527V16.125H20.4502C22.2106 16.125 23.0908 15.5833 23.0908 14.5C23.0908 14.0387 22.894 13.6621 22.5005 13.3701C22.1027 13.0824 21.6414 12.9385 21.1167 12.9385ZM35.562 18.4355H32.0835L31.1313 21H30.0649L33.3784 12.1704H34.3306L37.644 21H36.5142L35.562 18.4355ZM35.2319 17.5469L33.8228 13.7383L32.4072 17.5469H35.2319ZM50.7183 12.1704V21H49.5693L45.3608 14.3857V21H44.2119V12.1704H45.3608L49.5693 18.791V12.1704H50.7183ZM63.856 19.9653C62.9334 20.7313 61.7633 21.1143 60.3457 21.1143C59.5798 21.1143 58.8011 21.0487 58.0098 20.9175V12.291C58.9027 12.1344 59.6369 12.0562 60.2124 12.0562C61.9051 12.0562 63.2593 12.6169 64.2749 13.7383C64.5923 14.098 64.8441 14.5254 65.0303 15.0205C65.2165 15.5156 65.3096 16.0827 65.3096 16.7217C65.3096 17.3564 65.1763 17.9637 64.9097 18.5435C64.6473 19.1232 64.2961 19.5972 63.856 19.9653ZM59.1587 13.0527L59.1523 20.1113C59.5417 20.1875 59.9606 20.2256 60.4092 20.2256C61.3529 20.2256 62.1929 19.923 62.9292 19.3179C63.2847 19.0301 63.5703 18.6535 63.7861 18.188C64.0062 17.7183 64.1162 17.2253 64.1162 16.709C64.1162 15.3252 63.5449 14.2694 62.4023 13.5415C61.7633 13.1395 61.0736 12.9385 60.333 12.9385C59.8802 12.9385 59.4888 12.9766 59.1587 13.0527ZM72.0044 13.332C72.3599 12.9342 72.8127 12.6232 73.3628 12.3989C73.9129 12.1704 74.4948 12.0562 75.1084 12.0562C76.7799 12.0562 78.0072 12.6698 78.79 13.897C79.2513 14.6418 79.4819 15.522 79.4819 16.5376C79.4819 17.5659 79.2428 18.4567 78.7646 19.21C78.2568 20.0225 77.5713 20.5768 76.708 20.873C76.2467 21.0339 75.7072 21.1143 75.0894 21.1143C74.4757 21.1143 73.8918 20.9979 73.3374 20.7651C72.783 20.5282 72.3281 20.2044 71.9727 19.7939C71.249 18.9434 70.8872 17.8579 70.8872 16.5376C70.8872 15.2342 71.2596 14.1657 72.0044 13.332ZM76.8984 13.4272C76.4245 13.0972 75.8617 12.9321 75.21 12.9321C74.5625 12.9321 73.9997 13.0908 73.5215 13.4082C72.5778 14.0387 72.106 15.0819 72.106 16.5376C72.106 18.0145 72.5736 19.0767 73.5088 19.7241C73.9827 20.0542 74.5054 20.2192 75.0767 20.2192C76.1304 20.2192 76.9344 19.8511 77.4888 19.1147C78.0177 18.408 78.2822 17.549 78.2822 16.5376C78.2822 15.1115 77.821 14.0747 76.8984 13.4272ZM90.436 19.4194L93.1655 12.1641H94.2319L95.3301 21H94.2002L93.4131 14.4048L90.9946 21H89.9473L87.3003 14.1001L86.4751 21H85.4595L86.5576 12.1641H87.6875L90.436 19.4194Z" fill="#AEAEAE"/>
</g>
<defs>
<filter id="filter0_ii_2014_146" x="0" y="-0.370911" width="114.582" height="34.5949" filterUnits="userSpaceOnUse" color-interpolation-filters="sRGB">
<feFlood flood-opacity="0" result="BackgroundImageFix"/>
<feBlend mode="normal" in="SourceGraphic" in2="BackgroundImageFix" result="shape"/>
<feColorMatrix in="SourceAlpha" type="matrix" values="0 0 0 0 0 0 0 0 0 0 0 0 0 0 0 0 0 0 127 0" result="hardAlpha"/>
<feOffset dx="2" dy="2"/>
<feGaussianBlur stdDeviation="0.6"/>
<feComposite in2="hardAlpha" operator="arithmetic" k2="-1" k3="1"/>
<feColorMatrix type="matrix" values="0 0 0 0 1 0 0 0 0 1 0 0 0 0 1 0 0 0 1 0"/>
<feBlend mode="normal" in2="shape" result="effect1_innerShadow_2014_146"/>
<feColorMatrix in="SourceAlpha" type="matrix" values="0 0 0 0 0 0 0 0 0 0 0 0 0 0 0 0 0 0 127 0" result="hardAlpha"/>
<feOffset dy="-1"/>
<feGaussianBlur stdDeviation="1.05"/>
<feComposite in2="hardAlpha" operator="arithmetic" k2="-1" k3="1"/>
<feColorMatrix type="matrix" values="0 0 0 0 0 0 0 0 0 0 0 0 0 0 0 0 0 0 0.25 0"/>
<feBlend mode="normal" in2="effect1_innerShadow_2014_146" result="effect2_innerShadow_2014_146"/>
</filter>
<filter id="filter1_i_2014_146" x="19.1426" y="12.0562" width="76.1875" height="13.0581" filterUnits="userSpaceOnUse" color-interpolation-filters="sRGB">
<feFlood flood-opacity="0" result="BackgroundImageFix"/>
<feBlend mode="normal" in="SourceGraphic" in2="BackgroundImageFix" result="shape"/>
<feColorMatrix in="SourceAlpha" type="matrix" values="0 0 0 0 0 0 0 0 0 0 0 0 0 0 0 0 0 0 127 0" result="hardAlpha"/>
<feOffset dy="4"/>
<feGaussianBlur stdDeviation="2"/>
<feComposite in2="hardAlpha" operator="arithmetic" k2="-1" k3="1"/>
<feColorMatrix type="matrix" values="0 0 0 0 0 0 0 0 0 0 0 0 0 0 0 0 0 0 0.25 0"/>
<feBlend mode="normal" in2="shape" result="effect1_innerShadow_2014_146"/>
</filter>
<linearGradient id="paint0_linear_2014_146" x1="37.2763" y1="1.7385" x2="40.6818" y2="36.3908" gradientUnits="userSpaceOnUse">
<stop stop-color="#FBF8F8"/>
<stop offset="1" stop-color="#CECCCC"/>
</linearGradient>
</defs>
</svg>
