<svg width="114" height="34" viewBox="0 0 114 34" fill="none" xmlns="http://www.w3.org/2000/svg">
<g filter="url(#filter0_ii_2014_146)">
<rect y="0.629089" width="113.382" height="32.3949" rx="16.1974" fill="url(#paint0_linear_2014_146)"/>
</g>
<mask id="path-2-outside-1_2014_146" maskUnits="userSpaceOnUse" x="16" y="10" width="83" height="13" fill="black">
<rect fill="white" x="16" y="10" width="83" height="13"/>
<path d="M22.3438 17.7656L24.3594 20.5781C24.5938 20.9062 24.5 21.375 24.1719 21.6328C24.0312 21.7266 23.8906 21.7734 23.75 21.7734C23.5156 21.7734 23.2812 21.6562 23.1172 21.4453L20.6797 18H18.5V21C18.5 21.4219 18.1484 21.75 17.75 21.75C17.3281 21.75 17 21.4219 17 21V12C17 11.6016 17.3281 11.25 17.75 11.25H21.125C22.9766 11.25 24.5 12.7734 24.5 14.625C24.5 16.0547 23.6094 17.2734 22.3438 17.7656ZM18.5 12.7734V16.5H21.125C22.1562 16.5 23 15.6797 23 14.6484C23 13.5938 22.1562 12.7734 21.125 12.7734H18.5ZM38.4297 20.7188C38.5938 21.0938 38.4062 21.5391 38.0312 21.7031C37.9375 21.75 37.8438 21.7734 37.75 21.7734C37.4453 21.7734 37.1641 21.5859 37.0469 21.3047L36.2969 19.5234H31.6797L30.9297 21.3047C30.7656 21.6797 30.3438 21.8672 29.9453 21.7031C29.5703 21.5391 29.3828 21.1172 29.5469 20.7188L33.2969 11.7188C33.4141 11.4375 33.6953 11.2734 34 11.2734C34.2812 11.2734 34.5625 11.4375 34.6797 11.7188L38.4297 20.7188ZM32.2891 18H35.6875L34 13.9688L32.2891 18ZM52.5 12.0234V21.0234C52.5 21.3281 52.2891 21.6094 51.9844 21.7266C51.9141 21.75 51.8203 21.75 51.75 21.75C51.5156 21.75 51.3047 21.6562 51.1641 21.4922L45 14.0859V21C45 21.4219 44.6484 21.75 44.25 21.75C43.8281 21.75 43.5 21.4219 43.5 21V12C43.5 11.6953 43.6875 11.4141 43.9922 11.2969C44.2734 11.2031 44.6016 11.2969 44.8125 11.5312L51 18.9375V12C51 11.6016 51.3281 11.25 51.75 11.25C52.1484 11.25 52.5 11.6016 52.5 12.0234ZM61.25 11.2734C64.1328 11.2734 66.5 13.6172 66.5 16.5234C66.5 19.4062 64.1328 21.7734 61.25 21.7734H58.25C57.8281 21.7734 57.5 21.4219 57.5 21.0234V12.0234C57.5 11.6016 57.8281 11.2734 58.25 11.2734H61.25ZM61.25 20.25C63.3125 20.25 65 18.5391 65 16.5C65 14.4375 63.3125 12.75 61.25 12.75H59V20.25H61.25ZM76.75 11.2734C79.6328 11.2734 82 13.6172 82 16.5234C82 19.4062 79.6328 21.7734 76.75 21.7734C73.8438 21.7734 71.5 19.4062 71.5 16.5234C71.5 13.6172 73.8438 11.2734 76.75 11.2734ZM76.75 20.25C78.8125 20.25 80.5 18.5625 80.5 16.5C80.5 14.4609 78.8125 12.7734 76.75 12.7734C74.6641 12.7734 73 14.4375 73 16.5C73 18.5859 74.6641 20.25 76.75 20.25ZM97.5 12.0234V21.0234C97.5 21.4219 97.1484 21.7734 96.75 21.7734C96.3281 21.7734 96 21.4219 96 21.0234V14.4844L92.8594 19.1719C92.5781 19.5938 91.8984 19.5938 91.6172 19.1719L88.5 14.4844V21C88.5 21.4219 88.1484 21.75 87.75 21.75C87.3281 21.75 87 21.4219 87 21V12C87 11.6719 87.2109 11.3906 87.5156 11.2969C87.8438 11.2031 88.1719 11.3203 88.3594 11.6016L92.25 17.4141L96.1172 11.6016C96.3047 11.3203 96.6328 11.2031 96.9609 11.2969C97.2656 11.3906 97.5 11.6719 97.5 12.0234Z"/>
</mask>
<path d="M22.3438 17.7656L24.3594 20.5781C24.5938 20.9062 24.5 21.375 24.1719 21.6328C24.0312 21.7266 23.8906 21.7734 23.75 21.7734C23.5156 21.7734 23.2812 21.6562 23.1172 21.4453L20.6797 18H18.5V21C18.5 21.4219 18.1484 21.75 17.75 21.75C17.3281 21.75 17 21.4219 17 21V12C17 11.6016 17.3281 11.25 17.75 11.25H21.125C22.9766 11.25 24.5 12.7734 24.5 14.625C24.5 16.0547 23.6094 17.2734 22.3438 17.7656ZM18.5 12.7734V16.5H21.125C22.1562 16.5 23 15.6797 23 14.6484C23 13.5938 22.1562 12.7734 21.125 12.7734H18.5ZM38.4297 20.7188C38.5938 21.0938 38.4062 21.5391 38.0312 21.7031C37.9375 21.75 37.8438 21.7734 37.75 21.7734C37.4453 21.7734 37.1641 21.5859 37.0469 21.3047L36.2969 19.5234H31.6797L30.9297 21.3047C30.7656 21.6797 30.3438 21.8672 29.9453 21.7031C29.5703 21.5391 29.3828 21.1172 29.5469 20.7188L33.2969 11.7188C33.4141 11.4375 33.6953 11.2734 34 11.2734C34.2812 11.2734 34.5625 11.4375 34.6797 11.7188L38.4297 20.7188ZM32.2891 18H35.6875L34 13.9688L32.2891 18ZM52.5 12.0234V21.0234C52.5 21.3281 52.2891 21.6094 51.9844 21.7266C51.9141 21.75 51.8203 21.75 51.75 21.75C51.5156 21.75 51.3047 21.6562 51.1641 21.4922L45 14.0859V21C45 21.4219 44.6484 21.75 44.25 21.75C43.8281 21.75 43.5 21.4219 43.5 21V12C43.5 11.6953 43.6875 11.4141 43.9922 11.2969C44.2734 11.2031 44.6016 11.2969 44.8125 11.5312L51 18.9375V12C51 11.6016 51.3281 11.25 51.75 11.25C52.1484 11.25 52.5 11.6016 52.5 12.0234ZM61.25 11.2734C64.1328 11.2734 66.5 13.6172 66.5 16.5234C66.5 19.4062 64.1328 21.7734 61.25 21.7734H58.25C57.8281 21.7734 57.5 21.4219 57.5 21.0234V12.0234C57.5 11.6016 57.8281 11.2734 58.25 11.2734H61.25ZM61.25 20.25C63.3125 20.25 65 18.5391 65 16.5C65 14.4375 63.3125 12.75 61.25 12.75H59V20.25H61.25ZM76.75 11.2734C79.6328 11.2734 82 13.6172 82 16.5234C82 19.4062 79.6328 21.7734 76.75 21.7734C73.8438 21.7734 71.5 19.4062 71.5 16.5234C71.5 13.6172 73.8438 11.2734 76.75 11.2734ZM76.75 20.25C78.8125 20.25 80.5 18.5625 80.5 16.5C80.5 14.4609 78.8125 12.7734 76.75 12.7734C74.6641 12.7734 73 14.4375 73 16.5C73 18.5859 74.6641 20.25 76.75 20.25ZM97.5 12.0234V21.0234C97.5 21.4219 97.1484 21.7734 96.75 21.7734C96.3281 21.7734 96 21.4219 96 21.0234V14.4844L92.8594 19.1719C92.5781 19.5938 91.8984 19.5938 91.6172 19.1719L88.5 14.4844V21C88.5 21.4219 88.1484 21.75 87.75 21.75C87.3281 21.75 87 21.4219 87 21V12C87 11.6719 87.2109 11.3906 87.5156 11.2969C87.8438 11.2031 88.1719 11.3203 88.3594 11.6016L92.25 17.4141L96.1172 11.6016C96.3047 11.3203 96.6328 11.2031 96.9609 11.2969C97.2656 11.3906 97.5 11.6719 97.5 12.0234Z" fill="#BCBCBC"/>
<path d="M22.3438 17.7656L21.9813 16.8336L20.7803 17.3007L21.5309 18.3481L22.3438 17.7656ZM24.3594 20.5781L25.1731 19.9969L25.1722 19.9956L24.3594 20.5781ZM24.1719 21.6328L24.7266 22.4649L24.759 22.4432L24.7897 22.4191L24.1719 21.6328ZM23.1172 21.4453L22.3008 22.0229L22.3139 22.0414L22.3278 22.0593L23.1172 21.4453ZM20.6797 18L21.496 17.4224L21.1972 17H20.6797V18ZM18.5 18V17H17.5V18H18.5ZM18.5 12.7734V11.7734H17.5V12.7734H18.5ZM18.5 16.5H17.5V17.5H18.5V16.5ZM21.5309 18.3481L23.5466 21.1606L25.1722 19.9956L23.1566 17.1831L21.5309 18.3481ZM23.5456 21.1594C23.4894 21.0806 23.4843 20.9986 23.4932 20.9503C23.5015 20.9051 23.5238 20.8703 23.5541 20.8465L24.7897 22.4191C25.4785 21.8779 25.7604 20.8191 25.1731 19.9969L23.5456 21.1594ZM23.6172 20.8008C23.6107 20.8051 23.6199 20.7979 23.6447 20.7896C23.6708 20.7809 23.7071 20.7734 23.75 20.7734V22.7734C24.1249 22.7734 24.4553 22.6457 24.7266 22.4649L23.6172 20.8008ZM23.75 20.7734C23.8526 20.7734 23.8993 20.8221 23.9065 20.8314L22.3278 22.0593C22.6632 22.4904 23.1786 22.7734 23.75 22.7734V20.7734ZM23.9335 20.8678L21.496 17.4224L19.8633 18.5776L22.3008 22.0229L23.9335 20.8678ZM20.6797 17H18.5V19H20.6797V17ZM17.5 18V21H19.5V18H17.5ZM17.5 21C17.5 20.9246 17.5332 20.8594 17.575 20.8185C17.6136 20.7807 17.6734 20.75 17.75 20.75V22.75C18.6803 22.75 19.5 21.9943 19.5 21H17.5ZM17.75 20.75C17.8048 20.75 17.8715 20.7737 17.9239 20.8261C17.9763 20.8785 18 20.9452 18 21H16C16 21.9742 16.7758 22.75 17.75 22.75V20.75ZM18 21V12H16V21H18ZM18 12C18 12.0766 17.9693 12.1364 17.9315 12.175C17.8906 12.2168 17.8254 12.25 17.75 12.25V10.25C16.7557 10.25 16 11.0697 16 12H18ZM17.75 12.25H21.125V10.25H17.75V12.25ZM21.125 12.25C22.4243 12.25 23.5 13.3257 23.5 14.625H25.5C25.5 12.2212 23.5288 10.25 21.125 10.25V12.25ZM23.5 14.625C23.5 15.6262 22.8778 16.485 21.9813 16.8336L22.7062 18.6976C24.3409 18.0619 25.5 16.4832 25.5 14.625H23.5ZM17.5 12.7734V16.5H19.5V12.7734H17.5ZM18.5 17.5H21.125V15.5H18.5V17.5ZM21.125 17.5C22.6921 17.5 24 16.2483 24 14.6484H22C22 15.1111 21.6204 15.5 21.125 15.5V17.5ZM24 14.6484C24 13.0333 22.7004 11.7734 21.125 11.7734V13.7734C21.6121 13.7734 22 14.1542 22 14.6484H24ZM21.125 11.7734H18.5V13.7734H21.125V11.7734ZM38.4297 20.7188L37.5066 21.1034L37.51 21.1115L37.5135 21.1196L38.4297 20.7188ZM38.0312 21.7031L37.6304 20.787L37.607 20.7972L37.584 20.8087L38.0312 21.7031ZM37.0469 21.3047L37.97 20.9201L37.9685 20.9166L37.0469 21.3047ZM36.2969 19.5234L37.2185 19.1354L36.9609 18.5234H36.2969V19.5234ZM31.6797 19.5234V18.5234H31.0157L30.7581 19.1354L31.6797 19.5234ZM30.9297 21.3047L31.8459 21.7055L31.8513 21.6927L30.9297 21.3047ZM29.9453 21.7031L29.5445 22.6193L29.5545 22.6237L29.5646 22.6278L29.9453 21.7031ZM29.5469 20.7188L28.6238 20.3341L28.6222 20.338L29.5469 20.7188ZM32.2891 18L31.3685 17.6093L30.7783 19H32.2891V18ZM35.6875 18V19H37.1902L36.6099 17.6139L35.6875 18ZM34 13.9688L34.9224 13.5826L34.0064 11.3942L33.0795 13.5781L34 13.9688ZM37.5135 21.1196C37.4782 21.0388 37.4865 20.9615 37.5073 20.9108C37.5273 20.8619 37.5677 20.8144 37.6304 20.787L38.4321 22.6193C39.2852 22.246 39.7432 21.2263 39.3458 20.3179L37.5135 21.1196ZM37.584 20.8087C37.6126 20.7944 37.671 20.7734 37.75 20.7734V22.7734C38.0165 22.7734 38.2624 22.7056 38.4785 22.5976L37.584 20.8087ZM37.75 20.7734C37.849 20.7734 37.9319 20.8287 37.97 20.9201L36.1238 21.6893C36.3963 22.3432 37.0416 22.7734 37.75 22.7734V20.7734ZM37.9685 20.9166L37.2185 19.1354L35.3752 19.9115L36.1252 21.6927L37.9685 20.9166ZM36.2969 18.5234H31.6797V20.5234H36.2969V18.5234ZM30.7581 19.1354L30.0081 20.9166L31.8513 21.6927L32.6013 19.9115L30.7581 19.1354ZM30.0135 20.9039C30.0343 20.8563 30.0777 20.8093 30.1408 20.783C30.2076 20.7551 30.2779 20.7586 30.3261 20.7784L29.5646 22.6278C30.4845 23.0066 31.472 22.56 31.8458 21.7055L30.0135 20.9039ZM30.3461 20.787C30.3937 20.8078 30.4407 20.8511 30.467 20.9142C30.4949 20.9811 30.4914 21.0513 30.4716 21.0995L28.6222 20.338C28.2434 21.258 28.69 22.2455 29.5445 22.6193L30.3461 20.787ZM30.47 21.1034L34.22 12.1034L32.3738 11.3341L28.6238 20.3341L30.47 21.1034ZM34.22 12.1034C34.1937 12.1664 34.1489 12.2134 34.1045 12.2409C34.0628 12.2667 34.0257 12.2734 34 12.2734V10.2734C33.347 10.2734 32.6665 10.6317 32.3738 11.3341L34.22 12.1034ZM34 12.2734C33.949 12.2734 33.9042 12.2595 33.8658 12.2351C33.8247 12.209 33.7823 12.1649 33.7566 12.1034L35.6028 11.3341C35.3165 10.647 34.6477 10.2734 34 10.2734V12.2734ZM33.7566 12.1034L37.5066 21.1034L39.3528 20.3341L35.6028 11.3341L33.7566 12.1034ZM32.2891 19H35.6875V17H32.2891V19ZM36.6099 17.6139L34.9224 13.5826L33.0776 14.3549L34.7651 18.3861L36.6099 17.6139ZM33.0795 13.5781L31.3685 17.6093L33.2096 18.3907L34.9205 14.3594L33.0795 13.5781ZM51.9844 21.7266L52.3006 22.6752L52.3222 22.6681L52.3434 22.6599L51.9844 21.7266ZM51.1641 21.4922L50.3954 22.1319L50.4001 22.1375L50.4048 22.143L51.1641 21.4922ZM45 14.0859L45.7686 13.4462L44 11.3212V14.0859H45ZM43.9922 11.2969L43.676 10.3482L43.6544 10.3554L43.6332 10.3635L43.9922 11.2969ZM44.8125 11.5312L45.5799 10.8901L45.5681 10.876L45.5558 10.8623L44.8125 11.5312ZM51 18.9375L50.2326 19.5786L52 21.6942V18.9375H51ZM51.5 12.0234V21.0234H53.5V12.0234H51.5ZM51.5 21.0234C51.5 20.942 51.5282 20.8835 51.5519 20.8515C51.5751 20.82 51.6013 20.8025 51.6254 20.7932L52.3434 22.6599C52.9816 22.4144 53.5 21.7956 53.5 21.0234H51.5ZM51.6681 20.7779C51.7119 20.7633 51.7458 20.7567 51.7636 20.7537C51.7822 20.7506 51.7939 20.7498 51.7959 20.7496C51.7983 20.7494 51.7964 20.7496 51.7879 20.7498C51.7788 20.75 51.7687 20.75 51.75 20.75V22.75C51.7736 22.75 52.0454 22.7603 52.3006 22.6752L51.6681 20.7779ZM51.75 20.75C51.7843 20.75 51.8593 20.7667 51.9233 20.8414L50.4048 22.143C50.7501 22.5458 51.247 22.75 51.75 22.75V20.75ZM51.9327 20.8525L45.7686 13.4462L44.2314 14.7256L50.3954 22.1319L51.9327 20.8525ZM44 14.0859V21H46V14.0859H44ZM44 21C44 20.9246 44.0332 20.8594 44.075 20.8185C44.1136 20.7807 44.1734 20.75 44.25 20.75V22.75C45.1803 22.75 46 21.9943 46 21H44ZM44.25 20.75C44.3048 20.75 44.3715 20.7737 44.4239 20.8261C44.4763 20.8785 44.5 20.9452 44.5 21H42.5C42.5 21.9742 43.2758 22.75 44.25 22.75V20.75ZM44.5 21V12H42.5V21H44.5ZM44.5 12C44.5 12.1131 44.4289 12.2003 44.3512 12.2302L43.6332 10.3635C42.9461 10.6278 42.5 11.2775 42.5 12H44.5ZM44.3084 12.2456C44.2426 12.2675 44.1881 12.2623 44.154 12.2525C44.1198 12.2428 44.0913 12.2248 44.0692 12.2002L45.5558 10.8623C45.1006 10.3565 44.3646 10.1186 43.676 10.3482L44.3084 12.2456ZM44.0451 12.1724L50.2326 19.5786L51.7674 18.2964L45.5799 10.8901L44.0451 12.1724ZM52 18.9375V12H50V18.9375H52ZM52 12C52 12.0766 51.9693 12.1364 51.9315 12.175C51.8906 12.2168 51.8254 12.25 51.75 12.25V10.25C50.7557 10.25 50 11.0697 50 12H52ZM51.75 12.25C51.6518 12.25 51.5893 12.2082 51.5599 12.1781C51.529 12.1466 51.5 12.094 51.5 12.0234H53.5C53.5 11.0692 52.7205 10.25 51.75 10.25V12.25ZM59 12.75V11.75H58V12.75H59ZM59 20.25H58V21.25H59V20.25ZM61.25 12.2734C63.5834 12.2734 65.5 14.1724 65.5 16.5234H67.5C67.5 13.062 64.6822 10.2734 61.25 10.2734V12.2734ZM65.5 16.5234C65.5 18.854 63.5805 20.7734 61.25 20.7734V22.7734C64.6851 22.7734 67.5 19.9585 67.5 16.5234H65.5ZM61.25 20.7734H58.25V22.7734H61.25V20.7734ZM58.25 20.7734C58.3254 20.7734 58.3906 20.8067 58.4315 20.8484C58.4693 20.8871 58.5 20.9468 58.5 21.0234H56.5C56.5 21.9538 57.2557 22.7734 58.25 22.7734V20.7734ZM58.5 21.0234V12.0234H56.5V21.0234H58.5ZM58.5 12.0234C58.5 12.0782 58.4763 12.1449 58.4239 12.1973C58.3715 12.2497 58.3048 12.2734 58.25 12.2734V10.2734C57.2758 10.2734 56.5 11.0493 56.5 12.0234H58.5ZM58.25 12.2734H61.25V10.2734H58.25V12.2734ZM61.25 21.25C63.8688 21.25 66 19.0873 66 16.5H64C64 17.9908 62.7562 19.25 61.25 19.25V21.25ZM66 16.5C66 13.8852 63.8648 11.75 61.25 11.75V13.75C62.7602 13.75 64 14.9898 64 16.5H66ZM61.25 11.75H59V13.75H61.25V11.75ZM58 12.75V20.25H60V12.75H58ZM59 21.25H61.25V19.25H59V21.25ZM76.75 12.2734C79.0834 12.2734 81 14.1724 81 16.5234H83C83 13.062 80.1822 10.2734 76.75 10.2734V12.2734ZM81 16.5234C81 18.854 79.0805 20.7734 76.75 20.7734V22.7734C80.1851 22.7734 83 19.9585 83 16.5234H81ZM76.75 20.7734C74.3989 20.7734 72.5 18.8569 72.5 16.5234H70.5C70.5 19.9556 73.2886 22.7734 76.75 22.7734V20.7734ZM72.5 16.5234C72.5 14.1695 74.396 12.2734 76.75 12.2734V10.2734C73.2915 10.2734 70.5 13.0649 70.5 16.5234H72.5ZM76.75 21.25C79.3648 21.25 81.5 19.1148 81.5 16.5H79.5C79.5 18.0102 78.2602 19.25 76.75 19.25V21.25ZM81.5 16.5C81.5 13.9046 79.3607 11.7734 76.75 11.7734V13.7734C78.2643 13.7734 79.5 15.0173 79.5 16.5H81.5ZM76.75 11.7734C74.1159 11.7734 72 13.8811 72 16.5H74C74 14.9939 75.2123 13.7734 76.75 13.7734V11.7734ZM72 16.5C72 19.1382 74.1118 21.25 76.75 21.25V19.25C75.2163 19.25 74 18.0337 74 16.5H72ZM96 14.4844H97V11.1953L95.1692 13.9278L96 14.4844ZM92.8594 19.1719L92.0286 18.6153L92.0273 18.6172L92.8594 19.1719ZM91.6172 19.1719L90.7845 19.7256L90.7851 19.7266L91.6172 19.1719ZM88.5 14.4844L89.3327 13.9306L87.5 11.1747V14.4844H88.5ZM87.5156 11.2969L87.2409 10.3354L87.2312 10.3381L87.2215 10.3411L87.5156 11.2969ZM88.3594 11.6016L87.5273 12.1563L87.5284 12.1578L88.3594 11.6016ZM92.25 17.4141L91.419 17.9703L92.2525 19.2156L93.0826 17.968L92.25 17.4141ZM96.1172 11.6016L95.2851 11.0469L95.2846 11.0476L96.1172 11.6016ZM96.9609 11.2969L97.255 10.3411L97.2454 10.3381L97.2357 10.3354L96.9609 11.2969ZM96.5 12.0234V21.0234H98.5V12.0234H96.5ZM96.5 21.0234C96.5 20.9264 96.5406 20.8675 96.5673 20.8407C96.594 20.814 96.653 20.7734 96.75 20.7734V22.7734C97.7007 22.7734 98.5 21.9742 98.5 21.0234H96.5ZM96.75 20.7734C96.8254 20.7734 96.8906 20.8067 96.9315 20.8484C96.9693 20.8871 97 20.9468 97 21.0234H95C95 21.9538 95.7557 22.7734 96.75 22.7734V20.7734ZM97 21.0234V14.4844H95V21.0234H97ZM95.1692 13.9278L92.0286 18.6153L93.6901 19.7285L96.8308 15.041L95.1692 13.9278ZM92.0273 18.6172C92.1013 18.5062 92.2003 18.4883 92.2383 18.4883C92.2762 18.4883 92.3753 18.5062 92.4492 18.6172L90.7851 19.7266C91.1404 20.2594 91.7199 20.4883 92.2383 20.4883C92.7567 20.4883 93.3362 20.2594 93.6914 19.7266L92.0273 18.6172ZM92.4499 18.6181L89.3327 13.9306L87.6673 15.0381L90.7845 19.7256L92.4499 18.6181ZM87.5 14.4844V21H89.5V14.4844H87.5ZM87.5 21C87.5 20.9246 87.5332 20.8594 87.575 20.8185C87.6136 20.7807 87.6734 20.75 87.75 20.75V22.75C88.6803 22.75 89.5 21.9943 89.5 21H87.5ZM87.75 20.75C87.8048 20.75 87.8715 20.7737 87.9239 20.8261C87.9763 20.8785 88 20.9452 88 21H86C86 21.9742 86.7758 22.75 87.75 22.75V20.75ZM88 21V12H86V21H88ZM88 12C88 12.1104 87.9251 12.2171 87.8097 12.2527L87.2215 10.3411C86.4968 10.5641 86 11.2334 86 12H88ZM87.7903 12.2584C87.7611 12.2667 87.7103 12.2706 87.6515 12.2495C87.592 12.2281 87.5498 12.19 87.5273 12.1563L89.1914 11.0469C88.7566 10.3946 87.9765 10.1252 87.2409 10.3354L87.7903 12.2584ZM87.5284 12.1578L91.419 17.9703L93.081 16.8578L89.1904 11.0453L87.5284 12.1578ZM93.0826 17.968L96.9498 12.1555L95.2846 11.0476L91.4174 16.8601L93.0826 17.968ZM96.9492 12.1563C96.9268 12.19 96.8845 12.2281 96.825 12.2495C96.7663 12.2706 96.7154 12.2667 96.6862 12.2584L97.2357 10.3354C96.5001 10.1252 95.72 10.3946 95.2851 11.0469L96.9492 12.1563ZM96.6669 12.2527C96.5815 12.2264 96.5 12.141 96.5 12.0234H98.5C98.5 11.2027 97.9498 10.5549 97.255 10.3411L96.6669 12.2527Z" fill="#ABABAB" mask="url(#path-2-outside-1_2014_146)"/>
<defs>
<filter id="filter0_ii_2014_146" x="0" y="-0.370911" width="114.582" height="34.5949" filterUnits="userSpaceOnUse" color-interpolation-filters="sRGB">
<feFlood flood-opacity="0" result="BackgroundImageFix"/>
<feBlend mode="normal" in="SourceGraphic" in2="BackgroundImageFix" result="shape"/>
<feColorMatrix in="SourceAlpha" type="matrix" values="0 0 0 0 0 0 0 0 0 0 0 0 0 0 0 0 0 0 127 0" result="hardAlpha"/>
<feOffset dx="2" dy="2"/>
<feGaussianBlur stdDeviation="0.6"/>
<feComposite in2="hardAlpha" operator="arithmetic" k2="-1" k3="1"/>
<feColorMatrix type="matrix" values="0 0 0 0 1 0 0 0 0 1 0 0 0 0 1 0 0 0 1 0"/>
<feBlend mode="normal" in2="shape" result="effect1_innerShadow_2014_146"/>
<feColorMatrix in="SourceAlpha" type="matrix" values="0 0 0 0 0 0 0 0 0 0 0 0 0 0 0 0 0 0 127 0" result="hardAlpha"/>
<feOffset dy="-1"/>
<feGaussianBlur stdDeviation="1.05"/>
<feComposite in2="hardAlpha" operator="arithmetic" k2="-1" k3="1"/>
<feColorMatrix type="matrix" values="0 0 0 0 0 0 0 0 0 0 0 0 0 0 0 0 0 0 0.25 0"/>
<feBlend mode="normal" in2="effect1_innerShadow_2014_146" result="effect2_innerShadow_2014_146"/>
</filter>
<linearGradient id="paint0_linear_2014_146" x1="37.2763" y1="1.7385" x2="40.6818" y2="36.3908" gradientUnits="userSpaceOnUse">
<stop stop-color="#FBF8F8"/>
<stop offset="1" stop-color="#CECCCC"/>
</linearGradient>
</defs>
</svg>
