<svg width="114" height="34" viewBox="0 0 114 34" fill="none" xmlns="http://www.w3.org/2000/svg">
<g filter="url(#filter0_ii_2014_146)">
<rect y="0.629089" width="113.382" height="32.3949" rx="16.1974" fill="url(#paint0_linear_2014_146)"/>
</g>
<rect width="7.75858" height="7.75858" transform="matrix(0.866025 0.5 -0.866025 0.5 38.0397 9.24142)" fill="#EFBDFD"/>
<rect width="7.75858" height="7.75858" transform="matrix(0.866025 0.5 0 1 31.3206 13.1207)" fill="#E593FC"/>
<rect width="7.75858" height="7.75858" transform="matrix(0.866025 -0.5 0 1 38.0397 17)" fill="#C665E1"/>
<rect width="7.75858" height="7.75858" transform="matrix(0.866025 0.5 -0.866025 0.5 56.6603 9.24142)" fill="#BDFDEF"/>
<rect width="7.75858" height="7.75858" transform="matrix(0.866025 0.5 0 1 49.9411 13.1207)" fill="#93FCE5"/>
<rect width="7.75858" height="7.75858" transform="matrix(0.866025 -0.5 0 1 56.6603 17)" fill="#65E1C6"/>
<rect width="7.75858" height="7.75858" transform="matrix(0.866025 0.5 -0.866025 0.5 75.2809 9.24142)" fill="#FDEFBD"/>
<rect width="7.75858" height="7.75858" transform="matrix(0.866025 0.5 0 1 68.5617 13.1207)" fill="#FCE593"/>
<rect width="7.75858" height="7.75858" transform="matrix(0.866025 -0.5 0 1 75.2809 17)" fill="#E1C665"/>
<defs>
<filter id="filter0_ii_2014_146" x="0" y="-0.370911" width="114.582" height="34.5949" filterUnits="userSpaceOnUse" color-interpolation-filters="sRGB">
<feFlood flood-opacity="0" result="BackgroundImageFix"/>
<feBlend mode="normal" in="SourceGraphic" in2="BackgroundImageFix" result="shape"/>
<feColorMatrix in="SourceAlpha" type="matrix" values="0 0 0 0 0 0 0 0 0 0 0 0 0 0 0 0 0 0 127 0" result="hardAlpha"/>
<feOffset dx="2" dy="2"/>
<feGaussianBlur stdDeviation="0.6"/>
<feComposite in2="hardAlpha" operator="arithmetic" k2="-1" k3="1"/>
<feColorMatrix type="matrix" values="0 0 0 0 1 0 0 0 0 1 0 0 0 0 1 0 0 0 1 0"/>
<feBlend mode="normal" in2="shape" result="effect1_innerShadow_2014_146"/>
<feColorMatrix in="SourceAlpha" type="matrix" values="0 0 0 0 0 0 0 0 0 0 0 0 0 0 0 0 0 0 127 0" result="hardAlpha"/>
<feOffset dy="-1"/>
<feGaussianBlur stdDeviation="1.05"/>
<feComposite in2="hardAlpha" operator="arithmetic" k2="-1" k3="1"/>
<feColorMatrix type="matrix" values="0 0 0 0 0 0 0 0 0 0 0 0 0 0 0 0 0 0 0.25 0"/>
<feBlend mode="normal" in2="effect1_innerShadow_2014_146" result="effect2_innerShadow_2014_146"/>
</filter>
<linearGradient id="paint0_linear_2014_146" x1="37.2763" y1="1.7385" x2="40.6818" y2="36.3908" gradientUnits="userSpaceOnUse">
<stop stop-color="#FBF8F8"/>
<stop offset="1" stop-color="#CECCCC"/>
</linearGradient>
</defs>
</svg>
