<svg width="53" height="60" viewBox="0 0 53 60" fill="none" xmlns="http://www.w3.org/2000/svg">
<path d="M41.25 22.5C47.4634 22.5 52.5 17.4632 52.5 11.25C52.5 5.03681 47.4634 0 41.25 0C35.0368 0 30 5.03681 30 11.25C30 12.0889 30.0918 12.9063 30.2659 13.6929L18.2573 21.1983C16.335 19.6659 13.8995 18.75 11.25 18.75C5.03681 18.75 0 23.7868 0 30C0 36.2132 5.03681 41.25 11.25 41.25C13.8995 41.25 16.335 40.3343 18.2573 38.8016L30.2659 46.3073C30.0918 47.0936 30 47.9111 30 48.75C30 54.9634 35.0368 60 41.25 60C47.4634 60 52.5 54.9634 52.5 48.75C52.5 42.5366 47.4634 37.5 41.25 37.5C38.6006 37.5 36.165 38.4157 34.2427 39.9484L22.2341 32.4429C22.4082 31.6563 22.5 30.8389 22.5 30C22.5 29.1611 22.4082 28.3437 22.2341 27.5571L34.2427 20.0517C36.165 21.5841 38.6006 22.5 41.25 22.5Z" fill="#07F2B8"/>
</svg>
