<svg width="39" height="39" viewBox="0 0 39 39" fill="none" xmlns="http://www.w3.org/2000/svg">
<circle cx="19.3906" cy="19.2827" r="19.2827" fill="url(#paint0_linear_2117_67)"/>
<g filter="url(#filter0_d_2117_67)">
<path fill-rule="evenodd" clip-rule="evenodd" d="M26.3037 21.6279C26.1145 21.4406 25.5234 21.4895 25.3335 21.6774V22.7923H23.4287L21.3398 20.1809L19.6826 22.2362L22.1589 25.3321H25.3335V26.4629C25.5234 26.6502 26.1145 26.567 26.3037 26.379L28.9977 24.3428C29.1869 24.1555 29.1869 23.852 28.9977 23.6641L26.3037 21.6279ZM25.3335 15.8081V16.8799C25.5234 17.0665 26.1145 17.1446 26.3037 16.958L28.9977 14.9218C29.1869 14.7338 29.1869 14.4297 28.9977 14.2424L26.3037 12.2055C26.1145 12.0182 25.5234 11.9103 25.3335 12.0976V13.2684H22.1589L14.5397 22.7923H13.2699C12.5689 22.7923 12 23.3612 12 24.0622C12 24.7632 12.5689 25.3321 13.2699 25.3321H15.8096L23.4287 15.8081H25.3335ZM13.2699 15.8081H14.5397L16.6286 18.4196L18.2858 16.3643L15.8096 13.2684H13.2699C12.5689 13.2684 12 13.8373 12 14.5383C12 15.2392 12.5689 15.8081 13.2699 15.8081Z" fill="#07F2B8"/>
<path d="M21.7305 19.8682L23.6689 22.292H24.834V21.4688L24.9814 21.3223L25.0791 21.2393C25.1803 21.166 25.2898 21.1193 25.3818 21.0889C25.5122 21.0459 25.6524 21.0212 25.7871 21.0127C25.9212 21.0042 26.0672 21.011 26.207 21.042C26.3233 21.0677 26.4723 21.1218 26.6035 21.2305L26.6055 21.2295L29.2988 23.2656L29.3262 23.2852L29.3496 23.3096C29.7353 23.6927 29.7368 24.3149 29.3496 24.6982L29.3262 24.7217L29.2988 24.7422L26.6055 26.7783L26.6045 26.7773C26.4967 26.8682 26.3749 26.9287 26.2715 26.9668C26.1445 27.0135 26.0066 27.0442 25.8721 27.0586C25.7387 27.0729 25.5912 27.0731 25.4482 27.0469C25.3475 27.0284 25.219 26.9911 25.0986 26.9121L24.9824 26.8184L24.834 26.6719V25.832H21.9189L21.7686 25.6445L19.292 22.5488L19.041 22.2354L19.293 21.9219L20.9502 19.8672L21.3418 19.3828L21.7305 19.8682ZM25.8877 11.5156C26.0217 11.5342 26.1578 11.5691 26.2822 11.6182C26.3834 11.6581 26.5005 11.7197 26.6045 11.8076L26.6055 11.8066L29.2988 13.8438L29.3262 13.8633L29.3496 13.8867C29.7368 14.27 29.7353 14.8932 29.3496 15.2764L29.3262 15.2998L29.2988 15.3203L26.6055 17.3564L26.6035 17.3545C26.4664 17.4677 26.3106 17.5195 26.1914 17.542C26.0493 17.5687 25.9027 17.5699 25.7695 17.5566C25.6351 17.5432 25.4964 17.5136 25.3691 17.4678C25.2792 17.4354 25.1744 17.3867 25.0771 17.3154L24.9834 17.2363L24.834 17.0898V16.3086H23.6689L16.2002 25.6445L16.0498 25.832H13.2695C12.2927 25.8319 11.5002 25.0394 11.5 24.0625C11.5 23.0855 12.2926 22.2922 13.2695 22.292H14.2998L21.7686 12.9561L21.9189 12.7686H24.834V11.8887L24.9824 11.7412L25.041 11.6895C25.1813 11.578 25.3417 11.5333 25.4609 11.5146C25.606 11.492 25.7551 11.4973 25.8877 11.5156ZM16.0498 12.7686L16.2002 12.9561L18.6758 16.0518L18.9268 16.3652L18.6748 16.6777L17.0176 18.7334L16.627 19.2178L16.2383 18.7314L14.2998 16.3086H13.2695C12.2926 16.3084 11.5 15.5151 11.5 14.5381C11.5001 13.5612 12.2926 12.7687 13.2695 12.7686H16.0498Z" stroke="#A4FFE9"/>
</g>
<defs>
<filter id="filter0_d_2117_67" x="7" y="7" width="27.1396" height="24.5684" filterUnits="userSpaceOnUse" color-interpolation-filters="sRGB">
<feFlood flood-opacity="0" result="BackgroundImageFix"/>
<feColorMatrix in="SourceAlpha" type="matrix" values="0 0 0 0 0 0 0 0 0 0 0 0 0 0 0 0 0 0 127 0" result="hardAlpha"/>
<feOffset/>
<feGaussianBlur stdDeviation="2"/>
<feComposite in2="hardAlpha" operator="out"/>
<feColorMatrix type="matrix" values="0 0 0 0 0.0352941 0 0 0 0 0.94902 0 0 0 0 0.721569 0 0 0 1 0"/>
<feBlend mode="normal" in2="BackgroundImageFix" result="effect1_dropShadow_2117_67"/>
<feBlend mode="normal" in="SourceGraphic" in2="effect1_dropShadow_2117_67" result="shape"/>
</filter>
<linearGradient id="paint0_linear_2117_67" x1="12.7869" y1="1.32073" x2="25.598" y2="38.5653" gradientUnits="userSpaceOnUse">
<stop stop-color="#FBF8F8"/>
<stop offset="1" stop-color="#CECCCC"/>
</linearGradient>
</defs>
</svg>
