<svg width="39" height="39" viewBox="0 0 39 39" fill="none" xmlns="http://www.w3.org/2000/svg">
<circle cx="19.3906" cy="19.2827" r="19.2827" fill="url(#paint0_linear_2117_67)"/>
<path d="M21.7305 19.8682L23.6689 22.292H24.834V21.4688L24.9814 21.3223L25.0791 21.2393C25.1803 21.166 25.2898 21.1193 25.3818 21.0889C25.5122 21.0459 25.6524 21.0212 25.7871 21.0127C25.9212 21.0042 26.0672 21.011 26.207 21.042C26.3233 21.0677 26.4723 21.1218 26.6035 21.2305L26.6055 21.2295L29.2988 23.2656L29.3262 23.2852L29.3496 23.3096C29.7353 23.6927 29.7368 24.3149 29.3496 24.6982L29.3262 24.7217L29.2988 24.7422L26.6055 26.7783L26.6045 26.7773C26.4967 26.8682 26.3749 26.9287 26.2715 26.9668C26.1445 27.0135 26.0066 27.0442 25.8721 27.0586C25.7387 27.0729 25.5912 27.0731 25.4482 27.0469C25.3475 27.0284 25.219 26.9911 25.0986 26.9121L24.9824 26.8184L24.834 26.6719V25.832H21.9189L21.7686 25.6445L19.292 22.5488L19.041 22.2354L19.293 21.9219L20.9502 19.8672L21.3418 19.3828L21.7305 19.8682ZM25.8877 11.5156C26.0217 11.5342 26.1578 11.5691 26.2822 11.6182C26.3834 11.6581 26.5005 11.7197 26.6045 11.8076L26.6055 11.8066L29.2988 13.8438L29.3262 13.8633L29.3496 13.8867C29.7368 14.27 29.7353 14.8932 29.3496 15.2764L29.3262 15.2998L29.2988 15.3203L26.6055 17.3564L26.6035 17.3545C26.4664 17.4677 26.3106 17.5195 26.1914 17.542C26.0493 17.5687 25.9027 17.5699 25.7695 17.5566C25.6351 17.5432 25.4964 17.5136 25.3691 17.4678C25.2792 17.4354 25.1744 17.3867 25.0771 17.3154L24.9834 17.2363L24.834 17.0898V16.3086H23.6689L16.2002 25.6445L16.0498 25.832H13.2695C12.2927 25.8319 11.5002 25.0394 11.5 24.0625C11.5 23.0855 12.2926 22.2922 13.2695 22.292H14.2998L21.7686 12.9561L21.9189 12.7686H24.834V11.8887L24.9824 11.7412L25.041 11.6895C25.1813 11.578 25.3417 11.5333 25.4609 11.5146C25.606 11.492 25.7551 11.4973 25.8877 11.5156ZM16.0498 12.7686L16.2002 12.9561L18.6758 16.0518L18.9268 16.3652L18.6748 16.6777L17.0176 18.7334L16.627 19.2178L16.2383 18.7314L14.2998 16.3086H13.2695C12.2926 16.3084 11.5 15.5151 11.5 14.5381C11.5001 13.5612 12.2926 12.7687 13.2695 12.7686H16.0498Z" fill="url(#paint1_linear_2117_67)" stroke="#ABABAB"/>
<defs>
<linearGradient id="paint0_linear_2117_67" x1="12.7869" y1="1.32073" x2="25.598" y2="38.5653" gradientUnits="userSpaceOnUse">
<stop stop-color="#FBF8F8"/>
<stop offset="1" stop-color="#CECCCC"/>
</linearGradient>
<linearGradient id="paint1_linear_2117_67" x1="12.5" y1="13" x2="29.5" y2="16.5" gradientUnits="userSpaceOnUse">
<stop stop-color="#E593FC"/>
<stop offset="0.514493" stop-color="#93FCE5"/>
<stop offset="1" stop-color="#FCE593"/>
</linearGradient>
</defs>
</svg>
