<svg width="39" height="39" viewBox="0 0 39 39" fill="none" xmlns="http://www.w3.org/2000/svg">
<g filter="url(#filter0_ii_2010_134)">
<circle cx="19.3906" cy="19.2827" r="19.2827" fill="url(#paint0_linear_2010_134)"/>
</g>
<path d="M25.9909 22.0184C25.991 22.0184 25.9911 22.0184 25.9912 22.0184L26.0022 22.0268L28.6175 24.0035L26.0022 25.9802L25.9753 26.0005L25.9632 26.0125C25.9562 26.0163 25.944 26.022 25.9262 26.0286C25.8998 26.0383 25.8681 26.0472 25.8335 26.0541V25.3321V24.8321H25.3335H22.3992L20.3239 22.2374L21.3383 20.9794L23.0383 23.1047L23.1884 23.2923H23.4287H25.3335H25.8335V22.7923V22.0122C25.8391 22.0117 25.8447 22.0113 25.8503 22.0109C25.9113 22.0071 25.9607 22.0117 25.9909 22.0184ZM25.8335 15.8081V15.3081H25.3335H23.4287H23.1884L23.0383 15.4958L15.5693 24.8321H13.2699C12.845 24.8321 12.5 24.487 12.5 24.0622C12.5 23.6374 12.845 23.2923 13.2699 23.2923H14.5397H14.78L14.9302 23.1047L22.3992 13.7684H25.3335H25.8335V13.2684V12.5225C25.8635 12.53 25.8913 12.5389 25.9155 12.5484C25.9422 12.5589 25.9562 12.567 25.961 12.5698L25.9756 12.5843L26.0021 12.6044L28.6179 14.5821L26.0022 16.5591L26.0004 16.5604C25.972 16.565 25.9262 16.5672 25.8686 16.5614C25.8567 16.5602 25.845 16.5588 25.8335 16.5571V15.8081ZM25.6085 12.5044C25.6057 12.5053 25.6042 12.5056 25.6041 12.5056C25.6041 12.5055 25.6054 12.5051 25.6085 12.5044ZM14.9302 15.4958L14.78 15.3081H14.5397H13.2699C12.845 15.3081 12.5 14.9631 12.5 14.5383C12.5 14.1134 12.845 13.7684 13.2699 13.7684H15.5692L17.6445 16.363L16.6302 17.6211L14.9302 15.4958Z" fill="#BCBCBC" stroke="#B7B7B7"/>
<defs>
<filter id="filter0_ii_2010_134" x="0.10791" y="0" width="39.5653" height="39.9653" filterUnits="userSpaceOnUse" color-interpolation-filters="sRGB">
<feFlood flood-opacity="0" result="BackgroundImageFix"/>
<feBlend mode="normal" in="SourceGraphic" in2="BackgroundImageFix" result="shape"/>
<feColorMatrix in="SourceAlpha" type="matrix" values="0 0 0 0 0 0 0 0 0 0 0 0 0 0 0 0 0 0 127 0" result="hardAlpha"/>
<feOffset dx="1" dy="2"/>
<feGaussianBlur stdDeviation="0.7"/>
<feComposite in2="hardAlpha" operator="arithmetic" k2="-1" k3="1"/>
<feColorMatrix type="matrix" values="0 0 0 0 1 0 0 0 0 1 0 0 0 0 1 0 0 0 1 0"/>
<feBlend mode="normal" in2="shape" result="effect1_innerShadow_2010_134"/>
<feColorMatrix in="SourceAlpha" type="matrix" values="0 0 0 0 0 0 0 0 0 0 0 0 0 0 0 0 0 0 127 0" result="hardAlpha"/>
<feOffset/>
<feGaussianBlur stdDeviation="0.7"/>
<feComposite in2="hardAlpha" operator="arithmetic" k2="-1" k3="1"/>
<feColorMatrix type="matrix" values="0 0 0 0 0 0 0 0 0 0 0 0 0 0 0 0 0 0 0.25 0"/>
<feBlend mode="normal" in2="effect1_innerShadow_2010_134" result="effect2_innerShadow_2010_134"/>
</filter>
<linearGradient id="paint0_linear_2010_134" x1="12.7869" y1="1.32073" x2="25.598" y2="38.5653" gradientUnits="userSpaceOnUse">
<stop stop-color="#FBF8F8"/>
<stop offset="1" stop-color="#CECCCC"/>
</linearGradient>
</defs>
</svg>
