<svg width="39" height="39" viewBox="0 0 39 39" fill="none" xmlns="http://www.w3.org/2000/svg">
<circle cx="19.3906" cy="19.2827" r="19.2827" fill="url(#paint0_linear_2076_268)"/>
<path d="M22.1589 25.8321H24.8335V26.4629V26.672L24.9823 26.8188C25.1301 26.9646 25.3141 27.0224 25.4484 27.047C25.5913 27.0732 25.7386 27.0731 25.872 27.0588C26.0066 27.0444 26.1447 27.0138 26.2718 26.967C26.3814 26.9266 26.5135 26.863 26.6257 26.7624L29.2992 24.7417L29.3258 24.7216L29.3494 24.6982C29.7366 24.3149 29.7358 23.6925 29.35 23.3093L29.3261 23.2856L29.2992 23.2652L26.6246 21.2437C26.4892 21.124 26.329 21.069 26.2071 21.042C26.0673 21.011 25.9215 21.0045 25.7874 21.0129C25.6525 21.0214 25.5123 21.0462 25.3818 21.0893C25.2591 21.1298 25.1057 21.1994 24.9817 21.3221L24.8335 21.4688V21.6774V22.2923H23.6691L21.7303 19.8686L21.3414 19.3824L20.9506 19.8671L19.2934 21.9223L19.0414 22.2349L19.2922 22.5485L21.7684 25.6444L21.9185 25.8321H22.1589ZM24.8335 12.0976V12.7684H22.1589H21.9186L21.7684 12.9561L14.2994 22.2923H13.2699C12.2928 22.2923 11.5 23.0851 11.5 24.0622C11.5 25.0393 12.2928 25.8321 13.2699 25.8321H15.8096H16.0499L16.2 25.6444L23.669 16.3081H24.8335V16.8799V17.0895L24.983 17.2364C25.1021 17.3535 25.2492 17.4243 25.3691 17.4675C25.4964 17.5134 25.6346 17.543 25.7691 17.5564C25.9024 17.5698 26.0493 17.5689 26.1916 17.5421C26.3159 17.5187 26.4831 17.4666 26.6241 17.3425L29.2992 15.3206L29.3261 15.3003L29.35 15.2765C29.7358 14.8934 29.7366 14.2703 29.3494 13.887L29.3258 13.8636L29.2992 13.8435L26.6257 11.8222C26.5174 11.725 26.39 11.6606 26.2825 11.6182C26.1579 11.5691 26.0215 11.5343 25.8873 11.5158C25.7547 11.4975 25.6064 11.4924 25.4614 11.5151C25.3251 11.5364 25.1349 11.5912 24.9823 11.7417L24.8335 11.8885V12.0976ZM16.2382 18.7319L16.6271 19.2181L17.0179 18.7334L18.675 16.6781L18.9271 16.3656L18.6763 16.052L16.2 12.9561L16.0499 12.7684H15.8096H13.2699C12.2928 12.7684 11.5 13.5612 11.5 14.5383C11.5 15.5154 12.2928 16.3081 13.2699 16.3081H14.2994L16.2382 18.7319Z" fill="#A0FFE8" stroke="#ABABAB"/>
<path d="M26.5 14.5H23L15 24H13.5M13.5 14.5H15L17 16.5M21 22L23 24H26.5" stroke="#D7FFF5"/>
<defs>
<linearGradient id="paint0_linear_2076_268" x1="12.7869" y1="1.32073" x2="25.598" y2="38.5653" gradientUnits="userSpaceOnUse">
<stop stop-color="#FBF8F8"/>
<stop offset="1" stop-color="#CECCCC"/>
</linearGradient>
</defs>
</svg>
