<svg width="32" height="32" viewBox="0 0 32 32" fill="none" xmlns="http://www.w3.org/2000/svg">
<path d="M16 13.3334C17.4728 13.3334 18.6666 14.5272 18.6666 16C18.6666 17.4728 17.4728 18.6667 16 18.6667C14.5272 18.6667 13.3333 17.4728 13.3333 16C13.3333 14.5272 14.5272 13.3334 16 13.3334ZM11.3333 16C11.3333 17.2887 11.8557 18.4553 12.7002 19.2998L11.2859 20.7141C10.0795 19.5076 9.33334 17.841 9.33334 16C9.33334 14.1591 10.0795 12.4924 11.2859 11.2859L12.7002 12.7002C11.8557 13.5447 11.3333 14.7113 11.3333 16ZM20.6666 16C20.6666 14.7113 20.1443 13.5447 19.2998 12.7002L20.714 11.286C21.9205 12.4924 22.6667 14.1591 22.6667 16C22.6667 17.841 21.9205 19.5076 20.714 20.7141L19.2998 19.2998C20.1443 18.4553 20.6666 17.2887 20.6666 16ZM7.33334 16C7.33334 18.3932 8.30336 20.5599 9.87174 22.1283L8.45751 23.5425C6.52724 21.6122 5.33334 18.9455 5.33334 16C5.33334 13.0545 6.52724 10.3878 8.45751 8.45752L9.87174 9.87175C8.30336 11.4401 7.33334 13.6068 7.33334 16ZM24.6667 16C24.6667 13.6068 23.6966 11.4401 22.1283 9.87175L23.5425 8.45752C25.4728 10.3878 26.6667 13.0545 26.6667 16C26.6667 18.9455 25.4728 21.6122 23.5425 23.5425L22.1283 22.1283C23.6966 20.5599 24.6667 18.3932 24.6667 16Z" fill="white"/>
</svg>
