<svg width="32" height="32" viewBox="0 0 32 32" fill="none" xmlns="http://www.w3.org/2000/svg">
<path d="M16 13.3334C17.4728 13.3334 18.6667 14.5272 18.6667 16C18.6667 17.4728 17.4728 18.6667 16 18.6667C14.5273 18.6667 13.3334 17.4728 13.3334 16C13.3334 14.5272 14.5273 13.3334 16 13.3334ZM11.3334 16C11.3334 17.2887 11.8557 18.4553 12.7002 19.2998L11.286 20.7141C10.0796 19.5076 9.33337 17.841 9.33337 16C9.33337 14.1591 10.0796 12.4924 11.286 11.2859L12.7002 12.7002C11.8557 13.5447 11.3334 14.7113 11.3334 16ZM20.6667 16C20.6667 14.7113 20.1444 13.5447 19.2999 12.7002L20.714 11.286C21.9205 12.4924 22.6667 14.1591 22.6667 16C22.6667 17.841 21.9205 19.5076 20.714 20.7141L19.2999 19.2998C20.1444 18.4553 20.6667 17.2887 20.6667 16ZM7.33337 16C7.33337 18.3932 8.3034 20.5599 9.87177 22.1283L8.45754 23.5425C6.52727 21.6122 5.33337 18.9455 5.33337 16C5.33337 13.0545 6.52727 10.3878 8.45754 8.45752L9.87177 9.87175C8.3034 11.4401 7.33337 13.6068 7.33337 16ZM24.6667 16C24.6667 13.6068 23.6967 11.4401 22.1283 9.87175L23.5425 8.45752C25.4728 10.3878 26.6667 13.0545 26.6667 16C26.6667 18.9455 25.4728 21.6122 23.5425 23.5425L22.1283 22.1283C23.6967 20.5599 24.6667 18.3932 24.6667 16Z" fill="white"/>
</svg>
