<svg width="60" height="60" viewBox="0 0 60 60" fill="none" xmlns="http://www.w3.org/2000/svg">
<path d="M26.25 11.25V0H33.75V11.25H26.25Z" fill="white"/>
<path d="M33.75 48.75V60H26.25V48.75H33.75Z" fill="white"/>
<path d="M41.25 30C41.25 36.2132 36.2132 41.25 30 41.25C23.7868 41.25 18.75 36.2132 18.75 30C18.75 23.7868 23.7868 18.75 30 18.75C36.2132 18.75 41.25 23.7868 41.25 30Z" fill="white"/>
<path d="M0 33.75H11.25V26.25H0V33.75Z" fill="white"/>
<path d="M60 26.25H48.75V33.75H60V26.25Z" fill="white"/>
<path d="M14.0901 19.3934L6.13513 11.4385L11.4385 6.13513L19.3934 14.0901L14.0901 19.3934Z" fill="white"/>
<path d="M45.9097 40.6065L53.8649 48.5614L48.5613 53.865L40.6064 45.9098L45.9097 40.6065Z" fill="white"/>
<path d="M11.4385 53.865L19.3934 45.9098L14.0901 40.6065L6.13513 48.5618L11.4385 53.865Z" fill="white"/>
<path d="M48.5613 6.13513L40.6064 14.0901L45.9097 19.3934L53.8649 11.4385L48.5613 6.13513Z" fill="white"/>
</svg>
