<svg width="24" height="23" viewBox="0 0 24 23" fill="none" xmlns="http://www.w3.org/2000/svg">
<path fill-rule="evenodd" clip-rule="evenodd" d="M14 15H10V13H14V15Z" fill="white"/>
<path fill-rule="evenodd" clip-rule="evenodd" d="M11 9H10V7H13V14H11V9Z" fill="white"/>
<path fill-rule="evenodd" clip-rule="evenodd" d="M1.46191 1.42747C2.39796 0.513477 3.66752 0 4.99129 0H19.0087C20.3325 0 21.602 0.513477 22.5381 1.42747C23.4741 2.34147 24 3.58111 24 4.87369V14.6109C24 15.9035 23.4741 17.1431 22.5381 18.0571C21.602 18.9711 20.3325 19.4846 19.0087 19.4846H13.253L5.98955 23V19.4846H4.99129C3.66752 19.4846 2.39796 18.9711 1.46191 18.0571C0.525867 17.1431 0 15.9035 0 14.6109V4.87369C0 3.58111 0.525867 2.34147 1.46191 1.42747ZM4.99129 1.94948C4.19703 1.94948 3.43529 2.25756 2.87366 2.80596C2.31204 3.35436 1.99652 4.09814 1.99652 4.87369V14.6109C1.99652 15.3864 2.31204 16.1302 2.87366 16.6786C3.43529 17.227 4.19703 17.5351 4.99129 17.5351H7.98606V19.8579L12.7853 17.5351H19.0087C19.803 17.5351 20.5647 17.227 21.1263 16.6786C21.688 16.1302 22.0035 15.3864 22.0035 14.6109V4.87369C22.0035 4.09814 21.688 3.35436 21.1263 2.80596C20.5647 2.25756 19.803 1.94948 19.0087 1.94948H4.99129Z" fill="white"/>
<path fill-rule="evenodd" clip-rule="evenodd" d="M13 6H11V4H13V6Z" fill="white"/>
</svg>
