<svg width="60" height="60" viewBox="0 0 60 60" fill="none" xmlns="http://www.w3.org/2000/svg">
<path d="M20.5 35V25" stroke="white" stroke-width="3" stroke-linecap="round" stroke-linejoin="round"/>
<path d="M45.3333 25H40.5001C37.1864 25 34.5 27.2385 34.5 30C34.5 32.7615 37.1864 35 40.5001 35H45.3333C45.4882 35 45.5654 35 45.6308 34.9965C46.6323 34.9417 47.43 34.277 47.4957 33.4423C47.5 33.3878 47.5 33.3233 47.5 33.1945V26.8055C47.5 26.6767 47.5 26.6121 47.4957 26.5577C47.43 25.7231 46.6323 25.0583 45.6308 25.0036C45.5654 25 45.4882 25 45.3333 25Z" stroke="white" stroke-width="3"/>
<path d="M45.5 24.75C45.3648 21.4735 44.9286 19.4646 43.5223 18.0502C41.4838 16 38.2026 16 31.6405 16H26.4204C19.8582 16 16.5772 16 14.5386 18.0502C12.5 20.1005 12.5 23.4003 12.5 30C12.5 36.5996 12.5 39.8996 14.5386 41.9497C16.5772 44 19.8582 44 26.4204 44H31.6405C38.2026 44 41.4838 44 43.5223 41.9497C44.9286 40.5355 45.3648 38.5265 45.5 35.25" stroke="white" stroke-width="3"/>
<path d="M39.5 30H40.5" stroke="white" stroke-width="3" stroke-linecap="round" stroke-linejoin="round"/>
</svg>
