<svg width="60" height="60" viewBox="0 0 60 60" fill="none" xmlns="http://www.w3.org/2000/svg">
<path fill-rule="evenodd" clip-rule="evenodd" d="M19.6125 11.9384C26.0913 11.0205 33.9088 11.0205 40.3875 11.9384C46.274 12.7723 50.8352 16.9035 51.7077 21.3535C52.764 26.7405 52.764 33.2595 51.7077 38.6465C50.8352 43.0965 46.274 47.2277 40.3878 48.0617C33.9088 48.9795 26.0913 48.9795 19.6125 48.0617C13.7262 47.2277 9.165 43.0965 8.29228 38.6465C7.23585 33.2595 7.23595 26.7405 8.2923 21.3535C9.1649 16.9035 13.7262 12.7723 19.6125 11.9384ZM41.089 6.98779C34.145 6.00407 25.8553 6.00407 18.9112 6.98779C11.3747 8.05547 4.7504 13.432 3.38573 20.3914C2.20482 26.4137 2.20469 33.5862 3.38575 39.6085C4.75053 46.568 11.3746 51.9445 18.9112 53.0122C25.8553 53.996 34.145 53.996 41.089 53.0122C48.6255 51.9445 55.2497 46.568 56.6145 39.6085C57.7952 33.5862 57.7952 26.4137 56.6145 20.3914C55.2497 13.432 48.6255 8.05547 41.089 6.98779ZM26.3868 17.9199C25.6195 17.4084 24.6333 17.3608 23.8204 17.7958C23.0075 18.2308 22.5 19.078 22.5 20V40C22.5 40.922 23.0075 41.7692 23.8204 42.2042C24.6333 42.6392 25.6195 42.5915 26.3868 42.0802L41.3868 32.0802C42.0823 31.6165 42.5 30.836 42.5 30C42.5 29.164 42.0823 28.3835 41.3868 27.9197L26.3868 17.9199ZM35.493 30L27.5 35.3287V24.6713L35.493 30Z" fill="white"/>
</svg>
