<svg width="65" height="36" viewBox="0 0 65 36" fill="none" xmlns="http://www.w3.org/2000/svg">
<path d="M43.0625 0.226562C44.3458 0.0175833 45.6484 0.0019591 46.9609 0.179688L48.7812 0.429688L50.6094 0.679688C51.9328 0.858893 53.2132 1.24571 54.4453 1.83594L56.1562 2.65625L57.8672 3.46875C59.2825 4.14675 60.1904 5.28548 60.5156 6.8125L60.9062 8.64062L61.2891 10.4688C61.5336 11.6187 61.8835 12.6361 62.3203 13.5234L63.0312 14.9844L63.75 16.4375C64.3162 17.5877 64.5397 18.8622 64.4375 20.2266L64.2969 22.0391L64.1641 23.8516C64.0565 25.279 63.512 26.5683 62.5625 27.6953L61.3203 29.1641L60.0859 30.625C59.1486 31.7368 57.9765 32.5555 56.5859 33.0781L54.7266 33.7734L52.875 34.4766C51.5065 34.9906 50.1293 35.1829 48.7578 35.0391L45.1484 34.6641C43.9434 34.5377 42.7477 34.4043 41.5625 34.2734L38.0156 33.8828C36.955 33.7657 35.8898 33.8397 34.8203 34.1094L33.0391 34.5625L31.2656 35.0078C29.9901 35.3297 28.7062 35.4606 27.4219 35.3984L23.875 35.2266C22.6165 35.1656 21.3612 34.9599 20.1094 34.6172L18.3281 34.1328L16.5547 33.6484C15.3504 33.3187 14.1777 32.9575 13.0391 32.5625L11.3594 31.9766L9.6875 31.3984C8.29171 30.9141 7.3023 29.9506 6.79688 28.5703L6.19531 26.9375L5.59375 25.2969C5.24886 24.355 4.67664 23.4566 3.84375 22.6094L1.07812 19.7969C0.508324 19.2178 0.10244 18.5272 0.0390625 17.7344C-0.0237264 16.9379 0.267143 16.2007 0.75 15.5547L1.89844 14.0234L3.04688 12.4844C3.77159 11.5146 4.36104 10.5205 4.82031 9.50781L5.55469 7.88281L6.29688 6.25781C6.93232 4.85922 8.06886 4.02849 9.59375 3.84375L11.3594 3.625L13.125 3.41406C13.6964 3.34483 14.1358 3.26858 14.4453 3.19531C14.7876 3.11396 14.8559 3.06132 14.8125 3.09375L15.2031 2.79688L15.6016 2.5C15.8587 2.30644 16.1444 2.23862 16.3594 2.21094C16.5825 2.18231 16.815 2.18882 17.0391 2.21094C17.4882 2.25561 18.0338 2.37681 18.6484 2.55469L20.4297 3.07031L22.2031 3.57812C23.2219 3.87317 24.2297 3.89945 25.2422 3.65625L27.0156 3.23438L28.7891 2.80469C29.9913 2.51591 31.1955 2.2618 32.3984 2.04688L34.1719 1.73438L35.9453 1.41406C37.1337 1.20174 38.3272 0.998217 39.5156 0.804688L43.0625 0.226562ZM46.6875 2.16406C45.567 2.01262 44.4653 2.02684 43.3828 2.20312L39.8359 2.78125C38.6577 2.97313 37.4752 3.17229 36.2969 3.38281L34.5234 3.70312L32.75 4.01562C31.5862 4.22355 30.4223 4.47029 29.2578 4.75L27.4844 5.17188L25.7109 5.60156C24.3573 5.92672 22.9958 5.88989 21.6484 5.5L19.8672 4.99219L18.0938 4.47656C17.5271 4.31253 17.1173 4.22252 16.8438 4.19531C16.7664 4.18766 16.7101 4.19502 16.6719 4.19531L16.4062 4.39844L16.0156 4.69531C15.7029 4.93068 15.2671 5.05334 14.8984 5.14062C14.4871 5.23784 13.973 5.32504 13.3672 5.39844L11.6016 5.61719L9.82812 5.82812C8.99907 5.92937 8.46419 6.32154 8.11719 7.08594L7.38281 8.71094L6.64062 10.3359C6.11776 11.4889 5.45276 12.6033 4.64844 13.6797L3.5 15.2188L2.35156 16.75C2.07006 17.1266 2.01668 17.3957 2.03125 17.5781C2.04619 17.7651 2.14969 18.034 2.5 18.3906L5.26562 21.2031C6.27445 22.2284 7.02125 23.3659 7.47656 24.6094L8.07812 26.25L8.67969 27.8828C8.97489 28.689 9.50469 29.2167 10.3438 29.5078L12.0156 30.0859L13.6953 30.6719C14.7903 31.0518 15.923 31.4003 17.0859 31.7188L18.8594 32.2031L20.6328 32.6953C21.7484 33.0008 22.8618 33.1728 23.9688 33.2266L25.75 33.3125L27.5234 33.3984C28.6045 33.4506 29.6915 33.3455 30.7812 33.0703L32.5547 32.6172L34.3281 32.1719C35.6242 31.8446 36.9294 31.7543 38.2344 31.8984L41.7812 32.2891C42.9627 32.4195 44.1579 32.5459 45.3594 32.6719L48.9688 33.0469C50.0032 33.1551 51.0674 33.0164 52.1719 32.6016L54.0234 31.9062L55.8828 31.2109C56.9647 30.8045 57.8532 30.1772 58.5625 29.3359L59.7969 27.875L61.0312 26.4062C61.7267 25.581 62.098 24.6813 62.1719 23.6953L62.3047 21.8906L62.4375 20.0781C62.5163 19.0266 62.3514 18.1135 61.9609 17.3203L61.2422 15.8672L60.5234 14.4062C60.004 13.3511 59.6098 12.1773 59.3359 10.8906L58.5547 7.23438C58.3611 6.32423 57.8661 5.68835 57 5.27344L53.5781 3.63281C52.53 3.13111 51.4524 2.8066 50.3438 2.65625L48.5156 2.41406L46.6875 2.16406Z" fill="#07F2B8"/>
</svg>
