<svg width="65" height="33" viewBox="0 0 65 33" fill="none" xmlns="http://www.w3.org/2000/svg">
<path d="M28.832 0.613281C29.4676 0.509864 30.1057 0.493001 30.7422 0.5625L32.5156 0.757812C33.0963 0.821217 33.6773 0.86216 34.2578 0.886719L36.0312 0.964844C36.6991 0.993099 37.3612 1.1684 38.0078 1.48438L39.7812 2.35156C40.2761 2.59337 40.7469 2.64413 41.2148 2.52734L42.1016 2.30859L42.9922 2.08594C43.586 1.93765 44.1796 1.79373 44.7734 1.65625L45.6602 1.44922L46.5469 1.24609C47.1701 1.10181 47.8057 1.01675 48.4492 0.996094L49.3672 0.96875L50.2852 0.9375C50.9407 0.916547 51.5966 0.983767 52.25 1.13281L53.168 1.33984L54.0898 1.55078C54.7683 1.70571 55.3892 1.99072 55.9492 2.40234L56.7109 2.96094L57.4688 3.51953C58.0056 3.91463 58.4821 4.36439 58.8984 4.86719L60.0703 6.28125C60.4491 6.73861 60.8603 7.18551 61.3008 7.62109L61.9766 8.29297L62.6562 8.96094C63.1706 9.46955 63.5246 10.0771 63.7148 10.7734L64.2148 12.6094C64.4011 13.292 64.4342 13.9825 64.3086 14.6758L64.1367 15.6055L63.9688 16.5352C63.857 17.151 63.7567 17.7507 63.6641 18.332L63.3828 20.0898C63.2723 20.7835 62.9566 21.3869 62.4492 21.8867L61.7969 22.5273L61.1445 23.1719C60.7992 23.5125 60.5802 23.9522 60.5039 24.5195L60.3711 25.5234L60.2383 26.5234C60.1835 26.93 60.0391 27.2979 59.7852 27.5938C59.5301 27.8901 59.1916 28.0808 58.8008 28.1836L57.8633 28.4297L56.9297 28.6758C56.3771 28.8208 55.9061 29.0667 55.5117 29.4141L54.8281 30.0195L54.1445 30.6211C53.59 31.1096 52.9302 31.3385 52.1953 31.293L51.2891 31.2344L50.3867 31.1797C49.794 31.1427 49.2094 31.1193 48.6328 31.1133L47.75 31.1055L46.8711 31.0977C46.335 31.0922 45.7938 31.1657 45.2461 31.3203L43.4727 31.8203C42.8743 31.9892 42.2744 32.1443 41.6758 32.2852L40.7891 32.4922L39.8984 32.7031C39.2548 32.8544 38.6082 32.9001 37.9609 32.8359L37.0742 32.7461L36.1875 32.6602C35.5141 32.5934 34.8514 32.361 34.207 31.9844L33.3203 31.4688L32.4336 30.9492C31.9132 30.645 31.4163 30.5196 30.9375 30.5469L29.1641 30.6484C28.5711 30.6822 27.9758 30.7131 27.3828 30.7422L25.6094 30.8281C25.0439 30.8558 24.4771 30.9304 23.9102 31.0469L23.0234 31.2266L22.1367 31.4102C21.5259 31.5356 20.9126 31.6246 20.3008 31.6758L18.5273 31.8242C17.8537 31.8806 17.1924 31.7747 16.5508 31.5117L15.6953 31.1602L14.8359 30.8086C14.3179 30.5962 13.8084 30.4896 13.3047 30.4805L12.4453 30.4648L11.5898 30.4492C10.9033 30.4371 10.2866 30.2054 9.76172 29.7617L8.44922 28.6523C8.09887 28.3561 7.62641 28.1531 7.00391 28.0664L5.96094 27.918L4.92188 27.7734C4.09828 27.6588 3.44497 27.2695 3.02734 26.5898L2.03516 24.9727C1.68851 24.4073 1.40051 23.815 1.17188 23.1992L0.847656 22.3242L0.519531 21.4453C0.268605 20.7694 0.220604 20.0699 0.375 19.3594L0.78125 17.5C0.902244 16.9436 0.913005 16.3951 0.816406 15.8516L0.652344 14.9375L0.492188 14.0234C0.367831 13.3237 0.432449 12.6382 0.691406 11.9805L1.03125 11.125L1.36719 10.2695C1.61265 9.64603 1.95537 9.08177 2.39453 8.58203L3 7.89453L3.60156 7.21094C4.04754 6.70411 4.57439 6.30661 5.17969 6.02344L5.99219 5.64453L6.80469 5.26172C7.30774 5.02638 7.76599 4.73742 8.17578 4.39062L8.84375 3.82422L9.50781 3.25781C9.97699 2.86062 10.4999 2.50101 11.0703 2.17188L11.8906 1.69531L12.7109 1.22266C13.2792 0.894983 13.9016 0.687417 14.4414 0.929688L14.8945 1.13672L15.3477 1.33984C15.6186 1.46144 16.0405 1.60807 16.625 1.77734L17.5117 2.03516L18.4023 2.28906C18.9108 2.43613 19.4126 2.44923 19.918 2.32812L20.8086 2.11719L21.6953 1.90234C22.2963 1.758 22.8987 1.63087 23.5 1.52344L24.3867 1.36719L25.2734 1.20703C25.8672 1.10095 26.4609 0.999041 27.0547 0.902344L27.9453 0.757812L28.832 0.613281ZM28.9922 1.60156L27.2188 1.89062C26.6296 1.98656 26.0384 2.08614 25.4492 2.19141L24.5625 2.35156L23.6758 2.50781C23.0943 2.6117 22.5115 2.73526 21.9297 2.875L21.0391 3.08594L20.1523 3.30078C19.4755 3.46319 18.7947 3.44508 18.1211 3.25L17.2344 2.99609L16.3477 2.73828C15.7503 2.5653 15.2766 2.40413 14.9414 2.25391L14.4844 2.04688L14.0312 1.84375C13.9651 1.81406 13.7354 1.78744 13.2109 2.08984L11.5703 3.03516C11.0473 3.33691 10.5763 3.66789 10.1562 4.02344L9.48828 4.58594L8.82031 5.15234C8.34138 5.55765 7.81109 5.89628 7.23047 6.16797L6.41797 6.55078L5.60156 6.92969C5.12343 7.15359 4.70768 7.46636 4.35156 7.87109L3.75 8.55469L3.14844 9.24219C2.78606 9.65424 2.5006 10.1157 2.29688 10.6328L1.96094 11.4922L1.625 12.3477C1.4344 12.8318 1.38423 13.3281 1.47656 13.8477L1.63672 14.7617L1.80078 15.6758C1.92081 16.3512 1.90612 17.0336 1.75781 17.7148L1.55469 18.6406L1.35156 19.5703C1.23682 20.0974 1.27352 20.6034 1.45703 21.0977L1.78516 21.9766L2.10938 22.8516C2.31504 23.4055 2.57387 23.9388 2.88672 24.4492L3.87891 26.0664C4.12149 26.4613 4.49352 26.7065 5.05859 26.7852L7.14453 27.0742C7.91079 27.1811 8.57002 27.4444 9.09375 27.8867L10.4062 28.9961C10.7556 29.2915 11.15 29.4409 11.6055 29.4492L12.4648 29.4648L13.3203 29.4805C13.9583 29.4918 14.5908 29.6271 15.2148 29.8828L16.0742 30.2344L16.9297 30.5859C17.431 30.7915 17.9357 30.8708 18.4453 30.8281L20.2188 30.6797C20.79 30.6319 21.3614 30.5472 21.9336 30.4297L22.8203 30.25L23.7109 30.0664C24.3268 29.94 24.9451 29.8623 25.5625 29.832L26.4492 29.7891L27.3359 29.7422C27.9258 29.7133 28.5156 29.682 29.1055 29.6484L29.9961 29.6016L30.8828 29.5508C31.587 29.5109 32.2748 29.6986 32.9375 30.0859L33.8242 30.6055L34.7109 31.1211C35.2499 31.4362 35.7753 31.6135 36.2852 31.6641L37.1719 31.75L38.0586 31.8398C38.5942 31.893 39.1326 31.8574 39.6719 31.7305L40.5586 31.5195L41.4453 31.3125C42.0296 31.175 42.6147 31.0243 43.1992 30.8594L44.0859 30.6094L44.9727 30.3555C45.608 30.1762 46.2465 30.0911 46.8828 30.0977L48.6406 30.1133C49.2356 30.1194 49.8392 30.1416 50.4492 30.1797L51.3516 30.2383L52.2578 30.293C52.7253 30.3218 53.1231 30.1856 53.4805 29.8711L54.168 29.2695L54.8516 28.6641C55.3699 28.2076 55.9817 27.8891 56.6758 27.707L57.6094 27.4609L58.5469 27.2188C58.7775 27.1581 58.9265 27.0586 59.0273 26.9414C59.1293 26.8227 59.2111 26.6493 59.2461 26.3906L59.3789 25.3867L59.5156 24.3867C59.6184 23.6228 59.9241 22.97 60.4453 22.457L61.0977 21.8164L61.7461 21.1758C62.1063 20.8213 62.3185 20.4108 62.3945 19.9336L62.6758 18.1758C62.7696 17.5872 62.8715 16.9815 62.9844 16.3594L63.1562 15.4297L63.3242 14.5C63.4233 13.9541 63.3974 13.4111 63.25 12.8711L63 11.9531L62.75 11.0391C62.6063 10.5126 62.343 10.0574 61.9531 9.67188L61.2734 9.00391L60.5977 8.33203C60.1345 7.87398 59.7016 7.40193 59.3008 6.91797L58.1289 5.50391C57.7658 5.06545 57.3481 4.67227 56.875 4.32422L55.3594 3.20703C54.9097 2.8763 54.4127 2.65196 53.8672 2.52734L52.9453 2.31641L52.0273 2.10547C51.4551 1.97497 50.8841 1.91936 50.3164 1.9375L49.3984 1.96875L48.4844 1.99609C47.905 2.01461 47.3331 2.08919 46.7734 2.21875L45.8867 2.42578L45 2.62891C44.4117 2.76509 43.8227 2.90778 43.2344 3.05469L42.3438 3.27734L41.457 3.5C40.7423 3.67825 40.0315 3.58581 39.3438 3.25L38.4531 2.81641L37.5664 2.38281C37.0306 2.12113 36.5068 1.98295 35.9922 1.96094L35.1016 1.92578L34.2148 1.88672C33.6123 1.86121 33.0087 1.81577 32.4062 1.75L31.5195 1.65234L30.6328 1.55859C30.0863 1.49893 29.5396 1.51243 28.9922 1.60156Z" fill="#07F2B8"/>
</svg>
