<svg width="41" height="35" viewBox="0 0 41 35" fill="none" xmlns="http://www.w3.org/2000/svg">
  <style>
    #tail{transform-box:fill-box;transform-origin:100% 50%;animation:wag .6s ease-in-out infinite alternate}
    @keyframes wag{from{transform:rotate(8deg)}to{transform:rotate(-8deg)}}
  </style>
  <g id="fish">
    <path id="tail" d="M1 10C2.37888 10 3.74426 10.2069 5.01818 10.609C6.2921 11.011 7.44961 13.2571 8.42462 14C9.39964 14.7429 10.1731 13.9679 10.7007 14.9385C11.2284 15.9091 11.5 16.9494 11.5 18C11.5 19.0506 11.2284 20.0909 10.7007 21.0615C10.1731 22.0321 9.39964 21.2571 8.42462 22C7.44961 22.7429 6.29209 24.989 5.01818 25.391C3.74426 25.7931 2.37888 26 1 26L1 18L1 10Z" fill="#01FFC0"/>
    <g id="body">
      <path id="Subtract" d="M23.5 7C32.6127 7 40 14 40 18C40 22 32.6127 29 23.5 29C14.3873 29 7 20 7 18C7 16 14.3873 7 23.5 7Z" fill="#01FFC0"/>
      <path id="Ellipse 13" d="M17.5 2C18.8789 2 20.2443 2.20693 21.5182 2.60896C22.7921 3.011 23.9496 3.60028 24.9246 4.34315C25.8996 5.08601 26.6731 5.96793 27.2007 6.93853C27.7284 7.90914 28 8.94942 28 10C28 11.0506 27.7284 12.0909 27.2007 13.0615C26.6731 14.0321 25.8996 14.914 24.9246 15.6569C23.9496 16.3997 22.7921 16.989 21.5182 17.391C20.2443 17.7931 18.8789 18 17.5 18L17.5 10L17.5 2Z" fill="#01FFC0"/>
      <path id="Ellipse 14" d="M18.5 21C19.6162 21 20.7215 21.1681 21.7528 21.4948C22.7841 21.8214 23.7211 22.3002 24.5104 22.9038C25.2997 23.5074 25.9258 24.2239 26.353 25.0126C26.7801 25.8012 27 26.6464 27 27.5C27 28.3536 26.7801 29.1988 26.353 29.9874C25.9258 30.7761 25.2997 31.4926 24.5104 32.0962C23.7211 32.6998 22.7841 33.1786 21.7528 33.5052C20.7215 33.8319 19.6162 34 18.5 34L18.5 27.5L18.5 21Z" fill="#01FFC0"/>
      <ellipse id="Ellipse 15" cx="34" cy="16" rx="3" ry="3" transform="rotate(180 34 16)" fill="#171C2B"/>
    </g>
  </g>
</svg>
