<svg width="87" height="57" viewBox="0 0 87 57" fill="none" xmlns="http://www.w3.org/2000/svg">
<g id="sheep">
<rect id="front_r" x="32.9637" y="28.6124" width="3.86636" height="27.2249" rx="1.93318" transform="rotate(15 32.9637 28.6124)" fill="#171D2C" stroke="#07F2B8"/>
<rect id="rear_r" x="62.4854" y="28.6124" width="3.86636" height="27.2249" rx="1.93318" transform="rotate(15 62.4854 28.6124)" fill="#171D2C" stroke="#07F2B8"/>
<g id="body">
<path d="M22.8718 17.0539C22.8718 8.99102 29.4081 2.45479 37.4709 2.45479H70.5622C78.625 2.45479 85.1613 8.99102 85.1613 17.0539V17.0539C85.1613 25.1167 78.625 31.653 70.5622 31.653H37.4709C29.4081 31.653 22.8718 25.1167 22.8718 17.0539V17.0539Z" fill="#171D2C"/>
<path d="M67.0242 0.44698L67.5437 0.505574L68.0593 0.564168C68.4887 0.613117 68.9044 0.768 69.3015 1.01339L69.8171 1.3337L70.3367 1.65401C70.6203 1.82936 70.8831 1.91101 71.1296 1.91964L71.6492 1.93526L72.1687 1.95479C72.7189 1.97404 73.1515 2.28534 73.4656 2.74386L73.8445 3.29854L74.2234 3.85714C74.2566 3.90563 74.2843 3.92146 74.2937 3.92745C74.2998 3.9313 74.3024 3.9347 74.3093 3.93526C74.3351 3.93699 74.4366 3.92643 74.6335 3.79464L76.071 2.8337C76.339 2.65441 76.6944 2.48963 77.0632 2.5837C77.4731 2.68875 77.6651 3.04304 77.7507 3.34932L78.1492 4.77901C78.1986 4.95594 78.2628 5.03866 78.3054 5.07589C78.3408 5.10654 78.3934 5.13731 78.5007 5.13839L79.1296 5.14229L79.7546 5.15011C80.0383 5.15292 80.3189 5.22083 80.5554 5.3962C80.7948 5.5739 80.9391 5.82403 81.0125 6.09932L81.1648 6.66964L81.3171 7.24386C81.407 7.58115 81.5297 7.85223 81.6765 8.06417L81.9539 8.46651L82.2351 8.86886C82.3635 9.05373 82.5695 9.23319 82.8796 9.39229L83.9734 9.95479C84.3775 10.1621 84.7529 10.4173 85.0945 10.7243L85.5593 11.1462L86.0242 11.5642C86.4291 11.9283 86.658 12.3892 86.6648 12.9274L86.6726 13.5095L86.6765 14.0915C86.6835 14.6903 86.3406 15.2003 85.8406 15.6228L85.1726 16.1892L84.5046 16.7517C84.0849 17.106 84.0476 17.3035 84.0515 17.3571L84.0906 17.8259L84.1335 18.2946C84.163 18.6338 84.164 18.975 84.1375 19.3181L84.1023 19.7946L84.0632 20.2673C84.0417 20.5456 84.0491 20.8546 84.0906 21.1931L84.1609 21.7439L84.2273 22.2946C84.2802 22.7266 84.2453 23.1492 84.1218 23.5564L83.9695 24.0642L83.8171 24.5681C83.646 25.1321 83.185 25.4402 82.6218 25.5524L81.9617 25.6853L81.3015 25.8142C80.9903 25.8764 80.9013 25.9972 80.864 26.1189L80.5515 27.1501C80.4758 27.3971 80.3428 27.6198 80.1414 27.7907C79.9401 27.9612 79.6978 28.0544 79.4421 28.0915L78.8992 28.1696L78.3562 28.2517C78.3384 28.2543 78.3232 28.2527 78.2937 28.3024C78.2506 28.3758 78.2008 28.5293 78.1843 28.8064L78.1257 29.7478L78.071 30.6931C78.0498 31.0464 77.98 31.3791 77.825 31.6501C77.6599 31.9384 77.4036 32.1432 77.071 32.2204L76.5164 32.3493L75.9578 32.4782C75.5817 32.5655 75.2067 32.6464 74.8367 32.7204L73.7429 32.9392C73.2164 33.0443 72.7103 32.8974 72.2507 32.5798L71.6882 32.1931L71.1257 31.8024C70.9991 31.7151 70.9098 31.6945 70.8523 31.6931C70.7986 31.6921 70.7253 31.7077 70.6257 31.779L70.1101 32.1501L69.5945 32.5173C69.1825 32.8127 68.7328 32.9768 68.2546 32.9587L67.7351 32.9392L67.2195 32.9196C66.8327 32.9046 66.4454 32.842 66.0632 32.7321L65.5476 32.5837L65.0281 32.4353C64.625 32.3193 64.2336 32.1248 63.8523 31.8649L63.3328 31.5134L62.8171 31.1579C62.701 31.0787 62.6069 31.0508 62.5359 31.0446C62.4673 31.0388 62.3887 31.0529 62.2898 31.1032L61.7703 31.3649L61.2546 31.6267C60.9337 31.7899 60.6086 31.9881 60.282 32.2204L59.7664 32.5915L59.2468 32.9587C59.0176 33.1217 58.7609 33.2323 58.4812 33.2556C58.1991 33.2791 57.9304 33.2097 57.6843 33.0759L57.1648 32.7946L56.6492 32.5134C56.327 32.3378 56.0046 32.196 55.6882 32.0876L55.1726 31.9079L54.657 31.7321C54.4973 31.6774 54.3187 31.6907 54.0789 31.8689L53.5632 32.2517L53.0437 32.6345C52.6566 32.922 52.2539 33.1283 51.8328 33.2321L51.3132 33.361L50.7976 33.486C50.3557 33.5949 49.9109 33.5715 49.4773 33.4196L48.9578 33.236L48.4421 33.0564C47.9956 32.8998 47.5836 32.5936 47.2039 32.1814L46.6882 31.6189L46.1687 31.0564C45.8862 30.7496 45.7107 30.7336 45.6101 30.7556L45.0906 30.8728L44.575 30.986C44.2421 31.0594 43.9085 31.1443 43.575 31.2439L43.0593 31.4001L42.5398 31.5524C42.0372 31.7024 41.5435 31.6092 41.0945 31.3259L40.5789 30.9978L40.0593 30.6735C39.8523 30.543 39.6935 30.539 39.5164 30.6267L38.9968 30.8845L38.4812 31.1423C38.0934 31.3354 37.6966 31.4639 37.2976 31.5173L36.7937 31.5837L36.2859 31.654C36.0265 31.6887 35.7101 31.7939 35.3367 31.9978L34.7273 32.3337L34.114 32.6696C33.8388 32.8198 33.5124 32.9029 33.1804 32.8024C32.8516 32.7029 32.6257 32.4548 32.4734 32.1814L31.7781 30.9314C31.5724 30.5621 31.3674 30.352 31.1843 30.2478L30.7468 30.0017L30.3132 29.7556C30.135 29.6544 29.8675 29.5915 29.4734 29.6189L28.7898 29.6657L28.1023 29.7126C27.7748 29.7352 27.4094 29.6535 27.1765 29.3259C26.9709 29.0354 26.9586 28.667 27.0007 28.3415L27.1101 27.4821L27.2234 26.6228C27.2541 26.3852 27.222 26.2665 27.2 26.2204C27.1913 26.2028 27.1826 26.1939 27.1765 26.1892C27.1681 26.1829 27.149 26.1719 27.1101 26.1618L26.5164 26.0095L25.9226 25.8532C25.5049 25.7454 25.0705 25.6067 24.6218 25.4314L23.325 24.9235C23.043 24.8133 22.7894 24.6404 22.6218 24.3806C22.4512 24.1148 22.4036 23.8105 22.4421 23.5095L22.5242 22.8767L22.6062 22.2478C22.6612 21.8202 22.7243 21.4166 22.7937 21.0368L22.8953 20.4782L22.9968 19.9235C23.047 19.6488 23.0153 19.4036 22.9109 19.1735L22.4656 18.1892C22.2503 17.7151 22.2706 17.2246 22.5125 16.7634L23.0359 15.7712C23.0832 15.6811 23.1176 15.5188 22.8601 15.1814L22.3835 14.5524L21.9031 13.9235C21.7065 13.6658 21.5174 13.2687 21.7273 12.861C21.9078 12.5114 22.295 12.3578 22.6218 12.2751L23.5437 12.0407L24.4695 11.8064C24.7362 11.7387 24.8411 11.6611 24.8718 11.6267C24.8773 11.6204 24.8794 11.6155 24.8796 11.6149C24.8802 11.6115 24.8818 11.5923 24.8718 11.5524L24.5593 10.3024C24.443 9.835 24.4035 9.36121 24.4382 8.88839L24.4851 8.26339L24.532 7.63448C24.5722 7.08691 24.8021 6.6237 25.2429 6.30636L26.1648 5.64229C26.4517 5.43602 26.7197 5.21471 26.9656 4.97432L27.3601 4.5837L27.7585 4.19698C28.2099 3.75621 28.8169 3.74311 29.407 3.93917L30.8992 4.43917C31.3377 4.58506 31.5243 4.51909 31.5984 4.46651L32.0007 4.18526L32.3992 3.90011C32.5628 3.784 32.7704 3.52861 32.9929 3.05636L33.7039 1.54854C33.843 1.25372 34.0245 0.992333 34.2664 0.810262C34.5198 0.6198 34.8172 0.532505 35.1335 0.560262L36.2898 0.661824C36.7307 0.700505 37.2022 0.853158 37.4304 1.29073L37.5906 1.60323L37.7546 1.91182C37.8049 2.00843 37.9475 2.17607 38.2703 2.3962L38.7859 2.74776L39.3054 3.09932C39.4187 3.17656 39.5062 3.20102 39.571 3.20479C39.6339 3.20824 39.7124 3.19544 39.8132 3.13839L40.3289 2.84542L40.8484 2.55245C41.2089 2.34862 41.5709 2.17021 41.9343 2.01729L42.4539 1.79854L42.9695 1.57979C43.3192 1.43269 43.6704 1.29207 44.0203 1.15792L44.5359 0.962605L45.0554 0.763387C45.493 0.595739 45.9425 0.566175 46.3914 0.681355L46.9109 0.814168L47.4265 0.94698C47.7475 1.0295 48.0685 1.08707 48.3875 1.11886L48.907 1.16964L49.4226 1.22042C49.9466 1.27261 50.3994 1.59215 50.7859 2.03682L51.3015 2.63057L51.821 3.22823C51.9554 3.38274 52.0494 3.42974 52.0945 3.44307C52.1198 3.45021 52.154 3.45626 52.2234 3.41573L52.7429 3.11104L53.2585 2.80636C53.6081 2.60079 53.9595 2.40331 54.3093 2.21261L54.825 1.93136L55.3445 1.65011C55.7266 1.44178 56.1158 1.29014 56.5125 1.20479L57.032 1.09542L57.5476 0.982137C57.9013 0.906093 58.2561 0.842079 58.6101 0.786824L59.1296 0.704793L59.6453 0.622762C60.0592 0.558192 60.4739 0.582545 60.8835 0.689168L61.4031 0.82198L61.9187 0.958699C62.2636 1.04854 62.609 1.13856 62.9539 1.22823L63.4734 1.36104L63.989 1.49776C64.1877 1.54939 64.3957 1.5225 64.6414 1.37667L65.1609 1.06807L65.6765 0.763387C66.1 0.511606 66.5544 0.393615 67.0242 0.44698ZM66.9109 1.43917C66.6912 1.41433 66.4542 1.46463 66.1882 1.62276L65.6726 1.92745L65.1531 2.23604C64.7095 2.49975 64.2296 2.58989 63.739 2.46261L63.2195 2.32979L62.7039 2.19698C62.3593 2.10741 62.0132 2.0172 61.6687 1.92745L61.1492 1.79073L60.6335 1.65792C60.3538 1.58504 60.077 1.56823 59.8015 1.61104L59.282 1.69307L58.7664 1.77511C58.431 1.82742 58.0942 1.88654 57.7585 1.9587L57.2429 2.07198L56.7234 2.18136C56.4303 2.24437 56.1286 2.35743 55.821 2.52511L55.3054 2.81026L54.7859 3.09151C54.4463 3.27664 54.1062 3.46981 53.7664 3.66964L53.2507 3.97432L52.7312 4.27901C52.4567 4.4401 52.144 4.49766 51.825 4.40792C51.5249 4.32341 51.2751 4.12347 51.0671 3.88448L50.5476 3.28682L50.032 2.69307C49.7292 2.34472 49.4909 2.23347 49.325 2.21651L48.8054 2.16182L48.2898 2.11104C47.9194 2.07415 47.5488 2.01034 47.1804 1.91573L46.6609 1.78292L46.1453 1.65011C45.9047 1.58826 45.6628 1.60037 45.4109 1.69698L44.8953 1.8962L44.3757 2.09151C44.0361 2.22176 43.696 2.3587 43.3562 2.50167L42.8406 2.72042L42.321 2.93917C41.9956 3.07614 41.669 3.23782 41.3406 3.42354L40.821 3.71651L40.3054 4.00948C40.062 4.14715 39.7942 4.22105 39.5125 4.20479C39.2328 4.18853 38.9743 4.08499 38.7429 3.92745L38.2234 3.57198L37.7078 3.22042C37.3409 2.97022 37.0292 2.69389 36.864 2.37667L36.5437 1.75167V1.75557L36.5398 1.75167C36.5358 1.74799 36.5244 1.73982 36.5007 1.72823C36.4502 1.70353 36.3582 1.67155 36.2039 1.65792L35.6257 1.60714L35.0437 1.55636C34.9755 1.55069 34.925 1.56812 34.8679 1.61104C34.799 1.66289 34.7036 1.76793 34.6062 1.97432L33.8953 3.48214C33.6443 4.01472 33.3474 4.45382 32.9773 4.71651L32.5789 5.00167L32.1765 5.28292C31.717 5.60855 31.139 5.56954 30.5828 5.38448L29.8367 5.13839L29.0906 4.88839C28.6891 4.75518 28.5349 4.83689 28.4578 4.91182L28.0593 5.29854L27.6648 5.68917C27.382 5.96566 27.0738 6.21971 26.7468 6.45479L26.2898 6.78682L25.8289 7.11886C25.6562 7.24295 25.5493 7.41928 25.5281 7.7087L25.4812 8.3337L25.4343 8.96261C25.4076 9.32721 25.4406 9.69308 25.532 10.0603L25.8445 11.3103C25.9307 11.6569 25.8705 12.0117 25.6179 12.2946C25.393 12.5465 25.059 12.6873 24.7117 12.7751L22.8679 13.2439C22.7939 13.2626 22.739 13.289 22.696 13.3064L22.7 13.3181L23.1765 13.947L23.657 14.572C24.0386 15.0721 24.223 15.6638 23.9226 16.236L23.3992 17.2282C23.2941 17.4286 23.2939 17.5947 23.3757 17.7751L23.821 18.7595C24.0141 19.1844 24.0624 19.6374 23.9773 20.1032L23.8757 20.6579L23.7742 21.2165C23.7084 21.5768 23.6514 21.9647 23.5984 22.3767L23.4343 23.6345C23.4191 23.7527 23.4433 23.8088 23.4617 23.8376C23.4833 23.8713 23.5392 23.9315 23.6882 23.9899L24.9851 24.4978C25.4014 24.6605 25.7984 24.7918 26.1726 24.8884L27.3601 25.1931C27.6855 25.277 27.9516 25.4757 28.1023 25.7907C28.241 26.0813 28.2548 26.4185 28.2117 26.7517L28.1023 27.611L27.989 28.4704C27.9745 28.5828 27.9784 28.6604 27.9851 28.7087V28.7126C27.9977 28.7131 28.0156 28.7179 28.0359 28.7165L29.4031 28.6228C29.9222 28.5867 30.4035 28.6565 30.8054 28.8845L31.2429 29.1306L31.6765 29.3806C32.0731 29.606 32.3906 29.9791 32.6492 30.4431L33.0007 31.0681L33.3484 31.6931C33.3874 31.7632 33.42 31.8053 33.4421 31.8259C33.4525 31.8355 33.4616 31.8391 33.4656 31.8415L33.4695 31.8454H33.4968C33.522 31.8411 33.5676 31.8267 33.6335 31.7907L34.8601 31.1189C35.3038 30.8768 35.7371 30.7175 36.1531 30.6618L36.6609 30.5954L37.1648 30.5251C37.4416 30.4881 37.7337 30.3982 38.0359 30.2478L38.5515 29.9899L39.071 29.7321C39.5826 29.4782 40.1128 29.522 40.5945 29.8259L41.1101 30.154L41.6296 30.4782C41.8707 30.6303 42.0672 30.6513 42.2546 30.5954L42.7703 30.4392L43.2898 30.2868C43.6461 30.1805 44.0032 30.0881 44.3601 30.0095L44.8757 29.8962L45.3953 29.779C45.9834 29.6499 46.4968 29.9362 46.9031 30.3767L47.4226 30.9392L47.9382 31.5017C48.2483 31.8385 48.5309 32.0258 48.7742 32.111L49.2898 32.2946L49.8093 32.4743C50.0651 32.5638 50.3118 32.5782 50.5593 32.5173L51.075 32.3884L51.5945 32.2595C51.8623 32.1932 52.1482 32.0579 52.45 31.8337L52.9656 31.4509L53.4851 31.0642C53.9346 30.7306 54.4479 30.606 54.9773 30.7868L55.4968 30.9626L56.0125 31.1423C56.386 31.2703 56.758 31.4341 57.1257 31.6345L57.6453 31.9157L58.1609 32.197C58.2595 32.2507 58.3367 32.2647 58.3992 32.2595C58.4641 32.2539 58.5536 32.2242 58.6687 32.1423L59.1843 31.7751L59.7039 31.4079C60.0669 31.1496 60.4328 30.9236 60.8015 30.736L61.3171 30.4743L61.8367 30.2087C62.0816 30.0844 62.3465 30.0249 62.6218 30.0485C62.8958 30.0723 63.1508 30.1776 63.3796 30.3337L63.8953 30.6853L64.4148 31.0368C64.7229 31.2469 65.0191 31.392 65.3054 31.4743L65.821 31.6228L66.3406 31.7712C66.6476 31.8595 66.9522 31.9077 67.2546 31.9196L67.7742 31.9392L68.2898 31.9587C68.5006 31.9669 68.7392 31.9009 69.0125 31.7048L69.5281 31.3376L70.0398 30.9665C70.2827 30.7922 70.563 30.6877 70.8679 30.6931C71.1694 30.6986 71.4493 30.8116 71.696 30.9821L72.2585 31.3689L72.821 31.7595C73.1109 31.9594 73.3447 31.9993 73.5476 31.9587L74.6414 31.7399C75.001 31.668 75.3651 31.5905 75.7312 31.5056L76.2898 31.3767L76.8445 31.2478C76.8828 31.2389 76.9187 31.2222 76.9578 31.154C77.0068 31.0683 77.0547 30.9048 77.071 30.6306L77.1296 29.6892L77.1843 28.7478C77.2052 28.3972 77.274 28.0654 77.4304 27.7985C77.6004 27.5091 77.8673 27.3095 78.2117 27.2595L79.2976 27.1032C79.403 27.0879 79.4602 27.0563 79.4929 27.029C79.5249 27.0019 79.565 26.9535 79.5945 26.8571L79.7507 26.3415L79.9109 25.8259C80.0842 25.2609 80.5394 24.9469 81.1062 24.8337L81.7664 24.7048L82.4265 24.572C82.7428 24.5089 82.8262 24.3906 82.8601 24.279L83.0125 23.7712L83.1648 23.2673C83.2461 22.9994 83.2719 22.7161 83.2351 22.4157L83.1687 21.8649L83.0984 21.3142C83.0502 20.921 83.0399 20.5467 83.0671 20.1931L83.1023 19.7165L83.1414 19.2399C83.1636 18.9509 83.1622 18.6643 83.1375 18.3806L83.0945 17.9118L83.0554 17.447C83.0056 16.875 83.3923 16.381 83.8601 15.986L85.196 14.861C85.5853 14.5323 85.6786 14.2785 85.6765 14.1032L85.6726 13.5212L85.6648 12.9392C85.6616 12.7036 85.5711 12.4996 85.3562 12.3064L84.4265 11.4704C84.148 11.22 83.8465 11.0089 83.5203 10.8415L82.9695 10.5603L82.4226 10.279C82.0026 10.0635 81.6541 9.78628 81.4109 9.43526L80.8562 8.63057C80.6317 8.30633 80.4657 7.92733 80.3523 7.50167L80.2 6.92745L80.0476 6.35714C80.0193 6.25073 79.9822 6.2122 79.9617 6.19698C79.9384 6.17974 79.88 6.15165 79.7468 6.15011L79.1179 6.14229L78.489 6.13839C78.1795 6.13495 77.8852 6.03911 77.6453 5.82979C77.4126 5.6265 77.272 5.3483 77.1882 5.04854L76.9851 4.3337L76.7859 3.61886C76.7822 3.60582 76.7777 3.59421 76.7742 3.5837C76.7374 3.60047 76.6862 3.62525 76.6257 3.66573L75.1882 4.62667C74.906 4.81543 74.5832 4.95423 74.2429 4.93136C73.8733 4.90629 73.5909 4.69992 73.3992 4.41964L72.6414 3.31026C72.4492 3.02939 72.277 2.95981 72.1335 2.95479L71.614 2.93526L71.0945 2.91964C70.6469 2.90398 70.2158 2.75685 69.8093 2.50557L69.2937 2.18526L68.7742 1.86495C68.4817 1.68436 68.2062 1.58602 67.946 1.55636L67.4304 1.49776L66.9109 1.43917Z" fill="#07F2B8"/>
</g>
<rect id="front_l" x="38.8934" y="29.6131" width="3.86636" height="27.2249" rx="1.93318" transform="rotate(-15 38.8934 29.6131)" fill="#171D2C" stroke="#07F2B8"/>
<rect id="rear_r_2" x="68.2547" y="29.6131" width="3.86636" height="27.2249" rx="1.93318" transform="rotate(-15 68.2547 29.6131)" fill="#171D2C" stroke="#07F2B8"/>
<g id="head">
<rect id="Rectangle 56" x="12.4685" y="4.40958" width="26.2516" height="26.7383" rx="13.1258" fill="#171D2C" stroke="#07F2B8"/>
<rect id="Rectangle 59" x="14.6125" y="9.28106" width="8.73272" height="8.73272" rx="4.36636" fill="#07F2B8" stroke="#07F2B8"/>
<rect id="Rectangle 61" x="25.3184" y="9.28106" width="8.73272" height="8.73272" rx="4.36636" fill="#07F2B8" stroke="#07F2B8"/>
<rect id="Rectangle 60" x="17.5188" y="14.1341" width="2.43318" height="2.43318" rx="1.21659" fill="#171D2C"/>
<rect id="Rectangle 62" x="28.2249" y="14.1341" width="2.43318" height="2.43318" rx="1.21659" fill="#171D2C"/>
<rect id="ear_r" x="14.5901" y="1.70711" width="5.25257" height="19.6335" rx="2.62629" transform="rotate(45 14.5901 1.70711)" fill="#171D2C" stroke="#07F2B8"/>
<rect id="ear_l" y="0.707107" width="5.25257" height="19.6335" rx="2.62629" transform="matrix(-0.707107 0.707107 0.707107 0.707107 35.8093 1.20711)" fill="#171D2C" stroke="#07F2B8"/>
<path id="Line 1" d="M14.5991 13.1608H23.3586" stroke="#171D2C" stroke-width="2" stroke-linecap="round"/>
<path id="Line 2" d="M25.3052 13.1608H34.0646" stroke="#171D2C" stroke-width="2" stroke-linecap="round"/>
</g>
</g>
</svg>
